<?xml version="1.0" encoding="UTF-8" standalone="no"?>
<!-- Created with Inkscape (http://www.inkscape.org/) -->

<svg
   xmlns:dc="http://purl.org/dc/elements/1.1/"
   xmlns:cc="http://creativecommons.org/ns#"
   xmlns:rdf="http://www.w3.org/1999/02/22-rdf-syntax-ns#"
   xmlns:svg="http://www.w3.org/2000/svg"
   xmlns="http://www.w3.org/2000/svg"
   version="1.1"
   width="100%"
   height="100%"
   viewBox="0 0 205 33"
   id="svg3043"
   xml:space="preserve"><metadata
     id="metadata3061"><rdf:RDF><cc:Work
         rdf:about=""><dc:format>image/svg+xml</dc:format><dc:type
           rdf:resource="http://purl.org/dc/dcmitype/StillImage" /><dc:title></dc:title></cc:Work></rdf:RDF></metadata><defs
     id="defs3059" /><g
     id="g3045"
     style="fill:#100e0d"><path
       d="m 52.065,109.04 -4.3031,-6.1912 h 4.3031 v -0.98145 h -5.813 v 0.98145 l 4.2283,5.9643 h -3.851 v 0.90667 h 5.4358 v -0.67979 m -12.23,-3.17 c 0,0.67978 0.07563,1.4344 0.37728,1.9629 0.30166,0.67978 1.0571,1.1327 1.8116,1.1327 0.67978,0 1.2839,-0.37729 1.6612,-0.90583 0.45291,-0.67978 0.52854,-1.4344 0.52854,-2.1898 0,-0.67895 -0.07563,-1.3587 -0.37728,-2.0385 -0.37812,-0.67978 -1.0571,-1.1327 -1.8125,-1.1327 -0.75457,0 -1.4344,0.37812 -1.736,0.98144 -0.37728,0.67979 -0.45291,1.5108 -0.45291,2.1898 z m -1.3596,0 c 0,-2.0385 1.0571,-4.1527 3.3981,-4.1527 2.4158,0 3.6241,1.9629 3.6241,4.1527 0,2.0385 -1.1327,4.077 -3.3981,4.077 -2.3402,0 -3.6241,-1.8873 -3.6241,-4.077 m -6.8701,0 c 0,0.67978 0.07563,1.4344 0.37729,1.9629 0.37728,0.67978 1.0571,1.1327 1.8125,1.1327 0.67894,0 1.3587,-0.37729 1.736,-0.90583 0.37728,-0.67978 0.45291,-1.4344 0.45291,-2.1898 0,-0.67895 -0.07563,-1.3587 -0.37728,-2.0385 -0.37729,-0.67978 -0.98145,-1.1327 -1.8116,-1.1327 -0.75541,0 -1.4352,0.37812 -1.7369,0.98144 -0.37728,0.67979 -0.45291,1.5108 -0.45291,2.1898 z m -1.3587,0 c 0,-2.0385 1.0571,-4.1527 3.3972,-4.1527 2.4158,0 3.6989,1.9629 3.6989,4.1527 0,2.0385 -1.1319,4.077 -3.472,4.077 -2.341,0 -3.6241,-1.8873 -3.6241,-4.077 m -7.3995,-2.9443 v 4.0014 h 2.4166 c 0.60332,0 1.2831,0 1.736,-0.37729 0.52854,-0.37728 0.8302,-1.0571 0.8302,-1.6612 0,-0.60416 -0.22604,-1.1327 -0.67894,-1.51 -0.45291,-0.37728 -1.1327,-0.45291 -1.7369,-0.45291 h -2.5671 z m 0,4.9828 v 3.5485 h 2.4166 c 0.52854,0 0.9806,0 1.4344,-0.22687 0.52854,-0.30166 0.8302,-0.8302 0.8302,-1.4344 0,-0.52853 -0.30166,-1.1318 -0.67978,-1.4344 -0.52854,-0.45291 -1.2831,-0.45291 -1.9629,-0.45291 h -2.0385 z m 2.6427,-6.0399 c 0.98145,0 1.8116,0.0756 2.5671,0.67979 0.75457,0.60332 1.0571,1.3587 1.0571,2.2646 0,1.3596 -0.90582,2.4166 -2.1898,2.7183 1.1327,0.30166 1.8873,1.2075 1.8873,2.3402 0,0.90582 -0.45291,1.6612 -1.1319,2.1141 -0.75541,0.45291 -1.3596,0.52853 -2.1898,0.52853 h -3.9258 v -10.645 h 3.9258"
       transform="matrix(1.25,0,0,-1.25,-14.963,150.46)"
       id="path3047"
       style="fill:#e6e6e6;fill-rule:evenodd" /><path
       d="m 58.936,98.396 h 0.98145 V 114.78 H 58.936 V 98.396 z"
       transform="matrix(1.25,0,0,-1.25,-14.963,150.46)"
       id="path3049"
       style="fill:#e6e6e6" /><path
       d="m 71.826,9.8203 -4.342,13.309 H 68.9 l 1.227,-3.871 h 4.906 l 1.322,3.871 h 1.604 l -4.34,-13.309 -1.793,3e-4 z m 7.643,0 v 13.309 h 1.416 V 9.8203 l -1.416,3e-4 z m 4.531,0 v 13.309 h 1.416 V 9.8203 L 84,9.8206 z m -11.42,1.7927 2.076,6.325 h -4.058 l 1.982,-6.325 z m 19.441,1.416 c -2.925,0 -4.529,2.454 -4.529,5.192 0,2.736 1.511,5.095 4.436,5.095 1.887,0 3.585,-1.131 4.246,-2.925 l -1.416,-0.188 c -0.472,1.132 -1.416,1.887 -2.643,1.887 -1.038,0 -2.171,-0.659 -2.642,-1.604 -0.377,-0.66 -0.377,-1.415 -0.377,-2.17 h 7.172 c 0.094,-2.737 -1.226,-5.287 -4.247,-5.287 z m 10.949,0 c -1.32,0 -2.55,0.851 -3.021,1.889 h -0.094 v -1.606 h -1.416 v 9.817 h 1.51 v -5.191 c 0,-0.944 0.191,-1.888 0.751,-2.643 0.57,-0.566 1.23,-0.943 2.08,-0.943 0.66,0 1.32,0.282 1.7,0.849 0.28,0.565 0.19,1.226 0.19,1.793 v 6.135 h 1.51 v -5.475 c 0,-0.944 0.09,-2.264 -0.38,-3.113 -0.66,-1.039 -1.6,-1.512 -2.83,-1.512 z m -10.949,1.133 c 1.7,0 2.738,1.416 2.643,3.02 h -5.473 c 0,-1.51 1.132,-3.02 2.83,-3.02 z"
       id="path3051"
       style="fill:#e6e6e6;fill-rule:evenodd" /><path
       d="m 125.52,9.8203 v 13.309 h 1.52 v -6.418 h 6.13 v 6.418 h 1.6 V 9.8203 l -1.6,3e-4 v 5.6637 h -6.13 V 9.8206 h -1.52 z m 37.94,0 V 11.52 h 1.7 V 9.8203 h -1.7 z m 4.72,0 v 13.309 h 1.42 V 9.8203 l -1.42,3e-4 z m 6.33,0.8517 -1.52,0.094 v 2.453 h -1.69 v 1.226 h 1.69 v 5.662 c 0,1.888 0.67,3.209 2.84,3.209 l 1.41,-0.187 v -1.133 l -1.13,0.094 c -1.23,0 -1.6,-0.66 -1.6,-1.793 v -5.852 h 2.17 v -1.226 h -2.17 v -2.547 z m -33.22,2.357 c -1.8,0 -3.87,0.661 -4.16,2.737 l 1.33,0.189 c 0.28,-1.321 1.5,-1.697 2.64,-1.697 1.7,0 2.45,0.564 2.45,2.357 v 0.379 h -1.23 c -1.22,0 -2.64,0.094 -3.68,0.567 -1.04,0.471 -1.79,1.604 -1.79,2.736 0,1.982 1.51,3.019 3.4,3.019 1.51,0 2.64,-0.66 3.3,-2.076 l 0.19,1.889 h 1.51 c -0.19,-0.661 -0.28,-1.418 -0.28,-2.078 v -3.869 c 0,-1.038 0,-2.36 -0.76,-3.209 -0.75,-0.849 -1.89,-0.944 -2.92,-0.944 z m 10.66,0 c -1.32,0 -2.45,0.944 -2.93,1.983 v -1.7 h -1.41 v 9.817 h 1.51 v -5.664 c 0,-0.755 0.09,-1.604 0.56,-2.264 0.48,-0.472 1.14,-0.943 1.8,-0.943 0.66,0 1.32,0.376 1.7,0.943 0.28,0.472 0.28,1.133 0.28,1.699 v 6.229 h 1.51 v -5.285 c 0,-0.943 0,-1.7 0.57,-2.455 0.37,-0.661 1.13,-1.131 1.88,-1.131 0.66,0 1.32,0.376 1.61,1.037 0.28,0.566 0.28,1.322 0.28,1.982 v 5.852 h 1.51 v -5.852 c 0,-0.943 0,-1.983 -0.47,-2.832 -0.47,-0.849 -1.42,-1.416 -2.46,-1.416 -1.51,0 -2.64,0.944 -3.2,2.172 -0.19,-1.133 -1.33,-2.172 -2.74,-2.172 z m 30.58,0 c -3.02,0 -4.53,2.361 -4.53,5.098 0,2.548 1.32,5.189 4.24,5.189 3.02,0 4.53,-2.452 4.53,-5.189 0,-2.548 -1.41,-5.098 -4.24,-5.098 z m 10.76,0 c -1.33,0 -2.55,0.851 -3.02,1.889 v -1.606 h -1.51 v 9.817 h 1.51 v -5.191 c 0,-0.944 0.18,-1.888 0.85,-2.643 0.47,-0.566 1.22,-0.943 1.98,-0.943 0.66,0 1.32,0.282 1.69,0.849 0.29,0.565 0.29,1.226 0.29,1.793 v 6.135 h 1.51 v -5.475 c 0,-0.944 0,-2.264 -0.47,-3.113 -0.66,-1.039 -1.61,-1.512 -2.83,-1.512 z m -29.73,0.283 v 9.815 h 1.51 v -9.815 h -1.51 z m 18.78,0.946 c 0.94,0 1.7,0.47 2.17,1.131 0.56,0.849 0.66,1.794 0.66,2.738 0,0.849 -0.1,1.697 -0.47,2.547 -0.48,0.85 -1.32,1.416 -2.36,1.416 -0.85,0 -1.7,-0.473 -2.08,-1.227 -0.47,-0.849 -0.56,-1.887 -0.56,-2.736 0,-0.85 0.09,-1.794 0.47,-2.455 0.38,-0.85 1.22,-1.414 2.17,-1.414 z m -40.02,3.869 h 1.23 v 0.66 c 0,1.699 -1.23,3.303 -3.02,3.303 -1.23,0 -2.17,-0.473 -2.17,-1.699 0,-1.981 2.17,-2.264 3.96,-2.264 z"
       id="path3053"
       style="fill:#e6e6e6;fill-rule:evenodd" /><path
       d="m 103.86,98.396 h 0.98145 V 114.78 H 103.86 V 98.396 z"
       transform="matrix(1.25,0,0,-1.25,-14.963,150.46)"
       id="path3055"
       style="fill:#e6e6e6" /></g></svg>