<svg xmlns:rdf="http://www.w3.org/1999/02/22-rdf-syntax-ns#" xmlns="http://www.w3.org/2000/svg" enable-background="new 0 0 235.061 55" xml:space="preserve" height="55px" viewBox="0 0 235.061 55" width="235.06px" version="1.1" y="0px" x="0px" xmlns:cc="http://creativecommons.org/ns#" xmlns:xlink="http://www.w3.org/1999/xlink" xmlns:dc="http://purl.org/dc/elements/1.1/"><defs><clipPath id="SVGID_2_"><use overflow="visible" xlink:href="#SVGID_1_"/></clipPath><rect id="SVGID_1_" y="-339.79" width="1224" x="-468.66" height="792"/></defs><path d="m63.287 27.403v-0.124c0-12.331 9.295-22.432 22.618-22.432 8.18 0 13.075 2.727 17.103 6.693l-6.072 7.002c-3.347-3.036-6.755-4.895-11.092-4.895-7.312 0-12.58 6.073-12.58 13.508v0.124c0 7.436 5.143 13.633 12.58 13.633 4.957 0 7.993-1.983 11.401-5.081l6.073 6.134c-4.461 4.771-9.418 7.746-17.785 7.746-12.764 0-22.246-9.853-22.246-22.308" clip-path="url(#SVGID_2_)" fill="#455464"/><polygon clip-path="url(#SVGID_2_)" points="120.48 22.756 138.08 22.756 138.08 5.591 147.62 5.591 147.62 48.967 138.08 48.967 138.08 31.555 120.48 31.555 120.48 48.967 110.94 48.967 110.94 5.591 120.48 5.591" fill="#455464"/><polygon clip-path="url(#SVGID_2_)" points="191.99 14.081 168.76 14.081 168.76 22.88 189.2 22.88 189.2 31.369 168.76 31.369 168.76 40.478 192.3 40.478 192.3 48.967 159.27 48.967 159.27 5.591 191.99 5.591" fill="#455464"/><polygon clip-path="url(#SVGID_2_)" points="235.06 14.267 211.58 14.267 211.58 23.499 232.27 23.499 232.27 32.175 211.58 32.175 211.58 48.967 202.03 48.967 202.03 5.591 235.06 5.591" fill="#455464"/><path d="m27.501 39.886c-6.83 0-12.386-5.556-12.386-12.386s5.556-12.386 12.386-12.386c5.638 0 10.403 3.787 11.897 8.949h4.793c-1.595-7.753-8.472-13.602-16.691-13.602-9.395 0-17.039 7.644-17.039 17.039s7.644 17.038 17.039 17.038c8.219 0 15.096-5.848 16.691-13.601h-4.793c-1.494 5.163-6.259 8.949-11.897 8.949" clip-path="url(#SVGID_2_)" fill="#455464"/><path d="m19.152 35.849c2.139 2.139 5.093 3.464 8.349 3.464v-4.938c-1.898 0-3.617-0.77-4.861-2.014l-3.488 3.488z" clip-path="url(#SVGID_2_)" fill="#455464"/><path d="m15.688 27.5c0 1.691 0.36 3.299 1.002 4.755l4.518-1.987c-0.373-0.847-0.582-1.783-0.582-2.768 0-3.797 3.079-6.875 6.875-6.875v-4.938c-6.514-0.001-11.813 5.299-11.813 11.813" clip-path="url(#SVGID_2_)" fill="#f38b00"/><path d="m31.785 16.491-1.791 4.604c1.462 0.57 2.683 1.624 3.461 2.968h5.348c-1.056-3.468-3.668-6.264-7.018-7.572" clip-path="url(#SVGID_2_)" fill="#455464"/><path d="m29.994 33.905 1.791 4.604c3.35-1.309 5.962-4.104 7.019-7.572h-5.349c-0.779 1.344-1.999 2.398-3.461 2.968" clip-path="url(#SVGID_2_)" fill="#f38b00"/><path d="m5.646 34.108c-0.079-0.259-0.153-0.52-0.222-0.782-0.004-0.016-0.008-0.032-0.013-0.047-0.064-0.243-0.123-0.487-0.179-0.731-0.012-0.05-0.021-0.1-0.033-0.15-0.047-0.211-0.09-0.422-0.131-0.635-0.019-0.094-0.034-0.189-0.051-0.284-0.03-0.169-0.06-0.339-0.086-0.509-0.022-0.146-0.042-0.292-0.061-0.438-0.134-0.996-0.206-2.008-0.206-3.033h-4.664c-0.001 1.118 0.069 2.222 0.201 3.311h-0.001c0.003 0.024 0.007 0.048 0.01 0.071 0.037 0.297 0.078 0.593 0.124 0.887 0.013 0.081 0.027 0.161 0.041 0.242 0.04 0.241 0.082 0.483 0.128 0.723 0.025 0.127 0.052 0.254 0.078 0.381 0.04 0.191 0.08 0.382 0.124 0.571 0.038 0.167 0.081 0.333 0.122 0.499 0.038 0.148 0.074 0.297 0.114 0.445 0.053 0.196 0.109 0.391 0.166 0.585 0.024 0.082 0.045 0.165 0.069 0.245l0.003-0.001c0.322 1.066 0.704 2.105 1.147 3.112l4.275-1.879c-0.37-0.836-0.687-1.698-0.955-2.583z" clip-path="url(#SVGID_2_)" fill="#455464"/><path d="m27.501 50.336c-6.296 0-12.003-2.563-16.138-6.699l-3.305 3.305c4.976 4.977 11.849 8.058 19.443 8.058 14.024 0 25.595-10.497 27.287-24.062h-4.708c-1.663 10.967-11.155 19.398-22.579 19.398" clip-path="url(#SVGID_2_)" fill="#f38b00"/><path d="m27.501 4.663c5.115 0 9.841 1.691 13.651 4.543l2.795-3.746c-4.586-3.429-10.279-5.46-16.446-5.46-11.669 0-21.64 7.269-25.633 17.525l4.352 1.693c3.322-8.51 11.609-14.555 21.281-14.555" clip-path="url(#SVGID_2_)" fill="#f38b00"/><path d="m50.079 24.062h4.708c-0.504-4.047-1.889-7.821-3.955-11.125l-3.965 2.474c1.619 2.586 2.736 5.515 3.212 8.651" clip-path="url(#SVGID_2_)" fill="#455464"/><path d="m44.775 24.062h4.725c-1.233-7.921-6.658-14.47-13.926-17.308l-1.688 4.337c5.528 2.159 9.709 7.03 10.889 12.971" clip-path="url(#SVGID_2_)" fill="#f38b00"/><path d="m27.501 9.888v-4.652c-9.43 0-17.508 5.893-20.747 14.19l4.335 1.687c2.562-6.563 8.953-11.225 16.412-11.225" clip-path="url(#SVGID_2_)" fill="#455464"/><path d="m9.89 27.5h-4.653c0 9.356 5.803 17.377 13.997 20.667l1.727-4.318c-6.482-2.603-11.071-8.949-11.071-16.349" clip-path="url(#SVGID_2_)" fill="#f38b00"/><path d="m27.501 45.111v4.652c11.107 0 20.34-8.176 21.999-18.826h-4.724c-1.604 8.071-8.74 14.174-17.275 14.174" clip-path="url(#SVGID_2_)" fill="#455464"/></svg>
