<svg xmlns:rdf="http://www.w3.org/1999/02/22-rdf-syntax-ns#" xmlns="http://www.w3.org/2000/svg" xml:space="preserve" height="182.33" viewBox="0 0 615.27148 182.32626" width="615.27" version="1.1" xmlns:cc="http://creativecommons.org/ns#" xmlns:dc="http://purl.org/dc/elements/1.1/"><defs><clipPath id="a" clipPathUnits="userSpaceOnUse"><path d="m0 219.5h595.28v-219.5h-595.28v219.5z"/></clipPath></defs><g transform="matrix(1.25 0 0 -1.25 -49.262 230.52)"><g clip-path="url(#a)"><g transform="translate(523.98 87.585)"><path d="m0 0c-4.162 0-4.162 4.165-4.162 9.141v34.366h9.95c1.855 0 1.855 0.811 1.855 8.101h-11.805v20.828c-7.637 0-9.37 0-9.37-3.242v-17.586h-5.905c-1.967 0-2.081-0.926-2.081-8.101h7.986v-33.325c0-10.414 0-18.284 10.989-18.284 4.513 0 9.952 0.928 9.952 3.706 0 2.313-0.346 4.859-0.697 6.13-2.428-1.041-3.471-1.734-6.712-1.734m-161.77 47.326v-53.574c9.489 0 9.604 0 9.604 1.964v55.892c-7.637 0-9.604 0-9.604-4.282m-24.38-45.129c-1.853-1.272-4.284-1.734-6.829-1.734-5.438 0-8.675 2.545-8.675 21.174 0 18.979 5.09 23.49 10.18 23.49 2.426 0 3.818-0.346 5.324-1.503v-41.427zm0 72.321v-23.49c-1.969 1.39-4.629 2.315-8.218 2.315-9.949 0-17.82-9.836-17.82-32.747 0-25.11 7.871-28.58 18.86-28.58 7.178 0 12.615 1.157 16.548 3.47v83.315c-7.638 0-9.37 0-9.37-4.283m146.14-48.366c-4.048-1.158-11.223-1.388-15.735-1.274 0.692 16.085 4.975 20.249 9.72 20.249 4.974 0 6.478-3.47 6.592-11.802 0-2.2-0.114-5.091-0.577-7.173m9.721 8.215c0 12.38-4.976 18.976-14.698 18.976-10.298 0-20.48-3.588-20.48-33.673 0-23.604 7.754-27.654 18.516-27.654 8.678 0 15.965 2.779 15.965 4.396 0 2.546-0.228 6.596-0.808 8.332-3.935-2.197-8.564-3.588-14.118-3.588-6.249 0-9.487 2.084-9.833 16.084 5.551 0 16.198 0.233 24.183 1.853 0.926 4.165 1.273 10.066 1.273 15.274m-194.14-2.315c0 15.969-1.505 21.291-15.504 21.291-6.249 0-14.581-1.735-19.092-3.819v-55.772c9.605 0 9.372 0 9.372 1.964v47.213c2.544 1.618 6.132 2.198 8.679 2.198 6.133 0 6.827-3.47 6.827-12.61v-38.765c9.835 0 9.718 0 9.718 1.964v36.336zm67.867 46.401c-3.702 0-5.323-2.778-5.323-6.943-0.116-5.438 1.738-7.173 4.744-7.29 3.47 0 5.208 2.777 5.324 7.521 0 4.86-1.158 6.712-4.745 6.712m63.472-25.11c-6.246 0-14.579-1.735-19.095-3.819v-55.772c9.607 0 9.377 0 9.377 1.964v47.213c2.544 1.618 6.129 2.198 8.677 2.198 6.132 0 6.826-3.47 6.826-12.61v-38.765c9.834 0 9.72 0 9.72 1.964v36.336c0 15.969-1.507 21.291-15.505 21.291m-38.868-47.326c-4.165 0-6.48-3.124-6.48-6.711 0-4.05 1.62-6.598 6.48-6.598 4.047 0 6.482 3.008 6.482 6.598 0 4.048-1.737 6.711-6.482 6.711m-312.3 74.191c1.164 1.166 2.713 1.807 4.359 1.807 1.647 0 3.196-0.641 4.36-1.806 1.165-1.166 1.806-2.713 1.806-4.36 0-1.648-0.641-3.196-1.806-4.359-1.164-1.166-2.713-1.807-4.36-1.807-1.646 0-3.195 0.641-4.359 1.805-1.165 1.165-1.806 2.713-1.806 4.361 0 1.647 0.641 3.194 1.806 4.359m4.359-25.343c5.605 0 10.875 2.183 14.838 6.147 3.962 3.962 6.145 9.231 6.145 14.837 0 5.605-2.183 10.874-6.146 14.838-3.962 3.962-9.232 6.145-14.837 6.145-5.604 0-10.874-2.183-14.837-6.146-3.964-3.963-6.146-9.232-6.146-14.837s2.182-10.875 6.146-14.837c3.963-3.964 9.233-6.147 14.837-6.147m157.39-53.131c-1.039-1.154-3.934-1.851-6.248-1.851-4.512 0-7.405 0.464-7.405 10.417 0 10.182 3.932 11.8 8.564 11.8 1.618 0 3.933-0.23 5.438-1.042 0-8.33-0.349-19.324-0.349-19.324m-2.081 51.609c-10.761 0-18.515-1.504-20.251-2.778-0.809-0.58-1.04-1.734-1.04-3.008 0-0.81 0.115-4.05 1.271-6.017 3.589 1.621 11.109 2.663 16.317 2.663 3.585 0 6.133-1.39 6.133-6.828v-9.719c-2.315 1.154-5.902 1.503-8.795 1.503-7.405 0-15.042-2.892-15.042-18.977 0-17.588 8.099-18.284 16.545-18.166 7.522 0 12.96 1.853 16.086 3.818 0 0 0.696 16.431 0.696 36.683v6.711c0 10.413-4.398 14.115-11.92 14.115m-113.46 9.749c-4.099 2.902-9.773 1.93-12.674-2.167-3.561-5.035-7.503-8.767-11.989-11.344-0.414-0.238-0.834-0.466-1.257-0.685-0.39-0.202-0.786-0.396-1.185-0.58-4.189-1.941-8.854-2.961-14.247-3.122-5.394 0.161-10.061 1.181-14.251 3.123-5.519 2.557-10.24 6.681-14.435 12.608-2.9 4.097-8.575 5.069-12.672 2.167-4.099-2.899-5.071-8.573-2.17-12.672 5.994-8.469 13.272-14.728 21.633-18.602 1.643-0.761 3.318-1.43 5.035-2.008-7.101-5.128-14.78-12.316-18.458-22.17-3.819-10.226-3.77-21.298 0.132-31.177 3.746-9.478 10.677-17.186 19.52-21.707 9.852-5.037 22.393-5.048 33.546-0.025 11.704 5.269 19.338 14.914 20.423 25.807 1.139 11.466-4.358 21.675-14.008 26.009-9.994 4.489-21.269 1.285-28.721-8.16-3.112-3.941-2.437-9.659 1.504-12.769 3.942-3.112 9.659-2.437 12.769 1.504 2.215 2.806 4.767 3.841 7.002 2.837 1.905-0.856 3.788-3.309 3.359-7.623-0.426-4.271-4.177-8.498-9.791-11.026-6.075-2.732-12.898-2.872-17.808-0.363-4.9 2.506-8.765 6.838-10.883 12.198-1.591 4.023-2.883 10.439-0.009 18.135 2.156 5.773 7.589 11.22 17.099 17.137 4.038 2.514 8.367 4.856 12.553 7.122 4.828 2.612 9.403 5.089 13.421 7.741 7.15 3.911 13.439 9.665 18.731 17.14 2.9 4.099 1.929 9.773-2.169 12.672m62.107-44.346c-7.176 0-8.564 5.206-8.564 13.537 0 10.184 3.934 14.118 8.91 14.118 5.554 0 8.446-3.588 8.446-12.034 0-10.067-2.662-15.621-8.792-15.621m-4.63-22.565c0.693-0.115 1.389-0.231 2.198-0.231 10.184-0.694 13.192-2.198 13.192-7.408 0-4.047-3.587-8.906-11.803-8.906-7.868 0-9.72 2.891-9.72 6.593 0 3.704 2.778 7.523 6.133 9.952m11.109 56.237c-1.968 0.579-4.282 0.925-5.786 0.925-11.339 0-19.209-6.363-19.209-21.754 0-7.405 1.738-13.771 7.059-17.241-3.355-2.776-7.175-7.522-7.29-10.529-0.116-3.007 2.545-5.091 6.943-6.366-4.861-3.238-8.677-7.867-8.677-13.42 0-6.02 3.008-13.193 18.628-13.193 15.389 0 22.101 9.027 22.101 18.978 0 9.14-6.942 12.497-14.348 13.536-8.678 1.159-14.581 1.505-14.581 3.472 0 1.621 1.505 3.589 3.009 5.208 1.505-0.346 3.24-0.462 5.209-0.462 13.422 0 18.745 7.985 18.745 20.248 0 5.787-1.737 10.184-4.514 13.076 1.62-0.349 3.008-0.578 4.281-0.578 1.968 0 3.24 1.159 3.24 3.703 0 2.083-0.461 3.587-0.925 4.397h-13.885z" fill="#231f20"/></g></g></g></svg>
