<svg xmlns:rdf="http://www.w3.org/1999/02/22-rdf-syntax-ns#" xmlns="http://www.w3.org/2000/svg" xml:space="preserve" height="264.84" viewBox="0 0 424.11499 264.84375" width="424.11" version="1.1" xmlns:cc="http://creativecommons.org/ns#" xmlns:dc="http://purl.org/dc/elements/1.1/"><g transform="matrix(1.25 0 0 -1.25 -102.5 426.56)"><path d="m390.33 168.14c-1.116 0.903-2.692 1.356-4.726 1.356-2.405 0-4.121-0.402-5.149-1.205-1.027-0.802-1.54-1.744-1.54-2.82 0-0.685 0.212-1.303 0.638-1.852 0.426-0.568 1.095-1.038 2.008-1.411 0.522-0.195 2.064-0.646 4.625-1.35 3.702-0.996 6.297-1.811 7.78-2.443 1.483-0.635 2.648-1.557 3.492-2.767 0.845-1.209 1.269-2.711 1.269-4.506 0-1.756-0.513-3.411-1.538-4.962-1.024-1.55-2.501-2.75-4.433-3.599-1.932-0.848-4.116-1.272-6.555-1.272-4.038 0-7.118 0.839-9.235 2.52-2.116 1.682-3.468 4.174-4.051 7.48l5.187 0.812c0.292-2.098 1.106-3.707 2.443-4.824 1.336-1.117 3.203-1.676 5.603-1.676 2.42 0 4.214 0.494 5.386 1.483 1.169 0.988 1.756 2.149 1.756 3.481 0 1.195-0.523 2.134-1.563 2.82-0.729 0.47-2.517 1.068-5.367 1.792-3.839 0.975-6.508 1.818-8.006 2.532-1.498 0.712-2.633 1.697-3.405 2.955-0.775 1.257-1.159 2.647-1.159 4.17 0 1.385 0.316 2.667 0.949 3.849 0.634 1.179 1.498 2.159 2.589 2.941 0.818 0.604 1.935 1.115 3.348 1.534 1.415 0.42 2.93 0.631 4.549 0.631 2.438 0 4.578-0.353 6.421-1.057 1.841-0.707 3.202-1.66 4.079-2.864 0.877-1.203 1.482-2.814 1.815-4.829l-5.188-0.688c-0.233 1.61-0.907 2.866-2.022 3.769zm-45-26.14v19.602c0 2.11-0.172 3.629-0.517 4.557-0.345 0.926-0.97 1.674-1.873 2.241-0.906 0.566-1.968 0.85-3.188 0.85-2.203 0-4.034-0.729-5.489-2.184-1.456-1.454-2.183-3.784-2.183-6.986v-18.08h-5.25v20.218c0 2.343-0.432 4.102-1.292 5.273-0.862 1.172-2.273 1.759-4.231 1.759-1.489 0-2.864-0.39-4.129-1.172-1.263-0.781-2.178-1.924-2.746-3.428s-0.852-3.673-0.852-6.504v-16.146h-5.25v31.125h4.687v-4.373c0.978 1.521 2.279 2.744 3.902 3.67s3.471 1.391 5.543 1.391c2.309 0 4.201-0.48 5.678-1.434 1.476-0.957 2.518-2.292 3.123-4.008 2.474 3.627 5.694 5.442 9.659 5.442 3.101 0 5.486-0.855 7.156-2.565 1.667-1.708 2.502-4.339 2.502-7.894v-21.354h-5.25zm-67.656 24.43c-1.681 2.047-3.859 3.07-6.534 3.07-2.422 0-4.46-0.816-6.109-2.449-1.65-1.632-2.565-3.816-2.739-6.551h17.375c-0.235 2.636-0.9 4.612-1.993 5.93zm7.525-10.242h-23.22c0.195-3.415 1.163-6.027 2.904-7.842 1.739-1.816 3.911-2.721 6.511-2.721 1.936 0 3.587 0.511 4.956 1.536 1.37 1.023 2.455 2.657 3.258 4.902l5.445-0.688c-0.86-3.189-2.453-5.663-4.776-7.422-2.326-1.76-5.296-2.64-8.909-2.64-4.551 0-8.161 1.399-10.826 4.2-2.669 2.801-4 6.73-4 11.786 0 5.23 1.346 9.29 4.044 12.18 2.695 2.889 6.191 4.334 10.49 4.334 4.159 0 7.559-1.419 10.197-4.254 2.636-2.834 3.956-6.822 3.956-11.964 0-0.313-0.011-0.782-0.03-1.407zm-53.778-8.275c0.187-0.43 0.494-0.773 0.92-1.027s1.034-0.38 1.828-0.38c0.592 0 1.375 0.064 2.344 0.191l0.688-4.657c-1.485-0.315-2.813-0.472-3.985-0.472-1.915 0-3.401 0.303-4.455 0.909-1.056 0.605-1.799 1.402-2.228 2.389-0.429 0.986-0.645 3.064-0.645 6.23v17.91h-3.875v4.125h3.875v7.704l5.25 3.165v-10.869h5.375v-4.125h-5.375v-18.193c0-1.504 0.095-2.472 0.283-2.9zm-37.786 20.231c-1.116 0.903-2.692 1.356-4.727 1.356-2.404 0-4.12-0.402-5.148-1.205-1.027-0.802-1.542-1.744-1.542-2.82 0-0.685 0.214-1.303 0.64-1.852 0.426-0.568 1.095-1.038 2.008-1.411 0.522-0.195 2.064-0.646 4.625-1.35 3.702-0.996 6.297-1.811 7.78-2.443 1.483-0.635 2.648-1.557 3.492-2.767 0.845-1.209 1.268-2.711 1.268-4.506 0-1.756-0.512-3.411-1.536-4.962-1.025-1.55-2.502-2.75-4.434-3.599-1.932-0.848-4.116-1.272-6.555-1.272-4.04 0-7.118 0.839-9.235 2.52-2.117 1.682-3.468 4.174-4.053 7.48l5.188 0.812c0.293-2.098 1.107-3.707 2.444-4.824 1.336-1.117 3.203-1.676 5.603-1.676 2.419 0 4.214 0.494 5.384 1.483 1.171 0.988 1.756 2.149 1.756 3.481 0 1.195-0.521 2.134-1.562 2.82-0.728 0.47-2.516 1.068-5.366 1.792-3.839 0.975-6.509 1.818-8.006 2.532-1.498 0.712-2.632 1.697-3.407 2.955-0.773 1.257-1.159 2.647-1.159 4.17 0 1.385 0.316 2.667 0.951 3.849 0.634 1.179 1.498 2.159 2.589 2.941 0.818 0.604 1.935 1.115 3.348 1.534 1.415 0.42 2.93 0.631 4.55 0.631 2.437 0 4.577-0.353 6.42-1.057 1.841-0.707 3.201-1.66 4.08-2.864 0.877-1.203 1.48-2.814 1.812-4.829l-5.187-0.688c-0.232 1.61-0.906 2.866-2.021 3.769zm-48.25-26.68c-1.273-3.415-2.263-5.765-2.968-7.055-0.942-1.737-2.019-3.009-3.233-3.82-1.216-0.809-2.665-1.214-4.35-1.214-1.021 0-2.156 0.212-3.41 0.636l-0.562 4.894c1.149-0.312 2.153-0.467 3.013-0.467 1.171 0 2.106 0.196 2.807 0.587 0.703 0.392 1.279 0.939 1.727 1.643 0.332 0.529 0.868 1.839 1.61 3.934 0.097 0.294 0.252 0.724 0.468 1.292l-11.813 31.231h5.609l6.505-18.051c0.843-2.288 1.598-4.695 2.265-7.22 0.627 2.438 1.364 4.807 2.208 7.11l6.663 18.161h5.273l-11.812-31.661zm-45.089 26.68c-1.1158 0.903-2.6916 1.356-4.7275 1.356-2.4036 0-4.1211-0.402-5.1477-1.205-1.0285-0.802-1.5418-1.744-1.5418-2.82 0-0.685 0.2121-1.303 0.6402-1.852 0.4262-0.568 1.0946-1.038 2.0055-1.411 0.5246-0.195 2.0645-0.646 4.625-1.35 3.7047-0.996 6.2973-1.811 7.7803-2.443 1.485-0.635 2.648-1.557 3.494-2.767 0.845-1.209 1.268-2.711 1.268-4.506 0-1.756-0.514-3.411-1.538-4.962-1.023-1.55-2.502-2.75-4.434-3.599-1.93-0.848-4.1156-1.272-6.5531-1.272-4.0399 0-7.1176 0.839-9.2348 2.52-2.1176 1.682-3.4679 4.174-4.0531 7.48l5.1875 0.812c0.2918-2.098 1.1059-3.707 2.4434-4.824 1.3351-1.117 3.2043-1.676 5.6039-1.676 2.4187 0 4.2142 0.494 5.3842 1.483 1.171 0.988 1.756 2.149 1.756 3.481 0 1.195-0.521 2.134-1.562 2.82-0.728 0.47-2.5177 1.068-5.3661 1.792-3.841 0.975-6.5094 1.818-8.0055 2.532-1.498 0.712-2.6348 1.697-3.4074 2.955-0.7727 1.257-1.159 2.647-1.159 4.17 0 1.385 0.3164 2.667 0.9508 3.849 0.6324 1.179 1.4961 2.159 2.589 2.941 0.818 0.604 1.9336 1.115 3.3485 1.534 1.4129 0.42 2.9301 0.631 4.5472 0.631 2.4375 0 4.5778-0.353 6.4205-1.057 1.843-0.707 3.203-1.66 4.08-2.864 0.878-1.203 1.482-2.814 1.814-4.829l-5.187-0.688c-0.233 1.61-0.908 2.866-2.021 3.769z"/><path d="m288.02 215.31c-12.09 0-23.511 2.963-34.264 8.8867-10.752 5.9275-19.288 14.256-25.611 24.99-6.3275 10.736-9.4863 22.089-9.4863 34.062 0 11.356 2.8348 22.06 8.5098 32.119 5.6725 10.06 13.74 17.773 24.188 23.141 10.45 5.3662 22.408 8.0508 35.865 8.0508 10.234 0 19.181-1.6606 26.842-4.9668 7.6562-3.31 15.024-8.6515 22.096-16.021v-10.854c-7.325 8.4725-14.292 14.44-20.904 17.902-6.61 3.4625-13.887 5.1894-21.824 5.1894-9.6838 0-17.567-2.3623-23.65-7.0898-6.0838-4.7262-10.552-11.71-13.402-20.947-2.8575-9.2375-4.2812-19.477-4.2812-30.727 0-11.426 1.9674-21.808 5.9024-31.145 3.0625-7.2888 7.9054-13.187 14.525-17.697 6.6212-4.5125 13.897-6.7695 21.838-6.7695 9.4912 0 17.988 3.0657 25.488 9.1894 7.5 6.1225 12.622 14.937 15.371 26.436h3.125v-43.75h-3.125c-0.44 3.1438-1.3885 5.4449-2.8535 6.8887-1.4638 1.4512-3.1943 2.1738-5.1856 2.1738-1.5625 0-5.205-1.1083-10.938-3.332-9.9125-3.8188-19.318-5.7305-28.225-5.7305zm-185.52 2.81v3.125h4.1953c3.5444 0 6.3559 0.6157 8.4414 1.8457 2.0786 1.2288 3.4658 2.6627 4.1504 4.3027 0.684 1.6412 1.0254 5.7353 1.0254 12.289v82.5c0 6.43-0.34139 10.399-1.0254 11.914-0.86913 2.1425-2.1132 3.6559-3.7305 4.5371-2.2416 1.3275-5.194 1.9863-8.8613 1.9863h-4.1953v3.125h65.938v-3.125h-4.1738c-3.5275 0-6.3291-0.6118-8.4004-1.8418-2.0688-1.23-3.4613-2.6615-4.1738-4.3027-0.715-1.64-1.0644-5.7355-1.0644-12.293v-82.5c0-6.425 0.33578-10.399 1.0195-11.914 0.92875-2.1388 2.1922-3.6521 3.8047-4.5371 2.225-1.3238 5.162-1.9863 8.8144-1.9863h4.1738v-3.125h-65.938zm288.71 0v3.125h4.1914c4.1025 0 7.3387 0.88344 9.7012 2.6484 1.6812 1.2 2.8301 2.898 3.4551 5.1055 0.30875 1.3275 0.46484 4.8886 0.46484 10.684v82.5c0 6.43-0.34359 10.399-1.0273 11.914-0.86875 2.1425-2.1135 3.6559-3.7285 4.5371-2.2425 1.3275-5.199 1.9863-8.8652 1.9863h-4.1914v3.125h109.01l5.6758-39.986h-3.4238c-3.1012 11.134-8.1981 19.439-15.297 24.908-7.1 5.4687-16.541 8.2031-28.318 8.2031h-7.5293c-3.5975 0-6.2-0.49187-7.8125-1.4844-1.6112-0.98625-2.7138-2.2572-3.2988-3.8047-0.59125-1.5412-0.88281-5.7815-0.88281-12.709v-35.439c6.1025 0 10.754 0.79445 13.967 2.377 3.2075 1.5875 6.0248 4.6832 8.4473 9.2832 2.4212 4.5988 4.0159 10.509 4.7734 17.715h3.125v-65.938h-3.125c-1.0062 9.775-3.3358 17.164-6.9883 22.174-3.6525 5.0088-9.5373 7.5137-17.652 7.5137h-2.5469v-51.25h13.125c9.6238 0 16.186 0.55055 19.688 1.6543 5.9938 1.8412 10.639 4.7233 13.92 8.6445 3.2812 3.92 5.8238 10.385 7.6426 19.389h3.125v-36.875h-105.62z" transform="matrix(.8 0 0 -.8 0 500)" fill="#0a357e"/><path d="m289.7 199.5v141.75h9.5v-141.75h-9.5zm-140.79 0v141.75h9.5v-141.75h-9.5z"/><path d="m396.86 8.7305v3.1245h0.29c0.13-0.852 0.45-1.506 0.95-1.9663 0.36-0.3288 0.93-0.4942 1.72-0.4942h0.86v8.9235c0 0.595-0.03 0.96-0.09 1.1-0.09 0.199-0.2 0.338-0.35 0.418-0.21 0.121-0.48 0.184-0.81 0.184h-0.39v0.292h6.08v-0.292h-0.39c-0.32 0-0.58-0.057-0.77-0.17-0.19-0.112-0.32-0.244-0.39-0.397-0.06-0.151-0.09-0.528-0.09-1.135v-8.9235h0.86c0.54 0 0.92 0.0511 1.14 0.1524 0.39 0.1875 0.7 0.4389 0.92 0.7541 0.22 0.315 0.43 0.832 0.61 1.554h0.3v-3.1245h-10.45zm11.4 0v0.2929h0.37c0.32 0 0.59 0.0582 0.78 0.1719 0.2 0.1138 0.33 0.2458 0.39 0.3945 0.06 0.1513 0.1 0.5292 0.1 1.1332v7.283c0 0.531-0.01 0.827-0.02 0.892-0.07 0.272-0.16 0.484-0.27 0.633-0.12 0.151-0.29 0.274-0.51 0.364-0.23 0.09-0.47 0.132-0.72 0.125h-0.12v0.292h3.98v-0.292c-0.53 0-0.92-0.092-1.17-0.272-0.25-0.181-0.41-0.412-0.49-0.701-0.03-0.131-0.04-0.484-0.04-1.059v-8.1599l4.52 10.484h0.21l4.41-10.58v8.586c0 0.595-0.03 0.96-0.09 1.1-0.09 0.199-0.21 0.338-0.35 0.418-0.2 0.121-0.48 0.184-0.82 0.184h-0.38v0.292h6.08v-0.292h-0.38c-0.33 0-0.59-0.057-0.78-0.17-0.2-0.112-0.33-0.244-0.39-0.397-0.06-0.151-0.1-0.528-0.1-1.135v-7.595c0-0.593 0.03-0.9594 0.1-1.1019 0.08-0.1925 0.2-0.3302 0.34-0.4102 0.21-0.1237 0.48-0.1875 0.83-0.1875h0.38v-0.2929h-4.74l-3.11 7.6175-3.26-7.6175h-4.75z" transform="matrix(.8 0 0 -.8 82 341.25)"/></g></svg>
