<?xml version="1.0" encoding="utf-8"?>
<!-- Generator: Adobe Illustrator 21.0.0, SVG Export Plug-In . SVG Version: 6.00 Build 0)  -->
<svg version="1.1" id="Layer_1" xmlns="http://www.w3.org/2000/svg" xmlns:xlink="http://www.w3.org/1999/xlink" x="0px" y="0px"
	 viewBox="0 0 1632 1043.5" style="enable-background:new 0 0 1632 1043.5;" xml:space="preserve">
<g>
	<g>
		<path style="fill:#FFFEFE;" d="M1,2.3c0.4-0.6-1-2.2,1-2c1.2,0.1,2.4,0,3.5,0c540.5,0,1080.9,0,1621.4-0.1c4.3,0,4.8,1.1,4.8,5
			c-0.1,344.9-0.1,689.8,0,1034.8c0,4.1-0.7,5-4.9,5c-540.3-0.1-1080.6-0.1-1620.8,0c-4.4,0-5.1-1.1-5.1-5.2
			C1,873.7,1,707.7,1,541.8c0.4-0.1,0.7-0.1,1.1-0.2c1.9,0.1,3.7,0.2,5.6,0.2c536.6,0,1073.2,0,1609.8,0.1c5.2,0,6.2-1.4,6.2-6.3
			c-0.1-175.8-0.1-351.5,0-527.3c0-5-1.1-6.3-6.2-6.3C1080.8,2.1,544.2,2.1,7.6,2.1C5.8,2.1,3.9,2.3,2,2.3C1.7,2.3,1.4,2.3,1,2.3z
			 M421.9,844c0.2,0.2,0.4,0.5,0.6,0.7c0.1-0.2,0.1-0.3,0.2-0.5C422.3,844.1,422.1,844.1,421.9,844c0.6-1.4-0.5-2.5-1-3.7
			c-14.3-34.6-15.1-69.8-1.9-104.7c15.9-42.3,53.6-56.5,92.5-45.8c22.1,6,34.2,22.4,40.4,43.6c1.1,3.8,2.7,5,6.6,4.9
			c11.7-0.3,23.3-0.3,35,0c4.6,0.1,5.4-1.5,4.8-5.5c-3.8-24.2-14.6-44.6-34.2-59.6c-28.7-22-61.6-27.5-96.4-22.2
			c-39.7,6.1-68.2,28.4-86.8,63.6c-3.8,7.2-7.8,14.5-7.7,23.2c0.3,24.1,6.1,46.8,17.6,67.9C398.8,820.3,408.7,833.5,421.9,844z
			 M267.8,750.1c-1.4-2-2.5-3.5-3.5-5c-16.5-24.5-33-49-49.6-73.4c-3.6-5.3-5.8-12.7-11.3-15.1c-5.4-2.4-12.6-0.7-19-0.8
			c-10.1,0-20.1,0-31,0c1.3,2.1,2.1,3.5,3,4.9c26.2,38.1,52.4,76.2,78.6,114.3c2.6,3.7,7.3,7,7.3,11.2c-0.1,4.5-4.8,7.8-7.5,11.6
			c-26.1,38-52.2,75.9-78.2,113.9c-1,1.4-2.7,2.6-2.2,5c14.9,0,29.7-0.2,44.5,0.1c3.9,0.1,6.1-1.3,8.2-4.4
			c19.1-28.6,38.5-57.1,57.6-85.7c2.5-3.7,3.4-4.2,6.1-0.1c19.3,28.9,38.8,57.7,58.2,86.5c1.5,2.2,2.8,3.7,5.9,3.7
			c25.2-0.2,50.3-0.1,76.1-0.1c-59.8-21.4-91.3-64.6-94-126.3c-2.7-62,25.9-107.4,83.2-134.7c-21.9,0-43,0.1-64.1-0.1
			c-3.4,0-5.5,1-7.4,3.9C308.6,689.6,288.4,719.5,267.8,750.1z M827.2,898.7c2.3,12.2,10,18.8,21.7,21.1c11.6,2.2,22.8,0,34-3.1
			c2.4-0.7,2.5-2.2,2.5-4.2c-0.1-7.3-0.2-14.5,0-21.8c0.1-3.3-0.8-3.7-4-3.3c-13.2,1.4-16.2-1.5-16.2-15c0-0.8,0-1.7,0-2.5
			c0-30.2-0.4-60.5,0.1-90.7c0.4-24-10.8-40.3-32.2-48.9c-31.3-12.5-63.3-11.8-94.1,1.6c-20.8,9-32,26.1-34.3,48.9
			c-0.3,3.3,0.6,4.4,4,4.4c11.1-0.2,22.3-0.2,33.5,0c3,0,4-0.8,4.5-3.8c1.8-11.1,8.6-18.4,18.9-22.5c5.7-2.3,11.7-3.4,17.8-3.6
			c10.8-0.4,21.7-0.1,31.5,5.5c8.2,4.8,11.7,12.1,11.2,21.6c-0.5,10.1-6.7,15-15.3,17.8c-3.4,1.1-6.9,1.9-10.4,2.3
			c-18.2,2.4-36.5,4.6-54.5,8.2c-13.6,2.7-26.5,7.4-35.9,18.2c-26,30.1-12.1,76.9,26.7,88C769.1,926,799.2,919.3,827.2,898.7z
			 M1232.9,727.2c1.1,3.1,1.9,5.3,2.7,7.5c22.3,58.7,44.5,117.3,66.8,176c0.7,1.8,1.8,3.5,1,5.8c-2.8,7.9-4.8,16.2-8.3,23.9
			c-4.4,9.8-11.9,14.7-22.6,15.1c-5.8,0.2-11.4-0.7-17.1-1.8c-3.5-0.7-5.3-0.2-5.1,4.1c0.3,8.6,0.3,17.2,0,25.9
			c-0.1,3.5,1.1,4.6,4.4,4.9c8.4,1,16.8,1.5,25.3,1.6c22.3,0.2,38.9-9.4,50-28.7c6.5-11.3,11-23.5,15.6-35.7
			c19-51,37.8-102.2,56.6-153.3c5.5-14.8,10.9-29.7,16.5-45.2c-13,0-25.5,0.2-38-0.1c-4.1-0.1-5.7,1.3-7,5.1
			c-14.6,43.6-29.5,87.2-44.2,130.8c-0.5,1.5-0.7,3.1-2.4,4.4c-8.1-23.2-16.1-45.9-24-68.7c-7.8-22.5-15.6-44.9-23.5-67.4
			c-0.7-1.9-0.9-4.2-4.1-4.2C1261.6,727.3,1247.6,727.2,1232.9,727.2z M1137.6,819.1c0,2.4-0.1,4.7,0,7.1c0.5,19.1-1,38.2,1.1,57.2
			c1.8,15.9,9.5,26.8,25.4,30.9c16.5,4.3,33.1,3,49.8,0.9c2.3-0.3,2.6-1.6,2.6-3.4c0-8.3-0.1-16.6,0-24.8c0.1-3-1-4-3.8-3.4
			c-5.5,1.1-11.1,1.1-16.7,0.7c-5.3-0.3-10.5-1.2-13.7-6.2c-2.6-4-3.1-8.5-3.1-13.1c0-34.3,0-68.6-0.1-102.9c0-3.4,1.1-4.3,4.3-4.2
			c9.6,0.2,19.3,0,28.9,0.1c2.9,0,4.3-0.5,4.2-3.8c-0.2-7.8-0.2-15.5,0-23.3c0.1-3-1.1-3.7-3.8-3.7c-9.5,0.1-18.9-0.2-28.4,0.2
			c-4.4,0.2-5.3-1.3-5.2-5.4c0.2-15.4,0-30.7,0.2-46.1c0.1-3.9-0.8-5.3-5-5.2c-10.5,0.3-20.9,0.3-31.4,0c-4.1-0.1-5.5,0.9-5.4,5.2
			c0.3,15.7,0,31.4,0.2,47.1c0,3.3-0.9,4.4-4.3,4.3c-7.8-0.2-15.5,0-23.3-0.1c-2.8-0.1-3.9,0.7-3.8,3.6c0.2,7.9,0.2,15.9,0,23.8
			c-0.1,2.7,1,3.4,3.5,3.4c7.8-0.1,15.5,0.1,23.3-0.1c3.5-0.1,4.6,0.9,4.6,4.5C1137.5,781.3,1137.6,800.2,1137.6,819.1z
			 M628.7,785.1c0,41.9,0.1,83.8-0.1,125.7c0,3.8,0.9,4.9,4.8,4.8c10.1-0.3,20.3-0.4,30.4,0c5,0.2,6.5-1,6.5-6.3
			c-0.2-70.1-0.1-140.3-0.1-210.4c0-13-0.2-26,0.1-39c0.1-3.9-1.2-4.8-4.9-4.7c-10.3,0.2-20.6,0.3-30.9,0c-4.5-0.1-5.9,0.9-5.9,5.7
			C628.8,702.3,628.7,743.7,628.7,785.1z M941.2,762c0-10.1-0.1-20.1,0.1-30.2c0.1-3.3-0.5-4.8-4.3-4.7c-10.1,0.3-20.3,0.2-30.4,0
			c-3.6-0.1-4.1,1.3-4.1,4.4c0.1,60,0.1,119.9,0,179.9c0,3.4,1,4.3,4.3,4.3c10.6-0.2,21.3-0.2,31.9,0c4.2,0.1,5.5-1,5.4-5.3
			c-0.2-26.9-0.1-53.7-0.1-80.6c0-8.5,0.2-16.9,2.2-25.2c4.9-19.4,14.5-34.8,34.8-41.2c8.7-2.7,17.7-2.3,26.6-0.8
			c3.2,0.5,5.3,0.6,5.2-3.9c-0.3-10.6-0.2-21.3,0-31.9c0-2.9-1.1-4-3.7-4.2c-8.9-0.5-17.9-1.3-26.6,1.8
			C963.4,730.9,949.7,743.2,941.2,762z M1080.2,821.7c0-29.9-0.1-59.8,0.1-89.7c0-3.7-0.8-5-4.7-4.9c-10.8,0.3-21.6,0.2-32.4,0
			c-3.4-0.1-4.6,0.8-4.6,4.5c0.1,59.8,0.1,119.6,0,179.4c0,4,1.5,4.7,5,4.7c10.5-0.2,21-0.3,31.4,0c4.2,0.1,5.4-1.1,5.3-5.3
			C1080.1,880.8,1080.2,851.2,1080.2,821.7z M384.8,861.9c-0.5,1.9,0.4,2.5,0.9,3.4c31.1,51.6,92.3,67.3,143.8,49.5
			c41.6-14.4,65.6-51.3,69.6-94.9c0.3-3.4-1.4-3.5-3.8-3.5c-10.8,0.1-21.6,0-32.4,0c-8,0-7.8,0-9.1,7.7c-3.8,22.7-14,41.2-34.4,53.5
			c-28.1,16.9-57.7,19.5-88.7,10.2C413.6,882.7,398.7,873.7,384.8,861.9z M1059.2,694.9c5.9,0,11.8-0.1,17.7,0
			c2.3,0,3.3-0.6,3.3-3.1c-0.1-11.1-0.1-22.3,0-33.4c0-2.4-0.8-3.2-3.2-3.2c-11.8,0.1-23.6,0.1-35.4,0c-2.6,0-3.1,1.1-3.1,3.3
			c0.1,11,0.1,21.9,0,32.9c0,2.7,0.9,3.5,3.5,3.4C1047.7,694.8,1053.5,694.9,1059.2,694.9z M1474.2,750.6c-1.8-1.5-2-3.5-2.7-5.2
			c-2-5.2-4.1-10.3-5.8-15.6c-0.9-2.7-2.7-2.6-4.7-2.5c-2.5,0.2-1.6,2.2-1.6,3.5c-0.1,7.3-0.1,14.5,0,21.8c0,1.4-1,3.8,1.8,3.8
			c2.7,0,1.8-2.4,1.8-3.9c0.1-5.6,0-11.1,0-16.7c2.9,4.2,4.4,8.6,6.3,12.8c1.2,2.7,0.7,7.5,4.5,7.6c3.9,0.1,3.3-4.8,4.6-7.5
			c2.1-4.5,3.6-9.3,5.3-13.9c1,6.3,0.9,12.2,1,18.1c0,1.3-0.8,3.3,1.6,3.5c2.7,0.2,2.2-1.9,2.3-3.5c0-7.1,0.1-14.2,0-21.3
			c0-1.6,1.2-3.9-1.8-4.4c-2.9-0.5-4.2,0.8-5.1,3.4C1479.3,737.4,1476.7,743.9,1474.2,750.6z M1442.2,743.6c0,3.4,0,6.7,0,10.1
			c0,1.4-0.1,2.8,1.9,2.9c2.1,0.1,2-1.4,2-2.7c0-4.6-0.1-9.1,0-13.7c0.1-3-1.1-6.5,0.6-8.9c1.4-2,4.8-0.5,7.2-0.8
			c1-0.1,2.1-0.3,2.1-1.6c0-1.4-1.1-1.5-2.1-1.5c-6.2,0-12.5,0-18.7,0c-1,0-2.1-0.1-2.3,1.3c-0.2,1.7,1,1.7,2.3,1.9c7,1,7,1,7,8
			C1442.2,740.2,1442.2,741.9,1442.2,743.6z"/>
		<path style="fill:#E7684B;" d="M1,2.3c0.3,0,0.7,0,1,0.1c0,131.9,0,263.9,0,395.8c0,47.8,0,95.6,0.1,143.4
			c-0.4,0.1-0.7,0.1-1.1,0.2C1,361.9,1,182.1,1,2.3z"/>
		<path style="fill:#E22926;" d="M2.1,541.6C2.1,493.8,2,446,2,398.2C2,266.2,2,134.3,2,2.3c1.9-0.1,3.7-0.2,5.6-0.2
			c536.6,0,1073.2,0,1609.8-0.1c5.2,0,6.2,1.3,6.2,6.3c-0.1,175.8-0.1,351.5,0,527.3c0,4.9-0.9,6.3-6.2,6.3
			c-536.6-0.1-1073.2-0.1-1609.8-0.1C5.8,541.8,3.9,541.7,2.1,541.6z M417.2,337.4c1.6-0.7,2.5-1.2,3.4-1.6
			c45.3-18.8,90.6-37.8,136.1-56.3c5.3-2.2,6.5-4.3,5.3-9.8c-5.3-25-15.7-47.2-36.3-63c-30.8-23.7-65.8-27.7-102.2-17.9
			c-51.5,13.8-82.5,59.6-77.8,113.1c3.7,41.7,25,71.4,63.5,87.6c36.1,15.2,72.6,13.4,108.6-1.6c15.5-6.5,29.6-15.2,41-28.1
			c-10.9-8.4-21.7-16.5-32.2-25c-3.2-2.6-5.3-2.5-8.5,0c-19.7,15.3-41.8,21.9-66.8,18.4C438.5,351.4,427,346.9,417.2,337.4z
			 M926.5,399.9c6.2,0.3,12.3-0.5,18.3-1.4c56.9-8.1,96.2-54.3,94.4-111.8c-0.9-28.3-11.9-52.9-32.9-72.2
			c-31.1-28.4-67.8-36.1-108.2-26.6c-65.5,15.4-100.9,85.5-73.7,146.9C843.7,378.8,880.1,397.7,926.5,399.9z M1255.4,290.7
			c-0.2,13.4,1.8,25.2,5.7,36.6c17.5,51,70.3,79.7,125,71c50.5-8,88.7-47.1,92.8-96.7c2.8-33.3-7.2-62.6-31.5-85.8
			c-29.7-28.4-65.6-36.5-105.3-28.8C1291.6,196.8,1255.4,240.9,1255.4,290.7z M640.8,216.7c0-9-0.2-16.8,0.1-24.7
			c0.1-3.4-0.9-4.2-4.2-4.2c-16.4,0.2-32.8,0.2-49.2,0c-3.5,0-4.5,0.8-4.5,4.4c0.1,66.6,0.1,133.1,0,199.7c0,4.1,1.4,4.6,4.9,4.6
			c15.9-0.2,31.8-0.2,47.6,0c4.2,0.1,5.4-1.1,5.3-5.3c-0.2-38-0.1-76-0.1-114.1c0-7.8,2-15.1,6.1-21.6
			c11.5-18.1,28.6-23.9,48.9-20.9c23.3,3.4,40.2,21.8,39.7,44.8c-0.7,37.3-0.1,74.7-0.3,112c0,4.1,1.2,5.1,5.1,5
			c16-0.2,32.1-0.2,48.2,0c3.4,0,4.6-0.6,4.6-4.3c-0.1-42.2,0.3-84.5-0.2-126.7c-0.6-48.8-36.2-82-86.3-81
			C680.5,184.9,658.7,195.6,640.8,216.7z M1147.5,328.9c-0.8-1.8-1.2-2.8-1.6-3.7c-15.6-42.8-31.2-85.7-46.8-128.5
			c-3.2-8.9-3.2-8.9-12.8-8.9c-18.5,0-37.1,0-56.1,0c0.8,2,1.3,3.5,2,5.1c27.4,66.6,54.8,133.1,82.1,199.7c1.3,3.2,3,3.8,6,3.8
			c17.9-0.1,35.8-0.2,53.7,0c3.7,0,5.2-1.3,6.5-4.6c23.2-56.6,46.5-113.2,69.8-169.9c4.6-11.3,9.3-22.6,14.1-34.2
			c-21.3,0-41.9,0.1-62.5-0.1c-3.3,0-3.8,1.7-4.6,4c-6.3,17.6-12.8,35.1-19.2,52.7C1168.1,272.4,1157.9,300.3,1147.5,328.9z
			 M151.9,260.9c0,43.6,0,87.2-0.1,130.8c0,3.8,0.9,4.8,4.7,4.8c59.6-0.1,119.3-0.1,178.9,0c3.6,0,4.5-1.1,4.5-4.6
			c-0.2-14.5-0.2-29.1,0-43.6c0.1-4.1-1.1-5-5.1-5c-39.5,0.1-79.1,0-118.6,0.2c-5.1,0-6.4-1.2-6.4-6.3c0.2-68.9,0.1-137.9,0.2-206.8
			c0-3.9-0.8-5.2-5-5.1c-16,0.3-32.1,0.3-48.2,0c-4.3-0.1-5.2,1.2-5.2,5.3C152,174,151.9,217.5,151.9,260.9z M1523.7,379.9
			c-2.8-4.4-5.3-8.2-7.7-12.1c-1.6-2.7-4.2-1.8-6.4-1.5c-2.2,0.3-1.2,2.4-1.2,3.8c-0.1,7.6,0,15.2-0.1,22.8c0,2.1,0.2,3.5,2.9,3.6
			c2.8,0.1,2.9-1.4,2.8-3.5c-0.1-5.4,0-10.8,0-17.6c3.7,5.6,6.5,9.9,9.4,14.2c3.7-4.1,5.2-9,9.7-13c0,6,0,11,0,16.1
			c0,1.8-0.5,3.7,2.6,3.7c2.8,0,3.4-1.1,3.4-3.6c-0.1-7.1,0.1-14.2-0.1-21.3c-0.1-1.8,1.7-4.7-1.8-5.3c-2.8-0.5-5.2-0.1-6.7,2.9
			C1528.6,372.7,1526.2,376,1523.7,379.9z M1486.8,383.5c0,3.2,0.1,6.4,0,9.6c-0.1,2.4,0.7,3.3,3.1,3.3c2.5,0,3.2-1,3.1-3.3
			c-0.1-5,0.3-10.1-0.1-15.1c-0.4-4.9,0.6-7.7,6.3-6.6c2,0.4,3.1-0.3,3-2.7c-0.1-2-0.7-2.6-2.7-2.6c-6.4,0.1-12.8,0.1-19.2,0
			c-1.9,0-2.7,0.6-2.7,2.6c0,1.9,0.6,3,2.5,2.6c6.8-1.4,7.3,2.6,6.7,7.6C1486.6,380.5,1486.8,382,1486.8,383.5z"/>
		<path style="fill:#E22C27;" d="M267.8,750.1c20.6-30.6,40.9-60.5,60.9-90.5c1.9-2.9,4-3.9,7.4-3.9c21.1,0.2,42.2,0.1,64.1,0.1
			c-57.3,27.3-85.9,72.6-83.2,134.7c2.7,61.8,34.2,104.9,94,126.3c-25.8,0-50.9-0.1-76.1,0.1c-3.1,0-4.5-1.5-5.9-3.7
			c-19.4-28.8-38.9-57.6-58.2-86.5c-2.7-4.1-3.7-3.6-6.1,0.1c-19.1,28.6-38.4,57.1-57.6,85.7c-2.1,3.1-4.2,4.5-8.2,4.4
			c-14.8-0.3-29.7-0.1-44.5-0.1c-0.6-2.5,1.2-3.6,2.2-5c26-38,52.2-75.9,78.2-113.9c2.7-3.9,7.4-7.2,7.5-11.6
			c0.1-4.3-4.7-7.5-7.3-11.2c-26.2-38.1-52.4-76.2-78.6-114.3c-0.9-1.3-1.7-2.7-3-4.9c10.9,0,21,0,31,0c6.4,0,13.6-1.6,19,0.8
			c5.4,2.4,7.7,9.9,11.3,15.1c16.6,24.4,33.1,48.9,49.6,73.4C265.3,746.6,266.4,748.1,267.8,750.1z"/>
		<path style="fill:#797B7C;" d="M827.2,898.7c-27.9,20.7-58.1,27.3-90.6,18c-38.8-11-52.7-57.9-26.7-88
			c9.4-10.8,22.3-15.5,35.9-18.2c18-3.5,36.3-5.8,54.5-8.2c3.5-0.5,7-1.2,10.4-2.3c8.6-2.8,14.8-7.7,15.3-17.8
			c0.5-9.5-3-16.8-11.2-21.6c-9.8-5.7-20.6-5.9-31.5-5.5c-6,0.2-12,1.3-17.8,3.6c-10.4,4.2-17.1,11.4-18.9,22.5
			c-0.5,3-1.5,3.9-4.5,3.8c-11.1-0.2-22.3-0.2-33.5,0c-3.5,0.1-4.3-1.1-4-4.4c2.2-22.8,13.5-39.9,34.3-48.9
			c30.8-13.3,62.8-14.1,94.1-1.6c21.4,8.6,32.6,24.9,32.2,48.9c-0.5,30.2-0.1,60.5-0.1,90.7c0,0.8,0,1.7,0,2.5
			c0,13.5,3.1,16.4,16.2,15c3.2-0.3,4.1,0.1,4,3.3c-0.2,7.3-0.1,14.5,0,21.8c0,2-0.1,3.6-2.5,4.2c-11.1,3-22.4,5.3-34,3.1
			C837.2,917.5,829.4,910.9,827.2,898.7z M823.4,821.7c-7.1,4-14.1,6-21.5,6.9c-6.2,0.8-12.4,1.3-18.6,2.2
			c-10.1,1.6-20.4,2.8-29.7,7.6c-10.9,5.7-15.1,15.1-14.2,26.8c0.7,10.1,7.8,15.4,16.5,18.5c17.8,6.3,35.2,5.2,51.5-4.5
			c8.9-5.3,15.4-13,15.9-23.8C823.8,844.5,823.4,833.5,823.4,821.7z"/>
		<path style="fill:#797B7C;" d="M1232.9,727.2c14.7,0,28.7,0.1,42.7-0.1c3.2,0,3.4,2.3,4.1,4.2c7.8,22.4,15.6,44.9,23.5,67.4
			c7.9,22.8,15.9,45.5,24,68.7c1.7-1.3,1.9-2.9,2.4-4.4c14.8-43.6,29.6-87.2,44.2-130.8c1.3-3.8,2.9-5.2,7-5.1
			c12.5,0.3,24.9,0.1,38,0.1c-5.7,15.5-11.1,30.3-16.5,45.2c-18.8,51.1-37.6,102.3-56.6,153.3c-4.5,12.1-9,24.4-15.6,35.7
			c-11.1,19.3-27.7,28.9-50,28.7c-8.5-0.1-16.9-0.7-25.3-1.6c-3.3-0.4-4.6-1.4-4.4-4.9c0.3-8.6,0.3-17.2,0-25.9
			c-0.2-4.3,1.6-4.8,5.1-4.1c5.6,1.1,11.3,2.1,17.1,1.8c10.7-0.4,18.2-5.3,22.6-15.1c3.4-7.7,5.5-15.9,8.3-23.9
			c0.8-2.2-0.3-3.9-1-5.8c-22.3-58.7-44.5-117.3-66.8-176C1234.8,732.5,1234,730.3,1232.9,727.2z"/>
		<path style="fill:#797B7C;" d="M1137.6,819.1c0-18.9-0.1-37.8,0.1-56.8c0-3.6-1-4.6-4.6-4.5c-7.8,0.2-15.5,0-23.3,0.1
			c-2.6,0-3.6-0.7-3.5-3.4c0.2-7.9,0.2-15.9,0-23.8c-0.1-3,1-3.7,3.8-3.6c7.8,0.2,15.5-0.1,23.3,0.1c3.3,0.1,4.3-1,4.3-4.3
			c-0.2-15.7,0.1-31.4-0.2-47.1c-0.1-4.3,1.3-5.4,5.4-5.2c10.5,0.3,21,0.3,31.4,0c4.2-0.1,5,1.3,5,5.2c-0.2,15.4,0.1,30.7-0.2,46.1
			c-0.1,4.1,0.9,5.6,5.2,5.4c9.4-0.3,18.9,0,28.4-0.2c2.8,0,3.9,0.7,3.8,3.7c-0.2,7.8-0.2,15.5,0,23.3c0.1,3.4-1.3,3.9-4.2,3.8
			c-9.6-0.1-19.3,0.1-28.9-0.1c-3.2-0.1-4.3,0.8-4.3,4.2c0.1,34.3,0.1,68.6,0.1,102.9c0,4.6,0.5,9.2,3.1,13.1
			c3.2,5,8.5,5.9,13.7,6.2c5.6,0.4,11.1,0.4,16.7-0.7c2.9-0.6,3.9,0.4,3.8,3.4c-0.2,8.3-0.1,16.6,0,24.8c0,1.9-0.2,3.1-2.6,3.4
			c-16.6,2.1-33.3,3.4-49.8-0.9c-15.9-4.2-23.6-15-25.4-30.9c-2.2-19-0.7-38.1-1.1-57.2C1137.6,823.9,1137.6,821.5,1137.6,819.1z"/>
		<path style="fill:#797B7C;" d="M421.9,844c-13.2-10.4-23.1-23.6-31-38.2c-11.5-21.1-17.3-43.8-17.6-67.9c-0.1-8.8,3.9-16,7.7-23.2
			c18.5-35.3,47.1-57.6,86.8-63.6c34.8-5.3,67.8,0.2,96.4,22.2c19.5,15,30.3,35.4,34.2,59.6c0.6,4-0.2,5.7-4.8,5.5
			c-11.7-0.3-23.3-0.3-35,0c-3.9,0.1-5.5-1.1-6.6-4.9c-6.2-21.2-18.4-37.6-40.4-43.6c-38.9-10.6-76.6,3.5-92.5,45.8
			c-13.2,34.9-12.3,70,1.9,104.7C421.4,841.4,422.5,842.5,421.9,844L421.9,844z"/>
		<path style="fill:#797B7C;" d="M628.7,785.1c0-41.4,0.1-82.8-0.1-124.2c0-4.8,1.4-5.8,5.9-5.7c10.3,0.3,20.6,0.3,30.9,0
			c3.7-0.1,4.9,0.8,4.9,4.7c-0.3,13-0.1,26-0.1,39c0,70.1-0.1,140.3,0.1,210.4c0,5.3-1.5,6.5-6.5,6.3c-10.1-0.4-20.3-0.3-30.4,0
			c-3.9,0.1-4.8-1.1-4.8-4.8C628.8,869,628.7,827.1,628.7,785.1z"/>
		<path style="fill:#797B7C;" d="M941.2,762c8.5-18.8,22.2-31.1,41.2-37.7c8.7-3,17.7-2.3,26.6-1.8c2.6,0.2,3.8,1.3,3.7,4.2
			c-0.2,10.6-0.3,21.3,0,31.9c0.1,4.5-2,4.5-5.2,3.9c-8.9-1.5-17.8-1.9-26.6,0.8c-20.3,6.4-30,21.8-34.8,41.2
			c-2.1,8.2-2.3,16.7-2.2,25.2c0,26.9-0.1,53.7,0.1,80.6c0,4.3-1.3,5.4-5.4,5.3c-10.6-0.3-21.3-0.2-31.9,0c-3.3,0.1-4.3-0.9-4.3-4.3
			c0.1-60,0.1-119.9,0-179.9c0-3.1,0.5-4.5,4.1-4.4c10.1,0.2,20.3,0.3,30.4,0c3.8-0.1,4.4,1.4,4.3,4.7
			C941.1,741.9,941.2,751.9,941.2,762z"/>
		<path style="fill:#797B7C;" d="M1080.2,821.7c0,29.6-0.1,59.1,0.1,88.7c0,4.2-1.1,5.5-5.3,5.3c-10.5-0.3-21-0.2-31.4,0
			c-3.5,0.1-5-0.6-5-4.7c0.1-59.8,0.1-119.6,0-179.4c0-3.7,1.2-4.5,4.6-4.5c10.8,0.2,21.6,0.3,32.4,0c3.9-0.1,4.7,1.2,4.7,4.9
			C1080.1,761.9,1080.2,791.8,1080.2,821.7z"/>
		<path style="fill:#797B7C;" d="M384.8,861.9c13.8,11.8,28.8,20.8,45.8,25.9c31,9.3,60.5,6.7,88.7-10.2
			c20.4-12.3,30.5-30.8,34.4-53.5c1.3-7.7,1.2-7.7,9.1-7.7c10.8,0,21.6,0,32.4,0c2.5,0,4.2,0,3.8,3.5c-4,43.5-28,80.4-69.6,94.9
			c-51.4,17.8-112.6,2.1-143.8-49.5C385.3,864.5,384.4,863.8,384.8,861.9z"/>
		<path style="fill:#797B7C;" d="M1059.2,694.9c-5.7,0-11.5-0.1-17.2,0c-2.6,0.1-3.5-0.7-3.5-3.4c0.1-11,0.1-21.9,0-32.9
			c0-2.3,0.5-3.4,3.1-3.3c11.8,0.1,23.6,0.1,35.4,0c2.4,0,3.2,0.7,3.2,3.2c-0.1,11.1-0.1,22.3,0,33.4c0,2.5-1,3.1-3.3,3.1
			C1071,694.8,1065.1,694.9,1059.2,694.9z"/>
		<path style="fill:#797B7C;" d="M1474.2,750.6c2.5-6.7,5.1-13.2,7.4-19.9c0.9-2.7,2.2-3.9,5.1-3.4c3,0.5,1.8,2.9,1.8,4.4
			c0.1,7.1,0.1,14.2,0,21.3c0,1.6,0.5,3.7-2.3,3.5c-2.4-0.2-1.6-2.2-1.6-3.5c-0.1-5.9,0-11.8-1-18.1c-1.7,4.7-3.2,9.4-5.3,13.9
			c-1.3,2.7-0.6,7.6-4.6,7.5c-3.7-0.1-3.2-4.9-4.5-7.6c-1.9-4.2-3.4-8.6-6.3-12.8c0,5.6,0.1,11.1,0,16.7c0,1.5,0.9,3.8-1.8,3.9
			c-2.8,0-1.8-2.4-1.8-3.8c-0.1-7.3-0.1-14.5,0-21.8c0-1.3-0.9-3.3,1.6-3.5c2-0.2,3.8-0.3,4.7,2.5c1.7,5.3,3.8,10.4,5.8,15.6
			C1472.1,747.2,1472.3,749.1,1474.2,750.6z"/>
		<path style="fill:#797B7C;" d="M1442.2,743.6c0-1.7,0-3.4,0-5.1c0-7,0-7-7-8c-1.2-0.2-2.5-0.2-2.3-1.9c0.2-1.4,1.3-1.3,2.3-1.3
			c6.2,0,12.5,0,18.7,0c1,0,2.1,0.1,2.1,1.5c0,1.4-1,1.5-2.1,1.6c-2.5,0.3-5.8-1.2-7.2,0.8c-1.7,2.4-0.5,5.9-0.6,8.9
			c-0.1,4.6,0,9.1,0,13.7c0,1.4,0.1,2.8-2,2.7c-2-0.1-1.9-1.5-1.9-2.9C1442.2,750.3,1442.2,747,1442.2,743.6z"/>
		<path style="fill:#797B7C;" d="M421.8,844c0.3,0.1,0.5,0.1,0.8,0.2c-0.1,0.2-0.1,0.3-0.2,0.5C422.2,844.4,422.1,844.2,421.8,844
			C421.9,844,421.8,844,421.8,844z"/>
		<path style="fill:#FFFDFC;" d="M417.2,337.4c9.9,9.5,21.4,14,34.2,15.8c24.9,3.5,47.1-3.1,66.8-18.4c3.2-2.5,5.3-2.6,8.5,0
			c10.5,8.5,21.3,16.6,32.2,25c-11.4,12.9-25.5,21.6-41,28.1c-36,15-72.5,16.8-108.6,1.6c-38.5-16.2-59.8-45.9-63.5-87.6
			c-4.7-53.6,26.3-99.3,77.8-113.1c36.4-9.8,71.4-5.7,102.2,17.9c20.6,15.8,30.9,38.1,36.3,63c1.2,5.5,0.1,7.6-5.3,9.8
			c-45.5,18.5-90.7,37.5-136.1,56.3C419.6,336.3,418.7,336.7,417.2,337.4z M458.5,230.2c-24.1,0.3-40.6,9.9-50.5,28.1
			c-6.4,11.8-8.1,24.5-7.4,37.7c0.2,4,1.7,3.8,4.8,2.5c30.4-12.7,60.9-25.3,91.4-37.8c3.7-1.5,3.5-3.1,1.8-5.9
			C488.9,238.8,475,230.2,458.5,230.2z"/>
		<path style="fill:#FFFDFC;" d="M926.5,399.9c-46.4-2.2-82.8-21.2-102.2-65c-27.2-61.4,8.3-131.5,73.7-146.9
			c40.4-9.5,77.2-1.8,108.2,26.6c21,19.2,32,43.8,32.9,72.2c1.8,57.5-37.5,103.6-94.4,111.8C938.8,399.4,932.7,400.2,926.5,399.9z
			 M928,350.5c11.6-0.1,22.5-3.5,31.3-9.8c27.4-19.7,31.4-62.4,8.3-88.9c-23.7-27.1-68.2-23.5-86.8,7.2c-8.4,13.9-10.3,29-7.7,44.8
			C877.5,330.5,901.3,350.7,928,350.5z"/>
		<path style="fill:#FFFDFC;" d="M1255.4,290.7c0-49.9,36.2-93.9,86.7-103.7c39.7-7.7,75.7,0.4,105.3,28.8
			c24.2,23.2,34.2,52.5,31.5,85.8c-4.1,49.6-42.3,88.7-92.8,96.7c-54.8,8.6-107.5-20-125-71C1257.2,315.9,1255.2,304.1,1255.4,290.7
			z M1368.8,350.5c21.2-0.6,37.8-10.4,47.7-30.4c6.1-12.2,7.8-25.4,5.2-38.9c-4-20.6-15.1-36-34.9-43.7c-19.4-7.5-38.1-5.1-54.2,8.1
			c-18.4,15.2-23,35.7-19.3,58.5C1317.6,330.6,1341.3,350.6,1368.8,350.5z"/>
		<path style="fill:#FFFDFC;" d="M640.8,216.7c17.9-21,39.7-31.8,65.8-32.3c50.1-1,85.7,32.2,86.3,81c0.5,42.2,0.1,84.5,0.2,126.7
			c0,3.8-1.3,4.4-4.6,4.3c-16-0.2-32.1-0.2-48.2,0c-3.9,0.1-5.1-0.9-5.1-5c0.2-37.3-0.4-74.7,0.3-112c0.4-23-16.5-41.5-39.7-44.8
			c-20.3-2.9-37.4,2.9-48.9,20.9c-4.1,6.5-6.1,13.8-6.1,21.6c0.1,38,0,76,0.1,114.1c0,4.2-1.1,5.4-5.3,5.3
			c-15.9-0.2-31.8-0.2-47.6,0c-3.5,0-4.9-0.5-4.9-4.6c0.1-66.6,0.1-133.1,0-199.7c0-3.6,1-4.4,4.5-4.4c16.4,0.2,32.8,0.2,49.2,0
			c3.3,0,4.3,0.8,4.2,4.2C640.6,199.8,640.8,207.7,640.8,216.7z"/>
		<path style="fill:#FFFDFC;" d="M1147.5,328.9c10.4-28.6,20.6-56.5,30.8-84.5c6.4-17.6,12.8-35.1,19.2-52.7c0.8-2.3,1.4-4,4.6-4
			c20.6,0.2,41.2,0.1,62.5,0.1c-4.8,11.6-9.5,22.9-14.1,34.2c-23.3,56.6-46.6,113.2-69.8,169.9c-1.3,3.2-2.8,4.6-6.5,4.6
			c-17.9-0.2-35.8-0.2-53.7,0c-3,0-4.7-0.6-6-3.8c-27.3-66.6-54.7-133.2-82.1-199.7c-0.6-1.5-1.2-3.1-2-5.1c19,0,37.5,0,56.1,0
			c9.6,0,9.6,0,12.8,8.9c15.6,42.8,31.2,85.7,46.8,128.5C1146.3,326.2,1146.7,327.1,1147.5,328.9z"/>
		<path style="fill:#FFFDFC;" d="M151.9,260.9c0-43.4,0.1-86.8-0.1-130.3c0-4.1,0.9-5.4,5.2-5.3c16,0.3,32.1,0.3,48.2,0
			c4.1-0.1,5,1.2,5,5.1c-0.1,68.9,0,137.9-0.2,206.8c0,5.2,1.3,6.4,6.4,6.3c39.5-0.2,79.1-0.1,118.6-0.2c3.9,0,5.1,0.9,5.1,5
			c-0.3,14.5-0.2,29.1,0,43.6c0,3.5-0.9,4.6-4.5,4.6c-59.6-0.1-119.3-0.1-178.9,0c-3.9,0-4.7-1.1-4.7-4.8
			C152,348.1,151.9,304.5,151.9,260.9z"/>
		<path style="fill:#FFFDFC;" d="M1523.7,379.9c2.5-3.9,4.9-7.2,6.7-10.8c1.6-3,4-3.4,6.7-2.9c3.5,0.6,1.7,3.5,1.8,5.3
			c0.2,7.1,0,14.2,0.1,21.3c0,2.5-0.6,3.7-3.4,3.6c-3,0-2.6-1.9-2.6-3.7c0-5,0-10.1,0-16.1c-4.4,4-6,9-9.7,13
			c-2.9-4.4-5.7-8.6-9.4-14.2c0,6.8,0,12.2,0,17.6c0,2,0,3.6-2.8,3.5c-2.7-0.1-2.9-1.5-2.9-3.6c0.1-7.6,0-15.2,0.1-22.8
			c0-1.3-1-3.5,1.2-3.8c2.2-0.3,4.7-1.2,6.4,1.5C1518.4,371.7,1520.8,375.5,1523.7,379.9z"/>
		<path style="fill:#FFFDFC;" d="M1486.8,383.5c0-1.5-0.2-3,0-4.5c0.6-5.1,0.2-9.1-6.7-7.6c-2,0.4-2.5-0.7-2.5-2.6
			c0-2,0.8-2.6,2.7-2.6c6.4,0.1,12.8,0.1,19.2,0c1.9,0,2.6,0.6,2.7,2.6c0.1,2.4-1,3.1-3,2.7c-5.7-1.1-6.7,1.7-6.3,6.6
			c0.4,5,0,10.1,0.1,15.1c0.1,2.3-0.6,3.3-3.1,3.3c-2.4,0-3.2-0.9-3.1-3.3C1486.9,389.9,1486.8,386.7,1486.8,383.5z"/>
		<path style="fill:#FFFEFE;" d="M823.4,821.7c0,11.8,0.4,22.8-0.1,33.7c-0.5,10.9-7,18.5-15.9,23.8c-16.3,9.7-33.8,10.9-51.5,4.5
			c-8.6-3.1-15.7-8.4-16.5-18.5c-0.8-11.7,3.4-21.2,14.2-26.8c9.3-4.8,19.6-6,29.7-7.6c6.2-1,12.4-1.5,18.6-2.2
			C809.3,827.7,816.3,825.7,823.4,821.7z"/>
		<path style="fill:#E22C27;" d="M458.5,230.2c16.5,0,30.4,8.7,40,24.7c1.7,2.8,1.9,4.4-1.8,5.9c-30.5,12.5-61,25.1-91.4,37.8
			c-3,1.3-4.6,1.5-4.8-2.5c-0.7-13.2,1.1-25.9,7.4-37.7C417.9,240,434.4,230.5,458.5,230.2z"/>
		<path style="fill:#E22926;" d="M928,350.5c-26.7,0.3-50.4-20-54.9-46.7c-2.6-15.9-0.7-31,7.7-44.8c18.5-30.7,63.1-34.3,86.8-7.2
			c23.2,26.5,19.2,69.3-8.3,88.9C950.5,346.9,939.6,350.4,928,350.5z"/>
		<path style="fill:#E22926;" d="M1368.8,350.5c-27.5,0.1-51.2-19.9-55.5-46.4c-3.7-22.7,0.9-43.3,19.3-58.5
			c16.1-13.3,34.8-15.7,54.2-8.1c19.8,7.7,31,23.1,34.9,43.7c2.6,13.5,0.8,26.7-5.2,38.9C1406.6,340,1390,349.9,1368.8,350.5z"/>
	</g>
</g>
</svg>
