
<svg width="152px" height="49px" viewBox="16 43 152 49" version="1.1" xmlns="http://www.w3.org/2000/svg" xmlns:xlink="http://www.w3.org/1999/xlink">
    <!-- Generator: Sketch 40 (33762) - http://www.bohemiancoding.com/sketch -->
    <desc>Created with Sketch.</desc>
    <defs></defs>
    <g id="near_header" stroke="none" stroke-width="1" fill="none" fill-rule="evenodd" transform="translate(16.000000, 43.000000)">
        <g id="Group" fill="#0047BA">
            <g transform="translate(58.000000, 17.000000)" id="Shape">
                <polygon points="9.6 9.7 9.6 0.5 11.7 0.5 11.7 13.4 10.1 13.4 2.8 4.3 2.8 13.4 0.7 13.4 0.7 0.5 2.3 0.5"></polygon>
                <path d="M24.5,13.4 L15,13.4 L15,0.5 L24.5,0.5 L24.5,2.5 L17.1,2.5 L17.1,6 L24.2,6 L24.2,7.9 L17.1,7.9 L17.1,11.4 L24.6,11.4 L24.6,13.4 L24.5,13.4 Z"></path>
                <path d="M36.1,10.7 L29.1,10.7 L27.9,13.4 L25.7,13.4 L31.5,0.5 L33.8,0.5 L39.6,13.4 L37.4,13.4 L36.1,10.7 L36.1,10.7 Z M32.6,2.7 L29.9,8.9 L35.4,8.9 L32.6,2.7 L32.6,2.7 Z"></path>
                <path d="M52.5,13.4 L50.1,13.4 L46.2,8.9 L43.5,8.9 L43.5,13.4 L41.4,13.4 L41.4,0.4 L47.4,0.4 C50.4,0.4 52,2.5 52,4.6 C52,6.4 51,8.3 48.5,8.6 L52.4,12.9 L52.5,13.4 L52.5,13.4 Z M43.4,2.4 L43.4,7.1 L47.3,7.1 C49,7.1 49.8,6 49.8,4.8 C49.8,3.6 49,2.4 47.3,2.4 L43.4,2.4 L43.4,2.4 Z"></path>
            </g>
            <g transform="translate(0.000000, 37.000000)" id="Shape">
                <path d="M3.7,2.3 L0.5,2.3 L0.5,0.9 L8.4,0.9 L8.4,2.3 L5.2,2.3 L5.2,10.6 L3.6,10.6 L3.6,2.3 L3.7,2.3 Z"></path>
                <path d="M17,10.6 L9.9,10.6 L9.9,1 L17,1 L17,2.5 L11.5,2.5 L11.5,5.1 L16.8,5.1 L16.8,6.5 L11.5,6.5 L11.5,9.1 L17.1,9.1 L17.1,10.6 L17,10.6 Z"></path>
                <path d="M27.1,9.3 C26.1,10.3 24.8,10.7 23.5,10.7 C20,10.7 18.4,8.3 18.4,5.8 C18.4,3.3 20,0.7 23.5,0.7 C24.8,0.7 26.1,1.2 27,2.2 L26,3.2 C25.3,2.5 24.4,2.2 23.5,2.2 C21,2.2 19.9,4 19.9,5.8 C19.9,7.6 21,9.3 23.5,9.3 C24.4,9.3 25.4,8.9 26.1,8.3 L27.1,9.3 L27.1,9.3 Z"></path>
                <polygon points="35.3 10.6 35.3 6.6 30.2 6.6 30.2 10.6 28.7 10.6 28.7 1 30.2 1 30.2 5.2 35.3 5.2 35.3 1 36.8 1 36.8 10.6"></polygon>
                <polygon points="45.9 7.8 45.9 0.9 47.4 0.9 47.4 10.5 46.2 10.5 40.7 3.7 40.7 10.5 39.1 10.5 39.1 0.9 40.3 0.9"></polygon>
                <path d="M59.1,5.8 C59.1,8.4 57.5,10.8 54.2,10.8 C50.8,10.8 49.3,8.4 49.3,5.8 C49.3,2.9 51.4,0.7 54.3,0.7 C57.5,0.8 59.1,3.2 59.1,5.8 L59.1,5.8 Z M54.2,9.4 C56.6,9.4 57.6,7.7 57.6,5.9 C57.6,4.1 56.6,2.3 54.2,2.2 C52,2.2 50.8,3.8 50.8,5.9 C50.8,7.5 51.8,9.4 54.2,9.4 L54.2,9.4 Z"></path>
                <polygon points="62.5 0.9 62.5 9.1 67.6 9.1 67.6 10.5 61 10.5 61 0.9 62.5 0.9"></polygon>
            </g>
            <g transform="translate(68.000000, 37.000000)" id="Shape">
                <path d="M10,5.8 C10,8.4 8.4,10.8 5.1,10.8 C1.8,10.8 0.2,8.4 0.2,5.8 C0.2,2.9 2.3,0.7 5.2,0.7 C8.4,0.8 10,3.2 10,5.8 L10,5.8 Z M5,9.4 C7.4,9.4 8.4,7.7 8.4,5.9 C8.4,4.1 7.4,2.3 5,2.2 C2.8,2.2 1.6,3.8 1.6,5.9 C1.7,7.5 2.7,9.4 5,9.4 L5,9.4 Z"></path>
                <path d="M18.9,3.1 C18.2,2.4 17.2,2.1 16.3,2.1 C14,2.1 12.7,3.8 12.7,5.8 C12.7,7.6 13.8,9.3 16.3,9.3 C17.1,9.3 17.9,9.1 18.7,8.4 L18.7,6.4 L16,6.4 L16,5 L20.1,5 L20.1,9 C19.1,10.1 17.9,10.7 16.3,10.7 C12.8,10.7 11.2,8.3 11.2,5.8 C11.2,3 13,0.6 16.3,0.6 C17.6,0.6 18.9,1.1 19.9,2.1 L18.9,3.1 L18.9,3.1 Z"></path>
                <polygon points="22 10.6 22 1 23.5 1 23.5 10.6"></polygon>
                <path d="M33.1,10.6 L26,10.6 L26,1 L33.1,1 L33.1,2.5 L27.6,2.5 L27.6,5.1 L32.9,5.1 L32.9,6.5 L27.6,6.5 L27.6,9.1 L33.2,9.1 L33.2,10.6 L33.1,10.6 Z"></path>
                <path d="M40.9,3.1 C40.4,2.4 39.5,2 38.5,2 C37.2,2 36.3,2.5 36.3,3.5 C36.3,4.4 37.4,4.7 38.6,4.9 C40.6,5.2 42.5,5.7 42.5,7.9 C42.5,10.1 40.5,10.9 38.5,10.9 C36.7,10.9 35.2,10.3 34.4,8.7 L35.6,7.9 C36.3,9.1 37.5,9.5 38.6,9.5 C39.8,9.5 41,9.1 41,7.9 C41,6.9 39.9,6.5 38.5,6.3 C36.6,6 34.8,5.6 34.8,3.5 C34.8,1.5 36.8,0.7 38.5,0.7 C39.9,0.7 41.3,1 42.1,2.3 L40.9,3.1 L40.9,3.1 Z"></path>
            </g>
            <path d="M117.4,47.6 L117.4,35.4 L120.9,35.4 C124.1,35.4 127.4,35.7 130.6,35.2 C136.7,34.4 141,28.9 140.5,23.1 C140,16.8 135.1,12.3 128.7,12.2 C125,12.1 121.3,12.2 117.4,12.2 L117.4,0.3 C125.4,0.3 133.5,-0.7 140.7,4.3 C149.1,10.2 153.1,20.7 150.2,30.5 C147.3,40.4 138.4,47.4 128.1,47.6 C124.6,47.7 121.1,47.6 117.4,47.6 L117.4,47.6 L117.4,47.6 Z" id="Shape"></path>
            <path d="M128.4,28.3 L119.6,28.3 L119.6,19.5 L128.4,19.5 L128.4,28.3 L128.4,28.3 L128.4,28.3 Z M117.5,17.4 L117.5,30.5 L130.6,30.5 L130.6,17.4 L117.5,17.4 L117.5,17.4 L117.5,17.4 Z" id="Shape"></path>
        </g>
    </g>
</svg>
