<svg xmlns:rdf="http://www.w3.org/1999/02/22-rdf-syntax-ns#" xmlns="http://www.w3.org/2000/svg" height="54.192pt" width="293.89pt" version="1.1" xmlns:cc="http://creativecommons.org/ns#" xmlns:dc="http://purl.org/dc/elements/1.1/" viewBox="0 0 293.889 54.1924">
<title>PRODUBAN_Positivo_RGB.EPS</title>
<g>
<path fill="#f09aa7" d="m37.042 6.2231 20.578 9.5933-20.578 9.5982-20.579-9.5962 20.579-9.5953z"/>
<path fill="#f00" d="m37.042 25.415 20.578-9.5982 0.0005 26.041-20.579 9.5947v-26.038z"/>
<path fill="#e86677" d="m37.042 25.415v26.038l-20.578-9.5947-0.0015-26.039 20.579 9.5962z"/>
<path fill="#ccc" d="m37.04 17.73 8.2315 3.8369-8.2315 3.8393-8.2314-3.8383 8.2314-3.8379z"/>
<path fill="#231f20" d="m37.04 25.406 8.2315-3.8393v10.416l-8.2315 3.8379v-10.415z"/>
<path fill="#666" d="m37.04 25.406v10.415l-8.2309-3.8379-0.0005-10.416 8.2314 3.8383z"/>
<path d="m8.2319 0 8.2311 3.8369-8.2311 3.8394-8.2319-3.8384 8.2319-3.8379z" fill="#f09aa7"/>
<path d="m8.2319 7.6763 8.231-3.8394v10.417l-8.231 3.8374v-10.415z" fill="#f00"/>
<path d="m8.2319 7.6763v10.415l-8.2309-3.838-0.001-10.415 8.2319 3.8384z" fill="#e86677"/>
</g>
<path d="m242.95 8.2051l-6.22 0.0117-1.76 15.109c-2.29-1.433-5.6-2.372-10.35-2.402-7.96-0.051-20.29 4.619-21.45 17.541 0 0-2.57 16.756 14.52 16.996 5.59 0.078 10.87-2.151 14.58-5.315 3.14-2.688 6.35-6.942 7.4-14.062l3.28-27.879zm47.64 0l-6.22 0.0117-3.64 31.304c-0.06 0.484-0.13 1.031-0.19 1.627l-0.07 1.143c-0.22 5.314 1.43 13.083 15.25 13.172 7.96 0.051 20.29-4.619 21.45-17.539 0 0 2.57-16.759-14.52-16.998-5.59-0.078-10.43 2.061-14.13 5.224l2.07-17.945zm-106.44 12.725c-5.59-0.079-10.87 2.152-14.58 5.316-3.43 2.93-6.93 7.719-7.6 16.049-0.22 5.314 1.43 13.083 15.25 13.172 7.96 0.051 20.29-4.619 21.45-17.539 0 0 2.56-16.759-14.52-16.998zm-62.17 0.086c-2.9 0-8.38 1.294-13.32 7.115l0.77-5.918-6.24 0.041-5.786 49.92 6.216 0.082 2.15-18.506c2.25 1.215 4.96 1.775 9.27 1.803 7.96 0.051 20.3-4.617 21.45-17.539 0 0 2.57-16.998-14.51-16.998zm213.33 0.437v2.68h2.68c7.38 0 7.75 4.275 7.08 8.297l-0.37 3.099c-2.68 0-19.31-3.032-24.63 8.395-2.48 7.778 3.42 12.101 8.79 12.101 2.68 0 4.44-0.388 6.45-1.058 4.02-1.341 6.71-3.351 7.38-4.022 0.09 2.378 1.25 4.935 2.23 5.055 0.3 0.036 0.6 0.073 1.48-0.199l7.72-2.565 0.25-2.031c-1.19 0.387-2.76 0.729-3.52 0.637-0.89-0.111-1.44-0.643-1.46-2.553l2.01-17.111c0.49-4.658 0-10.725-12.74-10.725h-3.35zm33.23 0.727l-6.52 0.006-3.75 33.302h6.42l2.07-17.896c1.07-10.634 20.49-14.014 18.21 0.51l-2.32 17.386h6.42l2.7-21.672c0.51-3.867-1.17-11.631-11.82-11.611-4.38 0.009-9.3 2.214-11.88 4.025l0.47-4.05zm-218.94 0.033l-6.52 0.006-3.84 33.248 6.47-0.006 2.11-17.838c0.69-6.006 8.05-9.873 13.25-8.773l0.76-6.219c-5.53-0.363-10.35 1.534-12.7 3.633l0.47-4.051zm97.65 0l-2.7 21.672c-0.51 3.867 1.17 11.631 11.82 11.611 4.39-0.008 9.3-2.214 11.88-4.025l-0.47 4.05 6.52-0.005 3.75-33.303h-6.42l-2.07 17.898c-1.07 10.634-20.49 14.013-18.21-0.511l2.32-17.387h-6.42zm-23.28 1.959c8.45-0.214 9.34 7.063 8.45 12.344-0.65 6.496-5.36 14.192-11.52 14.422-8.45 0.311-9.93-7.276-9.28-13.772 0.65-5.197 4.31-12.791 12.35-12.994zm75.47 1.277c8.45-0.312 9.93 7.276 9.28 13.772-0.65 5.198-4.31 12.791-12.35 12.994-8.44 0.213-9.34-7.063-8.45-12.344 0.65-6.496 5.36-14.194 11.52-14.422zm-118.5 0.006c8.44-0.312 9.93 7.276 9.28 13.772-0.65 5.196-4.32 12.789-12.35 12.992-8.45 0.213-9.34-7.062-8.45-12.342 0.65-6.497 5.36-14.193 11.52-14.422zm-62.17 0.086c8.44-0.312 9.92 7.275 9.27 13.771-0.65 5.197-4.31 12.79-12.35 12.993-8.44 0.214-9.33-7.062-8.44-12.342 0.65-6.496 5.35-14.193 11.52-14.422zm225.26 12.668l-0.67 5.363c0 3.352-3.36 7.374-8.05 8.715-6.23 1.531-10.06-1.342-9.39-5.363 0.67-4.022 4.7-6.033 9.39-7.373 4.02-1.341 8.05-1.342 8.72-1.342zm-181.8 1.318l-0.19 1.627c0.06-0.596 0.12-1.145 0.19-1.627z" fill-rule="evenodd" transform="scale(0.75)"/>
</svg>
