<svg xmlns:rdf="http://www.w3.org/1999/02/22-rdf-syntax-ns#" xmlns="http://www.w3.org/2000/svg" xml:space="preserve" version="1.1" xmlns:cc="http://creativecommons.org/ns#" xmlns:dc="http://purl.org/dc/elements/1.1/" viewBox="0 0 606.14 237.95"><g transform="matrix(1.25,0,0,-1.25,0,237.95)"><g transform="scale(.1)"><path d="m504.85 16.439c-28.74 0-38.97 7.025-38.97 31.5v1.983h-10.42v21.414h10.42v75.234h27.83v-75.234h11.14v-21.414h-11.14c0.54-11.159 0.54-13.321 11.14-14.041v-19.442zm-466.42 30.418c-26.758 0-36.098 18.903-36.098 33.123-0.0001 4.319 0.7202 8.458 2.8749 12.418 7.5421 14.042 27.297 16.562 31.971 18.182 8.979 3.05 9.699 5.04 9.699 8.81 0 6.31-4.855 8.65-9.16 8.65-4.85 0-10.959-3.06-10.959-10.27h-26.762c2.1606 21.6 18.502 31.5 36.461 31.5 28.375 0 39.332-19.43 39.332-33.47 0-8.83-3.767-16.025-11.133-21.601-7.728-5.581-25.148-8.642-27.303-9.541-7.359-3.24-7.183-7.017-7.183-9 0-6.116 4.491-8.101 8.801-8.101 6.647 0 7.723 6.838 8.082 9h26.045c-1.618-20.878-17.785-29.7-34.668-29.7zm370.33 0.18c-18.5 0-51.54 12.063-51.54 50.764 0 34.549 28.73 50.929 50.65 50.929 21.37 0 36.99-10.07 46.87-30.23h-31.07c-5.39 3.59-10.42 5.39-14.91 5.39-15.08 0-19.75-7.37-22.26-15.65h72.91c0-49.679-29.27-61.203-50.65-61.203zm146.56 0.361c-28.02 0-51.19 22.501-51.19 50.579 0 26.633 20.65 51.113 50.65 51.113 26.04 0 51.36-19.43 51.36-49.49 0-28.08-21.91-52.202-50.82-52.202zm-328.85 0.721c-11.85 0-21.19 4.86-28.01 14.764l0.36-12.961h-26.59v96.648h27.67v-52.371c0-15.121 7.71-18.361 14-19.261 13.11-1.62 16.89 5.221 16.89 19.261v52.371h28.37v-63.715c0-23.756-14.91-34.016-30.18-34.736h-2.51zm95.37 0c-11.85 0-21.19 4.86-28.02 14.764l0.36-12.961h-26.58v96.648h27.66v-52.371c0-15.121 7.72-18.361 14.01-19.261 13.11-1.62 16.88 5.221 16.88 19.261v52.371h28.38v-63.715c0-23.756-14.91-34.016-30.18-34.736h-2.51zm-250.9 1.803l32.097 82.928 14.36-34.559-15.21-48.369h-31.247zm336.39 22.674c9.15 0 19.39 4.682 23.35 15.662h-44.9c3.04-12.061 13.83-15.662 21.55-15.662zm147.63 1.8c14.72 0 22.98 13.324 22.98 23.942 0 14.032-11.67 23.572-22.81 23.572-12.21 0-22.8-11.33-22.8-23.572 0-13.865 11.13-23.942 22.63-23.942z" transform="matrix(8,0,0,-8,0,1903.6)" fill="#666a6f"/><path d="m237.31 160.95v18.11h2.56v-11.87l12.34 12.9v-17.99h-2.56v11.78l-12.34-12.93zm329.58 0v18.11h2.55v-11.87l12.34 12.9v-17.99h-2.54v11.78l-12.35-12.93zm-372.1 0.82c-2.78 0-5.05 1.04-6.81 3.11-1.42 1.69-2.12 3.62-2.12 5.77 0 2.41 0.84 4.48 2.54 6.18 1.72 1.69 3.78 2.54 6.2 2.54 1.61 0 3.13-0.42 4.6-1.25v-3.09c-0.42 0.35-0.82 0.65-1.19 0.9-0.38 0.25-0.74 0.44-1.09 0.59-0.63 0.3-1.39 0.44-2.29 0.44-1.74 0-3.21-0.61-4.41-1.84-1.19-1.21-1.79-2.72-1.79-4.5 0-1.8 0.6-3.32 1.79-4.57 1.2-1.25 2.66-1.88 4.4-1.88 1.58 0 3.1 0.62 4.58 1.86v-3.02c-1.42-0.83-2.89-1.24-4.41-1.24zm154.91 0c-2.47 0-4.55 0.86-6.27 2.58-1.72 1.71-2.57 3.8-2.57 6.26 0 2.41 0.84 4.48 2.53 6.2 1.69 1.71 3.71 2.57 6.08 2.57 2.42 0 4.42-0.89 5.99-2.66 0.69-0.79 1.19-1.64 1.49-2.55 0.29-0.98 0.44-2.11 0.44-3.38v-0.56h-6.99v2.4h4.22c-0.12 1.19-0.68 2.22-1.68 3.07s-2.13 1.27-3.38 1.27c-1.48 0-2.85-0.56-4.12-1.7-1.34-1.22-2.02-2.78-2.02-4.67 0-1.83 0.61-3.35 1.82-4.57 1.21-1.24 2.71-1.86 4.5-1.86 2 0 3.69 0.93 5.08 2.78l1.82-1.74c-1.07-1.21-2.14-2.09-3.24-2.63-1.15-0.54-2.38-0.81-3.7-0.81zm62.67 0c-1.44 0-2.65 0.43-3.63 1.29-0.97 0.86-1.45 1.92-1.45 3.2 0 1.89 1.16 3.32 3.46 4.3l1.65 0.68c0.41 0.19 0.79 0.38 1.09 0.58 0.31 0.2 0.55 0.42 0.75 0.64 0.19 0.24 0.33 0.49 0.43 0.76 0.09 0.28 0.13 0.58 0.13 0.91 0 0.82-0.25 1.5-0.78 2.03s-1.19 0.8-1.99 0.8c-1.01 0-1.78-0.36-2.3-1.1-0.29-0.38-0.5-1.07-0.61-2.06l-2.59 0.57c0.24 1.58 0.82 2.81 1.76 3.68 0.96 0.87 2.17 1.32 3.65 1.32 1.54 0 2.84-0.52 3.89-1.54 1.03-1.02 1.55-2.31 1.55-3.87 0-1.17-0.31-2.15-0.95-2.95-0.64-0.81-1.64-1.48-3.02-2.04l-1.68-0.7c-1.23-0.5-1.85-1.16-1.85-2 0-0.6 0.24-1.09 0.71-1.49 0.46-0.4 1.05-0.61 1.76-0.61 0.58 0 1.05 0.12 1.42 0.36 0.34 0.2 0.71 0.64 1.1 1.32l2.07-1.24c-1.09-1.89-2.62-2.84-4.57-2.84zm187.44 0c-1.44 0-2.66 0.43-3.63 1.29s-1.45 1.92-1.45 3.2c0 1.89 1.15 3.32 3.47 4.3l1.64 0.68c0.42 0.19 0.78 0.38 1.09 0.58s0.55 0.42 0.75 0.64c0.19 0.24 0.33 0.49 0.43 0.76 0.09 0.28 0.13 0.58 0.13 0.91 0 0.82-0.26 1.5-0.78 2.03-0.53 0.53-1.19 0.8-1.99 0.8-1.01 0-1.77-0.36-2.3-1.1-0.29-0.38-0.49-1.07-0.62-2.06l-2.58 0.57c0.23 1.58 0.82 2.81 1.76 3.68 0.96 0.87 2.17 1.32 3.64 1.32 1.55 0 2.86-0.52 3.89-1.54 1.04-1.02 1.55-2.31 1.55-3.87 0-1.17-0.31-2.15-0.95-2.95-0.63-0.81-1.63-1.48-3.01-2.04l-1.68-0.7c-1.23-0.5-1.85-1.16-1.85-2 0-0.6 0.24-1.09 0.71-1.49 0.46-0.4 1.05-0.61 1.76-0.61 0.57 0 1.05 0.12 1.42 0.36 0.35 0.2 0.71 0.64 1.1 1.32l2.07-1.24c-1.1-1.89-2.62-2.84-4.57-2.84zm-326.37 0.01c-2.44 0-4.53 0.86-6.27 2.57-1.75 1.71-2.62 3.77-2.62 6.15 0 2.72 0.95 4.92 2.87 6.59 1.74 1.51 3.7 2.28 5.89 2.28 2.47 0 4.57-0.86 6.32-2.56 1.74-1.71 2.61-3.77 2.61-6.21 0-2.42-0.87-4.5-2.6-6.22-1.72-1.73-3.79-2.6-6.2-2.6zm47.27 0c-2.44 0-4.53 0.86-6.27 2.57-1.75 1.71-2.62 3.77-2.62 6.15 0 2.72 0.96 4.92 2.87 6.59 1.74 1.51 3.7 2.28 5.89 2.28 2.47 0 4.57-0.86 6.32-2.56 1.74-1.71 2.61-3.77 2.61-6.21 0-2.42-0.87-4.5-2.59-6.22-1.73-1.73-3.8-2.6-6.21-2.6zm116.77 0c-2.44 0-4.53 0.86-6.27 2.57s-2.62 3.77-2.62 6.15c0 2.72 0.96 4.92 2.87 6.59 1.74 1.51 3.71 2.28 5.89 2.28 2.47 0 4.58-0.86 6.33-2.56 1.73-1.71 2.61-3.77 2.61-6.21 0-2.42-0.87-4.5-2.6-6.22-1.73-1.73-3.79-2.6-6.21-2.6zm108.42 0c-2.44 0-4.53 0.86-6.28 2.57-1.74 1.71-2.61 3.77-2.61 6.15 0 2.72 0.95 4.92 2.87 6.59 1.74 1.51 3.7 2.28 5.88 2.28 2.47 0 4.58-0.86 6.33-2.56 1.74-1.71 2.6-3.77 2.6-6.21 0-2.42-0.86-4.5-2.59-6.22-1.72-1.73-3.79-2.6-6.2-2.6zm-402.45 0.32v2.41h3.89v14.55h2.55v-14.55h3.88v-2.41h-10.32zm21.58 0v16.96h9.33v-2.41h-6.78v-5.67h6.58v-2.4h-6.58v-4.07h6.78v-2.41h-9.33zm46.84 0v16.96h2.55v-7.92h7.3v7.92h2.56v-16.96h-2.56v6.63h-7.3v-6.63h-2.55zm82.55 0v16.96h7.54v-2.41h-4.98v-14.55h-2.56zm72.5 0l5.52 9.63v7.33h2.55v-7.33l5.55-9.63h-2.93l-3.89 6.78-3.86-6.78h-2.94zm91.55 0v16.96h7.54v-2.41h-4.98v-14.55h-2.56zm18.41 0v10.92c0 1.79 0.56 3.26 1.68 4.41 1.24 1.29 2.77 1.94 4.59 1.94s3.35-0.65 4.6-1.94c1.11-1.15 1.66-2.62 1.66-4.41v-10.92h-2.55v10.21c0 1.47-0.23 2.54-0.71 3.19-0.71 0.98-1.71 1.46-3 1.46s-2.29-0.48-3-1.46c-0.47-0.67-0.71-1.74-0.71-3.19v-10.21h-2.56zm23.79 0v2.41h3.89v14.55h2.56v-14.55h3.88v-2.41h-10.33zm21.59 0v16.96h2.55v-16.96h-2.55zm-248.85 2.09c1.76 0 3.24 0.61 4.44 1.84 1.2 1.22 1.81 2.74 1.81 4.55 0 1.78-0.61 3.29-1.83 4.54-1.22 1.22-2.72 1.84-4.5 1.84-1.63 0-3.07-0.61-4.32-1.81-1.26-1.21-1.89-2.75-1.89-4.62 0-1.78 0.61-3.29 1.83-4.5 1.21-1.23 2.69-1.84 4.46-1.84zm47.27 0c1.76 0 3.24 0.61 4.44 1.84 1.21 1.22 1.82 2.74 1.82 4.55 0 1.78-0.62 3.29-1.83 4.54-1.23 1.22-2.73 1.84-4.5 1.84-1.64 0-3.08-0.61-4.33-1.81-1.25-1.21-1.89-2.75-1.89-4.62 0-1.78 0.61-3.29 1.83-4.5 1.21-1.23 2.7-1.84 4.46-1.84zm116.77 0c1.77 0 3.25 0.61 4.45 1.84 1.21 1.22 1.81 2.74 1.81 4.55 0 1.78-0.61 3.29-1.84 4.54-1.21 1.22-2.71 1.84-4.48 1.84-1.64 0-3.08-0.61-4.34-1.81-1.26-1.21-1.88-2.75-1.88-4.62 0-1.78 0.61-3.29 1.82-4.5 1.21-1.23 2.7-1.84 4.46-1.84zm108.41 0c1.77 0 3.25 0.61 4.45 1.84 1.21 1.22 1.81 2.74 1.81 4.55 0 1.78-0.61 3.29-1.83 4.54-1.22 1.22-2.72 1.84-4.49 1.84-1.65 0-3.08-0.61-4.33-1.81-1.26-1.21-1.89-2.75-1.89-4.62 0-1.78 0.61-3.29 1.82-4.5 1.21-1.23 2.7-1.84 4.46-1.84z" transform="matrix(8,0,0,-8,0,1903.6)" fill="#1476c6"/><path d="m577.54 1554.7s977.32 572.75 2228 8.32c0 0-1068.5 771.94-2228-8.32zm793.16-50.5-409.46-1023.7h-227.02l114.93 298.03 114.93 276.51 162.37 449.21h244.25" fill="#1476c6"/><path d="m2095 59.129-22.54 65.34h-82.99l-19.92-65.34h-23.52l72.52 224.11h32.35l72.85-224.11h-28.75m-63.06 194.05-34.63-107.48h68.94l-34.31 107.48zm218.22-194.05v224.11h137.21v-24.179h-109.11v-71.207h90.49v-22.551h-90.49v-106.17h-28.1m136.88 84.281c0 46.07 26.13 85.918 76.12 85.918 48.68 0 72.86-42.469 72.86-86.25 0-46.379-26.79-87.219-77.1-87.219-49.66 0-71.88 43.781-71.88 87.551m112.38-42.469c6.87 13.071 8.17 28.098 8.17 42.469 0 15.692-1.95 32.02-10.45 45.41-7.84 12.09-21.56 19.602-35.94 19.602-16 0-30.38-9.152-37.57-23.524-6.21-12.078-8.16-28.097-8.16-41.488 0-15.019 2.28-32.34 9.47-45.41 7.19-12.738 21.23-20.898 36.26-20.898 16.99 0 30.38 8.8086 38.22 23.839zm97.35 124.14v-38.867h0.65c7.84 22.551 21.9 43.449 48.68 43.449l9.48-0.648v-24.5h-5.23c-19.61 0-33.33-9.473-42.8-26.141-6.86-12.082-8.16-22.543-8.16-35.609v-83.633h-25.48v165.95h22.86m97.67-116.95c3.6-22.539 30.05-31.027 49.98-31.027 17.64 0 40.19 6.207 40.19 27.437 0 17.633-17.97 22.539-32.34 25.152l-27.12 4.911c-25.48 4.886-48.68 16.66-48.68 46.058 0 34.301 31.69 48.668 62.08 48.668 29.72 0 57.49-11.098 65.66-41.808l-23.53-4.911c-6.53 18.301-23.51 26.153-42.47 26.153-15.03 0-35.28-5.891-35.28-24.184 0-17.969 15.03-21.887 29.74-24.18l24.17-4.238c12.09-2.301 24.5-4.582 34.63-11.441 13.06-8.821 19.93-22.547 19.93-37.571 0-37.558-36.6-51.289-68.94-51.289s-64.35 13.391-72.85 47.371l24.83 4.899m205.8-64.688c-4.7-12.09-8.3-21.231-17.2-30.704-10.1-10.777-18.9-12.738-33.6-12.738-6.53 0-12.73 1.3086-18.95 2.9414v20.578c5.56-1.3086 11.44-2.289 16.99-2.289 25.81 0 30.39 21.238 37.24 40.84l-57.5 163.01h26.47l44.43-124.79 45.41 124.79h21.56l-65.02-181.64m165.31 14.379-24.5-1.9609c-36.26 0-47.05 21.242-47.05 54.231v96.051h-29.4v20.25h29.4v41.168l25.48 2.613v-43.781h36.93v-20.25h-36.93v-100.29c0-19.282 5.56-29.411 26.47-29.411l19.6 1.6289v-20.25m130.67 1.3086v96.699c0 10.121 0 23.192-3.59 32.992-4.58 12.418-16.34 19.602-29.74 19.602-13.07 0-25.48-7.844-33.64-17.633-11.44-13.719-12.75-29.078-12.75-46.398v-85.262h-25.47v224.11h25.47v-88.859h0.98c10.46 22.211 25.81 34.949 51.62 34.949 17.64 0 34.31-8.16 43.78-23.187 10.13-16.34 8.82-32.02 8.82-50.313v-96.699h-25.48m207.11 45.41c-9.79-30.379-38.88-48.68-70.57-48.68-50.3 0-76.11 39.859-76.11 86.25 0 45.743 27.11 87.219 76.77 87.219 51.62 0 73.84-43.117 72.53-89.187h-120.55c0-13.063 0.65-25.153 6.86-37.571 7.84-15.672 25.15-25.152 42.47-25.152 21.56 0 37.24 12.422 44.43 32.023l24.17-4.902m-25.48 54.563c0.32 27.437-15.03 50.628-44.43 50.628-27.77 0-45.73-24.5-46.72-50.628h91.15zm328.98-30.063c-10.46-42.469-35.62-73.18-82.99-73.18-64.68 0-91.14 62.403-91.14 117.61 0 57.832 28.41 113.03 93.43 113.03 45.08 0 71.55-30.379 80.7-71.539l-26.47-4.902c-7.84 28.421-21.89 52.921-55.21 52.921-48.68 0-61.74-52.921-61.74-91.8 0-17.641 2.94-39.52 10.45-55.86 9.15-19.929 26.46-35.941 49.98-35.941 34.3 0 50.31 25.812 57.5 55.223l25.49-5.563m27.75 14.371c0 46.07 26.13 85.918 76.12 85.918 48.68 0 72.85-42.469 72.85-86.25 0-46.379-26.78-87.219-77.09-87.219-49.66 0-71.88 43.781-71.88 87.551m112.38-42.469c6.87 13.071 8.17 28.098 8.17 42.469 0 15.692-1.96 32.02-10.45 45.41-7.84 12.09-21.56 19.602-35.94 19.602-16.01 0-30.38-9.152-37.57-23.524-6.21-12.078-8.16-28.097-8.16-41.488 0-15.019 2.28-32.34 9.47-45.41 7.19-12.738 21.23-20.898 36.26-20.898 16.99 0 30.38 8.8086 38.22 23.839zm96.37 124.14v-32.008h0.65c8.5 19.918 26.47 36.258 49.66 36.258 24.17 0 41.49-16.34 46.72-39.527 9.14 22.871 28.1 39.527 53.58 39.527 16.98 0 33.32-9.469 41.81-23.848 8.17-13.718 7.84-32.011 7.84-47.371v-98.98h-25.48v98.98c0 11.121 0.65 22.871-4.57 33-5.56 10.782-16.34 17.313-27.77 17.313-12.74 0-24.5-7.844-32.02-18.621-9.47-13.391-9.15-25.481-9.15-41.16v-89.512h-25.48v105.19c0 9.149-0.65 19.93-5.56 28.098-5.87 9.793-16.66 16.004-27.76 16.004-11.43 0-23.19-7.512-30.06-16.332-8.49-10.781-10.12-24.168-10.12-37.891v-95.07h-25.48v165.95h23.19m270.49-220.18h-25.49v220.18h23.2v-32.008h0.65c8.49 21.891 26.46 36.258 51.3 36.258 46.38 0 65.66-46.058 65.66-85.918 0-18.941-3.59-39.851-13.4-56.512-11.43-18.297-29.72-31.039-52.26-31.039-22.87 0-38.23 10.461-49.66 29.402v-80.363m0 119.24c0-22.871 20.25-46.723 43.77-46.723 14.05 0 27.12 8.4922 33.98 20.254 7.51 12.75 8.82 30.058 8.82 44.769 0 27.11-8.5 64.348-42.8 64.348-22.54 0-39.2-19.93-43.77-40.5v-42.148zm259.38 37.898v7.191c0 29.071-12.74 40.168-42.15 40.168-20.9 0-40.83-6.527-45.41-29.386l-23.84 3.91c4.58 34.629 41.16 45.406 71.54 45.406 17.97 0 38.55-1.957 50.97-16.34 13.72-14.687 13.72-35.597 13.72-54.547v-64.363c0-12.078 0.33-24.168 3.59-34.949h-25.48l-2.94 31.031c-11.76-23.84-31.69-34.301-58.15-34.301-31.04 0-57.82 17.309-57.82 50.309 0 19.934 12.41 37.902 30.71 46.062 18.61 8.821 43.11 9.809 63.7 9.809h21.56m0-19.277h-21.24c-26.13 0-67.29-3.59-67.29-37.903 0-20.578 17.63-29.07 35.94-29.07 31.35 0 52.59 26.781 52.59 56.191v10.782zm89.18 51.617h0.66c9.47 20.582 28.09 34.949 51.61 34.949 19.93 0 36.59-8.488 47.05-25.808 8.49-14.04 7.83-36.258 7.83-52.598v-91.793h-25.48v102.58c0 9.801 0.34 22.211-4.57 30.707-5.55 9.473-17.64 15.031-28.43 15.031-13.38 0-25.47-6.211-34.29-16.66-10.78-13.078-13.07-28.098-13.07-44.758v-86.902h-25.49v165.95h24.18v-30.699m197.3-150.94c-4.6-12.089-8.2-21.23-17-30.703-10.1-10.777-18.9-12.738-33.7-12.738-6.53 0-12.73 1.3086-18.94 2.9414v20.578c5.55-1.3086 11.43-2.289 16.98-2.289 25.81 0 30.39 21.238 37.25 40.84l-57.5 163.01h26.46l44.43-124.79 45.41 124.79h21.57l-65.02-181.64" fill="#666a6f"/></g></g></svg>
