<?xml version="1.0" encoding="utf-8"?>
<!-- Generator: Adobe Illustrator 20.1.0, SVG Export Plug-In . SVG Version: 6.00 Build 0)  -->
<svg version="1.1" id="Layer_1" xmlns="http://www.w3.org/2000/svg" xmlns:xlink="http://www.w3.org/1999/xlink" x="0px" y="0px"
	 viewBox="0 0 500 100.9" style="enable-background:new 0 0 500 100.9;" xml:space="preserve">
<style type="text/css">
	.st0{fill:#EC228C;}
</style>
<g id="XMLID_285_">
	<path id="XMLID_570_" d="M205.6,66.7c-2.2,0-4,0-5.2-0.1s-2.7-0.6-4.3-1.6c-1.8-0.9-3.9-2.2-6.2-4c-4.7-3.4-8.4-5-11.1-5
		c-2.5,0-6.4,1.6-11.4,5c-2.4,1.8-4.6,3.1-6.4,3.9c-1.8,0.9-3.3,1.5-4.4,1.6c-1,0.1-3.1,0.3-6.2,0.3c-5.9,0-8.7-0.4-8.7-1.3
		s3.3-3.6,10.1-8.3c6.7-4.7,10.1-7.8,10.1-9.3c0-1.2-2.8-3.7-8.4-7.6c-5.8-3.9-8.6-6.1-8.6-6.8c0-0.3,0.1-0.6,0.4-0.9
		c0.1-0.3,0.4-0.4,0.9-0.6c0.4-0.3,1.2-0.4,2.2-0.4s2.4-0.1,3.7-0.1c5.2,0,8.4,0.3,9.9,0.6s4.1,1.9,8.1,4.4c4,2.7,7.3,4,9.9,4
		c2.2,0,5.3-1.2,9.3-3.8c4-2.7,6.8-4.1,8.3-4.6c1.6-0.3,4.7-0.6,9-0.6c4.6,0,6.8,0.6,6.8,1.8c0,0.7-3,3.1-9,7c-6.1,3.8-9,6.5-9,7.7
		c0,1.5,3.1,4.6,9.6,9.3c6.4,4.6,9.5,7.4,9.5,8.1C214.5,66.3,211.6,66.7,205.6,66.7"/>
	<path id="XMLID_305_" d="M373.5,36.7l-9.8-5.3h44.6c10.8,0,19.4,0.7,25.6,2.1c6.2,1.5,9.3,3.4,9.3,6.1c0,1.6-1.3,3.4-4,5.2
		c-2.8,1.8-4.1,3-4.1,3.6c0,0.7,0.9,1.6,2.7,2.7l4.7,2.2c0.7,0.4,1.5,1,2.1,1.8c0.6,0.9,0.9,1.6,0.9,2.5c0,3-3,5.2-9,6.8
		c-6.1,1.6-13.8,2.5-23.4,2.5h-32.3c-4.9,0-7.3-1-7.3-3L373.5,36.7L373.5,36.7z M406.4,36.4c-7.3,0-10.8,1.6-10.8,4.9
		c0,3.1,3.6,4.7,10.5,4.7c3.7,0,7.3-0.4,10.4-1.5c3.3-0.9,4.7-1.9,4.7-3.4c0-1.3-1.5-2.4-4.7-3.3C413.4,37,409.9,36.4,406.4,36.4z
		 M406.4,51.1c-7.8,0-11.8,1.8-11.8,5.5c0,3.6,4.1,5.5,12,5.5c4.6,0,8.7-0.6,12.1-1.6s5-2.4,5-4c0-1.5-1.8-2.8-5.5-3.8
		C414.5,51.5,410.7,51.1,406.4,51.1z"/>
	<path id="XMLID_302_" d="M225.6,36.8l-9.9-5.3h24.1c1.8,0,3.3,0.3,4.6,0.9c1.3,0.6,2.1,1.3,2.1,2.1v23.1c0,1.3,1.3,2.5,4,3.6
		c2.8,0.9,6.1,1.3,9.9,1.3h15.7c0.7,0,1.6,0,2.4,0.1c0-0.1,0-0.1,0.1-0.1l26.5-28c0.6-0.6,1.6-1.2,2.8-1.8c1.2-0.4,2.7-0.9,4.1-1
		c1.6-0.3,5.3-0.4,11.1-0.4c5,0,8.1,0.1,9.6,0.4s2.8,0.6,4,1c1,0.6,2.1,1.2,3,1.9L367,62.4c1,1,1.6,1.8,1.6,2.1
		c0,1.5-3.3,2.2-9.6,2.2c-5.6,0-9.9-1.2-13.3-3.4c-2.5-1.8-4.4-3-5.9-3.4s-3.4-0.7-5.8-0.7h-20.9c-2.5,0-4.9,0.3-7.1,0.9
		c-2.1,0.4-4.1,1.6-6.2,3.3c-2.8,2.2-7.3,3.4-13.3,3.4c-2.7,0-4.7-0.1-6.2-0.3c-1.3,0.1-2.7,0.3-4,0.3h-44c-1.6,0-3.1-0.3-4.6-0.7
		c-1.3-0.6-2.1-1.2-2.1-1.8V36.8z M322.4,40.6c-2.5,0-5,1.2-7.3,3.7c-2.2,2.5-3.4,4.4-3.4,6.1c0,0.9,1.2,1.8,3.7,2.5
		c2.4,0.6,5,1,7.6,1c2.4,0,4.9-0.4,7.4-1.2c2.5-0.6,3.7-1.5,3.7-2.4c0-1.3-1.3-3.3-3.8-5.9C327.6,41.8,324.9,40.6,322.4,40.6z"/>
	<path id="XMLID_299_" class="st0" d="M112.4,82c-16,14.2-40.7,21.6-64,17.9C24.8,96.2,10.5,84.5,3.7,70.3
		c-5.6-11.5-4.6-25.5,1.2-36.4c5.6-10.8,13.9-18.1,23.8-23.7c-1.9,1.5-2.2,4.1-0.6,7.4c1.8,3.4,6.7,9.3,13.3,16.3
		C29.9,41.4,19,49.1,13.2,54.2c-16.3,14-12,23.8,8.4,13.9c7.8-3.7,20.7-11.7,33.8-20.3C65.9,58,78.2,68.5,86.9,74.3
		C99.4,82.8,108.6,84.7,112.4,82 M64,0.1c12.9-0.7,26.1,1.6,36.9,6.7c12.6,5.9,22.8,14.5,27.4,29c4.4,14.4-0.7,32.3-15,45.5
		c2.8-3.4,0.4-11.1-9-21.2C97.9,53.3,86.2,43.2,75,34.3c10.8-7.6,19.7-14.2,23.5-18.2c9.2-9.3,0.7-13.2-13.5-7.3
		c-5.6,2.5-15.1,7.6-25.5,13.8c-7.8-5.8-14.7-10.2-18.7-12.1C36.7,8.7,33,8.3,30.5,9.2C40.3,4.1,51.6,0.7,64,0.1z"/>
	<polygon id="XMLID_298_" points="311,97.9 314.8,97.9 314.8,82.4 321.9,82.4 321.9,78.9 303.6,78.9 303.6,82.4 311,82.4 	"/>
	<polygon id="XMLID_297_" points="209.1,97.9 212.7,97.9 212.7,83 212.8,83 228.7,97.9 233.3,97.9 233.3,78.9 229.9,78.9 
		229.9,94.6 229.8,94.6 213.3,78.9 205.7,78.9 209.1,81.2 	"/>
	<rect id="XMLID_296_" x="368" y="78.9" class="st0" width="3.5" height="19"/>
	<path id="XMLID_292_" class="st0" d="M405.1,82h1.4c8.4,0,12,1.6,12.1,6.3c0,4.7-3.5,6.6-11.4,6.6h-2.1V82z M401.6,97.9h5.8
		c8.9,0,14.4-2.7,14.4-9.6c0-6.8-5.2-9.5-13.1-9.5h-7.1L401.6,97.9L401.6,97.9z"/>
	<rect id="XMLID_291_" x="445.8" y="78.9" width="3.5" height="12.5"/>
	<polygon id="XMLID_290_" class="st0" points="445.8,97.9 460.2,97.9 460.2,94.4 448.6,94.4 448.6,94.4 445.8,94.4 	"/>
	<polygon id="XMLID_286_" points="484.5,97.9 500,97.9 500,94.4 488,94.4 488,90.3 499.1,90.3 499.1,86.8 488,86.8 488,82.4 
		499.6,82.4 499.6,78.9 484.5,78.9 484.5,78.9 481.2,78.9 484.5,81 	"/>
</g>
<path d="M269.6,78.6c-6.1,0-11.2,4.4-11.2,9.8c0,5.4,5,9.8,11.2,9.8s11.2-4.4,11.2-9.8C280.8,83,275.8,78.6,269.6,78.6z M269.6,95.2
	c-4.5,0-7.8-2.8-7.8-6.8c0-4,3.3-6.8,7.8-6.8s7.8,2.8,7.8,6.8S274.1,95.2,269.6,95.2z"/>
</svg>
