<?xml version="1.0" encoding="UTF-8"?>
<svg width="1200px" height="700px" version="1.1" viewBox="0 0 1200 700" xmlns="http://www.w3.org/2000/svg" xmlns:xlink="http://www.w3.org/1999/xlink">
  <title>Ansible Tower by Red Hat</title>
  <!-- Generator: Sketch 40 (33762) - http://www.bohemiancoding.com/sketch -->
  <desc>Created with Sketch.</desc>
  <defs>
    <polygon id="path-1" points="0 700 1200 700 1200 0 0 0"/>
  </defs>
  <g id="Ansible-Tower-Logotype-CMYK-Mark-FullBlack" fill="none" fill-rule="evenodd">
    <g transform="translate(600 350) scale(1 -1) translate(-600 -350)">
      <g id="g7932-Clipped">
        <mask id="mask-2" fill="white">
          <use xlink:href="#path-1"/>
        </mask>
        <g mask="url(#mask-2)">
          <g transform="translate(115 171.25)" fill="none">
            <g transform="translate(1.0372 .87912)">
              <path id="logo_red" d="m351.25 176.25c0-96.732-78.41-175.14-175.14-175.14-96.728 0-175.15 78.411-175.15 175.14 0 96.726 78.419 175.14 175.15 175.14 96.735 0 175.14-78.419 175.14-175.14" fill="#E61C33"/>
            </g>
            <g transform="translate(91.34 89.032)">
              <path id="logo_symbol" d="m88.75 156.25 45.324-111.86-68.461 53.928 23.138 57.938zm80.518-137.64-69.718 167.78c-1.99 4.8388-5.97 7.3988-10.8 7.3988-4.8388 0-9.1088-2.56-11.099-7.3988l-76.519-184.03h26.175l30.291 75.878 90.395-73.029c3.6362-2.94 6.2588-4.27 9.6688-4.27 6.83 0 12.799 5.12 12.799 12.51 0 1.2025-0.425 3.1112-1.1938 5.1638z" fill="#fff"/>
            </g>
            <g transform="translate(855.83 242.53)">
              <g id="text" fill="#231F20">
                <polygon transform="translate(-438.35 -139.7)" points="47.5 103.75 47.5 0.045 34.639 0.045 34.639 103.75 0.67625 103.75 0.67625 115.46 81.462 115.46 81.462 103.75"/>
                <path transform="translate(-343.21 -141.63)" d="m47.5 107.5c-19.95 0-34.624-18.631-34.624-47.649s15.169-47.978 35.282-47.978c19.95 0 34.789 18.631 34.789 47.649s-15.334 47.978-35.448 47.978m0.16375-107.33c-28.688 0-47.648 24.566-47.648 59.354s19.29 59.682 47.978 59.682 47.812-24.565 47.812-59.354c0-34.788-19.454-59.682-48.142-59.682"/>
                <path transform="translate(-231.99 -139.65)" d="m100 0h-14.509l-18.135 73.862c-1.8138 7.5838-4.2875 18.96-5.6062 26.05-1.3188-7.09-3.7925-18.136-5.605-26.05l-18.138-73.862h-14.178l-23.082 115.41h12.86l13.52-74.191c1.3188-7.585 3.2975-20.115 4.2862-25.721 0.98875 5.6062 3.6275 17.971 5.44 25.391l18.301 74.521h13.849l18.301-74.521c1.8138-7.42 4.4525-19.785 5.44-25.391 0.99 5.6062 2.9688 18.136 4.2875 25.721l13.519 74.191h12.531l-23.082-115.41z"/>
                <polygon transform="translate(-84.342 -139.65)" points="0 0 0 115.41 69.74 115.41 69.74 103.7 12.86 103.7 12.86 67.432 45.835 67.432 45.835 55.728 12.86 55.728 12.86 11.706 72.215 11.706 72.215 0"/>
                <path transform="translate(11.364 -139.7)" d="m46.25 103.75h-32.314v-43.032h30.666c17.146 0 25.225 7.09 25.225 21.599 0 14.18-8.2438 21.434-23.578 21.434m9.2325-53.584 25.391-50.121h-14.839l-24.73 49.132h-27.369v-49.132h-12.86v115.41h45.669c20.28 0 35.942-10.388 35.942-32.646 0-17.97-10.716-29.181-27.205-32.644"/>
                <path transform="translate(-432.36 -221.87)" d="m26.25 33.75c-1.6775 2.4725-4.085 3.7088-7.2212 3.7088-2.0338 0-3.9038-0.56125-5.61-1.69-1.7062-1.1262-3.1075-2.4038-4.2088-3.8312v-18.211c0.495-0.66 1.1012-1.3188 1.8138-1.9775 0.715-0.66125 1.5138-1.2662 2.395-1.8138 0.88125-0.54875 1.8138-1.0038 2.805-1.36 0.98875-0.3575 2.0362-0.535 3.1362-0.535 3.08 0 5.42 1.1388 7.0138 3.4212 1.5962 2.2762 2.3938 5.725 2.3938 10.34 0 5.495-0.83875 9.4762-2.5175 11.949m9.7275-21.441c-0.94-2.7362-2.1962-5.0138-3.77-6.8362-1.5762-1.8238-3.3988-3.1788-5.47-4.0625-2.0725-0.88375-4.2412-1.3262-6.505-1.3262-2.21 0-4.2825 0.50375-6.2162 1.5088-1.935 1.005-3.5088 2.1762-4.7225 3.515v-4.1112h-8.4538v56.021l8.4538 4.3925v-21.102c1.6 1.45 3.3125 2.6638 5.1362 3.6412 1.8225 0.97625 3.8962 1.4662 6.2162 1.4662 2.3188 0 4.5025-0.4425 6.5462-1.3262 2.0425-0.88375 3.825-2.2662 5.345-4.1438 1.52-1.8788 2.7062-4.295 3.5638-7.2512 0.85625-2.9562 1.285-6.5038 1.285-10.649 0-3.7575-0.47-7.0025-1.4088-9.7362"/>
                <path transform="translate(-389.53 -236.21)" d="m18.75 0h-9.0325l6.2962 16.161-15.992 42.679h9.3638l7.1262-21.298c0.3325-0.9425 0.69-2.0188 1.0788-3.2338 0.385-1.215 0.7575-2.4312 1.1175-3.6462 0.36-1.2162 0.69-2.335 0.99625-3.3562 0.30125-1.0225 0.51-1.8362 0.62-2.445 0.16625 0.6625 0.4 1.5062 0.70625 2.5288 0.30125 1.02 0.63375 2.1125 0.9925 3.2725 0.3575 1.16 0.73125 2.3338 1.12 3.5238 0.385 1.1862 0.74375 2.25 1.0775 3.1888l7.375 21.465h9.0325l-21.878-58.84z"/>
                <path transform="translate(-264.9 -222.13)" d="m28.75 31.25c-0.41625 1.3262-1.0362 2.4862-1.8662 3.48-0.82625 0.99375-1.8638 1.7825-3.1062 2.3625-1.2438 0.58-2.75 0.87-4.5162 0.87-2.8725 0-5.1525-0.9525-6.8388-2.86-1.6838-1.9062-2.72-4.5988-3.1062-8.0788h20.22c-0.11125 1.49-0.3725 2.9-0.78625 4.2262m9.3225-9.5725c-0.05625-0.6925-0.1125-1.2562-0.16625-1.6988h-28.756c0.22-2.1 0.6625-3.8938 1.3262-5.3862 0.6625-1.4912 1.4925-2.7225 2.4862-3.6875 0.99375-0.96875 2.0988-1.685 3.315-2.155 1.215-0.47 2.4862-0.70375 3.8112-0.70375 1.8225 0 3.4925 0.30375 5.015 0.91 1.5175 0.6075 2.9962 1.4638 4.4325 2.57l5.0562-5.47c-1.935-1.8225-4.0888-3.2325-6.465-4.2262s-5.22-1.4925-8.5362-1.4925c-2.54 0-4.9588 0.49875-7.25 1.4925-2.295 0.99375-4.2975 2.4575-6.0088 4.3925-1.7125 1.9338-3.0662 4.31-4.06 7.1262-0.995 2.8188-1.4925 6.0225-1.4925 9.6125 0 3.7025 0.47 6.9625 1.41 9.7788 0.9375 2.82 2.2362 5.18 3.8938 7.0862 1.6588 1.9062 3.6588 3.3562 6.0088 4.3525 2.3462 0.99375 4.93 1.49 7.7488 1.49 3.0938 0 5.7862-0.58 8.0788-1.74 2.2938-1.16 4.1975-2.7362 5.72-4.7225 1.5162-1.99 2.65-4.31 3.3962-6.9625s1.12-5.4425 1.12-8.37c0-0.775-0.03-1.5062-0.08375-2.1962"/>
                <path transform="translate(-218.62 -222.6)" d="m28.75 32.5c-0.49625 0.65875-1.1038 1.3175-1.8188 1.9762-0.715 0.66125-1.51 1.265-2.3912 1.8138s-1.8288 1.0025-2.8462 1.36c-1.0188 0.3575-2.05 0.535-3.0962 0.535-3.0812 0-5.4175-1.14-7.0138-3.4188-1.5962-2.28-2.3912-5.7288-2.3912-10.344 0-5.4938 0.83875-9.475 2.515-11.948 1.68-2.4738 4.085-3.71 7.2212-3.71 2.0362 0 3.905 0.5625 5.6112 1.6912 1.7062 1.1262 3.1088 2.4025 4.21 3.8325v18.211zm-0.08375-30.778v4.1975c-1.6025-1.4525-3.315-2.6662-5.1388-3.6425-1.8225-0.9775-3.8938-1.4675-6.215-1.4675-2.32 0-4.5038 0.4425-6.5462 1.3262-2.0438 0.88375-3.8262 2.2662-5.3462 4.145-1.52 1.8775-2.7062 4.2938-3.5625 7.25-0.8575 2.9562-1.2838 6.5062-1.2838 10.649 0 3.7 0.4675 6.9325 1.4062 9.6962 0.94 2.7625 2.1962 5.055 3.7725 6.8788 1.5738 1.8225 3.3975 3.1762 5.47 4.06 2.07 0.88375 4.24 1.3262 6.505 1.3262 2.2075 0 4.2812-0.50125 6.2138-1.5062 1.9338-1.005 3.51-2.1788 4.725-3.5188v16.615l8.4525 4.405v-60.414h-8.4525z"/>
                <polygon transform="translate(-146.15 -220.88)" points="36.25 0 36.25 25.856 9.48 25.856 9.48 0 0.86375 0 0.86375 58.01 9.48 58.01 9.48 34.556 36.25 34.556 36.25 58.01 44.869 58.01 44.869 0"/>
                <path transform="translate(-89.919 -222.31)" d="m27.5 20c-1.16 0.6075-2.5262 1.0762-4.105 1.4075-1.5738 0.3325-3.52 0.49625-5.84 0.49625-2.765 0-4.9462-0.58-6.5462-1.74-1.605-1.16-2.405-2.7338-2.405-4.7225 0-2.1538 0.69125-3.8962 2.0725-5.22 1.38-1.3262 3.48-1.99 6.2988-1.99 2.32 0 4.4062 0.58 6.2588 1.74 1.8475 1.16 3.2725 2.43 4.2662 3.8125v6.2162zm0-18.564v4.3088c-1.4925-1.4925-3.26-2.735-5.305-3.7288-2.0462-0.99375-4.2538-1.4925-6.6275-1.4925-1.7712 0-3.5525 0.2625-5.3462 0.78875-1.7975 0.52375-3.4125 1.3662-4.8462 2.5262-1.4388 1.16-2.6125 2.68-3.525 4.5588-0.9125 1.8775-1.3662 4.1438-1.3662 6.7938 0 2.4325 0.44 4.53 1.3262 6.2988 0.88125 1.7675 2.0988 3.2325 3.6462 4.3925 1.5462 1.16 3.3675 2.0175 5.4662 2.57 2.1 0.55125 4.3938 0.8275 6.88 0.8275 3.9788 0 7.2112-0.55375 9.6975-1.6575v3.2338c0 2.3738-0.70625 4.1962-2.1138 5.4688-1.4062 1.27-3.4388 1.9062-6.0912 1.9062-2.2662 0-4.2938-0.2225-6.0925-0.6625-1.7938-0.44375-3.5475-1.1338-5.26-2.0738l-3.3138 6.4638c2.095 1.2725 4.3338 2.2388 6.7125 2.9025 2.3738 0.6625 5.1075 0.99375 8.2012 0.99375 4.8638 0 8.7988-1.2012 11.81-3.6038 3.0125-2.4062 4.515-6.065 4.515-10.982v-29.832h-8.3675z"/>
                <path transform="translate(-45.984 -222.3)" d="m25 2.5c-1.0475-0.6075-2.28-1.09-3.6862-1.45-1.4075-0.3575-2.9725-0.54-4.6812-0.54-3.0388 0-5.4312 0.94-7.1712 2.82-1.74 1.8762-2.6075 4.7762-2.6075 8.7012v25.109h-6.2175v7.7912h6.2175v12.43l8.3675 4.475v-16.905h10.772v-7.7912h-10.772v-23.618c0-2.0438 0.34625-3.4262 1.0388-4.1438 0.6875-0.71875 1.8338-1.0762 3.4388-1.0762 1.1025 0 2.235 0.1775 3.395 0.5375 1.16 0.35875 2.1262 0.75875 2.9 1.2025l-0.99375-7.5425z"/>
                <path transform="translate(-13.454 -180.07)" d="m12.5 13.75c-0.3325 0.25625-0.74625 0.38625-1.245 0.38625h-2.8738v-3.0925h2.8738c0.49875 0 0.9125 0.12375 1.245 0.37 0.32875 0.25 0.495 0.64125 0.495 1.1762 0 0.515-0.16625 0.90125-0.495 1.16m1.7125-3.2062c-0.4225-0.5325-0.98375-0.90125-1.685-1.1038l2.2388-4.3925h-2.1762l-2.1175 4.2h-2.0912v-4.2h-1.8525v10.885h4.7662c0.47625 0 0.93125-0.065 1.3625-0.1925 0.43125-0.13125 0.80875-0.32875 1.1288-0.59625 0.31875-0.2675 0.58-0.6075 0.76875-1.02 0.1925-0.41625 0.2925-0.90875 0.2925-1.48 0-0.865-0.2125-1.565-0.635-2.1m3.84 3.0538c-0.4275 1.0225-1.0162 1.91-1.7712 2.6662-0.755 0.755-1.6412 1.3438-2.6662 1.7662-1.02 0.425-2.1225 0.63625-3.3 0.63625-1.1962 0-2.3025-0.21125-3.3138-0.63625-1.0112-0.4225-1.8975-1.0112-2.6525-1.7662-0.755-0.75625-1.3438-1.6438-1.7675-2.6662-0.4225-1.0212-0.63375-2.1225-0.63375-3.3 0-1.1988 0.21125-2.3025 0.63375-3.3162 0.42375-1.0112 1.0125-1.8975 1.7675-2.65 0.755-0.75625 1.6412-1.345 2.6525-1.77 1.0112-0.4225 2.1175-0.63375 3.3138-0.63375 1.1775 0 2.28 0.21125 3.3 0.63375 1.025 0.425 1.9112 1.0138 2.6662 1.77 0.755 0.7525 1.3438 1.6388 1.7712 2.65 0.4225 1.0138 0.63375 2.1175 0.63375 3.3162 0 1.1775-0.21125 2.2788-0.63375 3.3m1.475-7.25c-0.50375-1.2162-1.205-2.2712-2.1-3.1638-0.89-0.89375-1.9462-1.5938-3.16-2.0988-1.2188-0.50625-2.5312-0.76-3.9525-0.76-1.4162 0-2.7338 0.25375-3.9475 0.76-1.2188 0.505-2.27 1.205-3.165 2.0988-0.895 0.8925-1.5925 1.9475-2.1 3.1638-0.5075 1.2138-0.76 2.5312-0.76 3.95 0 1.4175 0.2525 2.7325 0.76 3.9488s1.205 2.2712 2.1 3.1638 1.9462 1.5912 3.165 2.1c1.2138 0.505 2.5312 0.75875 3.9475 0.75875 1.4212 0 2.7338-0.25375 3.9525-0.75875 1.2138-0.50875 2.27-1.2075 3.16-2.1 0.895-0.8925 1.5962-1.9475 2.1-3.1638 0.5075-1.2162 0.76-2.5312 0.76-3.9488 0-1.4188-0.2525-2.7362-0.76-3.95"/>
                <path transform="translate(-317.38 -220.98)" d="m33.75 47.5c-1.79 1.6025-4.1725 2.4038-7.1438 2.4038h-16.856v-18.646h16.856c2.9175 0 5.285 0.75875 7.1038 2.28 1.8162 1.5175 2.7262 3.8538 2.7262 7.0025 0 3.0375-0.89625 5.3575-2.6862 6.96m8.0725-17.982c-2.2662-2.8188-5.3862-4.725-9.365-5.7188l11.851-23.7h-10.004l-11.491 22.954h-13.064v-22.954h-8.6162v58.01h25.44c2.5412 0 4.93-0.34625 7.17-1.0362 2.2362-0.6925 4.21-1.74 5.9225-3.15 1.7138-1.41 3.0662-3.2038 4.0625-5.3862 0.99375-2.1825 1.4912-4.7662 1.4912-7.7488 0-4.6962-1.1338-8.4525-3.3975-11.27"/>
                <path transform="translate(-431.21 -.75212)" d="m43.75 36.25c-2.7462 9.8925-3.9562 14.068-4.945 19.234-0.98875-5.1662-2.1988-9.4525-4.9462-19.234l-1.4288-5.055h12.749l-1.4288 5.055zm10.771-35.498-4.1762 13.518h-23.08l-4.1762-13.518h-22.859l27.914 76.931h21.541l27.916-76.931h-23.08z"/>
                <path transform="translate(-343.75)" d="m51.25 0-18.354 25.388c-3.4075 4.7262-10.001 14.618-11.979 18.024 0.55-3.4062 0.65875-13.629 0.65875-19.892v-23.519h-20.441v76.931h18.794l16.925-22.75c3.5162-4.7262 10.331-14.946 11.979-18.134-0.55 3.4075-0.65875 13.629-0.65875 19.894v20.99h20.441v-76.931h-17.365z"/>
                <path transform="translate(-262.56 -1.2092)" d="m32.5 0c-12.419 0-24.399 4.0662-32.421 9.3425l10.331 16.704c5.605-3.845 15.385-7.6925 22.53-7.6925 7.5825 0 10.001 1.3188 10.001 4.945 0 2.8575-2.7475 4.6162-13.079 7.0338-18.574 4.2875-27.476 9.3425-27.476 24.729 0 14.508 11.76 24.289 30.334 24.289 13.079 0 22.53-3.1875 30.662-8.9025l-10.331-16.705c-6.8138 4.615-13.628 7.2538-21.43 7.2538-6.3738 0-7.9138-1.9788-7.9138-4.7262 0-2.8575 2.7475-4.1762 12.639-6.4838 19.344-4.6162 27.915-10.551 27.915-24.948 0-17.585-13.298-24.839-31.761-24.839"/>
                <polygon transform="translate(-855.83 -242.53)" points="671.5 319.46 693.26 319.46 693.26 242.53 671.5 242.53"/>
                <path transform="translate(-146.54 -.73837)" d="m37.5 32.5h-16.925v-14.946h16.815c5.2762 0 7.6938 3.1862 7.6938 7.5838 0 4.505-2.5288 7.3625-7.5838 7.3625m-0.87875 28.355h-16.046v-12.09h16.046c4.945 0 6.7038 2.4188 6.7038 6.045 0 3.4075-1.6488 6.045-6.7038 6.045m0.44-60.116h-36.928v76.931h37.146c19.124 0 26.926-7.1438 26.926-20.002 0-8.3525-4.0662-12.089-9.2312-15.056 6.9238-2.9675 10.99-8.3525 10.99-17.035 0-15.716-9.5612-24.838-28.904-24.838"/>
                <polygon transform="translate(-67.599)" points="0 0 0 76.931 21.541 76.931 21.541 18.572 55.61 18.572 55.61 0"/>
                <polygon points="0 0 0 76.931 58.908 76.931 58.908 59.018 21.101 59.018 21.101 48.796 43.85 48.796 43.85 31.102 21.101 31.102 21.101 17.914 59.678 17.914 59.678 0"/>
              </g>
            </g>
          </g>
        </g>
      </g>
    </g>
  </g>
</svg>
