
<svg width="1200px" height="700px" viewBox="0 0 1200 700" version="1.1" xmlns="http://www.w3.org/2000/svg" xmlns:xlink="http://www.w3.org/1999/xlink">
    <!-- Generator: Sketch 40 (33762) - http://www.bohemiancoding.com/sketch -->
    <desc>Created with Sketch.</desc>
    <defs>
        <polygon id="path-1" points="0 700 1200 700 1200 0 0 0"></polygon>
    </defs>
    <g id="Ansible-Tower-Logotype-CMYK-Mark-FullBlack" stroke="none" stroke-width="1" fill="none" fill-rule="evenodd">
        <g id="g7928" transform="translate(600.000000, 350.000000) scale(1, -1) translate(-600.000000, -350.000000) ">
            <g id="g7930">
                <g id="g7932-Clipped">
                    <mask id="mask-2" fill="white">
                        <use xlink:href="#path-1"></use>
                    </mask>
                    <g id="path7936"></g>
                    <g id="g7932" mask="url(#mask-2)">
                        <g transform="translate(115.000000, 171.250000)">
                            <g id="g7938" stroke-width="1" fill="none" transform="translate(1.037250, 0.879125)">
                                <path d="M351.25,176.25 C351.25,79.5175 272.84,1.10625 176.105,1.10625 C79.3775,1.10625 0.95875,79.5175 0.95875,176.25 C0.95875,272.97625 79.3775,351.395 176.105,351.395 C272.84,351.395 351.25,272.97625 351.25,176.25" id="path7940" fill="#E61C33"></path>
                            </g>
                            <g id="g7942" stroke-width="1" fill="none" transform="translate(91.340375, 89.032500)">
                                <path d="M88.75,156.25 L134.07375,44.385 L65.6125,98.3125 L88.75,156.25 L88.75,156.25 Z M169.2675,18.615 L99.55,186.39625 C97.56,191.235 93.58,193.795 88.75,193.795 C83.91125,193.795 79.64125,191.235 77.65125,186.39625 L1.1325,2.3625 L27.3075,2.3625 L57.59875,78.24 L147.99375,5.21125 C151.63,2.27125 154.2525,0.94125 157.6625,0.94125 C164.4925,0.94125 170.46125,6.06125 170.46125,13.45125 C170.46125,14.65375 170.03625,16.5625 169.2675,18.615 L169.2675,18.615 Z" id="path7944" fill="#FFFFFF"></path>
                            </g>
                            <g id="g7946" stroke-width="1" fill="none" transform="translate(417.486375, 102.835125)">
                                <polygon id="path7948" fill="#231F20" points="47.5 103.75 47.5 0.045 34.63875 0.045 34.63875 103.75 0.67625 103.75 0.67625 115.45625 81.4625 115.45625 81.4625 103.75"></polygon>
                            </g>
                            <g id="g7950" stroke-width="1" fill="none" transform="translate(512.620250, 100.898500)">
                                <path d="M47.5,107.5 C27.55,107.5 12.87625,88.86875 12.87625,59.85125 C12.87625,30.83375 28.045,11.87375 48.15875,11.87375 C68.10875,11.87375 82.9475,30.505 82.9475,59.5225 C82.9475,88.54 67.61375,107.5 47.5,107.5 M47.66375,0.16875 C18.97625,0.16875 0.01625,24.735 0.01625,59.5225 C0.01625,94.31 19.30625,119.205 47.99375,119.205 C76.68125,119.205 95.80625,94.64 95.80625,59.85125 C95.80625,25.06375 76.3525,0.16875 47.66375,0.16875" id="path7952" fill="#231F20"></path>
                            </g>
                            <g id="g7954" stroke-width="1" fill="none" transform="translate(623.839750, 102.880250)">
                                <path d="M100,0 L85.49125,0 L67.35625,73.8625 C65.5425,81.44625 63.06875,92.8225 61.75,99.9125 C60.43125,92.8225 57.9575,81.77625 56.145,73.8625 L38.0075,0 L23.83,0 L0.7475,115.41 L13.6075,115.41 L27.1275,41.21875 C28.44625,33.63375 30.425,21.10375 31.41375,15.4975 C32.4025,21.10375 35.04125,33.46875 36.85375,40.88875 L55.155,115.41 L69.00375,115.41 L87.305,40.88875 C89.11875,33.46875 91.7575,21.10375 92.745,15.4975 C93.735,21.10375 95.71375,33.63375 97.0325,41.21875 L110.55125,115.41 L123.0825,115.41 L100,0 L100,0 Z" id="path7956" fill="#231F20"></path>
                            </g>
                            <g id="g7958" stroke-width="1" fill="none" transform="translate(771.490500, 102.880250)">
                                <polygon id="path7960" fill="#231F20" points="0 0 0 115.41 69.74 115.41 69.74 103.705 12.86 103.705 12.86 67.4325 45.835 67.4325 45.835 55.7275 12.86 55.7275 12.86 11.70625 72.215 11.70625 72.215 0"></polygon>
                            </g>
                            <g id="g7962" stroke-width="1" fill="none" transform="translate(867.196875, 102.835125)">
                                <path d="M46.25,103.75 L13.93625,103.75 L13.93625,60.7175 L44.6025,60.7175 C61.74875,60.7175 69.8275,67.8075 69.8275,82.31625 C69.8275,96.49625 61.58375,103.75 46.25,103.75 M55.4825,50.16625 L80.87375,0.045 L66.035,0.045 L41.305,49.1775 L13.93625,49.1775 L13.93625,0.045 L1.07625,0.045 L1.07625,115.45625 L46.745,115.45625 C67.025,115.45625 82.6875,105.06875 82.6875,82.81 C82.6875,64.84 71.97125,53.62875 55.4825,50.16625" id="path7964" fill="#231F20"></path>
                            </g>
                            <g id="g7966" stroke-width="1" fill="none" transform="translate(423.472375, 20.656500)">
                                <path d="M26.25,33.75 C24.5725,36.2225 22.165,37.45875 19.02875,37.45875 C16.995,37.45875 15.125,36.8975 13.41875,35.76875 C11.7125,34.6425 10.31125,33.365 9.21,31.9375 L9.21,13.72625 C9.705,13.06625 10.31125,12.4075 11.02375,11.74875 C11.73875,11.0875 12.5375,10.4825 13.41875,9.935 C14.3,9.38625 15.2325,8.93125 16.22375,8.575 C17.2125,8.2175 18.26,8.04 19.36,8.04 C22.44,8.04 24.78,9.17875 26.37375,11.46125 C27.97,13.7375 28.7675,17.18625 28.7675,21.80125 C28.7675,27.29625 27.92875,31.2775 26.25,33.75 M35.9775,12.30875 C35.0375,9.5725 33.78125,7.295 32.2075,5.4725 C30.63125,3.64875 28.80875,2.29375 26.7375,1.41 C24.665,0.52625 22.49625,0.08375 20.2325,0.08375 C18.0225,0.08375 15.95,0.5875 14.01625,1.5925 C12.08125,2.5975 10.5075,3.76875 9.29375,5.1075 L9.29375,0.99625 L0.84,0.99625 L0.84,57.0175 L9.29375,61.41 L9.29375,40.3075 C10.89375,41.7575 12.60625,42.97125 14.43,43.94875 C16.2525,44.925 18.32625,45.415 20.64625,45.415 C22.965,45.415 25.14875,44.9725 27.1925,44.08875 C29.235,43.205 31.0175,41.8225 32.5375,39.945 C34.0575,38.06625 35.24375,35.65 36.10125,32.69375 C36.9575,29.7375 37.38625,26.19 37.38625,22.045 C37.38625,18.2875 36.91625,15.0425 35.9775,12.30875" id="path7968" fill="#231F20"></path>
                            </g>
                            <g id="g7970" stroke-width="1" fill="none" transform="translate(466.306750, 6.321250)">
                                <path d="M18.75,0 L9.7175,0 L16.01375,16.16125 L0.02125,58.84 L9.385,58.84 L16.51125,37.5425 C16.84375,36.6 17.20125,35.52375 17.59,34.30875 C17.975,33.09375 18.3475,31.8775 18.7075,30.6625 C19.0675,29.44625 19.3975,28.3275 19.70375,27.30625 C20.005,26.28375 20.21375,25.47 20.32375,24.86125 C20.49,25.52375 20.72375,26.3675 21.03,27.39 C21.33125,28.41 21.66375,29.5025 22.0225,30.6625 C22.38,31.8225 22.75375,32.99625 23.1425,34.18625 C23.5275,35.3725 23.88625,36.43625 24.22,37.375 L31.595,58.84 L40.6275,58.84 L18.75,0 L18.75,0 Z" id="path7972" fill="#231F20"></path>
                            </g>
                            <g id="g7974" stroke-width="1" fill="none" transform="translate(590.929500, 20.402625)">
                                <path d="M28.75,31.25 C28.33375,32.57625 27.71375,33.73625 26.88375,34.73 C26.0575,35.72375 25.02,36.5125 23.7775,37.0925 C22.53375,37.6725 21.0275,37.9625 19.26125,37.9625 C16.38875,37.9625 14.10875,37.01 12.4225,35.1025 C10.73875,33.19625 9.7025,30.50375 9.31625,27.02375 L29.53625,27.02375 C29.425,28.51375 29.16375,29.92375 28.75,31.25 M38.0725,21.6775 C38.01625,20.985 37.96,20.42125 37.90625,19.97875 L9.15,19.97875 C9.37,17.87875 9.8125,16.085 10.47625,14.5925 C11.13875,13.10125 11.96875,11.87 12.9625,10.905 C13.95625,9.93625 15.06125,9.22 16.2775,8.75 C17.4925,8.28 18.76375,8.04625 20.08875,8.04625 C21.91125,8.04625 23.58125,8.35 25.10375,8.95625 C26.62125,9.56375 28.1,10.42 29.53625,11.52625 L34.5925,6.05625 C32.6575,4.23375 30.50375,2.82375 28.1275,1.83 C25.75125,0.83625 22.9075,0.3375 19.59125,0.3375 C17.05125,0.3375 14.6325,0.83625 12.34125,1.83 C10.04625,2.82375 8.04375,4.2875 6.3325,6.2225 C4.62,8.15625 3.26625,10.5325 2.2725,13.34875 C1.2775,16.1675 0.78,19.37125 0.78,22.96125 C0.78,26.66375 1.25,29.92375 2.19,32.74 C3.1275,35.56 4.42625,37.92 6.08375,39.82625 C7.7425,41.7325 9.7425,43.1825 12.0925,44.17875 C14.43875,45.1725 17.0225,45.66875 19.84125,45.66875 C22.935,45.66875 25.6275,45.08875 27.92,43.92875 C30.21375,42.76875 32.1175,41.1925 33.64,39.20625 C35.15625,37.21625 36.29,34.89625 37.03625,32.24375 C37.7825,29.59125 38.15625,26.80125 38.15625,23.87375 C38.15625,23.09875 38.12625,22.3675 38.0725,21.6775" id="path7976" fill="#231F20"></path>
                            </g>
                            <g id="g7978" stroke-width="1" fill="none" transform="translate(637.211750, 19.930500)">
                                <path d="M28.75,32.5 C28.25375,33.15875 27.64625,33.8175 26.93125,34.47625 C26.21625,35.1375 25.42125,35.74125 24.54,36.29 C23.65875,36.83875 22.71125,37.2925 21.69375,37.65 C20.675,38.0075 19.64375,38.185 18.5975,38.185 C15.51625,38.185 13.18,37.045 11.58375,34.76625 C9.9875,32.48625 9.1925,29.0375 9.1925,24.4225 C9.1925,18.92875 10.03125,14.9475 11.7075,12.475 C13.3875,10.00125 15.7925,8.765 18.92875,8.765 C20.965,8.765 22.83375,9.3275 24.54,10.45625 C26.24625,11.5825 27.64875,12.85875 28.75,14.28875 L28.75,32.5 L28.75,32.5 Z M28.66625,1.7225 L28.66625,5.92 C27.06375,4.4675 25.35125,3.25375 23.5275,2.2775 C21.705,1.3 19.63375,0.81 17.3125,0.81 C14.9925,0.81 12.80875,1.2525 10.76625,2.13625 C8.7225,3.02 6.94,4.4025 5.42,6.28125 C3.9,8.15875 2.71375,10.575 1.8575,13.53125 C1,16.4875 0.57375,20.0375 0.57375,24.18 C0.57375,27.88 1.04125,31.1125 1.98,33.87625 C2.92,36.63875 4.17625,38.93125 5.7525,40.755 C7.32625,42.5775 9.15,43.93125 11.2225,44.815 C13.2925,45.69875 15.4625,46.14125 17.7275,46.14125 C19.935,46.14125 22.00875,45.64 23.94125,44.635 C25.875,43.63 27.45125,42.45625 28.66625,41.11625 L28.66625,57.73125 L37.11875,62.13625 L37.11875,1.7225 L28.66625,1.7225 L28.66625,1.7225 Z" id="path7980" fill="#231F20"></path>
                            </g>
                            <g id="g7982" stroke-width="1" fill="none" transform="translate(709.680625, 21.652750)">
                                <polygon id="path7984" fill="#231F20" points="36.25 0 36.25 25.85625 9.48 25.85625 9.48 0 0.86375 0 0.86375 58.01 9.48 58.01 9.48 34.55625 36.25 34.55625 36.25 58.01 44.86875 58.01 44.86875 0"></polygon>
                            </g>
                            <g id="g7986" stroke-width="1" fill="none" transform="translate(765.913375, 20.217000)">
                                <path d="M27.5,20 C26.34,20.6075 24.97375,21.07625 23.395,21.4075 C21.82125,21.74 19.875,21.90375 17.555,21.90375 C14.79,21.90375 12.60875,21.32375 11.00875,20.16375 C9.40375,19.00375 8.60375,17.43 8.60375,15.44125 C8.60375,13.2875 9.295,11.545 10.67625,10.22125 C12.05625,8.895 14.15625,8.23125 16.975,8.23125 C19.295,8.23125 21.38125,8.81125 23.23375,9.97125 C25.08125,11.13125 26.50625,12.40125 27.5,13.78375 L27.5,20 L27.5,20 Z M27.5,1.43625 L27.5,5.745 C26.0075,4.2525 24.24,3.01 22.195,2.01625 C20.14875,1.0225 17.94125,0.52375 15.5675,0.52375 C13.79625,0.52375 12.015,0.78625 10.22125,1.3125 C8.42375,1.83625 6.80875,2.67875 5.375,3.83875 C3.93625,4.99875 2.7625,6.51875 1.85,8.3975 C0.9375,10.275 0.48375,12.54125 0.48375,15.19125 C0.48375,17.62375 0.92375,19.72125 1.81,21.49 C2.69125,23.2575 3.90875,24.7225 5.45625,25.8825 C7.0025,27.0425 8.82375,27.9 10.9225,28.4525 C13.0225,29.00375 15.31625,29.28 17.8025,29.28 C21.78125,29.28 25.01375,28.72625 27.5,27.6225 L27.5,30.85625 C27.5,33.23 26.79375,35.0525 25.38625,36.325 C23.98,37.595 21.9475,38.23125 19.295,38.23125 C17.02875,38.23125 15.00125,38.00875 13.2025,37.56875 C11.40875,37.125 9.655,36.435 7.9425,35.495 L4.62875,41.95875 C6.72375,43.23125 8.9625,44.1975 11.34125,44.86125 C13.715,45.52375 16.44875,45.855 19.5425,45.855 C24.40625,45.855 28.34125,44.65375 31.3525,42.25125 C34.365,39.845 35.8675,36.18625 35.8675,31.26875 L35.8675,1.43625 L27.5,1.43625 L27.5,1.43625 Z" id="path7988" fill="#231F20"></path>
                            </g>
                            <g id="g7990" stroke-width="1" fill="none" transform="translate(809.848875, 20.229625)">
                                <path d="M25,2.5 C23.9525,1.8925 22.72,1.41 21.31375,1.05 C19.90625,0.6925 18.34125,0.51 16.6325,0.51 C13.59375,0.51 11.20125,1.45 9.46125,3.33 C7.72125,5.20625 6.85375,8.10625 6.85375,12.03125 L6.85375,37.14 L0.63625,37.14 L0.63625,44.93125 L6.85375,44.93125 L6.85375,57.36125 L15.22125,61.83625 L15.22125,44.93125 L25.99375,44.93125 L25.99375,37.14 L15.22125,37.14 L15.22125,13.5225 C15.22125,11.47875 15.5675,10.09625 16.26,9.37875 C16.9475,8.66 18.09375,8.3025 19.69875,8.3025 C20.80125,8.3025 21.93375,8.48 23.09375,8.84 C24.25375,9.19875 25.22,9.59875 25.99375,10.0425 L25,2.5 L25,2.5 Z" id="path7992" fill="#231F20"></path>
                            </g>
                            <g id="g7994" stroke-width="1" fill="none" transform="translate(842.378750, 62.460000)">
                                <path d="M12.5,13.75 C12.1675,14.00625 11.75375,14.13625 11.255,14.13625 L8.38125,14.13625 L8.38125,11.04375 L11.255,11.04375 C11.75375,11.04375 12.1675,11.1675 12.5,11.41375 C12.82875,11.66375 12.995,12.055 12.995,12.59 C12.995,13.105 12.82875,13.49125 12.5,13.75 M14.2125,10.54375 C13.79,10.01125 13.22875,9.6425 12.5275,9.44 L14.76625,5.0475 L12.59,5.0475 L10.4725,9.2475 L8.38125,9.2475 L8.38125,5.0475 L6.52875,5.0475 L6.52875,15.9325 L11.295,15.9325 C11.77125,15.9325 12.22625,15.8675 12.6575,15.74 C13.08875,15.60875 13.46625,15.41125 13.78625,15.14375 C14.105,14.87625 14.36625,14.53625 14.555,14.12375 C14.7475,13.7075 14.8475,13.215 14.8475,12.64375 C14.8475,11.77875 14.635,11.07875 14.2125,10.54375 M18.0525,13.5975 C17.625,14.62 17.03625,15.5075 16.28125,16.26375 C15.52625,17.01875 14.64,17.6075 13.615,18.03 C12.595,18.455 11.4925,18.66625 10.315,18.66625 C9.11875,18.66625 8.0125,18.455 7.00125,18.03 C5.99,17.6075 5.10375,17.01875 4.34875,16.26375 C3.59375,15.5075 3.005,14.62 2.58125,13.5975 C2.15875,12.57625 1.9475,11.475 1.9475,10.2975 C1.9475,9.09875 2.15875,7.995 2.58125,6.98125 C3.005,5.97 3.59375,5.08375 4.34875,4.33125 C5.10375,3.575 5.99,2.98625 7.00125,2.56125 C8.0125,2.13875 9.11875,1.9275 10.315,1.9275 C11.4925,1.9275 12.595,2.13875 13.615,2.56125 C14.64,2.98625 15.52625,3.575 16.28125,4.33125 C17.03625,5.08375 17.625,5.97 18.0525,6.98125 C18.475,7.995 18.68625,9.09875 18.68625,10.2975 C18.68625,11.475 18.475,12.57625 18.0525,13.5975 M19.5275,6.3475 C19.02375,5.13125 18.3225,4.07625 17.4275,3.18375 C16.5375,2.29 15.48125,1.59 14.2675,1.085 C13.04875,0.57875 11.73625,0.325 10.315,0.325 C8.89875,0.325 7.58125,0.57875 6.3675,1.085 C5.14875,1.59 4.0975,2.29 3.2025,3.18375 C2.3075,4.07625 1.61,5.13125 1.1025,6.3475 C0.595,7.56125 0.3425,8.87875 0.3425,10.2975 C0.3425,11.715 0.595,13.03 1.1025,14.24625 C1.61,15.4625 2.3075,16.5175 3.2025,17.41 C4.0975,18.3025 5.14875,19.00125 6.3675,19.51 C7.58125,20.015 8.89875,20.26875 10.315,20.26875 C11.73625,20.26875 13.04875,20.015 14.2675,19.51 C15.48125,19.00125 16.5375,18.3025 17.4275,17.41 C18.3225,16.5175 19.02375,15.4625 19.5275,14.24625 C20.035,13.03 20.2875,11.715 20.2875,10.2975 C20.2875,8.87875 20.035,7.56125 19.5275,6.3475" id="path7996" fill="#231F20"></path>
                            </g>
                            <g id="g7998" stroke-width="1" fill="none" transform="translate(538.453500, 21.554625)">
                                <path d="M33.75,47.5 C31.96,49.1025 29.5775,49.90375 26.60625,49.90375 L9.75,49.90375 L9.75,31.2575 L26.60625,31.2575 C29.52375,31.2575 31.89125,32.01625 33.71,33.5375 C35.52625,35.055 36.43625,37.39125 36.43625,40.54 C36.43625,43.5775 35.54,45.8975 33.75,47.5 M41.8225,29.5175 C39.55625,26.69875 36.43625,24.7925 32.4575,23.79875 L44.30875,0.09875 L34.305,0.09875 L22.81375,23.0525 L9.75,23.0525 L9.75,0.09875 L1.13375,0.09875 L1.13375,58.10875 L26.57375,58.10875 C29.115,58.10875 31.50375,57.7625 33.74375,57.0725 C35.98,56.38 37.95375,55.3325 39.66625,53.9225 C41.38,52.5125 42.7325,50.71875 43.72875,48.53625 C44.7225,46.35375 45.22,43.77 45.22,40.7875 C45.22,36.09125 44.08625,32.335 41.8225,29.5175" id="path8000" fill="#231F20"></path>
                            </g>
                            <g id="g8002" stroke-width="1" fill="none" transform="translate(424.618125, 241.778125)">
                                <path d="M43.75,36.25 C41.00375,46.1425 39.79375,50.3175 38.805,55.48375 C37.81625,50.3175 36.60625,46.03125 33.85875,36.25 L32.43,31.195 L45.17875,31.195 L43.75,36.25 L43.75,36.25 Z M54.52125,0.7525 L50.345,14.27 L27.265,14.27 L23.08875,0.7525 L0.23,0.7525 L28.14375,77.68375 L49.685,77.68375 L77.60125,0.7525 L54.52125,0.7525 L54.52125,0.7525 Z" id="path8004" fill="#231F20"></path>
                            </g>
                            <g id="g8006" stroke-width="1" fill="none" transform="translate(512.085750, 242.530250)">
                                <path d="M51.25,0 L32.89625,25.3875 C29.48875,30.11375 22.895,40.005 20.9175,43.41125 C21.4675,40.005 21.57625,29.7825 21.57625,23.51875 L21.57625,-4.4408921e-15 L1.135,-4.4408921e-15 L1.135,76.93125 L19.92875,76.93125 L36.85375,54.18125 C40.37,49.455 47.185,39.235 48.8325,36.0475 C48.2825,39.455 48.17375,49.67625 48.17375,55.94125 L48.17375,76.93125 L68.615,76.93125 L68.615,0 L51.25,0 L51.25,0 Z" id="path8008" fill="#231F20"></path>
                            </g>
                            <g id="g8010" stroke-width="1" fill="none" transform="translate(593.272500, 241.321000)">
                                <path d="M32.5,0 C20.08125,0 8.10125,4.06625 0.07875,9.3425 L10.41,26.04625 C16.015,22.20125 25.795,18.35375 32.94,18.35375 C40.5225,18.35375 42.94125,19.6725 42.94125,23.29875 C42.94125,26.15625 40.19375,27.915 29.8625,30.3325 C11.28875,34.62 2.38625,39.675 2.38625,55.06125 C2.38625,69.56875 14.14625,79.35 32.72,79.35 C45.79875,79.35 55.25,76.1625 63.3825,70.4475 L53.05125,53.7425 C46.2375,58.3575 39.42375,60.99625 31.62125,60.99625 C25.2475,60.99625 23.7075,59.0175 23.7075,56.27 C23.7075,53.4125 26.455,52.09375 36.34625,49.78625 C55.69,45.17 64.26125,39.235 64.26125,24.83875 C64.26125,7.25375 50.96375,0 32.5,0" id="path8012" fill="#231F20"></path>
                            </g>
                            <polygon id="path8014" fill="#231F20" points="671.50125 319.46125 693.2625 319.46125 693.2625 242.53 671.50125 242.53"></polygon>
                            <g id="g8016" stroke-width="1" fill="none" transform="translate(709.289250, 241.791875)">
                                <path d="M37.5,32.5 L20.575,32.5 L20.575,17.55375 L37.39,17.55375 C42.66625,17.55375 45.08375,20.74 45.08375,25.1375 C45.08375,29.6425 42.555,32.5 37.5,32.5 M36.62125,60.855 L20.575,60.855 L20.575,48.765 L36.62125,48.765 C41.56625,48.765 43.325,51.18375 43.325,54.81 C43.325,58.2175 41.67625,60.855 36.62125,60.855 M37.06125,0.73875 L0.13375,0.73875 L0.13375,77.67 L37.28,77.67 C56.40375,77.67 64.20625,70.52625 64.20625,57.6675 C64.20625,49.315 60.14,45.57875 54.975,42.61125 C61.89875,39.64375 65.965,34.25875 65.965,25.57625 C65.965,9.86 56.40375,0.73875 37.06125,0.73875" id="path8018" fill="#231F20"></path>
                            </g>
                            <g id="g8020" stroke-width="1" fill="none" transform="translate(788.233375, 242.530250)">
                                <polygon id="path8022" fill="#231F20" points="0 0 0 76.93125 21.54125 76.93125 21.54125 18.5725 55.61 18.5725 55.61 0"></polygon>
                            </g>
                            <g id="g8024" stroke-width="1" fill="none" transform="translate(855.832625, 242.530250)">
                                <polygon id="path8026" fill="#231F20" points="0 0 0 76.93125 58.9075 76.93125 58.9075 59.0175 21.10125 59.0175 21.10125 48.79625 43.85 48.79625 43.85 31.1025 21.10125 31.1025 21.10125 17.91375 59.6775 17.91375 59.6775 0"></polygon>
                            </g>
                        </g>
                    </g>
                </g>
            </g>
        </g>
    </g>
</svg>
