<?xml version="1.0" encoding="UTF-8"?>
<svg width="580" height="217.5" version="1.1" viewBox="0 0 580 217.5" xml:space="preserve" xmlns="http://www.w3.org/2000/svg"><title>Amazon Web Services</title><g transform="matrix(1.25,0,0,-1.25,0,217.5)"><g transform="scale(.1)"><g id="boxes" fill="#f68d11"><path d="m1289.7 1140-269.67 90v390l270-80-0.33-400"/><path d="m1360 1540 270 80-0.94-389.73-269.06-90.27v400"/><path d="m1575 1662.2-251.64 77.77-248.36-77.77 248.72-66.67 251.28 66.67"/><path d="m1969.7 1140-269.67 90v390l270-80-0.33-400"/><path d="m2040 1540 270 80-0.94-389.73-269.06-90.27v400"/><path d="m2255 1662.2-251.64 77.77-248.36-77.77 248.72-66.67 251.28 66.67"/><path d="m270 970-270 80v-390l269.67-90 0.328 400"/><path d="m340 970 270 80-0.937-389.74-269.06-90.262v400"/><path d="m555 1092.2-251.64 77.77-248.36-77.77 248.72-66.67 251.28 66.67"/><path d="m949.67 570-269.67 90v390l270-80-0.328-400"/><path d="m1020 970 270 80-0.94-389.74-269.06-90.262v400"/><path d="m1235 1092.2-251.64 77.77-248.36-77.77 248.72-66.67 251.28 66.67"/><path d="m609.67 0-269.67 90v390l270-80-0.328-400"/><path d="m680 400 270 80-0.937-389.74-269.06-90.262v400"/><path d="M 895,522.23 643.359,600 395,522.23 643.723,455.559 895,522.23"/></g><g id="text" fill="#100f0d"><g><path d="m1803.9 344.75-19.84-0.07c-7.28 0-16.56-4.918-18.84-12.891l-60.19-212.05-59.53 211.59c-1.79 6.633-8.04 13.352-16.54 13.352h-23.49c-8.46 0-14.63-6.809-16.34-13.489l-55.38-209.39-57.22 210.04c-2.26 7.68-11.77 12.84-19.23 12.84l-28.55 0.05c-6.1 0-11.77-2.621-14.81-6.839-2.06-2.86-2.63-6.102-1.68-8.922l88.4-312.96c1.95-6.582 7.65-13.211 15.99-13.211h28.39c7.67 0 14.39 5.5898 16.33 13.52l54.41 208.47 59.21-208.71c1.78-6.3906 7.51-13.281 15.89-13.281h27.93c7.77 0 14.31 5.3984 16.23 13.309l85.09 312.73c1 3.012 0.42 6.359-1.61 9.18-2.99 4.152-8.59 6.73-14.62 6.73"/><path d="m2049.4 211.88h-149.98c3.45 42.09 30.78 85.73 77.08 87.41 49.27-1.609 71.81-44.25 72.9-87.41zm-73.01 135.11c-101.31 0-147.45-89.566-147.45-172.78 0-103.85 57.36-170.95 146.13-170.95 63.53 0 111.96 32.098 132.88 88.18 1.12 3.207 0.77 6.6875-0.98 9.8086-2.13 3.789-6.17 6.648-10.95 7.699l-28.12 5.379c-7.55 1.184-16.2-3.289-19.06-9.777-13.66-31.16-38.56-48.84-69.81-49.762-30.07 0.9297-57.68 18.793-70.33 45.481-10.28 21.8-11.8 43.289-11.97 65.14l203.61 0.07c4.27 0 8.69 1.879 11.81 5.04 2.61 2.621 4.03 5.878 4 9.14-0.5 80.899-37.47 167.33-139.76 167.33"/><path d="m2366.6 173.71c0-19.16-3.47-114.83-71.44-117.28-22.78 0.8711-45.8 14.262-58.66 34.059-9.47 14.973-15 35.672-16.42 61.282v56.289c1.11 43.121 31.46 90.441 74.86 92.273 68.2-2.691 71.66-105.94 71.66-126.62zm-60.78 176.18h-5.39c-33.63 0-60.06-13.969-80.35-42.602l-0.03 131.93c0 7.41-7.65 14.16-16.1 14.16h-29.28c-7.65 0-16.21-6.059-16.23-14.16v-411.84c0.03-7.4805 7.68-14.277 16.12-14.277l8.6 0.0468c8.12 0 13.9 6.543 15.85 12.621l9.16 29.07c21.28-30.219 53.33-47.969 87.63-47.969h5.25c90.35 0 130.79 87.879 130.79 174.97 0 43.351-10.69 84.801-29.32 113.72-21.53 33.511-58.59 54.332-96.7 54.332"/><path d="m2752.5 182.98c-19.04 13.68-41.93 18.25-64.86 22.829l-43.97 8.152c-31.55 5.187-49.81 13.648-49.81 41.488 0 29.43 30.5 40.68 56.36 41.379 31.58-0.797 55.33-14.887 66.86-39.668 2.74-5.84 8.81-9.769 15.12-9.769 1.08 0 2.18 0.121 3.22 0.347l27.44 6.063c4.48 0.988 8.66 4.058 10.9 8.051 1.79 3.168 2.18 6.628 1.11 9.718-16.79 48.91-59.42 74.758-123.91 74.758-58.27-0.129-120.54-26.039-120.54-98.406 0-49.461 31.08-80.871 92.44-93.371l49.22-9.379c27.02-5.172 54.65-14.371 54.65-43.383 0-42.949-49.98-47.328-65.09-47.641-33.9 0.7305-72.28 15.852-81.6 47.872-1.87 7.039-10.73 12.019-18.5 10.402l-28.7-5.922c-4.32-0.91-8.27-3.719-10.57-7.5117-1.93-3.1602-2.48-6.6992-1.59-9.9297 14.81-53.129 66.1-85.168 137.2-85.707l1.58-0.01172c63.5 0 131.35 27.191 131.35 103.47 0 31.05-13.97 58.812-38.31 76.171"/><path d="m3042.8 211.57h-150.02c3.43 42.129 30.76 85.789 77.06 87.391 49.25-1.563 71.82-44.199 72.96-87.391zm-73.04 135.13c-101.33 0-147.48-89.57-147.48-172.78 0-103.84 57.37-170.93 146.15-170.93 63.54 0 111.97 32.102 132.91 88.172 1.11 3.2109 0.76 6.6992-1 9.8278-2.13 3.793-6.18 6.653-10.95 7.684l-28.16 5.379c-6.59 1.07-15.78-2.34-19.02-9.789-13.67-31.141-38.58-48.821-69.8-49.782-30.1 0.9609-57.7 18.82-70.3 45.5-10.3 21.75-11.83 43.258-11.98 65.16l203.59 0.05c4.24 0 8.63 1.868 11.75 5.008 2.62 2.633 4.04 5.891 4.01 9.172-0.47 80.891-37.41 167.33-139.72 167.33"/><path d="m3301.7 342.89c-3.97 0.437-7.79 0.648-11.5 0.648-34.17 0-61.92-18.578-81.18-54.07l0.07 31.082c-0.03 7.527-7.54 14.14-16.07 14.14h-25.43c-8.34 0-15.7-6.64-15.76-14.261l-0.04-301.93c0-7.5781 7.36-14.23 15.76-14.23l29.67 0.01172c7.72 0 16.41 6.0586 16.48 14.219l0.02 152.22c0 25.101 2.34 44.011 14.33 66.383 17.13 31.867 41.05 47.5 73.13 47.75 8.04 0.058 15.1 7.078 15.1 15.027v28.242c0 7.391-6.41 13.879-14.58 14.77"/><path d="m3613.2 348.82-23.43-0.011c-7.34 0-16.75-5.27-19.03-13l-75.95-238.71-77.56 238.47c-2.29 7.918-11.72 13.239-19.1 13.239l-33.46 0.031c-6.14 0-12.08-2.738-15.12-6.969-2.04-2.832-2.6-6.043-1.59-9.039l106.15-314.89c2.04-6.2305 7.45-13.512 16.01-13.512h40.49c7.43 0 13.52 5.0586 16.31 13.539l102.96 314.76c1.03 2.989 0.48 6.211-1.55 9.051-3.06 4.27-8.99 7.039-15.13 7.039"/><path d="m3690.2 469.86c-21.58 0-39.13-17.597-39.13-39.25 0-21.648 17.55-39.238 39.13-39.238 21.59 0 39.16 17.59 39.16 39.238 0 21.653-17.57 39.25-39.16 39.25"/><path d="m3706.3 350.74-32.13 0.032c-8.74 0-16.7-7.071-16.7-14.821l-0.16-320.59c0-3.8789 2-7.7305 5.46-10.59 3.17-2.5976 7.22-4.0977 11.29-4.0977l32.36-0.050781h0.02c8.87 0.078125 16.66 6.957 16.66 14.719v320.61c0 7.879-7.86 14.789-16.8 14.789"/><path d="m4006.6 133.34-26.83-0.102c-7.49 0-13.77-4.5-16.56-12.316-9.8-42.281-32-64.192-65.66-65.16-65.56 1.9492-70.65 93.328-70.65 121.29 0 55.758 19.31 115.93 73.22 117.52 32.54-1 56.21-24.332 63.31-62.351 1.34-7.758 7.3-13.629 15.44-14.649l28.71-0.281c8.58 0.93 15.31 7.422 15.25 15.473-10.16 68.707-57.77 113.12-121.4 113.12l-2.2-0.059-2.49 0.059c-92.54 0-133.97-86.367-133.97-171.96 0-78.473 34.93-170.1 133.45-170.1h4.72c62.04 0 108.87 43.488 122.28 114 0.3 3.36-0.86 6.719-3.24 9.45-3.08 3.539-7.99 5.808-13.38 6.07"/><path d="m4271.5 211.57h-150.04c3.43 42.141 30.77 85.789 77.1 87.391 49.26-1.563 71.82-44.199 72.94-87.391zm-73.04 135.13c-101.32 0-147.46-89.57-147.46-172.78 0-103.84 57.37-170.93 146.15-170.93 63.51 0 111.92 32.082 132.88 88.16 1.09 3.2305 0.73 6.7305-1.02 9.8396-2.16 3.821-6.09 6.614-10.94 7.684l-28.12 5.379c-6.62 1.07-15.78-2.34-19.02-9.789-13.71-31.141-38.63-48.821-69.84-49.793-30.09 0.9726-57.68 18.832-70.28 45.512-10.31 21.782-11.84 43.29-12 65.16l203.61 0.031c4.28 0 8.7 1.887 11.83 5.058 2.6 2.649 4 5.911 3.95 9.141-0.47 80.891-37.42 167.33-139.74 167.33"/><path d="m4593.3 182.98c-19.07 13.692-41.99 18.258-64.88 22.829l-43.97 8.152c-31.52 5.187-49.77 13.648-49.77 41.488 0 37.961 47.11 41.133 56.3 41.379 31.61-0.797 55.36-14.887 66.87-39.68 2.76-5.839 8.85-9.757 15.17-9.757 1.09 0 2.18 0.121 3.24 0.347l27.42 6.063c4.48 0.988 8.65 4.07 10.89 8.058 1.78 3.172 2.17 6.621 1.1 9.711-16.77 48.91-59.41 74.758-123.93 74.758-58.25-0.129-120.5-26.039-120.5-98.406 0-49.473 31.07-80.883 92.42-93.371l49.24-9.379c27.02-5.172 54.65-14.371 54.65-43.383 0-42.949-49.98-47.328-65.09-47.641-31.43 0.6719-71.66 13.652-81.59 47.832-1.82 7.079-10.67 12.051-18.58 10.442l-28.65-5.922c-4.34-0.922-8.3-3.75-10.6-7.5508-1.91-3.1679-2.46-6.6797-1.56-9.8906 14.77-53.129 66.05-85.168 137.16-85.707l1.58-0.01172c63.51 0 131.37 27.191 131.37 103.47 0 31.07-13.96 58.839-38.29 76.171"/></g><g fill-rule="evenodd"><path d="m3287.2 967.98v72.8c0.04 11.04 8.42 18.45 18.48 18.44l326.15 0.01c10.41 0 18.81-7.59 18.81-18.37v-62.43c-0.1-10.45-8.93-24.114-24.57-45.813l-168.93-241.21c62.68 1.488 129.04-7.898 186-39.922 12.87-7.218 16.29-17.929 17.34-28.386v-77.68c0-10.711-11.72-23.09-24.02-16.641-100.39 52.598-233.62 58.34-344.65-0.609-11.33-6.051-23.21 6.137-23.21 16.848v73.812c0 11.777 0.24 32.008 12.13 50.027l195.75 280.78-170.41 0.039c-10.43 0-18.77 7.422-18.87 18.3"/><path d="m2097.4 513.46h-99.25c-9.43 0.617-16.98 7.73-17.73 16.801l0.07 509.28c0 10.19 8.58 18.33 19.14 18.33l92.41 0.05c9.68-0.54 17.42-7.84 18.08-17.1v-66.543h1.84c24.06 64.333 69.45 94.293 130.57 94.293 62.05 0 100.96-29.96 128.75-94.293 24.1 64.333 78.73 94.293 137.13 94.293 41.68 0 87.01-17.12 114.8-55.68 31.49-42.89 25-105.01 25-159.69l-0.06-321.39c0-10.161-8.57-18.348-19.12-18.348h-99.1c-9.98 0.617-17.83 8.578-17.83 18.301v270.01c0 21.421 1.83 75.027-2.79 95.371-7.43 34.324-29.67 43.914-58.34 43.914-24.11 0-49.13-16.075-59.32-41.739-10.18-25.761-9.24-68.625-9.24-97.546v-269.96c0-10.161-8.57-18.348-19.14-18.348h-99.12c-9.93 0.617-17.8 8.578-17.8 18.301l-0.13 270.01c0 56.804 9.29 140.36-61.09 140.36-71.32 0-68.54-81.426-68.54-140.36l-0.06-269.96c0.04-10.161-8.54-18.348-19.13-18.348"/><path d="m3932.3 964.66c-73.21 0-77.82-99.656-77.82-161.84 0-62.144-0.92-195.02 76.92-195.02 76.89 0 80.58 107.17 80.58 172.53 0 42.859-1.83 94.285-14.8 135.01-11.15 35.379-33.36 49.312-64.88 49.312zm-0.9 103.91c147.26 0 226.93-126.44 226.93-287.13 0-155.43-88.03-278.68-226.93-278.68-144.51 0-223.26 126.48-223.26 284.01 0 158.6 79.64 281.8 223.26 281.8"/><path d="m4349.3 513.46h-98.87c-9.96 0.617-17.81 8.578-17.81 18.301l-0.14 509.51c0.82 9.28 9.06 16.6 19.02 16.6l92.07 0.05c8.68-0.48 15.8-6.38 17.62-14.27v-77.927h1.88c27.75 69.667 66.68 102.85 135.19 102.85 44.47 0 88.03-16.03 115.8-59.98 25.92-40.707 25.92-109.27 25.92-158.58v-320.49c-1.11-9.032-9.16-16.059-18.96-16.059h-99.52c-9.18 0.598-16.56 7.379-17.67 16.059v276.54c0 55.722 6.5 137.19-62.07 137.19-24.07 0-46.27-16.113-57.4-40.73-13.91-31.067-15.75-62.141-15.75-96.457v-274.25c-0.17-10.161-8.75-18.348-19.31-18.348"/><path d="m3127.2 514.75c-6.58-5.871-16-6.262-23.42-2.309-32.95 27.391-38.87 40.09-56.88 66.141-54.47-55.48-93.04-72.121-163.57-72.121-83.57 0-148.53 51.559-148.53 154.66 0 80.527 43.61 135.3 105.8 162.17 53.84 23.633 129.04 27.937 186.58 34.402v12.871c0 23.614 1.85 51.551-12.09 71.946-12.03 18.258-35.24 25.758-55.69 25.758-37.85 0-71.48-19.403-79.76-59.598-1.68-8.926-8.24-17.793-17.23-18.223l-96.15 10.418c-8.14 1.828-17.15 8.321-14.8 20.715 22.1 116.7 127.46 151.96 221.89 151.96 48.24 0 111.39-12.88 149.45-49.39 48.25-45.127 43.6-105.26 43.6-170.78v-154.59c0-46.5 19.33-66.91 37.5-91.972 6.29-9.039 7.71-19.75-0.37-26.379-20.26-16.981-56.27-48.231-76.06-65.899l-0.27 0.219zm-100.02 241.96c0-38.672 0.92-70.922-18.58-105.26-15.78-27.949-40.86-45.117-68.71-45.117-38.02 0-60.29 28.988-60.29 71.969 0 84.492 75.82 99.875 147.58 99.875v-21.465"/><path d="m1826.4 514.75c-6.56-5.871-16.05-6.262-23.47-2.309-32.95 27.391-38.85 40.09-56.88 66.141-54.44-55.48-93.03-72.121-163.6-72.121-83.54 0-148.52 51.559-148.52 154.66 0 80.527 43.65 135.3 105.84 162.17 53.85 23.633 129.04 27.937 186.58 34.402v12.871c0 23.614 1.87 51.551-12.07 71.946-12.06 18.258-35.29 25.758-55.68 25.758-37.85 0-71.52-19.403-79.77-59.598-1.72-8.926-8.25-17.793-17.23-18.223l-96.19 10.418c-8.12 1.828-17.14 8.321-14.81 20.715 22.1 116.7 127.47 151.96 221.89 151.96 48.3 0 111.4-12.88 149.47-49.39 48.27-45.127 43.61-105.26 43.61-170.78v-154.59c0-46.5 19.34-66.91 37.46-91.972 6.32-9.039 7.75-19.75-0.31-26.379-20.28-16.981-56.31-48.231-76.09-65.899l-0.23 0.219zm-100.05 241.96c0-38.672 0.91-70.922-18.55-105.26-15.77-27.949-40.87-45.117-68.68-45.117-38.1 0-60.36 28.988-60.36 71.969 0 84.492 75.8 99.875 147.59 99.875v-21.465"/></g></g></g></g></svg>
