<?xml version="1.0" encoding="UTF-8"?>
<svg version="1.1" viewBox="0 0 745 160" xmlns="http://www.w3.org/2000/svg">
  <defs>
    <linearGradient id="linearGradient3685" x1="-411.53" x2="-23.847" y1="-29.89" y2="-258.96" gradientUnits="userSpaceOnUse">
      <stop stop-color="#909ca9" offset="0"/>
      <stop stop-color="#ededee" offset="1"/>
    </linearGradient>
    <linearGradient id="linearGradient3687" x1="-447.8" x2="-135.86" y1="-889.06" y2="-889.06" gradientUnits="userSpaceOnUse">
      <stop stop-color="#939fab" offset="0"/>
      <stop stop-color="#dcdee1" offset="1"/>
    </linearGradient>
    <radialGradient id="radialGradient3719" cx="-1259.1" cy="-245.43" r="414.16" gradientTransform="matrix(-.96082 -.14529 .29018 -1.9189 -1292.1 -1278.4)" gradientUnits="userSpaceOnUse">
      <stop stop-color="#77b8e4" offset="0"/>
      <stop stop-color="#3363a2" offset="1"/>
    </radialGradient>
  </defs>
  <g transform="translate(-218.77 -498.44)">
    <g transform="matrix(3.4816 0 0 -3.4816 -1140.7 1774.6)">
      <g id="text" fill="#231f1f">
        <path d="m481.32 356.08c0 0.10789-0.0299 0.18425-0.0896 0.23239-0.0681 0.0564-0.18425 0.083-0.34527 0.083h-0.23239v-0.63741h0.28053c0.25729 0 0.38677 0.1079 0.38677 0.32203m0.3602-1.328h-0.31704l-0.20418 0.44818c-0.10291 0.22409-0.21413 0.33697-0.33364 0.33697h-0.17264v-0.78515h-0.26227v1.8691h0.52786c0.23239 0 0.40835-0.0531 0.52952-0.1577 0.10126-0.0896 0.15272-0.20749 0.15272-0.3519 0-0.12782-0.0415-0.23738-0.1245-0.32701-0.083-0.0913-0.20085-0.15106-0.35024-0.18259v-8e-3c0.10457-0.0232 0.20749-0.13778 0.3104-0.34361l0.24401-0.49798zm0.58264 0.91462c0 0.37017-0.12615 0.67726-0.3768 0.92459s-0.55608 0.37016-0.91795 0.37016c-0.37348 0-0.68223-0.12449-0.9279-0.37348-0.24733-0.24899-0.37017-0.55608-0.37017-0.92127 0-0.37182 0.12782-0.68389 0.38179-0.93288 0.25065-0.24567 0.55608-0.36851 0.91628-0.36851 0.35855 0 0.66398 0.1245 0.91629 0.37349s0.37846 0.55774 0.37846 0.9279m0.17595 8e-3c0-0.41166-0.14275-0.75693-0.4266-1.0375s-0.63409-0.41996-1.0507-0.41996c-0.41996 0-0.77021 0.13611-1.0474 0.40834-0.27721 0.27389-0.41664 0.61916-0.41664 1.0375 0 0.41001 0.14109 0.75527 0.42328 1.0375 0.28219 0.28053 0.63244 0.42163 1.0524 0.42163 0.41167 0 0.75693-0.13446 1.0358-0.40337 0.28717-0.27555 0.42992-0.62413 0.42992-1.0441"/>
        <path d="m444.42 350.81h-0.85487v4.9051c0 0.38677 0.0232 0.85985 0.0697 1.4159h-0.0199c-0.0813-0.32535-0.15437-0.56106-0.21911-0.70714l-2.4899-5.6139h-0.41831l-2.4965 5.5724c-0.0714 0.15603-0.14441 0.40668-0.21911 0.74863h-0.0199c0.0266-0.29215 0.0415-0.76689 0.0415-1.4259v-4.8952h-0.82665v7.3054h1.1321l2.2409-5.0943c0.16931-0.38345 0.28053-0.6756 0.33199-0.87645h0.0349c0.14607 0.40005 0.26227 0.69883 0.3519 0.89637l2.2874 5.0744h1.074"/>
        <path d="m447.06 356.02v-5.2155h-0.83495v5.2155h0.83495zm0.14275 1.8691c0-0.15272-0.0548-0.28053-0.16101-0.38677-0.10624-0.10457-0.23737-0.15769-0.39009-0.15769-0.14939 0-0.27721 0.0515-0.3851 0.15271-0.10624 0.10126-0.15936 0.23239-0.15936 0.39175 0 0.15437 0.0531 0.28218 0.15936 0.3851 0.10789 0.10458 0.23571 0.15603 0.3851 0.15603 0.15272 0 0.28385-0.0514 0.39009-0.15603 0.10623-0.10292 0.16101-0.23073 0.16101-0.3851"/>
        <path d="m452.27 351.05c-0.40004-0.24401-0.8781-0.36684-1.4309-0.36684-0.74697 0-1.3495 0.24733-1.8093 0.74365-0.44818 0.48304-0.67227 1.1039-0.67227 1.8641 0 0.85652 0.24567 1.5471 0.73701 2.0733 0.48968 0.52619 1.1503 0.79012 1.9786 0.79012 0.45482 0 0.85653-0.088 1.2068-0.26559v-0.85486c-0.38676 0.27057-0.80175 0.40668-1.2433 0.40668-0.52952 0-0.9611-0.18425-1.2981-0.55442-0.35024-0.38012-0.52454-0.8864-0.52454-1.5188 0-0.60753 0.15936-1.0872 0.48138-1.4408 0.32037-0.35357 0.7503-0.52952 1.2914-0.52952 0.45483 0 0.88309 0.14939 1.2831 0.44818"/>
        <path d="m456.25 355.18c-0.14608 0.11288-0.35855 0.16766-0.63742 0.16766-0.33862 0-0.62413-0.15272-0.85486-0.45815-0.26227-0.34194-0.39175-0.81668-0.39175-1.4209v-2.6592h-0.83661v5.2172h0.83661v-1.0756h0.0199c0.12118 0.38013 0.31041 0.67393 0.56604 0.88143 0.23737 0.18923 0.50296 0.28551 0.79843 0.28551 0.22077 0 0.38842-0.0249 0.49964-0.0714"/>
        <path d="m460.91 353.41c0 0.66896-0.15106 1.1786-0.45317 1.5288-0.29214 0.33531-0.70049 0.50462-1.2284 0.50462-0.51956 0-0.93454-0.17097-1.2466-0.5096-0.33033-0.36352-0.49466-0.8781-0.49466-1.5437 0-0.62579 0.15769-1.1138 0.47308-1.4641 0.31705-0.35191 0.73867-0.52786 1.2682-0.52786 0.5511 0 0.9694 0.17761 1.2582 0.5345 0.28219 0.34693 0.42329 0.83827 0.42329 1.4773m0.85652 0.0299c0-0.83163-0.23571-1.4989-0.70381-2.0019-0.4681-0.5013-1.1005-0.75361-1.894-0.75361-0.78515 0-1.406 0.25231-1.8658 0.75361-0.44819 0.48636-0.67228 1.1271-0.67228 1.9205 0 0.90799 0.25563 1.6085 0.76523 2.1048 0.47143 0.46146 1.1039 0.69219 1.894 0.69219 0.77851 0 1.386-0.24069 1.821-0.72373 0.43656-0.48138 0.65567-1.1454 0.65567-1.9919"/>
        <path d="m465.9 352.2c0-0.42826-0.15935-0.78349-0.47972-1.064-0.34859-0.30709-0.82665-0.4598-1.4309-0.4598-0.49633 0-0.92625 0.10623-1.2931 0.31705v0.89636c0.40668-0.33365 0.85818-0.49964 1.3545-0.49964 0.66232 0 0.99264 0.24235 0.99264 0.72871 0 0.20417-0.073 0.37183-0.21911 0.50462-0.14607 0.1328-0.42992 0.29049-0.85486 0.47806-0.43823 0.1909-0.74863 0.38677-0.93289 0.59094-0.22077 0.24069-0.33032 0.55608-0.33032 0.94284 0 0.43491 0.17097 0.79511 0.51458 1.0823 0.34194 0.28717 0.78348 0.42992 1.3246 0.42992 0.41333 0 0.78515-0.0813 1.1155-0.24401v-0.83992c-0.34361 0.24733-0.73701 0.37182-1.1819 0.37182-0.27887 0-0.5013-0.0681-0.6673-0.20417-0.16765-0.13611-0.25065-0.31041-0.25065-0.52454 0-0.23073 0.0697-0.41166 0.20915-0.53948 0.12616-0.11951 0.38677-0.26393 0.78515-0.43324 0.44487-0.18757 0.76523-0.37847 0.96277-0.576 0.25397-0.25231 0.38178-0.57102 0.38178-0.95778"/>
        <path d="m471.01 353.41c0 0.66896-0.15105 1.1786-0.45316 1.5288-0.29215 0.33531-0.70215 0.50462-1.2284 0.50462-0.51956 0-0.93455-0.17097-1.2483-0.5096-0.32867-0.36352-0.49301-0.8781-0.49301-1.5437 0-0.62579 0.1577-1.1138 0.47309-1.4641 0.31704-0.35191 0.73867-0.52786 1.2682-0.52786 0.5511 0 0.9694 0.17761 1.2582 0.5345 0.28219 0.34693 0.42328 0.83827 0.42328 1.4773m0.85653 0.0299c0-0.83163-0.23571-1.4989-0.70381-2.0019-0.46811-0.5013-1.1005-0.75361-1.8956-0.75361-0.78349 0-1.4043 0.25231-1.8641 0.75361-0.44818 0.48636-0.67227 1.1271-0.67227 1.9205 0 0.90799 0.25563 1.6085 0.76523 2.1048 0.47142 0.46146 1.1022 0.69219 1.894 0.69219 0.77851 0 1.3844-0.24069 1.821-0.72373 0.43657-0.48138 0.65568-1.1454 0.65568-1.9919"/>
        <path d="m475.55 357.8c-0.16267 0.0913-0.34858 0.13777-0.55607 0.13777-0.58264 0-0.87479-0.3685-0.87479-1.1055v-0.80507h1.2217v-0.70879h-1.2217v-4.5067h-0.83661v4.5067h-0.8864v0.70879h0.8864v0.84491c0 0.57433 0.17928 1.0242 0.5345 1.3512 0.30709 0.28053 0.68223 0.42163 1.1271 0.42163 0.25729 0 0.4598-0.0299 0.60587-0.0913"/>
        <path d="m478.84 350.86c-0.19753-0.11287-0.45814-0.16765-0.78514-0.16765-0.90965 0-1.3645 0.51126-1.3645 1.5371v3.0875h-0.89637v0.70879h0.89637v1.2732c0.26393 0.0847 0.5428 0.17429 0.83495 0.26891v-1.5421h1.3147v-0.70879h-1.3147v-2.9447c0-0.35024 0.0597-0.59757 0.17927-0.74531 0.11785-0.14773 0.31705-0.22243 0.59592-0.22243 0.20583 0 0.38676 0.0564 0.53947 0.16931"/>
        <path d="m447.3 333.29c0-1.5703-0.52122-2.8402-1.5653-3.8079-1.1852-1.1005-2.9016-1.6516-5.1491-1.6516-0.75195 0-1.5886 0.11786-2.5115 0.35357-0.92127 0.23405-1.6035 0.50296-2.045 0.80341v2.807c0.63077-0.56438 1.4209-1.0142 2.3704-1.3545 0.88308-0.31041 1.7214-0.46478 2.5115-0.46478 2.5945 0 3.8926 1.0109 3.8926 3.0327 0 0.87478-0.32867 1.65-0.98767 2.3272-0.58263 0.59259-1.6682 1.3412-3.2584 2.2426-1.6649 0.94118-2.8302 1.8442-3.4975 2.709-0.66896 0.86483-1.0026 1.8857-1.0026 3.0609 0 1.552 0.56936 2.8318 1.7064 3.8378 1.1952 1.0441 2.7654 1.5653 4.7126 1.5653 1.8143 0 3.1406-0.24069 3.9772-0.71875v-2.6526c-1.0624 0.82664-2.4301 1.2416-4.105 1.2416-1.1852 0-2.1247-0.30211-2.8202-0.90301-0.65899-0.56438-0.98766-1.2831-0.98766-2.1579 0-0.94119 0.30045-1.7263 0.90301-2.3571 0.50794-0.5262 1.5188-1.2084 3.0327-2.045 1.655-0.91131 2.8484-1.7911 3.5821-2.6376 0.8283-0.94948 1.2416-2.0268 1.2416-3.2302"/>
        <path d="m461.65 342.63-6.6447-16.759c-1.1852-2.9812-2.8484-4.4719-4.9931-4.4719-0.60255 0-1.1055 0.0564-1.5089 0.16932v2.0749c0.49798-0.16932 0.94948-0.25397 1.3545-0.25397 1.1752 0 2.0533 0.69053 2.6376 2.0732l1.1553 2.7505-5.6421 14.417h2.5812l3.8942-11.115c0.0747-0.20749 0.17429-0.57434 0.29547-1.1005h0.0847c0.0481 0.22575 0.1411 0.57766 0.28219 1.0574l4.105 11.158"/>
        <path d="m471.15 332.05c0-1.1852-0.44155-2.1679-1.3263-2.948-0.96774-0.84657-2.289-1.2698-3.9639-1.2698-1.3728 0-2.5663 0.29215-3.5821 0.87479v2.4833c1.1288-0.92292 2.3787-1.3827 3.7515-1.3827 1.8342 0 2.7505 0.67228 2.7505 2.0168 0 0.56437-0.20085 1.0292-0.60588 1.396-0.40502 0.36685-1.1952 0.80839-2.3704 1.3263-1.2134 0.5262-2.0732 1.0723-2.5812 1.6367-0.61086 0.6673-0.91629 1.5371-0.91629 2.6094 0 1.2035 0.47474 2.2027 1.4242 2.9978 0.94948 0.7951 2.1728 1.1918 3.6668 1.1918 1.1487 0 2.1778-0.22575 3.0908-0.67725v-2.3272c-0.95114 0.68555-2.0417 1.0292-3.2734 1.0292-0.77021 0-1.3877-0.18758-1.8475-0.56438-0.46146-0.37515-0.69219-0.85985-0.69219-1.4524 0-0.63908 0.19421-1.1371 0.57932-1.4956 0.34692-0.32866 1.0723-0.72871 2.1728-1.1985 1.2317-0.5179 2.1197-1.0491 2.6659-1.5935 0.70547-0.69717 1.0574-1.5803 1.0574-2.6526"/>
        <path d="m480.37 328.32c-0.54611-0.31041-1.2698-0.46478-2.1728-0.46478-2.5198 0-3.7797 1.4192-3.7797 4.2594v8.5487h-2.4833v1.9604h2.4833v3.5274c0.73369 0.23406 1.5039 0.48305 2.3123 0.74698v-4.2743h3.6402v-1.9604h-3.6402v-8.1536c0-0.96774 0.16433-1.6583 0.49466-2.0666 0.32867-0.40834 0.87976-0.61418 1.65-0.61418 0.57434 0 1.0723 0.15604 1.4956 0.46644"/>
        <path d="m491.72 336.79c-0.0183 1.3163-0.32867 2.3422-0.93122 3.0759-0.63078 0.76191-1.5238 1.142-2.6808 1.142-1.0906 0-2.0168-0.38843-2.7787-1.1636-0.76025-0.77685-1.2317-1.7944-1.4109-3.0543h7.8017zm2.3704-1.9604h-10.2c0.0382-1.6184 0.47142-2.8601 1.2981-3.7249 0.8283-0.86482 1.9654-1.2964 3.4145-1.2964 1.6267 0 3.1174 0.5262 4.4719 1.5786v-2.1579c-1.2599-0.93123-2.9348-1.396-5.023-1.396-1.9737 0-3.5406 0.62082-4.696 1.8624-1.2416 1.3163-1.8624 3.202-1.8624 5.6554 0 2.3239 0.67227 4.1996 2.0168 5.6288 1.2599 1.3362 2.802 2.0035 4.6262 2.0035 1.9571 0 3.4527-0.65402 4.4868-1.962 0.9777-1.2217 1.4674-2.8816 1.4674-4.9782"/>
        <path d="m517.12 328.18h-2.314v8.2947c0 1.6649-0.26725 2.8484-0.80341 3.5539-0.49798 0.64904-1.3064 0.97439-2.4268 0.97439-0.99596 0-1.8375-0.44985-2.5248-1.3479-0.68555-0.89803-1.0292-1.977-1.0292-3.2369v-8.2383h-2.314v8.5769c0 2.8302-1.0956 4.2461-3.2867 4.2461-1.0059 0-1.8342-0.41499-2.4833-1.2416-0.67725-0.85652-1.0159-1.9703-1.0159-3.3431v-8.2383h-2.3123v14.445h2.3123v-2.2857h0.0564c1.0258 1.7595 2.5165 2.6376 4.4719 2.6376 0.99762 0 1.8724-0.28053 2.6244-0.84657 0.71543-0.54446 1.2084-1.2632 1.4807-2.1579 1.0723 2.0035 2.6708 3.0045 4.7972 3.0045 3.1788 0 4.7673-1.9654 4.7673-5.8961"/>
        <path d="m539.56 329.02c-1.4856-0.79013-3.3431-1.1852-5.5724-1.1852-2.8966 0-5.2139 0.94118-6.9535 2.8219-1.7031 1.8425-2.553 4.2644-2.553 7.2639 0 3.3016 1.0142 5.9575 3.046 7.971 1.9272 1.9089 4.349 2.8634 7.2655 2.8634 1.9272 0 3.5174-0.27721 4.7673-0.83328v-2.5098c-1.4392 0.80839-3.0377 1.2134-4.7956 1.2134-2.2758 0-4.1283-0.74863-5.5591-2.2442-1.494-1.5603-2.2426-3.6668-2.2426-6.3194 0-2.5198 0.70548-4.5134 2.1164-5.9807 1.3346-1.401 3.0792-2.1015 5.2338-2.1015 2.0301 0 3.7797 0.4515 5.247 1.3545"/>
        <path d="m551.64 336.79c-0.0183 1.3163-0.32867 2.3422-0.93123 3.0759-0.62911 0.76191-1.5238 1.142-2.6808 1.142-1.0906 0-2.0168-0.38843-2.7787-1.1636-0.76191-0.77685-1.2317-1.7944-1.4093-3.0543h7.8zm2.3704-1.9604h-10.199c0.0365-1.6184 0.46977-2.8601 1.2964-3.7249 0.82831-0.86482 1.9654-1.2964 3.4145-1.2964 1.6267 0 3.1174 0.5262 4.4719 1.5786v-2.1579c-1.2599-0.93123-2.9348-1.396-5.0213-1.396-1.9753 0-3.5423 0.62082-4.6976 1.8624-1.2416 1.3163-1.8624 3.202-1.8624 5.6554 0 2.3239 0.67227 4.1996 2.0168 5.6288 1.2599 1.3362 2.802 2.0035 4.6279 2.0035 1.9554 0 3.451-0.65402 4.4851-1.962 0.97771-1.2217 1.4674-2.8816 1.4674-4.9782"/>
        <path d="m568.52 328.18h-2.314v8.2383c0 3.0559-1.1188 4.5847-3.3564 4.5847-1.157 0-2.1148-0.43325-2.8717-1.2981-0.75693-0.86483-1.1354-1.9604-1.1354-3.2867v-8.2383h-2.3123v14.445h2.3123v-2.3986h0.0564c1.0823 1.8342 2.6609 2.7505 4.7408 2.7505 1.5886 0 2.7986-0.51624 3.6319-1.5504 0.83162-1.0358 1.2483-2.5015 1.2483-4.4022"/>
        <path d="m578.71 328.32c-0.54612-0.31041-1.2698-0.46478-2.1728-0.46478-2.5198 0-3.7797 1.4192-3.7797 4.2594v8.5487h-2.4833v1.9604h2.4833v3.5274c0.73369 0.23406 1.5039 0.48305 2.3123 0.74698v-4.2743h3.6402v-1.9604h-3.6402v-8.1536c0-0.96774 0.166-1.6583 0.49466-2.0666 0.32867-0.40834 0.87977-0.61418 1.65-0.61418 0.57434 0 1.0723 0.15604 1.4956 0.46644"/>
        <path d="m590.06 336.79c-0.0183 1.3163-0.32867 2.3422-0.93123 3.0759-0.62911 0.76191-1.5238 1.142-2.6791 1.142-1.0922 0-2.0185-0.38843-2.7804-1.1636-0.76025-0.77685-1.2317-1.7944-1.4093-3.0543h7.8zm2.3704-1.9604h-10.199c0.0365-1.6184 0.46976-2.8601 1.2981-3.7249 0.82665-0.86482 1.9637-1.2964 3.4128-1.2964 1.6267 0 3.1174 0.5262 4.4719 1.5786v-2.1579c-1.2599-0.93123-2.9348-1.396-5.0213-1.396-1.9753 0-3.5406 0.62082-4.6976 1.8624-1.2416 1.3163-1.8624 3.202-1.8624 5.6554 0 2.3239 0.67227 4.1996 2.0168 5.6288 1.2599 1.3362 2.8036 2.0035 4.6279 2.0035 1.9554 0 3.451-0.65402 4.4851-1.962 0.9777-1.2217 1.4674-2.8816 1.4674-4.9782"/>
        <path d="m602.48 340.29c-0.40502 0.31041-0.99098 0.46479-1.7628 0.46479-0.94118 0-1.7313-0.42329-2.3704-1.2682-0.72373-0.95115-1.0856-2.2625-1.0856-3.9357v-7.3635h-2.3139v14.445h2.3139v-2.9763h0.0564c0.33863 1.0524 0.85985 1.8658 1.5653 2.4401 0.659 0.5262 1.396 0.79013 2.2144 0.79013 0.61086 0 1.0723-0.0664 1.3827-0.19753"/>
        <path d="m415.37 324.26h-0.56604v-1.7579h-0.23073v1.7579h-0.5677v0.20749h1.3645"/>
        <path d="m417.68 322.5h-0.23073v1.3213c0 0.10291 7e-3 0.23073 0.0199 0.38012h-7e-3c-0.0216-0.088-0.0398-0.15105-0.0581-0.19089l-0.67062-1.5105h-0.11287l-0.67228 1.5006c-0.0183 0.0415-0.0382 0.10956-0.0581 0.20085h-5e-3c7e-3 -0.078 0.01-0.20583 0.01-0.38344v-1.318h-0.22244v1.967h0.30543l0.60256-1.3728c0.0465-0.10292 0.0764-0.18094 0.0896-0.23571h0.01c0.0398 0.10789 0.0714 0.18923 0.0946 0.24235l0.61584 1.3661h0.28883"/>
      </g>
      <g transform="matrix(.065388 0 0 -.065388 386.76 375.57)">
        <g transform="matrix(.66978 0 0 .66978 488.26 811.46)">
          <path d="m-28.691-521.89-197.59 64.438-171.78 75.875-48.125 12.719c-12.201 11.597-25.149 23.376-38.938 35.375-15.157 13.189-29.412 25.142-40.25 33.781-12.069 9.6199-30.015 27.426-39.187 38.844-13.646 16.987-24.318 35.101-28.906 49.031-8.2548 25.063-4.2329 50.447 11.688 73.875 20.337 29.927 60.822 60.332 107.91 81.031 24.018 10.558 64.547 24.169 94.938 31.844 50.646 12.789 148.53 26.685 202.44 28.75 10.933 0.4186 25.487 0.3793 26.156-0.0625 1.1831-0.7814 9.5753-16.672 19.312-36.562 33.131-67.678 57.101-131.12 70-185.31 7.8103-32.81 13.899-76.562 17.844-128.44 1.1048-14.531 1.5053-62.996 0.6562-79.469-1.3816-26.805-3.7427-48.653-7.5312-70.094-0.5558-3.1425-0.7603-5.906-0.4688-6.1562 0.5494-0.47159 2.4157-1.0703 26.688-8.125l-4.8437-11.344zm-45.156 26.5c1.7957 0 6.5709 45.792 7.8125 74.844 0.2638 6.173 0.2105 10.125-0.1562 10.125-1.1794 0-25.305-14.167-42.406-24.906-14.935-9.3787-43.276-28.212-47.781-31.75-1.4217-1.1164-1.2715-1.1709 10.938-5.375 20.773-7.1532 70.024-22.938 71.594-22.938zm-100.66 33.031c1.2767-3e-3 4.7531 1.9157 12.969 7.0625 30.819 19.307 72.554 42.535 90.437 50.344 5.5452 2.4212 6.1783 1.483-6.5937 10.156-27.224 18.487-61.07 36.665-102.62 55.125-7.2425 3.2173-13.378 5.8438-13.625 5.8438-0.2474 0 0.561-3.6737 1.7812-8.1875 10.067-37.238 15.747-74.825 15.906-104.97 0.0788-14.908 0.0828-14.987 1.5-15.344 0.0664-0.0167 0.1649-0.031 0.25-0.0312zm-20.719 7.9062c0.892 0.89603 0.2461 34.303-0.8437 43.406-2.6146 21.838-6.8874 42.036-13.719 65-1.6324 5.4874-3.1626 10.218-3.4062 10.5-0.5934 0.68796-21.022-19.216-27.813-27.094-11.603-13.459-20.782-26.83-27.469-40-3.3986-6.694-8.8181-19.914-8.3125-20.281 2.295-1.6666 81.002-32.094 81.562-31.531zm-97.594 38.469c0.1837 0.0183 0.3264 0.0683 0.4062 0.15625 0.2946 0.32458 1.3349 2.7511 2.3125 5.4062 4.7583 12.924 15.458 32.124 24.75 44.406 10.144 13.409 23.37 27.697 34.438 37.188 3.5535 3.0473 6.8688 5.8915 7.3438 6.3125 0.9476 0.84 1.2662 0.69758-23.094 9.9375-28.232 10.709-58.98 21.432-94.281 32.844-13.453 4.3487-24.839 8.0234-25.281 8.1875-1.3447 0.4986-0.9323-0.32948 3-6.4688 17.541-27.385 44.113-80.954 58.969-118.84 2.5768-6.5716 5.029-13.153 5.4688-14.625 0.6461-2.1619 1.2828-2.8972 3.3125-3.8125 1.1227-0.50629 2.105-0.74255 2.6563-0.6875zm-29.906 12.344c0.3974 0.34958-7.1753 16.342-14.625 30.875-14.45 28.188-30.38 55.927-51.531 89.781-3.6494 5.8414-7.0125 11.182-7.4687 11.844-0.7512 1.0904-1.0591 0.73109-3.375-3.875-5.0634-10.071-9.3056-22.777-11.5-34.594-2.1717-11.695-1.8023-31.942 0.8125-44.5 1.9426-9.3298 1.8569-9.1236 6.25-11.375 18.994-9.7345 80.819-38.7 81.438-38.156zm257.59 10.469v6.3438c-0.0319 33.319-3.5885 78.935-8.75 112.22-0.9057 5.8408-1.69 10.66-1.75 10.719-0.0596 0.059-4.2698-1.1748-9.3437-2.75-22.42-6.9602-46.727-17.358-68.656-29.375-14.522-7.9578-35.526-20.849-34.937-21.438 0.16-0.16008 6.3463-3.4384 13.75-7.2812 29.324-15.221 57.335-31.63 81.687-47.906 9.1369-6.1066 22.808-15.991 25.844-18.656l2.1562-1.875zm-370.37 44.156c0.6088-0.0293 0.4542 1.1261-0.5 6.625-0.6634 3.8243-1.4133 11.048-1.6874 16.031-1.2012 21.84 2.3406 37.953 13.187 60 3.0157 6.1297 5.3748 11.239 5.25 11.344-1.086 0.90906-99.854 29.811-130.91 38.312-9.2046 2.52-17.25 4.7399-17.906 4.9375-1.0775 0.32435-1.1735 0.0898-0.7813-2.4375 3.4011-21.912 20.116-50.67 43.469-74.812 15.526-16.05 27.957-25.558 49.094-37.625 15.169-8.6603 38.729-21.657 40.469-22.312 0.1169-0.044 0.2255-0.0583 0.3124-0.0625zm232.97 41.719c0.0937-0.11232 3.753 1.8466 8.125 4.375 31.902 18.45 76.42 35.755 114.37 44.438l3.4375 0.78125-4.7187 2.625c-19.827 11.002-85.122 38.17-151.81 63.188-9.7355 3.6522-19.235 7.233-21.094 7.9688-1.8586 0.73572-3.375 1.2402-3.375 1.0938 0-0.1465 2.7508-5.4407 6.125-11.75 18.722-35.006 37.41-77.546 47-107.06 0.9777-3.0092 1.8435-5.5439 1.9375-5.6562zm-23.75 7.7812c0.1024 0.10241-1.0639 3.2383-2.5938 6.9375-13.015 31.473-30.068 65.807-51.812 104.38-5.5336 9.8151-10.198 17.829-10.375 17.812-0.1771-0.0161-4.6777-2.6791-10-5.9375-31.672-19.39-59.694-43.257-78.094-66.469l-2.625-3.2812 13.656-3.75c48.711-13.344 90.02-27.615 131.09-45.312 5.8161-2.506 10.648-4.4774 10.75-4.375zm147.53 51.5c0.07 0.0144 0.0938 0.0636 0.0938 0.125 0 3.3201-7.5347 34.045-13.812 56.281-5.266 18.653-9.6867 33.243-17.875 59.094-3.6164 11.417-6.7211 20.736-6.9063 20.688-0.1851-0.0482-1.0524-0.21485-1.9374-0.375-44.372-8.0301-84.115-19.228-121.34-34.188-10.416-4.1852-25.456-10.848-26.25-11.625-0.269-0.26346 8.7251-4.5005 19.969-9.4062 67.995-29.667 138.44-63.451 162.53-77.938 2.897-1.7424 5.0417-2.7571 5.5312-2.6562zm-340.56 11.656c0.3646 0.34539-18.655 27.572-45.219 64.75-9.2327 12.922-20.078 28.152-24.094 33.844-4.0153 5.6915-10.089 14.7-13.531 20.031l-6.2812 9.6875-6.6876-5.625c-7.8469-6.5885-21.582-20.577-27.812-28.344-12.821-15.982-21.509-32.802-24.938-48.25-1.5828-7.1316-1.6294-10.766-0.125-11.219 2.1743-0.65481 42.062-10.045 79.469-18.719 20.778-4.818 44.801-10.458 53.406-12.531 8.6054-2.0735 15.728-3.7046 15.813-3.625zm19.125 7.3125 4.8124 5.375c21.516 23.968 43.397 41.853 70.094 57.281 4.7136 2.7239 8.3061 5.0921 8 5.2812-1.1112 0.6868-92.319 33.116-134.5 47.812-23.789 8.2884-43.33 15.047-43.438 15.031-0.108-0.01577-1.4554-0.89703-2.9687-1.9688l-2.75-1.9688 4.3124-6.2188c13.995-20.273 31.58-42.567 70.063-88.875l26.375-31.75zm119.19 85.188c0.1055-0.13163 6.774 2.2325 14.844 5.25 19.452 7.2734 34.718 12.017 55.375 17.188 25.372 6.3504 62.037 12.701 83.75 14.531 3.3333 0.28097 5.0348 0.66136 4.5 1-1.008 0.63833-22.993 7.9815-39.156 13.063-25.657 8.0653-104.07 31.229-168 49.625-11.86 3.4125-22 6.2958-22.531 6.4062-1.432 0.29783-6.4375-1.016-6.4375-1.6875 0-0.3192 3.5849-4.8561 7.9375-10.062 21.489-25.704 42.837-54.413 60.656-81.563 4.8737-7.4256 8.957-13.618 9.0624-13.75zm-26.406 0.75c0.1923 0.19233-10.401 17.154-29.031 46.5-7.8665 12.391-16.787 26.496-19.844 31.344-3.0571 4.8482-7.5368 12.216-9.9375 16.406l-4.375 7.625-2.2187-0.59375c-5.3537-1.4494-43.118-14.79-53.094-18.75-12.364-4.9075-25.249-10.834-34.75-15.969-11.873-6.4165-26.931-15.938-25.75-16.312 0.3399-0.10781 20.77-5.6995 45.375-12.406 65.454-17.842 101.66-28.091 125.41-35.5 4.4372-1.3843 8.1338-2.4286 8.2188-2.3438zm185.91 43.594c0.141-0.03064 0.2063-0.03114 0.2188 0 0.6191 1.5481-23.612 68.662-32.469 89.937-1.9836 4.7654-2.7176 5.92-3.75 5.875-2.5069-0.1094-37.642-5.0218-58.906-8.25-37.225-5.6512-99.578-16.54-115.31-20.125l-3.6563-0.8125 22.313-5.0312c47.825-10.775 70.793-16.554 94.094-23.688 29.386-8.9962 58.485-20.212 87.875-33.875 4.6465-2.16 8.607-3.8168 9.5937-4.0312z" fill="url(#linearGradient3685)"/>
          <path d="m-232.33-982.38c-3.3045-0.3858-56.335 18.72-90.406 32.562-46.166 18.756-82.012 36.727-104.12 52.25-8.2309 5.7777-18.581 16.169-20.094 20.156-0.5661 1.4921-0.8317 3.2361-0.84375 5.0312l20.062 18.938 47.594 15.188 113.38 20.25 129.59 22.281 1.3125-11.125c-0.39207-0.0618-0.76308-0.12566-1.1562-0.1875l-17.062-2.6875-3.4688-6.0938c-17.613-31.079-37.077-69.538-48.375-95.562-8.7496-20.155-17.152-43.373-21.812-60.188-2.7682-9.9864-3.0564-10.633-4.5938-10.812zm-2.5 7.6875c0.1318-0.0237 0.1982-0.0246 0.21875 0 0.10464 0.1252 0.70686 4.2937 1.3125 9.25 2.5507 20.873 7.2214 41.117 14.531 62.906 5.5083 16.419 5.5873 15.455-0.96875 13.625-15.239-4.2529-83.516-15.973-132.91-22.812-7.9583-1.1021-14.582-2.0821-14.688-2.1875-0.62711-0.62711 35.619-19.618 51.688-27.094 20.608-9.5883 76.727-32.953 80.812-33.688zm-143.91 66.844 5.7812 1.9688c31.71 10.794 111.19 25.977 155.12 29.625 4.9563 0.41159 9.1237 0.85315 9.25 0.96875s-4.0841 2.3653-9.3438 5c-21.194 10.617-44.52 23.557-60.656 33.656-4.7387 2.966-9.0846 5.3581-9.6562 5.3125s-3.6966-0.54764-6.9688-1.0938l-5.9688-0.96875-15-14.562c-26.333-25.486-46.892-45.203-54.844-52.656l-7.7188-7.25zm-5.875 4.6875 21 26.219c11.56 14.421 23.146 28.733 25.719 31.812 2.5724 3.0798 4.5625 5.6898 4.4375 5.7812-0.59589 0.43589-30.436-5.3739-46.25-9-16.234-3.7226-22.949-5.5045-33-8.7188l-8.1875-2.625 0.0312-2.0312c0.10415-10.072 12.799-24.927 34.344-40.125l1.9062-1.3125zm178.84 35.719c0.62988 0.0486 1.2951 1.3289 3.1562 5.4062 5.0935 11.158 20.948 41.4 24.781 47.25 1.2623 1.9265 3.2635 2.0555-17.781-1.3438-50.576-8.1693-66.938-10.904-66.938-11.219 3.6e-4 -0.1919 1.5168-1.1854 3.375-2.2188 15.662-8.7099 31.465-19.673 45.531-31.531 3.3632-2.8354 6.595-5.5367 7.1875-6.0312 0.24364-0.20338 0.47754-0.32871 0.6875-0.3125z" fill="url(#linearGradient3687)"/>
          <path d="m-446.06-879.43s-3.2817 5.203-0.1875 12.938c1.9146 4.786 7.6639 10.535 14 16.625 0 0 66.369 64.74 74.5 74.125 36.772 42.441 52.744 84.223 54.219 141.91 0.9466 37.016-6.1927 69.557-23.531 107.38-31.077 67.784-96.557 142.53-197.69 225.66l14.844-4.9063c9.5412-7.1478 22.498-14.782 53.062-31.5 70.389-38.502 149.43-73.916 246.53-110.41 139.7-52.5 369.5-114.1 500.25-134.12l13.625-2.0938-2.0938-3.2812c-11.956-18.583-20.117-30.042-29.938-42.188-28.679-35.466-63.398-64.404-105.94-88.219-58.456-32.726-134.28-58.161-230.12-77.219-18.12-3.6028-57.803-10.405-90.094-15.438-68.402-10.66-112.52-17.858-161.25-26.344-17.471-3.0314-43.558-7.4121-60.875-11.156-9.0234-1.9509-26.172-6.0059-39.5-10.594-11.003-4.3323-26.498-8.5202-29.812-21.156zm38.469 37.344c0.093-0.084 2.5859 0.6871 5.625 1.7188 5.6009 1.9013 12.992 4.1271 21.594 6.5312 6.026 1.6842 12.652 3.4513 19.688 5.25 8.9799 2.2958 16.405 4.2683 16.5 4.375 0.9941 1.1178 16.076 49.251 21.219 67.719 1.963 7.0489 3.4531 12.922 3.3125 13.062-0.1407 0.1407-1.8137-2.4547-3.6875-5.75-17.448-30.684-45.079-61.887-77.031-87-3.9827-3.1303-7.2187-5.7879-7.2187-5.9063zm73.531 20.312c0.7686-0.053 4.0817 0.5016 8.0313 1.375 25.444 5.6268 70.876 14.398 100.09 19.312 4.8678 0.8188 8.875 1.7006 8.875 1.9688 0 0.2681-1.8186 1.4183-4.0312 2.5312-4.9022 2.4659-24.738 14.339-31.375 18.781-16.568 11.089-31.464 22.958-42.312 33.75-4.3596 4.3368-8.0078 7.875-8.125 7.875s-0.8794-2.5273-1.6875-5.625c-5.4236-20.789-16.637-51.488-26.688-73.094-1.6173-3.4767-2.9375-6.5429-2.9375-6.8125 0-0.034 0.046-0.055 0.1562-0.062zm129.34 24.594c0.8515 0.2838 2.4608 5.3061 5.3125 16.594 5.4605 21.614 8.0028 45.888 7.1562 68.344-0.2356 6.2493-0.6308 12.053-0.875 12.906l-0.4687 1.5625-7.7188-2.5c-15.912-5.0861-41.909-12.741-64.188-18.906-12.656-3.5026-23.031-6.6296-23.031-6.9375 0-0.9252 18.468-19.388 26.406-26.406 15.164-13.406 55.96-45.138 57.406-44.656zm10.281 1.4687c0.4605-0.4285 61.809 10.194 89.688 15.531 20.78 3.9779 50.844 10.274 52.656 11.031 0.8747 0.3655-2.2366 2.061-12.219 6.5625-39.484 17.806-68.735 33.697-97.813 53.156-7.6591 5.1256-14.024 9.3125-14.156 9.3125-0.1324 0-0.246-4.2782-0.25-9.5-0.02-28.356-5.6811-56.976-16.062-81.156-1.1173-2.6022-1.9557-4.8333-1.8438-4.9375zm158.63 31.375c0.475 0.4751-1.5372 12.573-3.2812 19.719-5.4282 22.241-19.812 55.253-37.563 86.281-3.1279 5.4677-5.9255 10.026-6.25 10.125-0.3246 0.099-4.3665-2.0268-8.9688-4.7187-17.357-10.152-37.01-19.756-58.594-28.656-6.0184-2.4817-11.144-4.6915-11.406-4.9375-0.9843-0.9235 46.978-32.678 72.406-47.938 20.339-12.205 53.086-30.446 53.656-29.875zm11.344 1.7813c1.3812 0 28.588 7.4176 42.656 11.625 35.042 10.48 75.464 25.247 101.69 37.156l10.906 4.9375-7.6875 1.7813c-64.163 14.74-119.16 31.75-172.12 53.25-4.4013 1.7865-8.2313 3.25-8.5 3.25-0.2688 0 1.1359-3.4027 3.0937-7.5625 15.922-33.829 26.205-69.327 28.875-99.469 0.243-2.7436 0.7383-4.9687 1.0938-4.9687zm-270.44 62.156c0.4345-0.4292 21.142 4.4227 32.438 7.5938 16.977 4.7663 53.102 16.854 53.125 17.781 0 0.1803-3.9813 3.6508-8.8438 7.7188-19.531 16.34-38.37 33.425-60.938 55.219-6.6902 6.4609-12.375 11.719-12.656 11.719s-0.4059-0.9432-0.25-2.0938c3.3986-25.088 2.6685-57.302-2.0625-90.094-0.5997-4.1567-0.9631-7.6951-0.8125-7.8438zm436.06 0.4063c0.31058 0.3106-9.6076 15.812-15.781 24.656-9.0081 12.904-22.065 29.844-51.812 67.25-15.626 19.648-33.25 41.883-39.188 49.406-5.937 7.523-10.919 13.688-11.062 13.688-0.14309 0-2.058-2.6941-4.25-5.9688-16.769-25.052-36.668-47.057-60.406-66.812-4.43-3.6866-9.4278-7.7296-11.094-8.9687-1.6659-1.2391-3.0242-2.3855-3.0312-2.5625-0.016-0.4084 25.337-11.282 44.687-19.156 33.688-13.709 79.731-30.124 114.19-40.688 18.17-5.5705 37.474-11.12 37.75-10.844zm11.438 3c0.5441-0.1109 4.1603 1.6391 8.5 4.125 36.289 20.788 71.849 47.483 99.812 74.938 7.9542 7.8095 27.414 28.052 27.125 28.219-0.074 0.043-6.795 0.5752-14.938 1.1875-62.885 4.7294-143.28 18.107-220.69 36.719-5.2571 1.264-9.8016 2.3125-10.094 2.3125-0.29217 0 5.4619-5.7759 12.781-12.812 45.457-43.701 66.194-71.295 90.594-120.59 3.6339-7.3423 6.7151-13.677 6.8438-14.062 8e-3 -0.024 0.0262-0.024 0.0625-0.031zm-332.37 34.062c2.0764 0.466 21.463 9.4866 36.094 16.812 13.38 6.6995 33.645 17.489 34.656 18.438 0.1269 0.1191-7.0119 3.8469-15.875 8.2812-28.059 14.038-52.094 27.296-77.188 42.625-7.1558 4.3714-13.154 7.9688-13.344 7.9688-0.626 0-0.3793-0.5412 3.625-7.875 13.363-24.474 24.142-53.696 30.344-82.25 0.5535-2.5487 1.2195-4.105 1.6875-4zm-19.531 3.5c0.4047 0.4047-4.6259 18.882-7.8125 28.75-6.1118 18.926-16.446 42.718-26.375 60.625-2.3319 4.2056-5.9098 10.362-7.9375 13.688l-3.6875 6.0312-8.375-8.0937c-9.7319-9.4346-17.659-15.293-27.781-20.5-3.9785-2.0464-7.2138-3.9404-7.2188-4.2188-0.019-1.2308 25.461-24.402 45.125-41.031 14.076-11.903 43.703-35.61 44.062-35.25zm118.69 48.812 7.2813 4.7187c16.704 10.845 36.482 25.434 51.562 38 8.4509 7.0419 24.875 21.749 28.25 25.312l1.8125 1.9063-12.094 3.375c-68.401 18.978-121.25 35.872-182.91 58.531-6.843 2.5147-12.752 4.5938-13.156 4.5938-0.8506 0-1.696 0.7819 13.688-13.375 39.439-36.294 74.278-76.283 100.31-115.19l5.25-7.875zm-31.188 7.8125c0.3573 0.3573-20.213 29.168-32.438 45.438-14.625 19.465-40.672 52.004-58.594 73.188-7.4878 8.8505-13.903 16.194-14.25 16.312-0.3811 0.1294-0.618-2.0387-0.625-5.4688-0.035-18.075-4.6077-37.393-12.688-53.75-3.4127-6.9089-3.9845-8.5811-3.2813-9.2187 2.812-2.5494 46.322-27.358 73.75-42.062 18.84-10.1 47.767-24.796 48.125-24.438zm-188.62 46.219c0.3737 0 3.8639 1.7535 7.75 3.9063 9.5226 5.2752 18.078 11.079 25.625 17.375 0.2912 0.2429-3.617 3.4354-8.6875 7.0937-14.153 10.211-35.705 26.477-48.188 36.406-13.17 10.476-13.606 10.797-12.125 8.5312 9.8627-15.084 14.822-23.624 20-34.531 4.6035-9.6961 9.1914-21.206 12.469-31.219 1.3615-4.1597 2.7825-7.5625 3.1562-7.5625zm50.25 39.438c0.6799-0.084 1.6475 1.1821 5.6875 7.2188 8.5144 12.722 15.035 29.688 16.719 43.5l0.3437 2.9687-20.406 7.9063c-36.63 14.215-70.348 28.226-93.125 38.656-6.3724 2.918-17.623 8.2931-24.969 11.969-7.3459 3.6756-13.344 6.5644-13.344 6.4062 0-0.1581 4.6132-3.6266 10.25-7.7187 44.702-32.452 83.244-67.982 112.28-103.5 3.1055-3.7987 5.9261-7.093 6.2813-7.3125 0.094-0.058 0.1841-0.082 0.2812-0.094zm-23.188 5.75c0.5913 0.5913-16.494 19.913-28 31.656-28.799 29.393-57.349 52.437-92.719 74.875-4.4253 2.8073-8.469 5.3456-9 5.6562-0.9709 0.5679 0.3139-0.8922 15.844-17.812 9.7864-10.663 17.277-19.514 25.781-30.562 5.6006-7.2759 6.6703-8.2966 14.875-14.219 22.101-15.952 72.631-50.182 73.219-49.594z" fill="url(#radialGradient3719)"/>
        </g>
      </g>
    </g>
  </g>
</svg>
