<?xml version="1.0" encoding="UTF-8" standalone="no"?>
<!-- Created with Inkscape (http://www.inkscape.org/) -->

<svg
   xmlns:dc="http://purl.org/dc/elements/1.1/"
   xmlns:cc="http://creativecommons.org/ns#"
   xmlns:rdf="http://www.w3.org/1999/02/22-rdf-syntax-ns#"
   xmlns:svg="http://www.w3.org/2000/svg"
   xmlns="http://www.w3.org/2000/svg"
   xmlns:xlink="http://www.w3.org/1999/xlink"
   xmlns:sodipodi="http://sodipodi.sourceforge.net/DTD/sodipodi-0.dtd"
   xmlns:inkscape="http://www.inkscape.org/namespaces/inkscape"
   width="745"
   height="160"
   id="svg3280"
   version="1.1"
   inkscape:version="0.47 r22583"
   sodipodi:docname="Neues Dokument 3">
  <defs
     id="defs3282">
    <inkscape:perspective
       sodipodi:type="inkscape:persp3d"
       inkscape:vp_x="0 : 526.18109 : 1"
       inkscape:vp_y="0 : 1000 : 0"
       inkscape:vp_z="744.09448 : 526.18109 : 1"
       inkscape:persp3d-origin="372.04724 : 350.78739 : 1"
       id="perspective3288" />
    <inkscape:perspective
       id="perspective3234"
       inkscape:persp3d-origin="0.5 : 0.33333333 : 1"
       inkscape:vp_z="1 : 0.5 : 1"
       inkscape:vp_y="0 : 1000 : 0"
       inkscape:vp_x="0 : 0.5 : 1"
       sodipodi:type="inkscape:persp3d" />
    <linearGradient
       y2="-258.96371"
       x2="-23.846952"
       y1="-29.889751"
       x1="-411.5267"
       gradientUnits="userSpaceOnUse"
       id="linearGradient3685"
       xlink:href="#linearGradient3649"
       inkscape:collect="always" />
    <linearGradient
       id="linearGradient3649">
      <stop
         id="stop3651"
         offset="0"
         style="stop-color:#909ca9;stop-opacity:1;" />
      <stop
         id="stop3653"
         offset="1"
         style="stop-color:#ededee;stop-opacity:1;" />
    </linearGradient>
    <linearGradient
       y2="-889.05798"
       x2="-135.85931"
       y1="-889.05798"
       x1="-447.79681"
       gradientUnits="userSpaceOnUse"
       id="linearGradient3687"
       xlink:href="#linearGradient3672"
       inkscape:collect="always" />
    <linearGradient
       id="linearGradient3672">
      <stop
         id="stop3674"
         offset="0"
         style="stop-color:#939fab;stop-opacity:1;" />
      <stop
         id="stop3676"
         offset="1"
         style="stop-color:#dcdee1;stop-opacity:1;" />
    </linearGradient>
    <radialGradient
       inkscape:collect="always"
       xlink:href="#linearGradient3629"
       id="radialGradient3719"
       gradientUnits="userSpaceOnUse"
       gradientTransform="matrix(-0.96081555,-0.14529309,0.29017979,-1.9189443,-1292.0815,-1278.3801)"
       cx="-1259.0977"
       cy="-245.42754"
       fx="-1259.0977"
       fy="-245.42754"
       r="414.15625" />
    <linearGradient
       id="linearGradient3629">
      <stop
         id="stop3631"
         offset="0"
         style="stop-color:#77b8e4;stop-opacity:1;" />
      <stop
         id="stop3633"
         offset="1"
         style="stop-color:#3363a2;stop-opacity:1;" />
    </linearGradient>
  </defs>
  <sodipodi:namedview
     id="base"
     pagecolor="#ffffff"
     bordercolor="#666666"
     borderopacity="1.0"
     inkscape:pageopacity="0.0"
     inkscape:pageshadow="2"
     inkscape:zoom="0.87700224"
     inkscape:cx="372.5"
     inkscape:cy="80"
     inkscape:document-units="px"
     inkscape:current-layer="layer1"
     showgrid="false"
     inkscape:window-width="1024"
     inkscape:window-height="749"
     inkscape:window-x="-4"
     inkscape:window-y="-4"
     inkscape:window-maximized="1" />
  <metadata
     id="metadata3285">
    <rdf:RDF>
      <cc:Work
         rdf:about="">
        <dc:format>image/svg+xml</dc:format>
        <dc:type
           rdf:resource="http://purl.org/dc/dcmitype/StillImage" />
        <dc:title></dc:title>
      </cc:Work>
    </rdf:RDF>
  </metadata>
  <g
     inkscape:label="Ebene 1"
     inkscape:groupmode="layer"
     id="layer1"
     transform="translate(-218.76811,-498.43923)">
    <g
       transform="matrix(3.4816002,0,0,-3.4816002,-1140.6618,1774.5611)"
       id="g3195">
      <path
         d="m 481.32028,356.08061 c 0,0.10789 -0.0299,0.18425 -0.0896,0.23239 -0.0681,0.0564 -0.18425,0.083 -0.34527,0.083 l -0.23239,0 0,-0.63741 0.28053,0 c 0.25729,0 0.38677,0.1079 0.38677,0.32203 m 0.3602,-1.32795 -0.31704,0 -0.20418,0.44818 c -0.10291,0.22409 -0.21413,0.33697 -0.33364,0.33697 l -0.17264,0 0,-0.78515 -0.26227,0 0,1.86909 0.52786,0 c 0.23239,0 0.40835,-0.0531 0.52952,-0.1577 0.10126,-0.0896 0.15272,-0.20749 0.15272,-0.3519 0,-0.12782 -0.0415,-0.23738 -0.1245,-0.32701 -0.083,-0.0913 -0.20085,-0.15106 -0.35024,-0.18259 l 0,-0.008 c 0.10457,-0.0232 0.20749,-0.13778 0.3104,-0.34361 l 0.24401,-0.49798 z m 0.58264,0.91462 c 0,0.37017 -0.12615,0.67726 -0.3768,0.92459 -0.25065,0.24733 -0.55608,0.37016 -0.91795,0.37016 -0.37348,0 -0.68223,-0.12449 -0.9279,-0.37348 -0.24733,-0.24899 -0.37017,-0.55608 -0.37017,-0.92127 0,-0.37182 0.12782,-0.68389 0.38179,-0.93288 0.25065,-0.24567 0.55608,-0.36851 0.91628,-0.36851 0.35855,0 0.66398,0.1245 0.91629,0.37349 0.25231,0.24899 0.37846,0.55774 0.37846,0.9279 m 0.17595,0.008 c 0,-0.41166 -0.14275,-0.75693 -0.4266,-1.03746 -0.28385,-0.28053 -0.63409,-0.41996 -1.05074,-0.41996 -0.41996,0 -0.77021,0.13611 -1.04742,0.40834 -0.27721,0.27389 -0.41664,0.61916 -0.41664,1.03746 0,0.41001 0.14109,0.75527 0.42328,1.03746 0.28219,0.28053 0.63244,0.42163 1.0524,0.42163 0.41167,0 0.75693,-0.13446 1.0358,-0.40337 0.28717,-0.27555 0.42992,-0.62413 0.42992,-1.0441"
         style="fill:#231f1f;fill-opacity:1;fill-rule:nonzero;stroke:none"
         id="path26" />
      <path
         d="m 444.42324,350.80865 -0.85487,0 0,4.90511 c 0,0.38677 0.0232,0.85985 0.0697,1.41593 l -0.0199,0 c -0.0813,-0.32535 -0.15437,-0.56106 -0.21911,-0.70714 l -2.4899,-5.6139 -0.41831,0 -2.49654,5.57241 c -0.0714,0.15603 -0.14441,0.40668 -0.21911,0.74863 l -0.0199,0 c 0.0266,-0.29215 0.0415,-0.76689 0.0415,-1.42589 l 0,-4.89515 -0.82665,0 0,7.30538 1.13208,0 2.24091,-5.09434 c 0.16931,-0.38345 0.28053,-0.6756 0.33199,-0.87645 l 0.0349,0 c 0.14607,0.40005 0.26227,0.69883 0.3519,0.89637 l 2.28739,5.07442 1.07398,0"
         style="fill:#231f1f;fill-opacity:1;fill-rule:nonzero;stroke:none"
         id="path28" />
      <path
         d="m 447.06254,356.02417 0,-5.21552 -0.83495,0 0,5.21552 0.83495,0 z m 0.14275,1.86909 c 0,-0.15272 -0.0548,-0.28053 -0.16101,-0.38677 -0.10624,-0.10457 -0.23737,-0.15769 -0.39009,-0.15769 -0.14939,0 -0.27721,0.0515 -0.3851,0.15271 -0.10624,0.10126 -0.15936,0.23239 -0.15936,0.39175 0,0.15437 0.0531,0.28218 0.15936,0.3851 0.10789,0.10458 0.23571,0.15603 0.3851,0.15603 0.15272,0 0.28385,-0.0514 0.39009,-0.15603 0.10623,-0.10292 0.16101,-0.23073 0.16101,-0.3851"
         style="fill:#231f1f;fill-opacity:1;fill-rule:nonzero;stroke:none"
         id="path30" />
      <path
         d="m 452.26809,351.04768 c -0.40004,-0.24401 -0.8781,-0.36684 -1.43086,-0.36684 -0.74697,0 -1.34953,0.24733 -1.80933,0.74365 -0.44818,0.48304 -0.67227,1.10386 -0.67227,1.86411 0,0.85652 0.24567,1.54706 0.73701,2.07326 0.48968,0.52619 1.15033,0.79012 1.97864,0.79012 0.45482,0 0.85653,-0.088 1.20677,-0.26559 l 0,-0.85486 c -0.38676,0.27057 -0.80175,0.40668 -1.24329,0.40668 -0.52952,0 -0.9611,-0.18425 -1.29807,-0.55442 -0.35024,-0.38012 -0.52454,-0.8864 -0.52454,-1.51884 0,-0.60753 0.15936,-1.08725 0.48138,-1.44082 0.32037,-0.35357 0.7503,-0.52952 1.29143,-0.52952 0.45483,0 0.88309,0.14939 1.28313,0.44818"
         style="fill:#231f1f;fill-opacity:1;fill-rule:nonzero;stroke:none"
         id="path32" />
      <path
         d="m 456.25194,355.17926 c -0.14608,0.11288 -0.35855,0.16766 -0.63742,0.16766 -0.33862,0 -0.62413,-0.15272 -0.85486,-0.45815 -0.26227,-0.34194 -0.39175,-0.81668 -0.39175,-1.4209 l 0,-2.65922 -0.83661,0 0,5.21718 0.83661,0 0,-1.07564 0.0199,0 c 0.12118,0.38013 0.31041,0.67393 0.56604,0.88143 0.23737,0.18923 0.50296,0.28551 0.79843,0.28551 0.22077,0 0.38842,-0.0249 0.49964,-0.0714"
         style="fill:#231f1f;fill-opacity:1;fill-rule:nonzero;stroke:none"
         id="path34" />
      <path
         d="m 460.9064,353.40645 c 0,0.66896 -0.15106,1.17856 -0.45317,1.5288 -0.29214,0.33531 -0.70049,0.50462 -1.22835,0.50462 -0.51956,0 -0.93454,-0.17097 -1.24661,-0.5096 -0.33033,-0.36352 -0.49466,-0.8781 -0.49466,-1.54374 0,-0.62579 0.15769,-1.11381 0.47308,-1.46406 0.31705,-0.35191 0.73867,-0.52786 1.26819,-0.52786 0.5511,0 0.9694,0.17761 1.25823,0.5345 0.28219,0.34693 0.42329,0.83827 0.42329,1.47734 m 0.85652,0.0299 c 0,-0.83163 -0.23571,-1.49892 -0.70381,-2.00188 -0.4681,-0.5013 -1.10054,-0.75361 -1.89399,-0.75361 -0.78515,0 -1.40596,0.25231 -1.86576,0.75361 -0.44819,0.48636 -0.67228,1.12709 -0.67228,1.92054 0,0.90799 0.25563,1.60848 0.76523,2.1048 0.47143,0.46146 1.10386,0.69219 1.89399,0.69219 0.77851,0 1.38605,-0.24069 1.82095,-0.72373 0.43656,-0.48138 0.65567,-1.14535 0.65567,-1.99192"
         style="fill:#231f1f;fill-opacity:1;fill-rule:nonzero;stroke:none"
         id="path36" />
      <path
         d="m 465.90446,352.20466 c 0,-0.42826 -0.15935,-0.78349 -0.47972,-1.06402 -0.34859,-0.30709 -0.82665,-0.4598 -1.43086,-0.4598 -0.49633,0 -0.92625,0.10623 -1.29309,0.31705 l 0,0.89636 c 0.40668,-0.33365 0.85818,-0.49964 1.3545,-0.49964 0.66232,0 0.99264,0.24235 0.99264,0.72871 0,0.20417 -0.073,0.37183 -0.21911,0.50462 -0.14607,0.1328 -0.42992,0.29049 -0.85486,0.47806 -0.43823,0.1909 -0.74863,0.38677 -0.93289,0.59094 -0.22077,0.24069 -0.33032,0.55608 -0.33032,0.94284 0,0.43491 0.17097,0.79511 0.51458,1.08228 0.34194,0.28717 0.78348,0.42992 1.32462,0.42992 0.41333,0 0.78515,-0.0813 1.11548,-0.24401 l 0,-0.83992 c -0.34361,0.24733 -0.73701,0.37182 -1.18187,0.37182 -0.27887,0 -0.5013,-0.0681 -0.6673,-0.20417 -0.16765,-0.13611 -0.25065,-0.31041 -0.25065,-0.52454 0,-0.23073 0.0697,-0.41166 0.20915,-0.53948 0.12616,-0.11951 0.38677,-0.26393 0.78515,-0.43324 0.44487,-0.18757 0.76523,-0.37847 0.96277,-0.576 0.25397,-0.25231 0.38178,-0.57102 0.38178,-0.95778"
         style="fill:#231f1f;fill-opacity:1;fill-rule:nonzero;stroke:none"
         id="path38" />
      <path
         d="m 471.00876,353.40645 c 0,0.66896 -0.15105,1.17856 -0.45316,1.5288 -0.29215,0.33531 -0.70215,0.50462 -1.22835,0.50462 -0.51956,0 -0.93455,-0.17097 -1.24827,-0.5096 -0.32867,-0.36352 -0.49301,-0.8781 -0.49301,-1.54374 0,-0.62579 0.1577,-1.11381 0.47309,-1.46406 0.31704,-0.35191 0.73867,-0.52786 1.26819,-0.52786 0.5511,0 0.9694,0.17761 1.25823,0.5345 0.28219,0.34693 0.42328,0.83827 0.42328,1.47734 m 0.85653,0.0299 c 0,-0.83163 -0.23571,-1.49892 -0.70381,-2.00188 -0.46811,-0.5013 -1.10054,-0.75361 -1.89565,-0.75361 -0.78349,0 -1.40431,0.25231 -1.86411,0.75361 -0.44818,0.48636 -0.67227,1.12709 -0.67227,1.92054 0,0.90799 0.25563,1.60848 0.76523,2.1048 0.47142,0.46146 1.1022,0.69219 1.89398,0.69219 0.77851,0 1.38439,-0.24069 1.82095,-0.72373 0.43657,-0.48138 0.65568,-1.14535 0.65568,-1.99192"
         style="fill:#231f1f;fill-opacity:1;fill-rule:nonzero;stroke:none"
         id="path40" />
      <path
         d="m 475.54702,357.79698 c -0.16267,0.0913 -0.34858,0.13777 -0.55607,0.13777 -0.58264,0 -0.87479,-0.3685 -0.87479,-1.10551 l 0,-0.80507 1.22171,0 0,-0.70879 -1.22171,0 0,-4.50673 -0.83661,0 0,4.50673 -0.8864,0 0,0.70879 0.8864,0 0,0.84491 c 0,0.57433 0.17928,1.02418 0.5345,1.35118 0.30709,0.28053 0.68223,0.42163 1.1271,0.42163 0.25729,0 0.4598,-0.0299 0.60587,-0.0913"
         style="fill:#231f1f;fill-opacity:1;fill-rule:nonzero;stroke:none"
         id="path42" />
      <path
         d="m 478.84365,350.86011 c -0.19753,-0.11287 -0.45814,-0.16765 -0.78514,-0.16765 -0.90965,0 -1.36447,0.51126 -1.36447,1.5371 l 0,3.08748 -0.89637,0 0,0.70879 0.89637,0 0,1.27317 c 0.26393,0.0847 0.5428,0.17429 0.83495,0.26891 l 0,-1.54208 1.31466,0 0,-0.70879 -1.31466,0 0,-2.94473 c 0,-0.35024 0.0597,-0.59757 0.17927,-0.74531 0.11785,-0.14773 0.31705,-0.22243 0.59592,-0.22243 0.20583,0 0.38676,0.0564 0.53947,0.16931"
         style="fill:#231f1f;fill-opacity:1;fill-rule:nonzero;stroke:none"
         id="path44" />
      <path
         d="m 447.29825,333.2897 c 0,-1.5703 -0.52122,-2.84015 -1.56532,-3.80789 -1.18519,-1.10054 -2.90157,-1.65164 -5.14912,-1.65164 -0.75195,0 -1.58856,0.11786 -2.51148,0.35357 -0.92127,0.23405 -1.6035,0.50296 -2.04504,0.80341 l 0,2.80695 c 0.63077,-0.56438 1.4209,-1.01422 2.37039,-1.35451 0.88308,-0.31041 1.72135,-0.46478 2.51148,-0.46478 2.59448,0 3.89255,1.0109 3.89255,3.0327 0,0.87478 -0.32867,1.64997 -0.98767,2.32723 -0.58263,0.59259 -1.66823,1.34123 -3.25845,2.24257 -1.66491,0.94118 -2.83019,1.84419 -3.49748,2.70901 -0.66896,0.86483 -1.0026,1.88569 -1.0026,3.06092 0,1.55204 0.56936,2.83185 1.70641,3.83777 1.19515,1.0441 2.76545,1.56532 4.71256,1.56532 1.81431,0 3.14059,-0.24069 3.9772,-0.71875 l 0,-2.65257 c -1.06236,0.82664 -2.43014,1.24163 -4.10502,1.24163 -1.18519,0 -2.12472,-0.30211 -2.82023,-0.90301 -0.65899,-0.56438 -0.98766,-1.28313 -0.98766,-2.15791 0,-0.94119 0.30045,-1.72634 0.90301,-2.35711 0.50794,-0.5262 1.51884,-1.20843 3.0327,-2.04504 1.65495,-0.91131 2.84845,-1.79107 3.58214,-2.63764 0.8283,-0.94948 1.24163,-2.02678 1.24163,-3.23023"
         style="fill:#231f1f;fill-opacity:1;fill-rule:nonzero;stroke:none"
         id="path46" />
      <path
         d="m 461.65337,342.62849 -6.64472,-16.7587 c -1.1852,-2.98125 -2.84845,-4.47187 -4.99309,-4.47187 -0.60255,0 -1.10551,0.0564 -1.50888,0.16932 l 0,2.07492 c 0.49798,-0.16932 0.94948,-0.25397 1.35451,-0.25397 1.17523,0 2.05334,0.69053 2.63763,2.07325 l 1.15532,2.75052 -5.64212,14.41653 2.5812,0 3.89421,-11.11492 c 0.0747,-0.20749 0.17429,-0.57434 0.29547,-1.10054 l 0.0847,0 c 0.0481,0.22575 0.1411,0.57766 0.28219,1.05738 l 4.10502,11.15808"
         style="fill:#231f1f;fill-opacity:1;fill-rule:nonzero;stroke:none"
         id="path48" />
      <path
         d="m 471.15484,332.04973 c 0,-1.1852 -0.44155,-2.16788 -1.32629,-2.94805 -0.96774,-0.84657 -2.28905,-1.26985 -3.96393,-1.26985 -1.37276,0 -2.56626,0.29215 -3.58214,0.87479 l 0,2.48326 c 1.12876,-0.92292 2.37869,-1.38273 3.75146,-1.38273 1.83422,0 2.75051,0.67228 2.75051,2.01683 0,0.56437 -0.20085,1.02916 -0.60588,1.396 -0.40502,0.36685 -1.19515,0.80839 -2.37039,1.32629 -1.21341,0.5262 -2.07325,1.07232 -2.58119,1.63669 -0.61086,0.6673 -0.91629,1.5371 -0.91629,2.60942 0,1.20346 0.47474,2.20274 1.42423,2.99785 0.94948,0.7951 2.17285,1.19183 3.66679,1.19183 1.14868,0 2.17784,-0.22575 3.0908,-0.67725 l 0,-2.32723 c -0.95114,0.68555 -2.04172,1.02916 -3.27339,1.02916 -0.77021,0 -1.38771,-0.18758 -1.84751,-0.56438 -0.46146,-0.37515 -0.69219,-0.85985 -0.69219,-1.45244 0,-0.63908 0.19421,-1.13706 0.57932,-1.49561 0.34692,-0.32866 1.07231,-0.72871 2.17285,-1.19847 1.23167,-0.5179 2.11974,-1.04908 2.66586,-1.59354 0.70547,-0.69717 1.05738,-1.58026 1.05738,-2.65257"
         style="fill:#231f1f;fill-opacity:1;fill-rule:nonzero;stroke:none"
         id="path50" />
      <path
         d="m 480.37411,328.32483 c -0.54611,-0.31041 -1.26985,-0.46478 -2.17285,-0.46478 -2.51978,0 -3.77967,1.41924 -3.77967,4.25939 l 0,8.54867 -2.48327,0 0,1.96038 2.48327,0 0,3.52736 c 0.73369,0.23406 1.5039,0.48305 2.31229,0.74698 l 0,-4.27434 3.64023,0 0,-1.96038 -3.64023,0 0,-8.1536 c 0,-0.96774 0.16433,-1.65828 0.49466,-2.06662 0.32867,-0.40834 0.87976,-0.61418 1.64997,-0.61418 0.57434,0 1.07232,0.15604 1.4956,0.46644"
         style="fill:#231f1f;fill-opacity:1;fill-rule:nonzero;stroke:none"
         id="path52" />
      <path
         d="m 491.72309,336.78884 c -0.0183,1.31633 -0.32867,2.34217 -0.93122,3.07586 -0.63078,0.76191 -1.52382,1.14204 -2.6808,1.14204 -1.09057,0 -2.01682,-0.38843 -2.77873,-1.16362 -0.76025,-0.77685 -1.23167,-1.79439 -1.41094,-3.05428 l 7.80169,0 z m 2.37039,-1.96038 -10.2003,0 c 0.0382,-1.61844 0.47142,-2.86007 1.29807,-3.7249 0.8283,-0.86482 1.96536,-1.29641 3.41448,-1.29641 1.62674,0 3.11736,0.5262 4.47187,1.5786 l 0,-2.15791 c -1.25989,-0.93123 -2.93477,-1.39601 -5.02297,-1.39601 -1.97366,0 -3.54064,0.62082 -4.69595,1.86245 -1.24163,1.31633 -1.86245,3.20201 -1.86245,5.6554 0,2.32391 0.67227,4.19963 2.01682,5.62884 1.25989,1.33625 2.80197,2.00354 4.62624,2.00354 1.95706,0 3.45267,-0.65402 4.48681,-1.96204 0.9777,-1.22172 1.46738,-2.88165 1.46738,-4.97815"
         style="fill:#231f1f;fill-opacity:1;fill-rule:nonzero;stroke:none"
         id="path54" />
      <path
         d="m 517.12176,328.18374 -2.31395,0 0,8.29469 c 0,1.66492 -0.26725,2.84845 -0.80341,3.55392 -0.49798,0.64904 -1.30637,0.97439 -2.42683,0.97439 -0.99596,0 -1.83754,-0.44985 -2.52476,-1.34787 -0.68555,-0.89803 -1.02916,-1.97698 -1.02916,-3.23687 l 0,-8.23826 -2.31395,0 0,8.57688 c 0,2.83019 -1.09555,4.24612 -3.28667,4.24612 -1.00592,0 -1.83423,-0.41499 -2.48326,-1.24164 -0.67725,-0.85652 -1.01588,-1.97034 -1.01588,-3.3431 l 0,-8.23826 -2.31229,0 0,14.44475 2.31229,0 0,-2.28573 0.0564,0 c 1.02584,1.75953 2.51646,2.63764 4.47186,2.63764 0.99762,0 1.87241,-0.28053 2.62436,-0.84657 0.71543,-0.54446 1.20843,-1.26321 1.48066,-2.15791 1.07232,2.00354 2.67084,3.00448 4.79721,3.00448 3.17878,0 4.76734,-1.96536 4.76734,-5.89609"
         style="fill:#231f1f;fill-opacity:1;fill-rule:nonzero;stroke:none"
         id="path56" />
      <path
         d="m 539.5591,329.01703 c -1.48564,-0.79013 -3.34311,-1.1852 -5.5724,-1.1852 -2.89659,0 -5.21386,0.94118 -6.95347,2.82189 -1.70309,1.84253 -2.55298,4.26437 -2.55298,7.26388 0,3.30161 1.01422,5.9575 3.04598,7.97101 1.92719,1.90892 4.34903,2.86338 7.26554,2.86338 1.92718,0 3.5174,-0.27721 4.76733,-0.83328 l 0,-2.50983 c -1.43916,0.80839 -3.03768,1.21342 -4.79555,1.21342 -2.27577,0 -4.12826,-0.74863 -5.55912,-2.24424 -1.49395,-1.56033 -2.24258,-3.66679 -2.24258,-6.31937 0,-2.51978 0.70548,-4.51336 2.11642,-5.98074 1.33459,-1.40099 3.07918,-2.10148 5.23378,-2.10148 2.0301,0 3.77967,0.4515 5.24705,1.3545"
         style="fill:#231f1f;fill-opacity:1;fill-rule:nonzero;stroke:none"
         id="path58" />
      <path
         d="m 551.64177,336.78884 c -0.0183,1.31633 -0.32867,2.34217 -0.93123,3.07586 -0.62911,0.76191 -1.52382,1.14204 -2.68079,1.14204 -1.09058,0 -2.01682,-0.38843 -2.77873,-1.16362 -0.76191,-0.77685 -1.23167,-1.79439 -1.40929,-3.05428 l 7.80004,0 z m 2.37039,-1.96038 -10.19865,0 c 0.0365,-1.61844 0.46977,-2.86007 1.29641,-3.7249 0.82831,-0.86482 1.96537,-1.29641 3.41449,-1.29641 1.62674,0 3.11736,0.5262 4.47187,1.5786 l 0,-2.15791 c -1.2599,-0.93123 -2.93477,-1.39601 -5.02131,-1.39601 -1.97532,0 -3.5423,0.62082 -4.69761,1.86245 -1.24164,1.31633 -1.86245,3.20201 -1.86245,5.6554 0,2.32391 0.67227,4.19963 2.01682,5.62884 1.25989,1.33625 2.80197,2.00354 4.6279,2.00354 1.9554,0 3.451,-0.65402 4.48514,-1.96204 0.97771,-1.22172 1.46739,-2.88165 1.46739,-4.97815"
         style="fill:#231f1f;fill-opacity:1;fill-rule:nonzero;stroke:none"
         id="path60" />
      <path
         d="m 568.51999,328.18374 -2.31395,0 0,8.23826 c 0,3.05594 -1.1188,4.58474 -3.35639,4.58474 -1.15697,0 -2.11476,-0.43325 -2.87169,-1.29807 -0.75693,-0.86483 -1.13539,-1.96039 -1.13539,-3.28667 l 0,-8.23826 -2.31229,0 0,14.44475 2.31229,0 0,-2.3986 0.0564,0 c 1.08228,1.83422 2.66088,2.75051 4.74078,2.75051 1.58856,0 2.79865,-0.51624 3.63194,-1.55038 0.83162,-1.0358 1.24827,-2.50152 1.24827,-4.40215"
         style="fill:#231f1f;fill-opacity:1;fill-rule:nonzero;stroke:none"
         id="path62" />
      <path
         d="m 578.71365,328.32483 c -0.54612,-0.31041 -1.26985,-0.46478 -2.17285,-0.46478 -2.51979,0 -3.77968,1.41924 -3.77968,4.25939 l 0,8.54867 -2.48326,0 0,1.96038 2.48326,0 0,3.52736 c 0.73369,0.23406 1.5039,0.48305 2.31229,0.74698 l 0,-4.27434 3.64024,0 0,-1.96038 -3.64024,0 0,-8.1536 c 0,-0.96774 0.166,-1.65828 0.49466,-2.06662 0.32867,-0.40834 0.87977,-0.61418 1.64998,-0.61418 0.57434,0 1.07232,0.15604 1.4956,0.46644"
         style="fill:#231f1f;fill-opacity:1;fill-rule:nonzero;stroke:none"
         id="path64" />
      <path
         d="m 590.06263,336.78884 c -0.0183,1.31633 -0.32867,2.34217 -0.93123,3.07586 -0.62911,0.76191 -1.52382,1.14204 -2.67913,1.14204 -1.09224,0 -2.01848,-0.38843 -2.78039,-1.16362 -0.76025,-0.77685 -1.23168,-1.79439 -1.40929,-3.05428 l 7.80004,0 z m 2.37038,-1.96038 -10.19864,0 c 0.0365,-1.61844 0.46976,-2.86007 1.29807,-3.7249 0.82665,-0.86482 1.9637,-1.29641 3.41283,-1.29641 1.62673,0 3.11736,0.5262 4.47186,1.5786 l 0,-2.15791 c -1.25989,-0.93123 -2.93476,-1.39601 -5.0213,-1.39601 -1.97532,0 -3.54064,0.62082 -4.69762,1.86245 -1.24163,1.31633 -1.86244,3.20201 -1.86244,5.6554 0,2.32391 0.67227,4.19963 2.01682,5.62884 1.25989,1.33625 2.80363,2.00354 4.6279,2.00354 1.9554,0 3.451,-0.65402 4.48514,-1.96204 0.9777,-1.22172 1.46738,-2.88165 1.46738,-4.97815"
         style="fill:#231f1f;fill-opacity:1;fill-rule:nonzero;stroke:none"
         id="path66" />
      <path
         d="m 602.48392,340.28798 c -0.40502,0.31041 -0.99098,0.46479 -1.76285,0.46479 -0.94118,0 -1.73131,-0.42329 -2.37039,-1.26819 -0.72373,-0.95115 -1.0856,-2.2625 -1.0856,-3.93571 l 0,-7.36347 -2.31394,0 0,14.44475 2.31394,0 0,-2.97626 0.0564,0 c 0.33863,1.0524 0.85985,1.86577 1.56532,2.4401 0.659,0.5262 1.39601,0.79013 2.21435,0.79013 0.61086,0 1.07232,-0.0664 1.38273,-0.19753"
         style="fill:#231f1f;fill-opacity:1;fill-rule:nonzero;stroke:none"
         id="path68" />
      <path
         d="m 415.36608,324.25965 -0.56604,0 0,-1.75787 -0.23073,0 0,1.75787 -0.5677,0 0,0.20749 1.36447,0"
         style="fill:#231f1f;fill-opacity:1;fill-rule:nonzero;stroke:none"
         id="path168" />
      <path
         d="m 417.68169,322.50178 -0.23073,0 0,1.32131 c 0,0.10291 0.007,0.23073 0.0199,0.38012 l -0.007,0 c -0.0216,-0.088 -0.0398,-0.15105 -0.0581,-0.19089 l -0.67062,-1.51054 -0.11287,0 -0.67228,1.50058 c -0.0183,0.0415 -0.0382,0.10956 -0.0581,0.20085 l -0.005,0 c 0.007,-0.078 0.01,-0.20583 0.01,-0.38344 l 0,-1.31799 -0.22244,0 0,1.96702 0.30543,0 0.60256,-1.37276 c 0.0465,-0.10292 0.0764,-0.18094 0.0896,-0.23571 l 0.01,0 c 0.0398,0.10789 0.0714,0.18923 0.0946,0.24235 l 0.61584,1.36612 0.28883,0"
         style="fill:#231f1f;fill-opacity:1;fill-rule:nonzero;stroke:none"
         id="path170" />
      <g
         transform="matrix(0.06538829,0,0,-0.06538829,386.76116,375.56852)"
         inkscape:label="Ebene 1"
         id="layer1-1">
        <g
           id="g3680"
           transform="matrix(0.66977913,0,0,0.66977913,488.25553,811.45513)">
          <path
             id="path3639"
             d="m -28.690652,-521.89123 -197.593798,64.4375 -171.7812,75.875 -48.125,12.71875 c -12.2007,11.5972 -25.1489,23.37642 -38.9376,35.375 -15.1572,13.18946 -29.4115,25.14227 -40.25,33.78125 -12.0692,9.61994 -30.0148,27.42595 -39.1874,38.84375 -13.6465,16.98676 -24.318,35.10054 -28.9063,49.03125 -8.2548,25.06279 -4.2329,50.44735 11.6875,73.875 20.3368,29.92654 60.8217,60.332341 107.9062,81.031251 24.0175,10.5583 64.5468,24.16932 94.9376,31.84375 50.6463,12.78943 148.5298,26.6849999 202.4374,28.7499999 10.933,0.4186 25.4874,0.3793 26.1563,-0.0625 1.1831,-0.7814 9.5753,-16.6719399 19.3125,-36.5624999 33.130998,-67.678451 57.100898,-131.124811 69.999998,-185.312501 7.8103,-32.81034 13.8993,-76.5619 17.8438,-128.4375 1.1048,-14.5314 1.5053,-62.99622 0.6562,-79.46875 -1.3816,-26.80507 -3.7427,-48.65288 -7.5312,-70.09375 -0.5558,-3.14254 -0.7603,-5.90602 -0.4688,-6.15625 0.5494,-0.47159 2.4157,-1.07033 26.6875,-8.125 l -4.8437,-11.34375 z m -45.1563,26.5 c 1.7957,0 6.5709,45.79214 7.8125,74.84375 0.2638,6.17303 0.2105,10.125 -0.1562,10.125 -1.1794,0 -25.3049,-14.16679 -42.406298,-24.90625 -14.9346,-9.37871 -43.2755,-28.21208 -47.7813,-31.75 -1.4217,-1.11638 -1.2715,-1.17088 10.9376,-5.375 20.7731,-7.15315 70.023898,-22.9375 71.593698,-22.9375 z m -100.656298,33.03125 c 1.2767,-0.003 4.7531,1.91573 12.9688,7.0625 30.8193,19.3068 72.553698,42.53472 90.437498,50.34375 5.5452,2.42125 6.1783,1.48303 -6.5937,10.15625 -27.224498,18.48737 -61.070298,36.66492 -102.624998,55.125 -7.2425,3.21729 -13.3777,5.84375 -13.625,5.84375 -0.2474,0 0.561,-3.67371 1.7812,-8.1875 10.0666,-37.23799 15.7471,-74.82457 15.9062,-104.96875 0.0788,-14.90815 0.0828,-14.98714 1.5,-15.34375 0.0664,-0.0167 0.1649,-0.031 0.25,-0.0312 z m -20.7187,7.90625 c 0.892,0.89603 0.2461,34.30333 -0.8437,43.40625 -2.6146,21.83822 -6.8874,42.03561 -13.7188,65 -1.6324,5.48735 -3.1626,10.21755 -3.4062,10.5 -0.5934,0.68796 -21.0218,-19.21637 -27.8126,-27.09375 -11.6028,-13.45941 -20.7817,-26.8296 -27.4687,-40 -3.3986,-6.69398 -8.8181,-19.9141 -8.3125,-20.28125 2.295,-1.6666 81.0018,-32.09439 81.5625,-31.53125 z m -97.5937,38.46875 c 0.1837,0.0183 0.3264,0.0683 0.4062,0.15625 0.2946,0.32458 1.3349,2.75108 2.3125,5.40625 4.7583,12.92419 15.4583,32.12412 24.75,44.40625 10.1444,13.40933 23.3705,27.69706 34.4375,37.1875 3.5535,3.04729 6.8688,5.89147 7.3438,6.3125 0.9476,0.84 1.2662,0.69758 -23.0938,9.9375 -28.2323,10.70866 -58.9795,21.43206 -94.2812,32.84375 -13.4529,4.34874 -24.8388,8.02343 -25.2813,8.1875 -1.3447,0.4986 -0.9323,-0.32948 3,-6.46875 17.5408,-27.38485 44.1129,-80.95435 58.9687,-118.84375 2.5768,-6.57162 5.029,-13.15336 5.4688,-14.625 0.6461,-2.16191 1.2828,-2.89723 3.3125,-3.8125 1.1227,-0.50629 2.105,-0.74255 2.6563,-0.6875 z m -29.9063,12.34375 c 0.3974,0.34958 -7.1753,16.34225 -14.625,30.875 -14.4495,28.18777 -30.3802,55.92693 -51.5313,89.78125 -3.6494,5.84136 -7.0125,11.18159 -7.4687,11.84375 -0.7512,1.09045 -1.0591,0.73109 -3.375,-3.875 -5.0634,-10.07071 -9.3056,-22.77694 -11.5,-34.59375 -2.1717,-11.69504 -1.8023,-31.94212 0.8125,-44.5 1.9426,-9.32977 1.8569,-9.12355 6.25,-11.375 18.9938,-9.73446 80.8189,-38.70042 81.4375,-38.15625 z m 257.593698,10.46875 0,6.34375 c -0.0319,33.31891 -3.5885,78.93486 -8.75,112.21875 -0.9057,5.84079 -1.69,10.65955 -1.75,10.71875 -0.0596,0.059 -4.2698,-1.17479 -9.3437,-2.75 -22.420098,-6.9602 -46.726998,-17.35826 -68.656298,-29.375 -14.5221,-7.95784 -35.5262,-20.84873 -34.9374,-21.4375 0.16,-0.16008 6.3463,-3.43836 13.75,-7.28125 29.3237,-15.2207 57.3352,-31.63049 81.687398,-47.90625 9.1369,-6.10657 22.8082,-15.99092 25.8438,-18.65625 l 2.1562,-1.875 z m -370.374998,44.15625 c 0.6088,-0.0293 0.4542,1.12608 -0.5,6.625 -0.6634,3.82434 -1.4133,11.04848 -1.6874,16.03125 -1.2012,21.84009 2.3406,37.95323 13.1874,60 3.0157,6.12967 5.3748,11.23934 5.25,11.34375 -1.086,0.90906 -99.8543,29.81133 -130.9062,38.3125 -9.2046,2.52 -17.2495,4.73989 -17.9062,4.9375 -1.0775,0.32435 -1.1735,0.0898 -0.7813,-2.4375 3.4011,-21.91154 20.1156,-50.67031 43.4687,-74.8125 15.5259,-16.05048 27.9574,-25.55805 49.0938,-37.625 15.1694,-8.66029 38.7288,-21.65731 40.4688,-22.3125 0.1169,-0.044 0.2255,-0.0583 0.3124,-0.0625 z m 232.9688,41.71875 c 0.0937,-0.11232 3.753,1.84657 8.125,4.375 31.9023,18.44991 76.4201,35.75494 114.374998,44.4375 l 3.4375,0.78125 -4.7187,2.625 c -19.826798,11.00185 -85.121798,38.16958 -151.812598,63.1875 -9.7355,3.65216 -19.2351,7.23302 -21.0937,7.96875 -1.8586,0.73572 -3.375,1.24018 -3.375,1.09375 0,-0.1465 2.7508,-5.44068 6.125,-11.75 18.7219,-35.00618 37.4102,-77.54572 47,-107.0625 0.9777,-3.00919 1.8435,-5.54393 1.9375,-5.65625 z m -23.75,7.78125 c 0.1024,0.10241 -1.0639,3.23829 -2.5938,6.9375 -13.0154,31.47271 -30.0681,65.80716 -51.8124,104.375 -5.5336,9.8151 -10.1981,17.8286 -10.375,17.8125 -0.1771,-0.0161 -4.6777,-2.67914 -10,-5.9375 -31.6719,-19.38967 -59.6945,-43.2568 -78.0938,-66.46875 l -2.625,-3.28125 13.6562,-3.75 c 48.7109,-13.3442 90.0199,-27.6146 131.0938,-45.3125 5.8161,-2.50603 10.6477,-4.47735 10.75,-4.375 z m 147.531198,51.5 c 0.07,0.0144 0.0938,0.0636 0.0938,0.125 0,3.32008 -7.5347,34.04459 -13.8125,56.28125 -5.266,18.65292 -9.686698,33.24271 -17.874998,59.09375 -3.6164,11.41722 -6.7211,20.7358 -6.9063,20.6875 -0.1851,-0.0482 -1.0524,-0.21485 -1.9374,-0.375 -44.3719,-8.03013 -84.1147,-19.22819 -121.3438,-34.1875 -10.4155,-4.18519 -25.4559,-10.84751 -26.25,-11.625 -0.269,-0.26346 8.7251,-4.50053 19.9688,-9.40625 67.9949,-29.66662 138.4449,-63.45097 162.531198,-77.9375 2.897,-1.74237 5.0417,-2.75713 5.5312,-2.65625 z m -340.562398,11.65625 c 0.3646,0.34539 -18.6552,27.57193 -45.2188,64.75 -9.2327,12.92182 -20.0785,28.1523 -24.0938,33.84375 -4.0153,5.69146 -10.0892,14.69993 -13.5312,20.03125 l -6.2812,9.6875 -6.6876,-5.625 c -7.8469,-6.58848 -21.582,-20.57702 -27.8124,-28.34375 -12.8214,-15.98244 -21.5091,-32.8022 -24.9376,-48.25 -1.5828,-7.13162 -1.6294,-10.76573 -0.125,-11.21875 2.1743,-0.65481 42.0617,-10.04508 79.4688,-18.71875 20.7785,-4.81799 44.801,-10.45771 53.4062,-12.53125 8.6054,-2.07348 15.7285,-3.7046 15.8126,-3.625 z m 19.125,7.3125 4.8124,5.375 c 21.5155,23.96783 43.3968,41.85328 70.0938,57.28125 4.7136,2.72391 8.3061,5.09207 8,5.28125 -1.1112,0.6868 -92.319,33.11587 -134.5,47.8125 -23.7886,8.28837 -43.3296,15.046651 -43.4375,15.031251 -0.108,-0.01577 -1.4554,-0.89703 -2.9687,-1.968751 l -2.75,-1.96875 4.3124,-6.21875 c 13.9954,-20.27267 31.5796,-42.56688 70.0626,-88.875 l 26.375,-31.75 z m 119.1874,85.1875 c 0.1055,-0.13163 6.774,2.2325 14.8438,5.25 19.4518,7.27335 34.7182,12.01717 55.375,17.1875 25.3716,6.35039 62.0371,12.70076 83.75,14.53125 3.3333,0.28097 5.0348,0.66136 4.5,1 -1.008,0.63833 -22.993,7.981511 -39.1562,13.062501 -25.6571,8.06534 -104.0669,31.22891 -168,49.625 -11.8599,3.41252 -22.0003,6.2958 -22.5313,6.40625 -1.432,0.29783 -6.4375,-1.01595 -6.4375,-1.6875 0,-0.3192 3.5849,-4.85612 7.9375,-10.0625 21.4893,-25.70434 42.8372,-54.413301 60.6563,-81.562501 4.8737,-7.42565 8.957,-13.61836 9.0624,-13.75 z m -26.4062,0.75 c 0.1923,0.19233 -10.4007,17.15412 -29.0312,46.500001 -7.8665,12.39078 -16.7866,26.49557 -19.8438,31.34375 -3.0571,4.84824 -7.5368,12.21585 -9.9375,16.40625 l -4.375,7.625 -2.2187,-0.59375 c -5.3537,-1.44944 -43.1179,-14.7903 -53.0938,-18.75 -12.364,-4.90753 -25.2491,-10.83408 -34.75,-15.96875 -11.8727,-6.4165 -26.9306,-15.93794 -25.75,-16.3125 0.3399,-0.10781 20.7705,-5.69946 45.375,-12.406251 65.4539,-17.84157 101.659,-28.09134 125.4062,-35.5 4.4372,-1.38429 8.1338,-2.42865 8.2188,-2.34375 z m 185.9062,43.593751 c 0.141,-0.03064 0.2063,-0.03114 0.2188,0 0.6191,1.5481 -23.6121,68.66215 -32.4688,89.9374999 -1.9836,4.7654 -2.7176,5.92 -3.75,5.875 -2.5069,-0.1094 -37.6416,-5.0218 -58.9062,-8.2499999 -37.2254,-5.6512 -99.5782,-16.53965 -115.3125,-20.125 l -3.6563,-0.8125 22.3126,-5.03125 c 47.8248,-10.77529 70.7929,-16.5544 94.0937,-23.6875 29.3865,-8.99616 58.485,-20.21244 87.875,-33.875 4.6465,-2.15999 8.607,-3.816789 9.5937,-4.03125 z"
             style="fill:url(#linearGradient3685);fill-opacity:1" />
          <path
             id="path3667"
             d="m -232.32807,-982.38326 c -3.30451,-0.3858 -56.33479,18.7202 -90.40625,32.5625 -46.16644,18.75623 -82.01162,36.72748 -104.125,52.25 -8.23088,5.77768 -18.581,16.16894 -20.09375,20.15625 -0.5661,1.49212 -0.8317,3.23606 -0.84375,5.03125 l 20.0625,18.9375 47.59375,15.1875 113.375,20.25 129.59375,22.28125 1.3125,-11.125 c -0.39207,-0.0618 -0.76308,-0.12566 -1.15625,-0.1875 l -17.0625,-2.6875 -3.46875,-6.09375 c -17.61328,-31.079 -37.07739,-69.53801 -48.375,-95.5625 -8.74956,-20.15498 -17.1515,-43.3729 -21.8125,-60.1875 -2.76822,-9.9864 -3.05641,-10.633 -4.59375,-10.8125 z m -2.5,7.6875 c 0.1318,-0.0237 0.1982,-0.0246 0.21875,0 0.10464,0.1252 0.70686,4.2937 1.3125,9.25 2.55066,20.8734 7.22143,41.11722 14.53125,62.90625 5.50828,16.41903 5.58726,15.45468 -0.96875,13.625 -15.23881,-4.25292 -83.51557,-15.97286 -132.90625,-22.8125 -7.95829,-1.10206 -14.58209,-2.08209 -14.6875,-2.1875 -0.62711,-0.62711 35.61943,-19.61781 51.6875,-27.09375 20.6083,-9.5883 76.72669,-32.9527 80.8125,-33.6875 z m -143.90625,66.84375 5.78125,1.96875 c 31.70978,10.79389 111.19189,25.97664 155.125,29.625 4.95631,0.41159 9.12366,0.85315 9.25,0.96875 0.12634,0.1156 -4.08409,2.36528 -9.34375,5 -21.19372,10.61655 -44.52005,23.55666 -60.65625,33.65625 -4.73872,2.96595 -9.08463,5.3581 -9.65625,5.3125 -0.57162,-0.0456 -3.69663,-0.54764 -6.96875,-1.09375 l -5.96875,-0.96875 -15,-14.5625 c -26.33266,-25.48644 -46.89186,-45.20341 -54.84375,-52.65625 l -7.71875,-7.25 z m -5.875,4.6875 21,26.21875 c 11.56042,14.421 23.14636,28.73269 25.71875,31.8125 2.57239,3.07982 4.56246,5.68985 4.4375,5.78125 -0.59589,0.43589 -30.43604,-5.37386 -46.25,-9 -16.2345,-3.72258 -22.94914,-5.50447 -33,-8.71875 l -8.1875,-2.625 0.0312,-2.03125 c 0.10415,-10.07156 12.79863,-24.92695 34.34375,-40.125 l 1.90625,-1.3125 z m 178.84375,35.71875 c 0.62988,0.0486 1.29506,1.32891 3.15625,5.40625 5.09346,11.15832 20.94826,41.40011 24.78125,47.25 1.26231,1.92654 3.26353,2.0555 -17.78125,-1.34375 -50.57626,-8.16928 -66.93809,-10.90389 -66.9375,-11.21875 3.6e-4,-0.1919 1.51675,-1.18536 3.375,-2.21875 15.6623,-8.70989 31.46516,-19.67273 45.53125,-31.53125 3.36321,-2.83538 6.59501,-5.53668 7.1875,-6.03125 0.24364,-0.20338 0.47754,-0.32871 0.6875,-0.3125 z"
             style="fill:url(#linearGradient3687);fill-opacity:1" />
          <path
             style="fill:url(#radialGradient3719);fill-opacity:1"
             d="m -446.05644,-879.43147 c 0,0 -3.2817,5.203 -0.1875,12.9375 1.9146,4.786 7.6639,10.5351 14,16.625 0,0 66.3686,64.7402 74.5,74.125 36.7724,42.4406 52.7436,84.2228 54.2188,141.9062 0.9466,37.0163 -6.1927,69.5567 -23.5313,107.375 -31.0769,67.7841 -96.5572,142.5346 -197.6875,225.6563 l 14.8438,-4.9063 c 9.5412,-7.1478 22.4983,-14.7819 53.0625,-31.5 70.3889,-38.5015 149.4329,-73.9163 246.5312,-110.4062 139.699702,-52.4996 369.49637,-114.0974 500.25001,-134.125 l 13.625,-2.0938 -2.09375,-3.2812 c -11.95578,-18.5834 -20.11653,-30.0425 -29.9375,-42.1875 -28.67902,-35.4658 -63.39843,-64.4035 -105.9375,-88.2188 -58.45636,-32.7264 -134.276668,-58.1613 -230.124958,-77.2187 -18.120101,-3.6028 -57.802502,-10.4053 -90.093802,-15.4375 -68.4018,-10.6596 -112.5196,-17.8579 -161.25,-26.3438 -17.4714,-3.0314 -43.5577,-7.4121 -60.875,-11.1562 -9.0234,-1.9509 -26.172,-6.0059 -39.5,-10.5938 -11.0033,-4.3323 -26.4979,-8.5202 -29.8125,-21.1562 z m 38.4688,37.3437 c 0.093,-0.084 2.5859,0.6871 5.625,1.7188 5.6009,1.9013 12.9918,4.1271 21.5937,6.5312 6.026,1.6842 12.6517,3.4513 19.6875,5.25 8.9799,2.2958 16.4051,4.2683 16.5,4.375 0.9941,1.1178 16.0757,49.2507 21.2188,67.7188 1.963,7.0489 3.4531,12.9218 3.3125,13.0625 -0.1407,0.1407 -1.8137,-2.4547 -3.6875,-5.75 -17.4478,-30.6836 -45.079,-61.8867 -77.0313,-87 -3.9827,-3.1303 -7.2187,-5.7879 -7.2187,-5.9063 z m 73.5312,20.3125 c 0.7686,-0.053 4.0817,0.5016 8.0313,1.375 25.4441,5.6268 70.8765,14.398 100.0937,19.3125 4.8678,0.8188 8.875,1.7006 8.875,1.9688 0,0.2681 -1.8186,1.4183 -4.0312,2.5312 -4.9022,2.4659 -24.7382,14.3393 -31.375,18.7813 -16.568,11.0889 -31.4641,22.9583 -42.3125,33.75 -4.3596,4.3368 -8.0078,7.875 -8.125,7.875 -0.1172,0 -0.8794,-2.5273 -1.6875,-5.625 -5.4236,-20.7894 -16.6374,-51.4882 -26.6875,-73.0938 -1.6173,-3.4767 -2.9375,-6.5429 -2.9375,-6.8125 0,-0.034 0.046,-0.055 0.1562,-0.062 z m 129.3438,24.5938 c 0.8515,0.2838 2.4608,5.3061 5.3125,16.5937 5.4605,21.6141 8.0028,45.8876 7.1562,68.3438 -0.2356,6.2493 -0.6308,12.0526 -0.875,12.9062 l -0.4687,1.5625 -7.7188,-2.5 c -15.9117,-5.0861 -41.9093,-12.7408 -64.1875,-18.9062 -12.6563,-3.5026 -23.0312,-6.6296 -23.0312,-6.9375 0,-0.9252 18.4676,-19.3882 26.4062,-26.4063 15.1639,-13.4055 55.96,-45.1383 57.4063,-44.6562 z m 10.2812,1.4687 c 0.4605,-0.4285 61.8091,10.1945 89.6875,15.5313 20.780101,3.9779 50.844402,10.2742 52.656302,11.0312 0.8747,0.3655 -2.2366,2.061 -12.2188,6.5625 -39.484102,17.8056 -68.735202,33.6972 -97.812502,53.1563 -7.6591,5.1256 -14.0239,9.3125 -14.1562,9.3125 -0.1324,0 -0.246,-4.2782 -0.25,-9.5 -0.02,-28.3557 -5.6811,-56.9761 -16.0625,-81.1563 -1.1173,-2.6022 -1.9557,-4.8333 -1.8438,-4.9375 z m 158.625002,31.375 c 0.475,0.4751 -1.5372,12.5727 -3.2812,19.7188 -5.4282,22.2413 -19.8123,55.2526 -37.562501,86.2812 -3.1279,5.4677 -5.9255,10.0265 -6.25,10.125 -0.3246,0.099 -4.3665,-2.0268 -8.9688,-4.7187 -17.357101,-10.1522 -37.010301,-19.7563 -58.593701,-28.6563 -6.0184,-2.4817 -11.1442,-4.6915 -11.4063,-4.9375 -0.9843,-0.9235 46.9779,-32.6781 72.406301,-47.9375 20.338501,-12.205 53.085501,-30.4457 53.656201,-29.875 z m 11.3438,1.7813 c 1.3812,0 28.5883298,7.4176 42.65621,11.625 35.04184,10.4802 75.46436,25.2469 101.687498,37.1562 l 10.90625,4.9375 -7.6875,1.7813 c -64.162808,14.7402 -119.1572082,31.7498 -172.124958,53.25 -4.4013,1.7865 -8.2313,3.25 -8.5,3.25 -0.2688,0 1.1359,-3.4027 3.0937,-7.5625 15.9218,-33.8293 26.2054,-69.327 28.875,-99.4688 0.243,-2.7436 0.7383,-4.9687 1.0938,-4.9687 z m -270.437502,62.1562 c 0.4345,-0.4292 21.1425,4.4227 32.4375,7.5938 16.9769,4.7663 53.1023,16.8545 53.125,17.7812 0,0.1803 -3.9813,3.6508 -8.8438,7.7188 -19.5309,16.34 -38.3703,33.4249 -60.9375,55.2187 -6.6902,6.4609 -12.3752,11.7188 -12.6562,11.7188 -0.281,0 -0.4059,-0.9432 -0.25,-2.0938 3.3986,-25.0877 2.6685,-57.3019 -2.0625,-90.0937 -0.5997,-4.1567 -0.9631,-7.6951 -0.8125,-7.8438 z m 436.06246,0.4063 c 0.31058,0.3106 -9.60756,15.8125 -15.78125,24.6562 -9.00813,12.9039 -22.0651,29.8443 -51.812498,67.25 -15.62558,19.6483 -33.25042,41.8833 -39.1875,49.4063 -5.93702,7.523 -10.91935,13.6875 -11.0625,13.6875 -0.14309,0 -2.05796,-2.6941 -4.25,-5.9688 -16.7691302,-25.0515 -36.66771,-47.0571 -60.40621,-66.8125 -4.43,-3.6866 -9.4278,-7.7296 -11.0938,-8.9687 -1.6659,-1.2391 -3.0242,-2.3855 -3.0312,-2.5625 -0.016,-0.4084 25.3367,-11.2818 44.68746,-19.1563 33.68786,-13.7087 79.73128,-30.124 114.187498,-40.6875 18.16991,-5.5705 37.47406,-11.1197 37.75,-10.8437 z m 11.4375,3 c 0.5441,-0.1109 4.1603,1.6391 8.5,4.125 36.28909,20.7876 71.84924,47.4826 99.8125,74.9375 7.95417,7.8095 27.41401,28.0518 27.125,28.2187 -0.074,0.043 -6.79498,0.5752 -14.9375,1.1875 -62.88505,4.7294 -143.2829,18.1069 -220.687498,36.7188 -5.2571,1.264 -9.80165,2.3125 -10.09375,2.3125 -0.29217,0 5.46193,-5.7759 12.78125,-12.8125 45.456648,-43.701 66.194398,-71.2949 90.593748,-120.5938 3.63394,-7.3423 6.71514,-13.6766 6.84375,-14.0625 0.008,-0.024 0.0262,-0.024 0.0625,-0.031 z m -332.37496,34.0625 c 2.0764,0.466 21.4626,9.4866 36.0937,16.8125 13.3801,6.6995 33.6454,17.489 34.6563,18.4375 0.1269,0.1191 -7.0119,3.8469 -15.875,8.2812 -28.0593,14.0383 -52.0938,27.2956 -77.1875,42.625 -7.1558,4.3714 -13.1536,7.9688 -13.3438,7.9688 -0.626,0 -0.3793,-0.5412 3.625,-7.875 13.3631,-24.4744 24.1425,-53.6955 30.3438,-82.25 0.5535,-2.5487 1.2195,-4.105 1.6875,-4 z m -19.5313,3.5 c 0.4047,0.4047 -4.6259,18.8823 -7.8125,28.75 -6.1118,18.926 -16.4458,42.7175 -26.375,60.625 -2.3319,4.2056 -5.9098,10.3617 -7.9375,13.6875 l -3.6875,6.0312 -8.375,-8.0937 c -9.7319,-9.4346 -17.6591,-15.2934 -27.7812,-20.5 -3.9785,-2.0464 -7.2138,-3.9404 -7.2188,-4.2188 -0.019,-1.2308 25.4606,-24.4021 45.125,-41.0312 14.0759,-11.9032 43.7027,-35.6098 44.0625,-35.25 z m 118.687501,48.8125 7.281301,4.7187 c 16.7036,10.845 36.4821,25.4342 51.5625,38 8.4509,7.0419 24.8749698,21.7488 28.2499598,25.3125 l 1.8125,1.9063 -12.09375,3.375 c -68.4008098,18.9779 -121.2462118,35.8725 -182.9062118,58.5312 -6.843,2.5147 -12.7517,4.5938 -13.1563,4.5938 -0.8506,0 -1.696,0.7819 13.6875,-13.375 39.4389,-36.2942 74.2785,-76.2826 100.312501,-115.1875 l 5.25,-7.875 z m -31.187501,7.8125 c 0.3573,0.3573 -20.2133,29.1676 -32.4375,45.4375 -14.6247,19.4649 -40.672,52.0039 -58.5937,73.1875 -7.4878,8.8505 -13.9026,16.1945 -14.25,16.3125 -0.3811,0.1294 -0.618,-2.0387 -0.625,-5.4688 -0.035,-18.0749 -4.6077,-37.3926 -12.6875,-53.75 -3.4127,-6.9089 -3.9845,-8.5811 -3.2813,-9.2187 2.812,-2.5494 46.3216,-27.3581 73.75,-42.0625 18.8404,-10.1004 47.7666,-24.7959 48.125,-24.4375 z m -188.625,46.2187 c 0.3737,0 3.8639,1.7535 7.75,3.9063 9.5226,5.2752 18.0777,11.0794 25.625,17.375 0.2912,0.2429 -3.617,3.4354 -8.6875,7.0937 -14.1531,10.2113 -35.7049,26.4769 -48.1875,36.4063 -13.1697,10.4759 -13.6065,10.7971 -12.125,8.5312 9.8627,-15.0839 14.8215,-23.624 20,-34.5312 4.6035,-9.6961 9.1914,-21.2061 12.4688,-31.2188 1.3615,-4.1597 2.7825,-7.5625 3.1562,-7.5625 z m 50.25,39.4375 c 0.6799,-0.084 1.6475,1.1821 5.6875,7.2188 8.5144,12.7223 15.0346,29.6885 16.7188,43.5 l 0.3437,2.9687 -20.4062,7.9063 c -36.6302,14.2149 -70.3481,28.2263 -93.125,38.6562 -6.3724,2.918 -17.6228,8.2931 -24.9688,11.9688 -7.3459,3.6756 -13.3437,6.5644 -13.3437,6.4062 0,-0.1581 4.6132,-3.6266 10.25,-7.7187 44.7022,-32.4524 83.2443,-67.9818 112.2812,-103.5 3.1055,-3.7987 5.9261,-7.093 6.2813,-7.3125 0.094,-0.058 0.1841,-0.082 0.2812,-0.094 z m -23.1875,5.75 c 0.5913,0.5913 -16.4937,19.9127 -28,31.6563 -28.7989,29.393 -57.3494,52.4373 -92.7187,74.875 -4.4253,2.8073 -8.469,5.3456 -9,5.6562 -0.9709,0.5679 0.3139,-0.8922 15.8437,-17.8125 9.7864,-10.6626 17.2769,-19.5141 25.7813,-30.5625 5.6006,-7.2759 6.6703,-8.2966 14.875,-14.2187 22.1008,-15.9524 72.6309,-50.1816 73.2187,-49.5938 z"
             id="path2851"
             sodipodi:nodetypes="cscsssccsscccsssscscccssssssssccssssssssssccsscccsssccsssssssccsssssssccscccssssccsssssssccssssssssssccsssssssssccsssssssccsscccssscccscccssscccsssssssccsssssssccscccssssssccssssssc" />
        </g>
      </g>
    </g>
  </g>
</svg>
