
<svg width="913px" height="905px" viewBox="1 1 913 905" version="1.1" xmlns="http://www.w3.org/2000/svg" xmlns:xlink="http://www.w3.org/1999/xlink">
    <!-- Generator: Sketch 40 (33762) - http://www.bohemiancoding.com/sketch -->
    <desc>Created with Sketch.</desc>
    <defs></defs>
    <g id="Top-Banner-Backgrounds" stroke="none" stroke-width="1" fill="none" fill-rule="evenodd" transform="translate(1.000000, 1.000000)">
        <g id="Group" fill="#1979AF">
            <path d="M822.8,686.3 C870.7,615.9 898.8,530.9 898.8,439.2 C898.8,200.2 708.6,6.1 471.1,0.1 C468,-9.48546797e-15 464.2,0.1 459.8,0.1 C217,-9.48546797e-15 20.7,196.3 20.7,439.1 C20.7,530.4 48.5,615.2 96,685.4 L0.2,781.2 L123.3,904.3 L220.2,807.4 C289.1,852.3 371.3,878.3 459.7,878.3 C547.7,878.3 629.4,852.2 698.1,807.8 L789,898.7 L912,775.6 L822.8,686.3 L822.8,686.3 Z M459.8,732.9 C411.9,732.9 366.7,721.4 326.7,700.9 L421.8,605.8 L298.7,482.8 L290.6,490.9 L202,579.5 C179,537.8 166,489.9 166,439.1 C166,277.2 297.9,145.4 459.8,145.4 C621.7,145.4 753.5,277.2 753.5,439.1 C753.5,601 621.7,732.9 459.8,732.9 L459.8,732.9 Z" id="Shape"></path>
            <path d="M459.8,354.9 C413.2,354.9 375.7,392.5 375.7,439.1 C375.7,485.7 413.3,523.3 459.8,523.3 C506.4,523.3 544,485.7 544,439.1 C544,392.5 506.3,354.9 459.8,354.9 L459.8,354.9 Z" id="Shape"></path>
        </g>
    </g>
</svg>
