<?xml version="1.0" encoding="UTF-8"?>
<!-- Created with Inkscape (http://www.inkscape.org/) -->
<svg width="100" height="100" version="1.1" viewBox="0 0 264.58 264.58" xmlns="http://www.w3.org/2000/svg">
  <g>
    <g>
      <path id="box_color" d="m198.44 25.135 35.719 22.49v138.91h-206.38v-138.91l35.719-22.49" fill="#f3f3f4" stroke-opacity="0"/>
      <path id="box" transform="scale(.26458)" d="m240 95-150 80v545h810v-545l-150-80 120 80h-750zm-120 105h750v490h-750z" stroke-width="1.0031"/>
      <path id="symbol" transform="scale(.26458)" d="m415 235s-10-1e-5 -20 10c-10 10-10 20-10 20v145.07h30v-145.07h240v180h-170.99v30h170.99s10-1e-5 20-10c10-10 10-20 10-20v-180s0-10-10-20c-10-10-20-10-20-10zm81.732 40.363 46.363 44.877-249.53 249.9 22.529 22.346 249.8-250.17 44.102 42.688 0.61719-109.64zm-211.73 149.64s-10 1e-5 -20 10c-10 10-10 20-10 20v155s-3e-5 10 10 20c10 10 20 10 20 10h160s10 3e-5 20-10c10-10 10-20 10-20v-100.92h-25v105.92h-170v-165h101.6v-25z" stroke-width="1.024"/>
    </g>
    <g transform="translate(-5.2917)">
      <path d="m136.59 72.725v28.598h30.396v-28.598zm0.26562 0.26367h29.867v28.068h-29.867z" color="#000000" fill-opacity="0" style="-inkscape-stroke:none"/>
    </g>
  </g>
  <g>
    <path id="outline" transform="scale(.26458)" d="m220 10v35h70.523v-35zm129.48 0v35h66.047v-35zm125 0v35h66.045v-35zm125 0v35h66.045v-35zm125 0v35h60.523s0.4002 0.17678 0.40234 0.17773v-35.178zm123.93 24.75-14.83 31.801c17.038 7.5593 36.374 16.142 55.975 24.852l14.412-30.906zm-690.54 1.8809-55.578 25.697 14.023 30.07 55.689-25.457zm808.15 52.621-13.975 29.969c4.2906 1.9141 8.867 3.9522 12.957 5.7793v15h35v-35zm-925.8 1.7793-30.215 13.969v35h35v-15l9.1133-4.166zm-30.215 98.428v61.082h35v-61.082zm955 0v61.082h35v-61.082zm-955 120v61.082h35v-61.082zm955 0v61.082h35v-61.082zm-955 120v61.082h35v-61.082zm955 0v61.082h35v-61.082zm-955 120v61.082h35v-61.082zm955 0v61.082h35v-61.082zm-955 120v61.082h35v-61.082zm955 0v61.082h35v-61.082zm-955 120v40.541h42.969v-35h-7.9688v-5.541zm955 0v5.541h-12.477v35h47.477v-40.541zm-852.48 5.541v35h60.445v-35zm120 0v35h60.445v-35zm120 0v35h60.445v-35zm120 0v35h60.445v-35zm120 0v35h60.445v-35zm120 0v35h60.445v-35zm120 0v35h60.445v-35z" stroke-opacity="0"/>
    <path d="m11.895 24.133v16.336h241.37v-16.336zm0.26367 0.26562h240.84v15.807h-240.84z" color="#000000" fill-opacity="0" style="-inkscape-stroke:none"/>
  </g>
</svg>
