<?xml version="1.0" encoding="UTF-8"?>
<!-- Created with Inkscape (http://www.inkscape.org/) -->
<svg width="100" height="100" version="1.1" viewBox="0 0 264.58 264.58" xmlns="http://www.w3.org/2000/svg">
  <g>
    <g id="vms" fill="#58585a" stroke-width=".26458">
      <rect x="75.935" y="91.586" width="18.889" height="18.889"/>
      <rect x="75.935" y="116.49" width="18.889" height="18.889"/>
      <rect x="76.1" y="141.56" width="18.889" height="18.889"/>
      <rect x="102.39" y="102.63" width="18.889" height="18.889"/>
      <rect x="102.39" y="127.53" width="18.889" height="18.889"/>
      <rect x="102.56" y="152.6" width="18.889" height="18.889"/>
      <rect x="129.76" y="77.509" width="18.889" height="18.889"/>
      <rect x="102.39" y="57.973" width="18.889" height="18.889"/>
      <rect x="53.044" y="68.309" width="18.889" height="18.889"/>
      <rect x="129.76" y="102.41" width="18.889" height="18.889"/>
      <rect x="129.93" y="127.48" width="18.889" height="18.889"/>
    </g>
    <path id="magnifier" transform="scale(.26458)" d="m413.01 130a283.01 283.01 0 0 0-283.01 283.01 283.01 283.01 0 0 0 283.01 283.01 283.01 283.01 0 0 0 166.05-53.904c21.722 28.571 55.847 72.901 77.947 98.832 17.206 20.188 90.363 99.145 90.363 99.145s11.833 10.552 18.881 13.873c18.755 8.8361 60.945-33.922 60.945-33.922s36.447-28.025 35.102-51.65c-0.48452-8.5096-15.561-19.398-15.561-19.398l-97.289-87.91c-26.593-24.482-77.367-61.631-106.85-82.717a283.01 283.01 0 0 0 53.42-165.36 283.01 283.01 0 0 0-283.01-283.01zm0 60a223.01 223.01 0 0 1 223.01 223.01 223.01 223.01 0 0 1-223.01 223.01 223.01 223.01 0 0 1-223.01-223.01 223.01 223.01 0 0 1 223.01-223.01z" stroke-width=".96243"/>
    <path id="box" transform="scale(.26458)" d="m0 0v55.889h45v-10.889h7.6934v-45zm117.69 0v45h74.381v-45zm139.38 0v45h74.383v-45zm139.38 0v45h70.777v-45zm135.78 0v45h72.682v-45zm137.68 0v45h72.682v-45zm137.68 0v45h72.682v-45zm137.68 0v45h9.7207v10.889h45v-55.889zm-945.28 120.89v72.682h45v-72.682zm955 0v72.682h45v-72.682zm-955 137.68v72.682h45v-72.682zm955 0v72.682h45v-72.682zm-955 137.68v74.381h45v-74.381zm955 0v74.381h45v-74.381zm-955 139.38v70.982h45v-70.982zm955 0v70.982h45v-70.982zm-955 135.98v72.682h45v-72.682zm955 0v72.682h45v-72.682zm-955 137.68v76.082h45v-76.082zm955 0v76.082h45v-76.082zm-955 141.08v49.621h52.693v-45h-7.6934v-4.6211zm955 0v4.6211h-9.7207v45h54.721v-49.621zm-837.31 4.6211v45h74.381v-45zm139.38 0v45h74.383v-45zm139.38 0v45h70.777v-45zm135.78 0v45h72.682v-45zm137.68 0v45h72.682v-45zm137.68 0v45h72.682v-45z"/>
  </g>
</svg>
