<?xml version="1.0" encoding="UTF-8"?>
<!-- Created with Inkscape (http://www.inkscape.org/) -->
<svg width="100" height="100" version="1.1" viewBox="0 0 264.58 264.58" xmlns="http://www.w3.org/2000/svg">
  <title>virtual_appliance</title>
  <g>
    <path id="appliance" transform="scale(.26458)" d="m142 129v607h357v67h-178v67h492v-67h-185v-67h361v-607zm112 101h625v408h-625z"/>
    <path id="vm" transform="scale(.26458)" d="m9.7188 6.4258v53.574h38v-17.574h16.281v-36h-54.281zm117.28 0v36h75v-36h-75zm135 0v36h71v-36h-71zm136 0v36h76v-36h-76zm130 0v36h74v-36h-74zm137 0v36h21v17.574h34v-53.574h-55zm-655.28 123.57v77h38v-77h-38zm676.28 0v77h34v-77h-34zm-676.28 145v77h38v-77h-38zm676.28 0v77h34v-77h-34zm-676.28 143v58h54.281v-36h-16.281v-22h-38zm676.28 0v22h-21v36h55v-58h-34zm-559 22v36h75v-36h-75zm135 0v36h71v-36h-71zm136 0v36h76v-36h-76zm130 0v36h74v-36h-74z"/>
  </g>
</svg>
