<?xml version="1.0" encoding="utf-8"?>
<!-- Generator: Adobe Illustrator 19.2.0, SVG Export Plug-In . SVG Version: 6.00 Build 0)  -->
<svg version="1.1" id="Layer_1" xmlns="http://www.w3.org/2000/svg" xmlns:xlink="http://www.w3.org/1999/xlink" x="0px" y="0px"
	 viewBox="0 0 110 60" style="enable-background:new 0 0 110 60;" xml:space="preserve">
<style type="text/css">
	.st0{fill:#999999;}
</style>
<g id="layer1" transform="translate(-6.1051208,-305.36552)">
	<g id="text4373">
		<path id="path2985" class="st0" d="M21.2,334.9c0.2-0.3,0.5-0.5,0.7-0.8c0.3-0.3,0.5-0.6,0.8-0.8c0.2-0.3,0.5-0.6,0.7-0.8
			c0.2-0.3,0.4-0.5,0.6-0.7h2.9c-0.6,0.7-1.1,1.3-1.7,1.9c-0.5,0.6-1.1,1.2-1.8,1.9c0.3,0.3,0.7,0.6,1,1.1c0.3,0.4,0.7,0.8,1,1.3
			c0.3,0.4,0.6,0.9,0.9,1.3c0.3,0.4,0.5,0.8,0.7,1.2h-2.8c-0.2-0.3-0.4-0.6-0.6-0.9c-0.2-0.3-0.5-0.7-0.7-1c-0.3-0.3-0.5-0.7-0.8-1
			c-0.3-0.3-0.5-0.6-0.8-0.8v3.8h-2.4v-12.3l2.4-0.4V334.9"/>
		<path id="path2987" class="st0" d="M35.4,340.1c-0.4,0.1-0.9,0.2-1.6,0.3c-0.7,0.1-1.3,0.2-2.1,0.2c-0.7,0-1.3-0.1-1.8-0.3
			c-0.5-0.2-0.9-0.5-1.1-0.8c-0.3-0.4-0.5-0.8-0.6-1.3s-0.2-1-0.2-1.6v-4.8h2.4v4.5c0,0.8,0.1,1.4,0.3,1.7c0.2,0.3,0.6,0.5,1.2,0.5
			c0.2,0,0.4,0,0.6,0c0.2,0,0.4,0,0.5-0.1v-6.6h2.4V340.1"/>
		<path id="path2989" class="st0" d="M43.2,336c0-1.6-0.6-2.4-1.7-2.4c-0.3,0-0.5,0-0.8,0.1c-0.2,0.1-0.4,0.1-0.6,0.2v4.4
			c0.1,0,0.3,0,0.5,0.1c0.2,0,0.4,0,0.6,0c0.7,0,1.2-0.2,1.5-0.7C43,337.4,43.2,336.8,43.2,336 M45.7,336.1c0,0.7-0.1,1.3-0.3,1.9
			c-0.2,0.6-0.5,1-0.9,1.4c-0.4,0.4-0.9,0.7-1.4,0.9c-0.6,0.2-1.2,0.3-1.9,0.3c-0.3,0-0.6,0-0.9,0c-0.3,0-0.6-0.1-0.9-0.1
			c-0.3,0-0.6-0.1-0.9-0.1c-0.3-0.1-0.5-0.1-0.8-0.2v-12l2.4-0.4v4.3c0.3-0.1,0.6-0.2,0.9-0.3c0.3-0.1,0.6-0.1,0.9-0.1
			c0.6,0,1.1,0.1,1.6,0.3c0.5,0.2,0.9,0.5,1.2,0.9c0.3,0.4,0.6,0.9,0.7,1.4C45.6,334.8,45.7,335.4,45.7,336.1"/>
		<path id="path2991" class="st0" d="M47.1,336.1c0-0.8,0.1-1.4,0.3-2c0.2-0.6,0.6-1.1,0.9-1.4c0.4-0.4,0.8-0.7,1.3-0.9
			c0.5-0.2,1-0.3,1.5-0.3c1.2,0,2.2,0.4,2.9,1.1c0.7,0.7,1.1,1.8,1.1,3.3c0,0.1,0,0.3,0,0.5c0,0.2,0,0.3,0,0.4h-5.5
			c0.1,0.5,0.3,0.9,0.7,1.2c0.4,0.3,1,0.4,1.7,0.4c0.4,0,0.9,0,1.3-0.1c0.4-0.1,0.8-0.2,1.1-0.3l0.3,2c-0.1,0.1-0.3,0.1-0.5,0.2
			c-0.2,0.1-0.5,0.1-0.7,0.2c-0.3,0.1-0.5,0.1-0.9,0.1c-0.3,0-0.6,0-0.9,0c-0.8,0-1.4-0.1-2-0.3c-0.6-0.2-1-0.5-1.4-0.9
			c-0.4-0.4-0.6-0.9-0.8-1.4C47.2,337.4,47.1,336.8,47.1,336.1 M52.9,335.2c0-0.2,0-0.4-0.1-0.6c-0.1-0.2-0.1-0.4-0.3-0.5
			c-0.1-0.2-0.3-0.3-0.5-0.4c-0.2-0.1-0.4-0.1-0.7-0.1c-0.3,0-0.5,0-0.7,0.1c-0.2,0.1-0.4,0.2-0.5,0.4c-0.1,0.2-0.2,0.3-0.3,0.5
			c-0.1,0.2-0.1,0.4-0.1,0.6H52.9"/>
		<path id="path2993" class="st0" d="M62.3,333.9c-0.2-0.1-0.5-0.1-0.8-0.2c-0.3-0.1-0.6-0.1-0.9-0.1c-0.2,0-0.3,0-0.6,0
			c-0.2,0-0.4,0-0.5,0.1v6.6h-2.4v-8.1c0.4-0.2,0.9-0.3,1.5-0.4c0.6-0.1,1.3-0.2,2-0.2c0.1,0,0.3,0,0.5,0c0.2,0,0.4,0,0.6,0.1
			c0.2,0,0.4,0.1,0.6,0.1c0.2,0,0.3,0.1,0.5,0.1L62.3,333.9"/>
		<path id="path2995" class="st0" d="M64,332.1c0.4-0.1,0.9-0.2,1.6-0.3c0.7-0.1,1.3-0.2,2.1-0.2c0.7,0,1.3,0.1,1.8,0.3
			c0.5,0.2,0.9,0.5,1.2,0.8c0.3,0.3,0.5,0.8,0.6,1.2c0.1,0.5,0.2,1,0.2,1.6v4.9H69v-4.6c0-0.8-0.1-1.3-0.3-1.7
			c-0.2-0.3-0.6-0.5-1.2-0.5c-0.2,0-0.4,0-0.6,0c-0.2,0-0.4,0-0.5,0v6.6H64V332.1"/>
		<path id="path2997" class="st0" d="M73.2,336.1c0-0.8,0.1-1.4,0.3-2c0.2-0.6,0.6-1.1,0.9-1.4s0.8-0.7,1.3-0.9
			c0.5-0.2,1-0.3,1.5-0.3c1.2,0,2.2,0.4,2.9,1.1c0.7,0.7,1.1,1.8,1.1,3.3c0,0.1,0,0.3,0,0.5c0,0.2,0,0.3,0,0.4h-5.5
			c0.1,0.5,0.3,0.9,0.7,1.2c0.4,0.3,1,0.4,1.7,0.4c0.4,0,0.9,0,1.3-0.1c0.4-0.1,0.8-0.2,1.1-0.3l0.3,2c-0.1,0.1-0.3,0.1-0.5,0.2
			c-0.2,0.1-0.5,0.1-0.7,0.2c-0.3,0.1-0.5,0.1-0.9,0.1c-0.3,0-0.6,0-0.9,0c-0.8,0-1.4-0.1-2-0.3c-0.6-0.2-1-0.5-1.4-0.9
			c-0.4-0.4-0.6-0.9-0.8-1.4C73.3,337.4,73.2,336.8,73.2,336.1 M79,335.2c0-0.2,0-0.4-0.1-0.6c-0.1-0.2-0.1-0.4-0.3-0.5
			c-0.1-0.2-0.3-0.3-0.5-0.4c-0.2-0.1-0.4-0.1-0.7-0.1c-0.3,0-0.5,0-0.7,0.1c-0.2,0.1-0.4,0.2-0.5,0.4c-0.1,0.2-0.2,0.3-0.3,0.5
			c-0.1,0.2-0.1,0.4-0.1,0.6H79"/>
		<path id="path2999" class="st0" d="M83.1,329.6l2.4-0.4v2.5h2.9v2h-2.9v3c0,0.5,0.1,0.9,0.3,1.2c0.2,0.3,0.6,0.5,1.1,0.5
			c0.3,0,0.5,0,0.8-0.1c0.3-0.1,0.5-0.1,0.8-0.2l0.3,1.9c-0.3,0.1-0.6,0.2-1,0.3c-0.4,0.1-0.8,0.1-1.3,0.1c-0.7,0-1.2-0.1-1.7-0.3
			c-0.4-0.2-0.8-0.4-1-0.8c-0.3-0.3-0.4-0.7-0.6-1.2c-0.1-0.5-0.1-1-0.1-1.5L83.1,329.6"/>
		<path id="path3001" class="st0" d="M89.7,336.1c0-0.8,0.1-1.4,0.3-2c0.2-0.6,0.6-1.1,0.9-1.4c0.4-0.4,0.8-0.7,1.3-0.9
			c0.5-0.2,1-0.3,1.5-0.3c1.2,0,2.2,0.4,2.9,1.1c0.7,0.7,1.1,1.8,1.1,3.3c0,0.1,0,0.3,0,0.5c0,0.2,0,0.3,0,0.4h-5.5
			c0.1,0.5,0.3,0.9,0.7,1.2c0.4,0.3,1,0.4,1.7,0.4c0.4,0,0.9,0,1.3-0.1c0.4-0.1,0.8-0.2,1.1-0.3l0.3,2c-0.1,0.1-0.3,0.1-0.5,0.2
			c-0.2,0.1-0.5,0.1-0.7,0.2c-0.3,0.1-0.5,0.1-0.9,0.1c-0.3,0-0.6,0-0.9,0c-0.8,0-1.4-0.1-2-0.3c-0.6-0.2-1-0.5-1.4-0.9
			c-0.4-0.4-0.6-0.9-0.8-1.4C89.8,337.4,89.7,336.8,89.7,336.1 M95.4,335.2c0-0.2,0-0.4-0.1-0.6c-0.1-0.2-0.1-0.4-0.3-0.5
			c-0.1-0.2-0.3-0.3-0.5-0.4c-0.2-0.1-0.4-0.1-0.7-0.1c-0.3,0-0.5,0-0.7,0.1c-0.2,0.1-0.4,0.2-0.5,0.4c-0.1,0.2-0.2,0.3-0.3,0.5
			c-0.1,0.2-0.1,0.4-0.1,0.6H95.4"/>
		<path id="path3003" class="st0" d="M102.1,338.6c0.4,0,0.8,0,0.9-0.1c0.2-0.1,0.3-0.3,0.3-0.5c0-0.2-0.1-0.4-0.4-0.5
			c-0.2-0.2-0.6-0.3-1.1-0.5c-0.4-0.1-0.7-0.3-1-0.4c-0.3-0.2-0.6-0.3-0.8-0.5c-0.2-0.2-0.4-0.5-0.5-0.8s-0.2-0.6-0.2-1.1
			c0-0.8,0.3-1.4,0.9-1.9c0.6-0.5,1.4-0.7,2.5-0.7c0.5,0,1,0,1.5,0.1c0.5,0.1,0.9,0.2,1.1,0.3l-0.4,1.9c-0.3-0.1-0.6-0.2-0.9-0.3
			c-0.3-0.1-0.7-0.1-1.1-0.1c-0.8,0-1.1,0.2-1.1,0.6c0,0.1,0,0.2,0,0.3c0,0.1,0.1,0.2,0.2,0.2c0.1,0.1,0.2,0.1,0.4,0.2
			c0.2,0.1,0.4,0.2,0.7,0.3c0.5,0.2,1,0.4,1.3,0.6c0.3,0.2,0.6,0.4,0.8,0.6c0.2,0.2,0.3,0.5,0.4,0.7c0.1,0.3,0.1,0.6,0.1,0.9
			c0,0.9-0.3,1.5-1,1.9c-0.6,0.4-1.5,0.7-2.7,0.7c-0.8,0-1.4-0.1-1.9-0.2c-0.5-0.1-0.9-0.2-1-0.3l0.4-2c0.4,0.2,0.8,0.3,1.3,0.4
			C101.3,338.6,101.7,338.6,102.1,338.6"/>
	</g>
</g>
</svg>
