<?xml version="1.0" encoding="utf-8"?>
<!-- Generator: Adobe Illustrator 19.2.0, SVG Export Plug-In . SVG Version: 6.00 Build 0)  -->
<svg version="1.1" id="Layer_1" xmlns="http://www.w3.org/2000/svg" xmlns:xlink="http://www.w3.org/1999/xlink" x="0px" y="0px"
	 viewBox="0 0 110 60" style="enable-background:new 0 0 110 60;" xml:space="preserve">
<style type="text/css">
	.st0{fill:#999999;}
</style>
<g>
	<g>
		<polygon class="st0" points="24.2,30.7 41,30.7 41,15.9 24.2,18.2 		"/>
		<polygon class="st0" points="23.7,30.7 23.7,18.3 10.8,20.1 10.8,30.7 		"/>
		<polygon class="st0" points="24.2,31.2 24.2,43.7 41,46 41,31.2 		"/>
		<polygon class="st0" points="23.7,31.2 10.8,31.2 10.8,41.8 23.7,43.6 		"/>
	</g>
	<g>
		<g>
			<g>
				<g>
					<path class="st0" d="M60.5,29.1h-1.1v-6.4c0-0.5,0-1.1,0.1-1.9h0c-0.1,0.4-0.2,0.7-0.3,0.9l-3.2,7.3h-0.5l-3.2-7.2
						c-0.1-0.2-0.2-0.5-0.3-1h0c0,0.4,0,1,0,1.9v6.4h-1.2v-9.5h1.5l2.9,6.7c0.2,0.5,0.3,0.9,0.4,1.1h0c0.2-0.6,0.4-1,0.4-1.1l3-6.6
						h1.4V29.1L60.5,29.1z"/>
				</g>
			</g>
			<g>
				<g>
					<path class="st0" d="M63.7,19.9c0,0.2,0,0.4-0.2,0.5c-0.1,0.1-0.3,0.2-0.5,0.2s-0.4,0-0.5-0.2c-0.1-0.1-0.2-0.3-0.2-0.5
						c0-0.2,0-0.3,0.2-0.5c0.1-0.1,0.3-0.2,0.5-0.2s0.4,0,0.5,0.2C63.7,19.6,63.7,19.7,63.7,19.9z M63.6,29.1h-1.1v-6.8h1.1
						C63.6,22.4,63.6,29.1,63.6,29.1z"/>
				</g>
			</g>
			<g>
				<g>
					<path class="st0" d="M70,28.8c-0.5,0.3-1.1,0.5-1.9,0.5c-0.6,0-1.2-0.1-1.7-0.4c-0.5-0.3-0.9-0.7-1.2-1.2
						c-0.3-0.5-0.4-1.1-0.4-1.8c0-1.1,0.3-2,1-2.7c0.6-0.7,1.5-1,2.6-1c0.6,0,1.1,0.1,1.6,0.3v1.1c-0.5-0.3-1-0.5-1.6-0.5
						c-0.7,0-1.3,0.2-1.7,0.7c-0.4,0.5-0.6,1.1-0.6,2c0,0.8,0.2,1.4,0.6,1.9c0.4,0.4,1,0.7,1.7,0.7c0.6,0,1.2-0.2,1.7-0.6L70,28.8
						L70,28.8L70,28.8z"/>
				</g>
			</g>
			<g>
				<g>
					<path class="st0" d="M74.8,23.5c-0.2-0.1-0.5-0.2-0.8-0.2c-0.5,0-0.9,0.2-1.2,0.7s-0.4,1-0.4,1.8v3.4h-1.1v-6.8h1.1v1.4h0
						c0.1-0.5,0.4-0.8,0.7-1.1s0.7-0.4,1.1-0.4c0.3,0,0.5,0,0.6,0.1L74.8,23.5L74.8,23.5z"/>
				</g>
			</g>
			<g>
				<g>
					<path class="st0" d="M81.7,25.7c0,1.1-0.3,2-0.9,2.6c-0.6,0.6-1.4,1-2.5,1s-1.8-0.3-2.4-1c-0.6-0.6-0.9-1.5-0.9-2.5
						c0-1.1,0.3-2,0.9-2.6c0.6-0.6,1.5-1,2.6-1c1,0,1.8,0.3,2.4,0.9C81.4,23.7,81.7,24.7,81.7,25.7z M80.6,25.8c0-0.8-0.2-1.5-0.6-2
						c-0.4-0.4-0.9-0.7-1.6-0.7c-0.7,0-1.3,0.2-1.7,0.7c-0.4,0.5-0.6,1.1-0.6,2c0,0.8,0.2,1.5,0.6,1.9c0.4,0.4,1,0.7,1.7,0.7
						s1.3-0.2,1.6-0.7C80.4,27.2,80.6,26.6,80.6,25.8z"/>
				</g>
			</g>
			<g>
				<g>
					<path class="st0" d="M86.8,27.3c0,0.6-0.2,1.1-0.7,1.4c-0.4,0.4-1.1,0.5-1.8,0.5c-0.6,0-1.2-0.1-1.7-0.4v-1.1
						c0.5,0.4,1.1,0.6,1.8,0.6c0.9,0,1.3-0.3,1.3-0.9c0-0.2-0.1-0.5-0.2-0.6c-0.1-0.1-0.5-0.4-1.1-0.6c-0.6-0.2-1-0.5-1.3-0.8
						c-0.2-0.3-0.4-0.7-0.4-1.1c0-0.5,0.2-1,0.7-1.4c0.4-0.4,1-0.6,1.7-0.6c0.5,0,1,0.1,1.5,0.3v1.1c-0.4-0.3-1-0.5-1.5-0.5
						c-0.3,0-0.6,0.1-0.9,0.2c-0.2,0.2-0.3,0.4-0.3,0.7c0,0.3,0.1,0.5,0.2,0.7c0.1,0.1,0.5,0.3,1,0.6c0.6,0.3,1.1,0.5,1.4,0.9
						C86.6,26.5,86.8,26.9,86.8,27.3z"/>
				</g>
			</g>
			<g>
				<g>
					<path class="st0" d="M94.2,25.7c0,1.1-0.3,2-0.9,2.6c-0.6,0.6-1.4,1-2.5,1c-1,0-1.8-0.3-2.4-1c-0.6-0.6-0.9-1.5-0.9-2.5
						c0-1.1,0.3-2,0.9-2.6c0.6-0.6,1.5-1,2.6-1c1,0,1.8,0.3,2.4,0.9C93.9,23.7,94.2,24.7,94.2,25.7z M93,25.8c0-0.8-0.2-1.5-0.6-2
						c-0.4-0.4-0.9-0.7-1.6-0.7s-1.3,0.2-1.7,0.7c-0.4,0.5-0.6,1.1-0.6,2c0,0.8,0.2,1.5,0.6,1.9c0.4,0.4,1,0.7,1.7,0.7
						s1.3-0.2,1.6-0.7C92.9,27.2,93,26.6,93,25.8z"/>
				</g>
			</g>
			<g>
				<g>
					<path class="st0" d="M98.6,20.1c-0.2-0.1-0.4-0.2-0.7-0.2c-0.8,0-1.1,0.5-1.1,1.4v1.1h1.6v0.9h-1.6v5.8h-1.1v-5.8h-1.2v-0.9
						h1.2v-1.1c0-0.7,0.2-1.2,0.6-1.7c0.4-0.4,1-0.7,1.6-0.7c0.3,0,0.6,0,0.8,0.1L98.6,20.1L98.6,20.1z"/>
				</g>
			</g>
			<g>
				<g>
					<path class="st0" d="M102.4,29.1c-0.2,0.1-0.6,0.2-1,0.2c-1.2,0-1.8-0.7-1.8-2v-4h-1.2v-0.9h1.2v-1.7l1.1-0.3v2h1.7v0.9h-1.7
						v3.8c0,0.4,0.1,0.8,0.2,1c0.1,0.2,0.4,0.3,0.8,0.3c0.3,0,0.5,0,0.7-0.2L102.4,29.1L102.4,29.1z"/>
				</g>
			</g>
		</g>
		<g>
			<g>
				<g>
					<path class="st0" d="M59.1,43.3h-1.2l-1-2.6h-4.1l-0.9,2.6h-1.2l3.6-9.5h1.2L59.1,43.3z M56.5,39.6l-1.5-4.1
						c0-0.1-0.1-0.3-0.1-0.6h0c0,0.3-0.1,0.5-0.1,0.6l-1.5,4.1H56.5z"/>
				</g>
			</g>
			<g>
				<g>
					<path class="st0" d="M65.2,36.8l-4.1,5.6h4v0.9h-5.6v-0.3l4.1-5.5h-3.6v-0.9h5.3L65.2,36.8L65.2,36.8L65.2,36.8z"/>
				</g>
			</g>
			<g>
				<g>
					<path class="st0" d="M71.8,43.3h-1.1v-1.1h0c-0.4,0.8-1.1,1.2-2.1,1.2c-1.6,0-2.5-1-2.5-2.9v-4.1h1.1v3.9
						c0,1.4,0.5,2.2,1.7,2.2c0.5,0,1-0.2,1.4-0.6c0.3-0.4,0.5-0.9,0.5-1.5v-4h1.1L71.8,43.3L71.8,43.3L71.8,43.3z"/>
				</g>
			</g>
			<g>
				<g>
					<path class="st0" d="M77.2,37.6c-0.2-0.1-0.5-0.2-0.8-0.2c-0.5,0-0.9,0.2-1.2,0.7s-0.4,1-0.4,1.8v3.4h-1.1v-6.8h1.1v1.4h0
						c0.1-0.5,0.4-0.8,0.7-1.1c0.3-0.3,0.7-0.4,1.1-0.4c0.3,0,0.5,0,0.6,0.1L77.2,37.6L77.2,37.6z"/>
				</g>
			</g>
			<g>
				<g>
					<path class="st0" d="M83.2,40.2h-4.8c0,0.8,0.2,1.4,0.6,1.8s0.9,0.6,1.6,0.6c0.8,0,1.5-0.2,2.1-0.7v1c-0.6,0.4-1.4,0.6-2.4,0.6
						s-1.7-0.3-2.3-0.9c-0.5-0.6-0.8-1.5-0.8-2.6c0-0.7,0.1-1.3,0.4-1.9c0.3-0.5,0.6-1,1.1-1.3c0.5-0.3,1-0.4,1.6-0.4
						c0.9,0,1.6,0.3,2.1,0.9c0.5,0.6,0.7,1.4,0.7,2.4V40.2L83.2,40.2z M82.1,39.3c0-0.6-0.1-1.1-0.4-1.5c-0.3-0.3-0.7-0.5-1.3-0.5
						c-0.5,0-0.9,0.2-1.3,0.5c-0.3,0.3-0.6,0.8-0.7,1.4L82.1,39.3L82.1,39.3L82.1,39.3z"/>
				</g>
			</g>
		</g>
	</g>
</g>
</svg>
