<?xml version="1.0" encoding="utf-8"?>
<!-- Generator: Adobe Illustrator 19.2.0, SVG Export Plug-In . SVG Version: 6.00 Build 0)  -->
<svg version="1.1" id="Layer_1" xmlns="http://www.w3.org/2000/svg" xmlns:xlink="http://www.w3.org/1999/xlink" x="0px" y="0px"
	 viewBox="0 0 110 60" style="enable-background:new 0 0 110 60;" xml:space="preserve">
<style type="text/css">
	.st0{fill:#999999;}
	.st1{fill:none;}
</style>
<g>
	<path class="st0" d="M56.5,20.5c0-0.2-0.7,0.2-0.8,0.2c0.2,1.2,0.3,2.5,0.3,3.6c-1.1-0.6-3.3-2-3.9-2.5l-0.4,0.2c0-0.1,0-0.1,0-0.2
		l-0.6,0.2c-0.2,0.1-0.1,0-0.1,0.2c0.2,1.5-0.1,3.2-0.7,4.9c-1.2-1-2.2-2.3-2.5-3.6c-0.1,0-0.2,0.1-0.4,0.1c-0.1,0.1-0.2,0-0.2,0.2
		c0.5,1.7,1.8,3.1,2.7,3.8c-1.1,0.4-2.3,0.9-3.7,1.3c-0.5,0.2-1.1,0.4-1.9,0.6c0.7-1,2.2-4,2.8-5.9l-0.8,0.3c-0.9,2.2-2.4,4.5-3,5.4
		c0,0.1-0.1,0.1-0.1,0.2c-0.6-1.1-0.8-2.4-0.4-3.8l0,0c0.1-0.2-0.7,0.4-0.8,0.4c-0.2,0.1-0.2,0.3-0.3,0.5C42,27.2,42,27.6,42,27.9
		c0,0.8,0.3,1.6,0.7,2.3c-1.8,0.5-3.8,1.1-5.7,1.7c0-0.1,0-0.1,0-0.2c0.3-1.4,1.7-3.1,3.3-4.1l0.4-0.5l-2.2,1.5
		c-1,0.9-2.2,2.2-2.5,3.5c-0.4,1.8,1,3.3,2.5,4.3c1.6,1.2,3.3,1.7,5.3,2.3c2.2,0.6,6.5,1.2,8.7,1.2c0.1,0,0.4,0,0.4,0
		s0.1-0.2,0.1-0.2c0.2-0.3,2.8-5.2,3.5-9.3C56.9,27.8,57.3,24.1,56.5,20.5 M51.9,22.3c0.9,0.6,3.3,2,4.2,2.4
		c-1.1,0.8-2.7,1.7-4.9,2.6C51.8,25.1,51.9,23.3,51.9,22.3 M47.1,29.7c1-0.4,2-0.7,2.9-1.1c-0.7,1.7-1.6,3.4-2.5,4.9c0,0,0,0,0,0
		c-0.4-0.2-0.9-0.5-1.2-0.8c-0.8-0.6-1.6-1.3-2.2-2.1C45.1,30.3,46.1,30,47.1,29.7 M37,32.3c1.8-0.5,3.8-0.9,5.7-1.4
		c-1.4,2.1-2.7,3.7-3.4,4.9C38.2,35,37,33.6,37,32.3 M39.6,36c1.2-1.7,2.6-3.3,3.8-4.8c0.3,0.4,0.7,0.7,1,1.1
		c0.7,0.6,1.4,1.1,2.2,1.5c-2.2,0.8-4.6,1.6-6.8,2.4C39.7,36.2,39.6,36.1,39.6,36 M44.5,38.4c-0.1,0-0.3-0.1-0.4-0.1
		c-2-0.7-2.9-1-4.1-1.9c0.9-0.3,4.9-1.3,6.9-1.9C45.8,36.3,44.9,37.7,44.5,38.4C44.5,38.4,44.5,38.4,44.5,38.4 M52.6,39.8
		c-1.5-0.2-4.7-0.7-6.8-1.1c2.9-0.7,4.9-1,8.2-2.6C53.5,37.7,52.9,39.2,52.6,39.8 M45.3,38.5C45.2,38.5,45.2,38.5,45.3,38.5
		c-0.1,0-0.2,0-0.3,0c1.2-1.4,2.2-2.7,3-4c2.9,1.2,5.7,1.4,6.1,1.4C52.7,36.4,45.6,38.4,45.3,38.5 M55.5,31c-0.3,1.1-0.8,3-1.4,4.7
		c-1.9-0.3-3.9-0.9-5.7-1.8c2-0.8,6.1-2.7,7.2-3.5C55.6,30.7,55.5,30.8,55.5,31 M55.7,30.2c-1.2,0.7-5.1,2.2-6.9,2.9
		c1-1.7,1.6-3.3,2.1-4.8C52.9,29.5,55,30,55.7,30.2C55.7,30.2,55.7,30.2,55.7,30.2 M55.7,29.9c-1.6-0.4-3-1.2-4.3-2
		c2.7-1.4,4.5-2.7,4.7-2.9C56.1,26.8,55.9,28.5,55.7,29.9"/>
	<rect x="35.6" y="20.4" class="st1" width="21.7" height="19.7"/>
	<path class="st0" d="M43.2,7.7c-0.7-0.6,0-1.4,0.5-1.7c0.2-0.2,0.4-0.3,0.6-0.4c0.6,0.7,2,2.5,2.6,3.1l1-0.1
		c-0.5-0.5-2.7-2.7-3.4-3.2c0,0,0,0,0,0c1,0.4,4.6,1.1,6.4,1.2c0,0,0,0,0,0c-0.7,0.3-1.8,0.9-3.1,1.8l0.8,0.1c1-0.5,1.7-1,2.4-1.7
		c0.3,0.8,0.8,1.6,1.3,2.4l0.8,0.1c-1.5-2.6-2.6-4.9-3.1-6.8c-1.1,0.3-7,2.4-8.1,3.9C41.6,6.9,42.8,7.4,43.2,7.7 M50,2.8
		c0.1,1.1,0.4,2.2,0.8,3.3c-1.4-0.4-4.7-0.9-5.9-1C46.9,3.9,49.6,2.9,50,2.8"/>
	<rect x="38.5" y="6.3" class="st1" width="31.9" height="22.4"/>
	<polyline class="st0" points="54.8,39.2 54.5,39.2 54.5,40.1 54.4,40.1 54.4,39.2 54.1,39.2 54.1,39 54.8,39 	"/>
	<path class="st0" d="M56,40.1h-0.1v-0.7c0-0.1,0-0.1,0-0.2h0c0,0,0,0.1,0,0.1l-0.3,0.8h-0.1l-0.3-0.8c0,0,0-0.1,0-0.1h0
		c0,0,0,0.1,0,0.2v0.7H55v-1h0.2l0.3,0.7c0,0.1,0,0.1,0,0.1h0c0-0.1,0-0.1,0-0.1l0.3-0.7H56"/>
	<path class="st0" d="M35.8,40.3c0,0.2-0.1,0.4-0.2,0.5C35.4,41,35.2,41,35,41c-0.2,0-0.4-0.1-0.5-0.2c-0.1-0.1-0.2-0.3-0.2-0.5
		c0-0.2,0.1-0.4,0.2-0.5c0.1-0.1,0.3-0.2,0.5-0.2c0.2,0,0.4,0.1,0.5,0.2C35.7,39.9,35.8,40.1,35.8,40.3 M35.7,40.3
		c0-0.2-0.1-0.4-0.2-0.5c-0.1-0.1-0.3-0.2-0.5-0.2c-0.2,0-0.4,0.1-0.5,0.2c-0.1,0.1-0.2,0.3-0.2,0.5c0,0.2,0.1,0.4,0.2,0.5
		c0.1,0.1,0.3,0.2,0.5,0.2c0.2,0,0.3-0.1,0.5-0.2C35.6,40.6,35.7,40.5,35.7,40.3 M35.4,40.8h-0.2l-0.1-0.2c-0.1-0.1-0.1-0.2-0.2-0.2
		h-0.1v0.4h-0.1v-1H35c0.1,0,0.2,0,0.3,0.1c0.1,0,0.1,0.1,0.1,0.2c0,0.1,0,0.1-0.1,0.2c0,0-0.1,0.1-0.2,0.1v0c0.1,0,0.1,0.1,0.2,0.2
		L35.4,40.8z M35.2,40.1c0-0.1,0-0.1,0-0.1c0,0-0.1,0-0.2,0h-0.1v0.3H35C35.1,40.2,35.2,40.2,35.2,40.1"/>
	<path class="st0" d="M16,42.8h-0.4v-2.6c0-0.2,0-0.4,0-0.7h0c0,0.2-0.1,0.3-0.1,0.4l-1.3,2.9H14l-1.3-2.9c0-0.1-0.1-0.2-0.1-0.4h0
		c0,0.2,0,0.4,0,0.7v2.5h-0.4V39h0.6l1.2,2.7C14,41.9,14,42,14,42.1h0c0.1-0.2,0.1-0.4,0.2-0.5l1.2-2.6H16"/>
	<path class="st0" d="M17.4,39.1c0,0.1,0,0.1-0.1,0.2c-0.1,0.1-0.1,0.1-0.2,0.1c-0.1,0-0.1,0-0.2-0.1c-0.1-0.1-0.1-0.1-0.1-0.2
		c0-0.1,0-0.1,0.1-0.2c0.1-0.1,0.1-0.1,0.2-0.1c0.1,0,0.1,0,0.2,0.1C17.4,39,17.4,39,17.4,39.1 M17.4,40.1v2.7h-0.4v-2.7H17.4z"/>
	<path class="st0" d="M20.1,42.7c-0.2,0.1-0.5,0.2-0.7,0.2c-0.4,0-0.7-0.1-0.9-0.4c-0.2-0.3-0.4-0.6-0.4-1c0-0.4,0.1-0.8,0.4-1.1
		c0.3-0.3,0.6-0.4,1-0.4c0.2,0,0.4,0,0.6,0.1v0.4c-0.2-0.1-0.4-0.2-0.6-0.2c-0.3,0-0.5,0.1-0.7,0.3c-0.2,0.2-0.3,0.5-0.3,0.8
		c0,0.3,0.1,0.6,0.3,0.8c0.2,0.2,0.4,0.3,0.7,0.3c0.2,0,0.5-0.1,0.7-0.2"/>
	<path class="st0" d="M22.2,40.5c-0.1-0.1-0.2-0.1-0.3-0.1c-0.2,0-0.3,0.1-0.4,0.2c-0.1,0.2-0.2,0.4-0.2,0.7v1.4h-0.4v-2.7h0.4v0.6
		h0c0.1-0.2,0.2-0.4,0.3-0.5c0.1-0.1,0.3-0.1,0.4-0.1c0.1,0,0.2,0,0.3,0"/>
	<path class="st0" d="M25,41.4c0,0.4-0.1,0.8-0.4,1c-0.2,0.3-0.6,0.4-1,0.4c-0.4,0-0.7-0.1-1-0.4c-0.2-0.3-0.4-0.6-0.4-1
		c0-0.5,0.1-0.8,0.4-1.1c0.2-0.2,0.6-0.4,1-0.4c0.4,0,0.7,0.1,0.9,0.4C24.9,40.7,25,41,25,41.4 M24.6,41.5c0-0.3-0.1-0.6-0.2-0.8
		c-0.2-0.2-0.4-0.3-0.6-0.3c-0.3,0-0.5,0.1-0.6,0.3c-0.2,0.2-0.3,0.5-0.3,0.8c0,0.3,0.1,0.6,0.2,0.8c0.2,0.2,0.4,0.3,0.7,0.3
		c0.3,0,0.5-0.1,0.7-0.3C24.5,42,24.6,41.8,24.6,41.5"/>
	<path class="st0" d="M27.2,42.1c0,0.2-0.1,0.4-0.2,0.6c-0.2,0.2-0.4,0.2-0.7,0.2c-0.3,0-0.5-0.1-0.7-0.2v-0.5
		c0.2,0.2,0.4,0.3,0.7,0.3c0.3,0,0.5-0.1,0.5-0.4c0-0.1,0-0.2-0.1-0.3c-0.1-0.1-0.2-0.2-0.4-0.2c-0.2-0.1-0.4-0.2-0.5-0.3
		c-0.1-0.1-0.2-0.3-0.2-0.5c0-0.2,0.1-0.4,0.3-0.6c0.2-0.2,0.4-0.2,0.7-0.2c0.2,0,0.4,0,0.6,0.1v0.4c-0.2-0.1-0.4-0.2-0.6-0.2
		c-0.1,0-0.3,0-0.3,0.1C26,40.6,26,40.7,26,40.8c0,0.1,0,0.2,0.1,0.3c0.1,0.1,0.2,0.1,0.4,0.2c0.2,0.1,0.4,0.2,0.5,0.3
		C27.1,41.7,27.2,41.9,27.2,42.1"/>
	<path class="st0" d="M30.3,41.4c0,0.4-0.1,0.8-0.4,1c-0.2,0.3-0.6,0.4-1,0.4c-0.4,0-0.7-0.1-1-0.4c-0.2-0.3-0.3-0.6-0.3-1
		c0-0.5,0.1-0.8,0.4-1.1c0.2-0.2,0.6-0.4,1-0.4c0.4,0,0.7,0.1,0.9,0.4C30.2,40.7,30.3,41,30.3,41.4 M29.8,41.5
		c0-0.3-0.1-0.6-0.2-0.8c-0.2-0.2-0.4-0.3-0.6-0.3c-0.3,0-0.5,0.1-0.6,0.3c-0.2,0.2-0.3,0.5-0.3,0.8c0,0.3,0.1,0.6,0.2,0.8
		c0.2,0.2,0.4,0.3,0.7,0.3c0.3,0,0.5-0.1,0.7-0.3C29.8,42,29.8,41.8,29.8,41.5"/>
	<path class="st0" d="M32.2,39.2c-0.1,0-0.2-0.1-0.3-0.1c-0.3,0-0.5,0.2-0.5,0.6v0.4h0.6v0.4h-0.6v2.3H31v-2.3h-0.5v-0.4H31v-0.4
		c0-0.3,0.1-0.5,0.3-0.7c0.2-0.1,0.4-0.2,0.6-0.2c0.1,0,0.2,0,0.3,0"/>
	<path class="st0" d="M33.9,42.8c-0.1,0.1-0.2,0.1-0.4,0.1c-0.5,0-0.7-0.3-0.7-0.8v-1.6h-0.5v-0.4h0.5v-0.7c0.1,0,0.3-0.1,0.4-0.1
		v0.8h0.7v0.4h-0.7V42c0,0.2,0,0.3,0.1,0.4c0.1,0.1,0.2,0.1,0.3,0.1c0.1,0,0.2,0,0.3-0.1"/>
	<path class="st0" d="M17.5,51.9c0,0.8-0.3,1.5-0.8,2c-0.6,0.6-1.5,0.9-2.7,0.9c-0.4,0-0.8-0.1-1.3-0.2c-0.5-0.1-0.8-0.3-1.1-0.4
		v-1.5c0.3,0.3,0.7,0.5,1.2,0.7c0.5,0.2,0.9,0.2,1.3,0.2c1.4,0,2-0.5,2-1.6c0-0.5-0.2-0.9-0.5-1.2c-0.3-0.3-0.9-0.7-1.7-1.2
		c-0.9-0.5-1.5-1-1.8-1.4c-0.3-0.5-0.5-1-0.5-1.6c0-0.8,0.3-1.5,0.9-2c0.6-0.5,1.4-0.8,2.5-0.8c0.9,0,1.6,0.1,2.1,0.4v1.4
		c-0.6-0.4-1.3-0.6-2.1-0.6c-0.6,0-1.1,0.2-1.5,0.5c-0.3,0.3-0.5,0.7-0.5,1.1c0,0.5,0.2,0.9,0.5,1.2c0.3,0.3,0.8,0.6,1.6,1.1
		c0.9,0.5,1.5,0.9,1.9,1.4C17.3,50.7,17.5,51.3,17.5,51.9"/>
	<path class="st0" d="M25,47.1l-3.5,8.7c-0.6,1.6-1.5,2.3-2.6,2.3c-0.3,0-0.6,0-0.8-0.1v-1.1c0.3,0.1,0.5,0.1,0.7,0.1
		c0.6,0,1.1-0.4,1.4-1.1l0.6-1.4l-2.9-7.5h1.3l2,5.8c0,0.1,0.1,0.3,0.2,0.6h0c0-0.1,0.1-0.3,0.1-0.6l2.1-5.8"/>
	<path class="st0" d="M29.9,52.6c0,0.6-0.2,1.1-0.7,1.5c-0.5,0.4-1.2,0.7-2.1,0.7c-0.7,0-1.3-0.2-1.9-0.5V53c0.6,0.5,1.2,0.7,2,0.7
		c1,0,1.4-0.4,1.4-1.1c0-0.3-0.1-0.5-0.3-0.7c-0.2-0.2-0.6-0.4-1.2-0.7c-0.6-0.3-1.1-0.6-1.3-0.9c-0.3-0.3-0.5-0.8-0.5-1.4
		c0-0.6,0.2-1.1,0.7-1.6c0.5-0.4,1.1-0.6,1.9-0.6c0.6,0,1.1,0.1,1.6,0.4v1.2c-0.5-0.4-1.1-0.5-1.7-0.5c-0.4,0-0.7,0.1-1,0.3
		c-0.2,0.2-0.4,0.4-0.4,0.8c0,0.3,0.1,0.6,0.3,0.8c0.2,0.2,0.6,0.4,1.1,0.6c0.6,0.3,1.1,0.5,1.4,0.8C29.7,51.6,29.9,52,29.9,52.6"/>
	<path class="st0" d="M34.7,54.5c-0.3,0.2-0.7,0.2-1.1,0.2c-1.3,0-2-0.7-2-2.2v-4.5h-1.3v-1h1.3v-1.8c0.4-0.1,0.8-0.3,1.2-0.4v2.2
		h1.9v1h-1.9v4.2c0,0.5,0.1,0.9,0.3,1.1c0.2,0.2,0.5,0.3,0.9,0.3c0.3,0,0.6-0.1,0.8-0.2"/>
	<path class="st0" d="M41.9,51.1h-5.3c0,0.8,0.2,1.5,0.7,1.9c0.4,0.5,1,0.7,1.8,0.7c0.8,0,1.6-0.3,2.3-0.8V54
		c-0.7,0.5-1.5,0.7-2.6,0.7c-1,0-1.8-0.3-2.4-1c-0.6-0.7-1-1.7-1-2.9c0-1.2,0.3-2.2,1.1-2.9c0.7-0.7,1.5-1,2.4-1c1,0,1.8,0.3,2.3,1
		c0.5,0.6,0.8,1.5,0.8,2.6 M40.6,50.1c0-0.7-0.2-1.2-0.5-1.6c-0.3-0.4-0.8-0.6-1.4-0.6c-0.6,0-1.1,0.2-1.4,0.6
		c-0.4,0.4-0.6,0.9-0.7,1.6H40.6z"/>
	<path class="st0" d="M53.9,54.6h-1.2v-4.3c0-0.9-0.1-1.5-0.4-1.9c-0.3-0.3-0.7-0.5-1.3-0.5c-0.5,0-1,0.2-1.3,0.7s-0.5,1-0.5,1.7
		v4.3h-1.2v-4.5c0-1.5-0.6-2.2-1.7-2.2c-0.5,0-1,0.2-1.3,0.6c-0.4,0.4-0.5,1-0.5,1.7v4.3h-1.2v-7.5h1.2v1.2h0
		c0.5-0.9,1.3-1.4,2.3-1.4c0.5,0,1,0.1,1.4,0.4c0.4,0.3,0.6,0.7,0.8,1.1c0.6-1,1.4-1.6,2.5-1.6c1.7,0,2.5,1,2.5,3.1"/>
	<path class="st0" d="M65.5,54.2c-0.8,0.4-1.7,0.6-2.9,0.6c-1.5,0-2.7-0.5-3.6-1.5c-0.9-1-1.3-2.2-1.3-3.8c0-1.7,0.5-3.1,1.6-4.1
		c1-1,2.3-1.5,3.8-1.5c1,0,1.8,0.1,2.5,0.4v1.3C64.8,45.2,64,45,63,45c-1.2,0-2.1,0.4-2.9,1.2C59.4,47,59,48.1,59,49.4
		c0,1.3,0.4,2.3,1.1,3.1c0.7,0.7,1.6,1.1,2.7,1.1c1.1,0,2-0.2,2.7-0.7"/>
	<path class="st0" d="M73.1,51.1h-5.3c0,0.8,0.2,1.5,0.7,1.9c0.4,0.5,1,0.7,1.8,0.7c0.8,0,1.6-0.3,2.3-0.8V54
		c-0.7,0.5-1.5,0.7-2.6,0.7c-1,0-1.8-0.3-2.4-1c-0.6-0.7-1-1.7-1-2.9c0-1.2,0.3-2.2,1.1-2.9c0.7-0.7,1.5-1,2.4-1c1,0,1.8,0.3,2.3,1
		c0.5,0.6,0.8,1.5,0.8,2.6 M71.8,50.1c0-0.7-0.2-1.2-0.5-1.6c-0.3-0.4-0.8-0.6-1.4-0.6c-0.6,0-1.1,0.2-1.4,0.6
		c-0.4,0.4-0.6,0.9-0.7,1.6H71.8z"/>
	<path class="st0" d="M80.6,54.6h-1.2v-4.3c0-1.6-0.6-2.4-1.7-2.4c-0.6,0-1.1,0.2-1.5,0.7c-0.4,0.5-0.6,1-0.6,1.7v4.3h-1.2v-7.5h1.2
		v1.2h0c0.6-1,1.4-1.4,2.5-1.4c0.8,0,1.5,0.3,1.9,0.8c0.4,0.5,0.6,1.3,0.6,2.3"/>
	<path class="st0" d="M85.9,54.5c-0.3,0.2-0.7,0.2-1.1,0.2c-1.3,0-2-0.7-2-2.2v-4.5h-1.3v-1h1.3v-1.8c0.4-0.1,0.8-0.3,1.2-0.4v2.2
		h1.9v1H84v4.2c0,0.5,0.1,0.9,0.3,1.1c0.2,0.2,0.5,0.3,0.9,0.3c0.3,0,0.6-0.1,0.8-0.2"/>
	<path class="st0" d="M93.1,51.1h-5.3c0,0.8,0.2,1.5,0.7,1.9c0.4,0.5,1,0.7,1.8,0.7c0.8,0,1.6-0.3,2.3-0.8V54
		c-0.7,0.5-1.5,0.7-2.6,0.7c-1,0-1.8-0.3-2.4-1c-0.6-0.7-1-1.7-1-2.9c0-1.2,0.4-2.2,1.1-2.9c0.7-0.7,1.5-1,2.4-1c1,0,1.8,0.3,2.3,1
		c0.5,0.6,0.8,1.5,0.8,2.6 M91.8,50.1c0-0.7-0.2-1.2-0.5-1.6c-0.3-0.4-0.8-0.6-1.4-0.6c-0.6,0-1.1,0.2-1.4,0.6
		c-0.4,0.4-0.6,0.9-0.7,1.6H91.8z"/>
	<path class="st0" d="M98.3,48.3c-0.2-0.2-0.5-0.2-0.9-0.2c-0.5,0-0.9,0.2-1.2,0.7c-0.4,0.5-0.6,1.2-0.6,2v3.8h-1.2v-7.5h1.2v1.5h0
		c0.2-0.5,0.4-1,0.8-1.3c0.3-0.3,0.7-0.4,1.2-0.4c0.3,0,0.6,0,0.7,0.1"/>
	<path class="st0" d="M70.2,17.4c-2-3.2-5.2-6.2-14.6-7.9c-2-0.4-4.3-0.7-8.4-1.4c-1.4-0.3-5.7-0.9-5.2-1.8
		c-0.3,0.3-0.1,0.7,0.1,0.9c2.1,2.4,5.2,3.9,5.2,8.8c0,4.6-4.1,8.8-8.2,12.2c-0.2,0.2-0.4,0.4-0.7,0.5c5-3,8.1-4.3,11.9-5.8
		c4.8-1.9,14.4-4.6,20-5.4 M50.6,22c0-1.1-0.3-1.9-0.7-2.6c1.4-0.8,2.9-1.7,4.7-2.6C53.6,18.4,52.3,20.1,50.6,22
		C50.6,22,50.6,22,50.6,22 M51.1,9.5C51.1,9.5,51.1,9.5,51.1,9.5c0.4,1.2,0.6,2.5,0.4,3.8c-1.2-0.4-2.5-0.7-3.6-1.1
		C48.7,11.3,49.8,10.5,51.1,9.5 M54.7,16c-1.5,0.7-2.8,1.5-4,2.2c0.7-1.2,1.1-2.4,1.3-3.6C52.9,15,53.8,15.4,54.7,16 M52.7,13.7
		c1.4-1,3-2,4.8-3c-0.1,1.1-0.7,2.5-1.8,4.4C54.7,14.6,53.7,14.1,52.7,13.7 M47.9,17.6c0.6-0.6,1.8-1.6,3.4-2.9
		c-0.3,1.4-0.9,2.8-1.7,4.1C49,18.2,48.4,17.8,47.9,17.6 M48.7,19.5c-1,0.7-1.9,1.4-2.7,2c0.6-0.9,1.1-1.9,1.4-2.8
		C48,18.9,48.4,19.2,48.7,19.5 M50.9,14.2c-0.9,0.8-2,1.7-3.1,2.8c0.2-1.3,0.1-2.6-0.1-3.8C48.6,13.4,49.7,13.7,50.9,14.2
		 M48.5,20.3c-1.3,1.6-2.9,3-5,4.3c0.7-0.7,1.3-1.4,1.8-2.1C46.1,21.9,47.2,21.2,48.5,20.3 M49.4,20.1c0.5,0.7,0.8,1.4,0.8,2
		c-2.2,0.9-4,1.6-5.8,2.5C46.6,23.2,48.2,21.6,49.4,20.1 M55.8,16.6c1.2,0.8,2.4,1.7,3.4,2.6c-2.3,0.6-5,1.4-7.9,2.5
		C53.3,20,54.8,18.2,55.8,16.6 M56.7,15.9c2.3-1,4.8-1.9,7.5-2.7c-0.9,1.5-2.3,3.1-4.5,5.9l0,0c0,0,0,0,0,0l0,0
		C58.9,17.8,57.9,16.7,56.7,15.9 M63.8,12.9c-2.6,0.6-5,1.3-7.1,2.2c0.8-1.6,1.2-3,1.3-4.3c1.4,0.4,2.9,0.8,4.3,1.4
		C62.7,12.4,63.3,12.6,63.8,12.9 M56.9,10.6c-1.7,0.7-3.1,1.5-4.7,2.6c0-1.3-0.2-2.6-0.7-3.6C53.3,9.9,55.1,10.2,56.9,10.6
		 M50.6,9.5c-0.7,0.4-2.5,1.4-3.3,2.4c-0.4-1.5-0.9-2.7-1.2-3.3C47.8,9,49.6,9.3,50.6,9.5 M43.4,7.8c0.7,0.2,1.5,0.5,2.4,0.7
		c0.4,1.1,0.7,2.2,1,3.1C46,10.2,44.8,8.9,43.4,7.8 M60.4,18.9c2.1-1.9,3.1-3.1,4.2-5.6c2.4,1.3,4.1,2.9,4.9,3.9
		c0,0.1,0.1,0.1,0.2,0.2C68.6,17.5,65.4,17.7,60.4,18.9"/>
</g>
</svg>
