<?xml version="1.0" encoding="utf-8"?>
<!-- Generator: Adobe Illustrator 19.2.0, SVG Export Plug-In . SVG Version: 6.00 Build 0)  -->
<svg version="1.1" id="Layer_1" xmlns="http://www.w3.org/2000/svg" xmlns:xlink="http://www.w3.org/1999/xlink" x="0px" y="0px"
	 viewBox="0 0 110 60" style="enable-background:new 0 0 110 60;" xml:space="preserve">
<style type="text/css">
	.st0{fill:#7A7B7B;}
	.st1{fill:#989898;}
</style>
<g>
	<path class="st0" d="M64.7,24l-1.9,0.2l0-6.3l5.7-0.5l-3.8-3.7l-3,0.3c-1-1-1.9-1.9-2.9-2.9c0,0,0.1,0.1,0.1,0.1c0,0,0,0,0,0
		c0,0,0,0.1,0.1,0.1c0,0,0,0,0,0c0,0,0,0.1,0,0.1c0,0,0,0.1,0,0.1c0,0,0,0.1,0,0.1l0,1.1l1.2,1.2L59,14.2l0,9l1.2,1.2L59,24.5l0,1.3
		c0,0.1,0,0.1,0,0.2c0,0,0,0,0,0c0,0.1-0.1,0.2-0.1,0.3c0,0,0,0,0,0c0,0-0.1,0.1-0.1,0.1l0,0c0,0-0.1,0.1-0.1,0.1c0,0,0,0,0,0
		c0,0-0.1,0.1-0.2,0.1c0,0-0.1,0-0.1,0c-0.1,0-0.2,0.1-0.3,0.1L45.2,28l-2.1-2.1l-1.9,0.2l0-6.3l5.7-0.5l-3.8-3.7l-1.9,0.2l0-3.3
		c0-0.1,0-0.2,0-0.4c0,0,0,0,0,0c0-0.1,0.1-0.2,0.1-0.3c0,0,0,0,0,0c0,0,0,0,0,0c0-0.1,0.1-0.2,0.2-0.3c0,0,0,0,0,0
		c0.1-0.1,0.1-0.2,0.2-0.3c0,0,0,0,0,0c0.1-0.1,0.2-0.2,0.3-0.2c0,0,0,0,0,0c0.1-0.1,0.2-0.1,0.3-0.2c0,0,0,0,0,0
		c0.2-0.1,0.4-0.2,0.7-0.2l23.7-2.1c0,0,0.1,0,0.1,0c0,0,0.1,0,0.1,0c0,0,0,0,0.1,0c0,0,0,0,0.1,0c0,0,0.1,0,0.1,0c0,0,0,0,0.1,0
		c0,0,0,0,0,0c0.1,0,0.1,0,0.2,0c0,0,0,0,0,0c0,0,0.1,0,0.1,0c0,0,0,0,0.1,0c0,0,0.1,0,0.1,0c0,0,0,0,0,0c0,0,0,0,0.1,0
		c0,0,0,0,0.1,0c0,0,0,0,0,0c0,0,0.1,0.1,0.1,0.1c-1-1-2-2-3-3c-0.2-0.2-0.5-0.5-0.8-0.7c0,0,0,0-0.1-0.1c0,0,0,0,0,0
		c0,0,0,0-0.1-0.1c0,0,0,0,0,0c0,0,0,0,0,0c0,0,0,0-0.1,0c0,0,0,0,0,0c0,0-0.1,0-0.1-0.1c0,0,0,0,0,0c0,0,0,0,0,0c0,0,0,0-0.1,0
		c0,0,0,0,0,0c0,0-0.1,0-0.1,0c0,0,0,0-0.1,0c0,0,0,0,0,0c0,0,0,0,0,0c0,0,0,0-0.1,0c0,0,0,0-0.1,0c0,0,0,0-0.1,0c0,0,0,0,0,0
		c0,0-0.1,0-0.1,0c0,0-0.1,0-0.1,0c0,0,0,0-0.1,0c0,0-0.1,0-0.1,0L39.2,6.8c0,0-0.1,0-0.1,0c-0.1,0-0.2,0-0.3,0.1l0,0c0,0,0,0,0,0
		c-0.1,0-0.2,0.1-0.3,0.1c0,0-0.1,0-0.1,0c0,0,0,0,0,0c-0.1,0-0.2,0.1-0.2,0.1c0,0,0,0,0,0c0,0,0,0,0,0c0,0-0.1,0-0.1,0.1
		c0,0-0.1,0.1-0.1,0.1c0,0,0,0,0,0c0,0,0,0,0,0c0,0,0,0,0,0c0,0-0.1,0.1-0.1,0.1c0,0,0,0.1-0.1,0.1c0,0,0,0,0,0c0,0,0,0,0,0
		c0,0,0,0,0,0c0,0,0,0.1-0.1,0.1c0,0,0,0.1,0,0.1c0,0,0,0.1,0,0.1c0,0,0,0,0,0c0,0,0,0,0,0c0,0,0,0,0,0.1c0,0,0,0.1,0,0.1
		c0,0,0,0.1,0,0.1c0,0,0,0,0,0c0,0,0,0,0,0c0,0,0,0,0,0c0,0,0,0.1,0,0.1c0,0,0,0.1,0,0.1c0,0,0,0,0,0l0,5.9l1.3,1.2l-1.3,0.1l0,9
		l1.2,1.2l-1.2,0.1l0,6.1c0,0,0,0.1,0,0.1c0,0,0,0.1,0,0.1c0,0.1,0,0.1,0,0.2c0,0.1,0,0.1,0,0.2c0,0,0,0.1,0,0.1
		c0,0.1,0.1,0.1,0.1,0.2c0,0,0,0.1,0.1,0.1c0.1,0.1,0.1,0.2,0.2,0.2l3.8,3.7c-0.1-0.1-0.1-0.1-0.2-0.2c0,0,0-0.1,0-0.1
		c0-0.1-0.1-0.1-0.1-0.2c0,0,0-0.1,0-0.1c0-0.1,0-0.1-0.1-0.2c0,0,0-0.1,0-0.1c0-0.1,0-0.2,0-0.3l0-6.1l4.1-0.4
		c0.5,0.5,1.1,1.1,1.6,1.6c0.1,0.1,0.1,0.1,0.2,0.2c0,0,0,0,0,0c0,0,0,0,0.1,0c0,0,0,0,0,0c0,0,0,0,0,0c0,0,0,0,0,0c0,0,0,0,0.1,0
		c0,0,0,0,0.1,0c0,0,0,0,0,0c0,0,0,0,0,0c0,0,0,0,0,0c0,0,0,0,0.1,0c0,0,0,0,0.1,0c0,0,0,0,0,0c0,0,0,0,0.1,0c0,0,0,0,0.1,0
		c0,0,0,0,0.1,0c0,0,0,0,0,0l14-1.2c0,0,0,0,0,0c0,0,0.1,0,0.1,0c0.1,0,0.2,0,0.2-0.1c0,0,0,0,0,0c0,0,0.1,0,0.1-0.1
		c0,0,0.1,0,0.1-0.1c0,0,0,0,0.1-0.1c0,0,0,0,0-0.1c0,0,0,0,0,0c0,0,0,0,0,0c0,0,0,0,0,0l0,0c0,0,0,0,0,0c0,0,0,0,0,0c0,0,0,0,0,0
		c0,0,0,0,0,0c0,0,0,0,0,0c0,0,0,0,0,0c0,0,0,0,0-0.1c0,0,0,0,0-0.1c0,0,0,0,0,0c0,0,0,0,0,0c0,0,0,0,0,0c0,0,0,0,0-0.1
		c0,0,0,0,0-0.1c0,0,0,0,0,0l0-1.3l5.7-0.5L64.7,24z"/>
	<path class="st1" d="M33.4,49.8c0,3.3-1.5,4.4-2.8,4.4c-1.5,0-2.7-1.4-2.7-4.4c0-3.1,1.4-4.4,2.8-4.4
		C32.2,45.5,33.4,46.9,33.4,49.8z M29.2,49.8c0,1.4,0.2,3.3,1.5,3.3c1.2,0,1.4-2,1.4-3.3c0-1.3-0.2-3.3-1.4-3.3
		C29.4,46.5,29.2,48.5,29.2,49.8z"/>
	<path class="st1" d="M34.9,48.2c0-1.3-0.1-2-0.1-2.6H36l0.1,1.1h0c0.5-0.9,1.1-1.2,1.8-1.2c1.5,0,2.4,1.6,2.4,4.3
		c0,3.1-1.3,4.4-2.6,4.4c-0.8,0-1.3-0.5-1.5-1h0v4.2h-1.3V48.2z M36.3,51c0,0.2,0,0.5,0.1,0.7c0.3,1.2,0.9,1.4,1.2,1.4
		c1.1,0,1.5-1.5,1.5-3.2c0-1.7-0.4-3.2-1.5-3.2c-0.6,0-1.2,0.8-1.2,1.5c0,0.2-0.1,0.4-0.1,0.6V51z"/>
	<path class="st1" d="M42.9,49.9c0,2.6,1,3.1,2,3.1c0.6,0,1.1-0.1,1.4-0.3l0.2,1c-0.5,0.2-1.2,0.4-1.9,0.4c-2,0-3.1-1.7-3.1-4.3
		c0-2.7,1.2-4.4,2.9-4.4c1.7,0,2.4,1.8,2.4,3.7c0,0.3,0,0.6,0,0.8H42.9z M45.5,48.9c0-1.7-0.6-2.4-1.3-2.4c-0.9,0-1.3,1.3-1.4,2.4
		H45.5z"/>
	<path class="st1" d="M48.3,47.8c0-1-0.1-1.5-0.1-2.2h1.2l0.1,1h0c0.4-0.7,1-1.2,1.9-1.2c1.2,0,2,0.9,2,2.9v5.7h-1.3v-5.4
		c0-1-0.2-2-1.2-2c-0.6,0-1.1,0.5-1.3,1.4c-0.1,0.2-0.1,0.5-0.1,0.8v5.3h-1.3V47.8z"/>
	<path class="st1" d="M55.1,52.7c0.3,0.2,0.8,0.4,1.4,0.4c0.8,0,1.2-0.5,1.2-1.2c0-0.6-0.2-1.1-1.1-1.7c-1.1-0.7-1.7-1.4-1.7-2.4
		c0-1.4,1-2.3,2.3-2.3c0.7,0,1.2,0.2,1.5,0.4l-0.4,1c-0.3-0.2-0.7-0.4-1.1-0.4c-0.7,0-1.1,0.5-1.1,1.1c0,0.6,0.2,0.9,1,1.5
		c1,0.6,1.8,1.4,1.8,2.6c0,1.7-1.2,2.5-2.6,2.5c-0.6,0-1.3-0.2-1.7-0.5L55.1,52.7z"/>
	<path class="st1" d="M62.1,43.6v2h1.6v1h-1.6v5c0,1.1,0.4,1.4,0.9,1.4c0.2,0,0.4,0,0.5-0.1l0.1,1c-0.2,0.1-0.6,0.1-1,0.1
		c-0.5,0-1-0.1-1.3-0.5c-0.4-0.4-0.5-1-0.5-2.1v-4.9h-1v-1h1v-1.4L62.1,43.6z"/>
	<path class="st1" d="M69.3,52.1c0,0.6,0,1.4,0.1,1.9h-1.2l-0.1-0.9h-0.1c-0.4,0.6-1,1-1.7,1c-1.1,0-2-0.9-2-2.4
		c0-2.1,1.7-3.1,3.6-3.1v-0.3c0-1.1-0.3-1.9-1.3-1.9c-0.5,0-1,0.2-1.4,0.4L64.9,46c0.4-0.3,1.1-0.6,2-0.6c1.7,0,2.4,1.1,2.4,3V52.1z
		 M68,49.7c-0.7,0-2.3,0.1-2.3,2c0,1.1,0.6,1.5,1,1.5c0.6,0,1.1-0.4,1.2-1.3c0-0.2,0.1-0.3,0.1-0.5V49.7z"/>
	<path class="st1" d="M75.4,53.8c-0.3,0.2-0.8,0.3-1.4,0.3c-1.9,0-3.1-1.5-3.1-4.3c0-2.4,1.2-4.4,3.3-4.4c0.5,0,0.9,0.1,1.2,0.3
		l-0.3,1.1c-0.2-0.1-0.5-0.2-1-0.2c-1.4,0-2,1.6-2,3.3c0,2,0.8,3.2,2,3.2c0.4,0,0.7-0.1,1-0.2L75.4,53.8z"/>
	<path class="st1" d="M77.8,49.5L77.8,49.5c0.2-0.3,0.3-0.7,0.5-0.9l1.7-3h1.5l-2.2,3.6l2.4,4.9h-1.5l-1.8-4l-0.5,0.8v3.2h-1.3V41.9
		h1.3V49.5z"/>
	<g>
		<g>
			<path class="st1" d="M83.8,53.5c0,0.4-0.3,0.7-0.7,0.7c-0.4,0-0.7-0.3-0.7-0.7s0.3-0.7,0.7-0.7C83.5,52.8,83.8,53.1,83.8,53.5z
				 M82.5,53.5c0,0.3,0.2,0.6,0.5,0.6c0.3,0,0.5-0.2,0.5-0.6c0-0.3-0.2-0.6-0.5-0.6C82.8,52.9,82.5,53.1,82.5,53.5z M83,53.8h-0.2
				v-0.7c0.1,0,0.2,0,0.3,0c0.1,0,0.2,0,0.2,0.1c0,0,0.1,0.1,0.1,0.1c0,0.1-0.1,0.1-0.1,0.2v0c0.1,0,0.1,0.1,0.1,0.2
				c0,0.1,0,0.1,0.1,0.2h-0.2c0,0,0-0.1-0.1-0.2c0-0.1-0.1-0.1-0.1-0.1H83V53.8z M83,53.4L83,53.4c0.2,0,0.2,0,0.2-0.1
				c0-0.1,0-0.1-0.1-0.1c0,0-0.1,0-0.1,0V53.4z"/>
		</g>
	</g>
	<g>
		<path class="st1" d="M62.8,29.5c0,0.5-0.4,1-0.9,1l-14,1.2c-0.5,0-0.9-0.3-0.9-0.9l0-1.3l-5.7,0.5l0,6.1c0,1,0.8,1.7,1.8,1.6
			l23.7-2.1c1-0.1,1.8-1,1.8-2l0-6.1l-5.7,0.5L62.8,29.5z"/>
		<polygon class="st1" points="62.7,17.9 62.8,26.9 68.4,26.4 68.4,17.4 		"/>
		<polygon class="st1" points="46.9,28.3 46.8,19.3 41.1,19.8 41.2,28.8 		"/>
		<path class="st1" d="M46.9,16.8c0-0.5,0.4-1,0.9-1l14-1.2c0.5,0,0.9,0.3,0.9,0.9l0,1.1l5.7-0.5l0-5.9c0-1-0.8-1.7-1.8-1.6L43,10.5
			c-1,0.1-1.8,1-1.8,2l0,5.9l5.7-0.5L46.9,16.8z"/>
	</g>
</g>
</svg>
