<?xml version="1.0" encoding="utf-8"?>
<!-- Generator: Adobe Illustrator 19.2.0, SVG Export Plug-In . SVG Version: 6.00 Build 0)  -->
<svg version="1.1" id="Layer_1" xmlns="http://www.w3.org/2000/svg" xmlns:xlink="http://www.w3.org/1999/xlink" x="0px" y="0px"
	 viewBox="0 0 110 60" style="enable-background:new 0 0 110 60;" xml:space="preserve">
<style type="text/css">
	.st0{fill:#999999;}
</style>
<g id="g86" transform="translate(-65,553)">
	<g id="g6151">
		<path id="path92" class="st0" d="M96.9-527c-4,0-7.2,3.1-7.2,7c0,3.9,3.2,7,7.2,7s7.2-3.1,7.2-7
			C104.2-523.9,100.9-527,96.9-527z M96.9-525.9c2.5,0,4.6,2.6,4.6,5.9c0,3.2-2,5.9-4.6,5.9c-2.5,0-4.6-2.6-4.6-5.9
			C92.4-523.2,94.4-525.9,96.9-525.9z"/>
		<path id="path100" class="st0" d="M145.9-525.5v-1.1h-4.2v-5.2h-0.5c-0.4,1.8-0.9,3.9-2,5.2H137
			v1.1h2.3v9.5c0,2.7,2.2,3.1,3.1,3.1l3.2-1.4h-1.5c-1.2,0-2.4-0.6-2.4-2.7v-8.4L145.9-525.5 M130.2-527l-4.3,0.7
			c1,0.7,2.2,1.4,2.2,2.1v10.9h2.5v-8.7c0-2.1,1.2-2.8,2.1-2.8c0.5,0,1-0.1,2.1,0.4c0.4,0.3,0.3,1.1,0.5,1.1l1.3-2.3
			c0-0.6-0.4-1.3-1.4-1.3c-1.2,0-2.2,0.6-4.5,2.2L130.2-527 M119.1-526.3c0.6,0.6,2.2,1.2,2.2,2.1v10.9h2.5v-13.5l0-0.2L119.1-526.3
			 M124.4-531.1c0,0.9-0.8,1.7-1.7,1.7c-0.9,0-1.7-0.8-1.7-1.7c0-0.9,0.8-1.7,1.7-1.7C123.6-532.8,124.4-532,124.4-531.1z
			 M101.1-533.1c0.5,0.3,1,0.7,1.5,1l4,9.6l3.4,9.2h1.9l3.9-9.9c1.2-3.2,3.2-7.8,3.9-9.3l0.7-0.6h-2l0,0.2l-3.1,8.4l-3.4,8.2
			l-0.4-0.1l-2.9-7.4l-3.4-8.8c0-0.2,0-0.3,0-0.5L101.1-533.1"/>
	</g>
</g>
</svg>
