<?xml version="1.0" encoding="utf-8"?>
<!-- Generator: Adobe Illustrator 19.2.0, SVG Export Plug-In . SVG Version: 6.00 Build 0)  -->
<svg version="1.1" id="Layer_1" xmlns="http://www.w3.org/2000/svg" xmlns:xlink="http://www.w3.org/1999/xlink" x="0px" y="0px"
	 viewBox="0 0 110 60" style="enable-background:new 0 0 110 60;" xml:space="preserve">
<style type="text/css">
	.st0{fill:#FFFFFF;}
	.st1{fill:#999999;}
	.st2{fill:#D1D1D1;}
</style>
<g>
	<g id="white">
		<path class="st0" d="M35,39.6c-0.6-0.2-1.3-0.2-1.9-0.2c-1.1,0-2.2,0.2-3,0.5c-0.1,0.1-0.2,0.1-0.2,0.2c0,0.1,0,0.1,0,0.1
			c0.1,0.3-0.1,0.5-0.8,0.7c-1.1,0.2-1.8,1.4-2.2,1.8c-0.5,0.4-1.8,0.7-1.6,0.4c0.2-0.2,0.8-0.9,1.1-1.6c0.3-0.6,0.6-0.8,1-1.4
			c0.1-0.2,0.6-0.8,0.7-1.3c0.2-0.5,0.1-1.1,0.2-1.3c0.1-0.4,0.4-1.1,0.4-1.6c0-0.3-1,0.3-1.5,0.3c-0.5,0-1-0.3-1.4-0.3
			c-0.5,0-0.9,0.4-1.4,0.3c-0.3-0.1-0.5-0.3-1-0.3c-0.7,0-1.6,0.4-3.2,0.3c-1.6-0.1-3-2-3.2-2.3c-0.2-0.4-0.5-0.4-0.8-0.1
			c-0.3,0.3-0.7,0.1-0.8-0.1c-0.2-0.4-0.8-1.4-1.6-1.6C12.6,32,12,33,12.1,33.7c0.1,0.8,0.6,1,0.8,1.4c0.2,0.4,0.4,0.7,0.8,0.9
			c0.3,0.1,0.4,0.3,0.3,0.6c-0.1,0.2-0.4,0.3-0.6,0.3c-0.4,0-0.8-0.1-1-0.3c-0.3-0.2-0.5-0.4-0.7-0.8c-0.3-0.4-0.7-0.6-1.2-0.6
			c-0.2,0-0.5,0.1-0.6,0.2c-0.8,0.4-1.7,0.6-2.7,0.6H6.1c2.2,6.4,8.2,11,15.3,11C27.1,47,32.1,44.1,35,39.6z"/>
	</g>
	<g id="black">
		<g>
			<path class="st1" d="M37.4,38.8h0.2l0.2,0.4h0.2l-0.2-0.4c0.1,0,0.2-0.1,0.2-0.2c0-0.2-0.1-0.2-0.3-0.2h-0.4v0.8h0.1V38.8z
				 M37.4,38.7v-0.3h0.2c0.1,0,0.2,0,0.2,0.1s-0.1,0.2-0.2,0.2C37.6,38.7,37.4,38.7,37.4,38.7z"/>
			<path class="st1" d="M38.4,38.7c0,0.4-0.4,0.8-0.8,0.8s-0.8-0.4-0.8-0.8c0-0.4,0.4-0.8,0.8-0.8S38.4,38.3,38.4,38.7z M37.6,38.1
				c-0.4,0-0.6,0.3-0.6,0.7c0,0.4,0.3,0.6,0.6,0.6c0.4,0,0.6-0.3,0.6-0.6C38.3,38.4,37.9,38.1,37.6,38.1z"/>
		</g>
		<g>
			<path class="st1" d="M35,39.6c-0.6-0.2-1.3-0.2-1.9-0.2c-1.1,0-2.2,0.2-3,0.5c-0.1,0.1-0.2,0.1-0.2,0.2c0,0.1,0,0.1,0,0.1
				c0.1,0.3-0.1,0.5-0.8,0.7c-1.1,0.2-1.8,1.4-2.2,1.8c-0.5,0.4-1.8,0.7-1.6,0.4c0.2-0.2,0.8-0.9,1.1-1.6c0.3-0.6,0.6-0.8,1-1.4
				c0.1-0.2,0.6-0.8,0.7-1.3c0.2-0.5,0.1-1.1,0.2-1.3c0.1-0.4,0.4-1.1,0.4-1.6c0-0.3-1,0.3-1.5,0.3c-0.5,0-1-0.3-1.4-0.3
				c-0.5,0-0.9,0.4-1.4,0.3c-0.3-0.1-0.5-0.3-1-0.3c-0.7,0-1.6,0.4-3.2,0.3c-1.6-0.1-3-2-3.2-2.3c-0.2-0.4-0.5-0.4-0.8-0.1
				c-0.3,0.3-0.7,0.1-0.8-0.1c-0.2-0.4-0.8-1.4-1.6-1.6C12.6,32,12,33,12.1,33.7c0.1,0.8,0.6,1,0.8,1.4c0.2,0.4,0.4,0.7,0.8,0.9
				c0.3,0.1,0.4,0.3,0.3,0.6c-0.1,0.2-0.4,0.3-0.6,0.3c-0.4,0-0.8-0.1-1-0.3c-0.3-0.2-0.5-0.4-0.7-0.8c-0.3-0.4-0.7-0.6-1.2-0.6
				c-0.2,0-0.5,0.1-0.6,0.2c-0.8,0.4-1.7,0.6-2.7,0.6H6.1c-0.5-1.6-0.9-3.3-0.9-5.2c0-8.9,7.2-16.2,16.2-16.2s16.2,7.2,16.2,16.2
				C37.6,34.1,36.7,37.1,35,39.6z"/>
		</g>
		<path class="st1" d="M45.8,31.9c0-1.5-0.1-2.6-0.1-3.6h2.4l0.1,2.1h0.1c0.5-1.6,1.8-2.4,3-2.4c0.3,0,0.4,0,0.6,0.1v2.6
			c-0.3-0.1-0.5-0.1-0.9-0.1c-1.3,0-2.3,0.9-2.5,2.1c-0.1,0.3-0.1,0.5-0.1,0.9v5.8h-2.8L45.8,31.9z"/>
		<path class="st1" d="M55.4,34.6c0.1,2,1.6,2.9,3.4,2.9c1.3,0,2.2-0.2,3.1-0.5l0.4,1.9c-1,0.4-2.3,0.7-3.9,0.7
			c-3.6,0-5.7-2.2-5.7-5.6c0-3.1,1.8-6,5.4-6c3.6,0,4.8,3,4.8,5.4c0,0.5-0.1,0.9-0.1,1.2H55.4z M60.3,32.6c0-1-0.4-2.7-2.3-2.7
			c-1.7,0-2.4,1.6-2.6,2.7H60.3z"/>
		<path class="st1" d="M72.2,34.6c0,0.3,0,0.6-0.1,0.8c-0.3,1.2-1.3,2-2.4,2c-1.8,0-2.7-1.5-2.7-3.5c0-2,1-3.7,2.8-3.7
			c1.2,0,2.2,0.9,2.4,2c0.1,0.2,0.1,0.5,0.1,0.8L72.2,34.6L72.2,34.6z M75,24.1l-2.8-0.8v6.2h-0.1c-0.5-0.8-1.6-1.5-3.1-1.5
			c-2.6,0-5,2.2-5,5.9c0,3.4,2.1,5.7,4.7,5.7c1.6,0,3-0.8,3.6-2h0.1l0.1,1.8h2.5c-0.1-0.8-0.1-2-0.1-3.1L75,24.1L75,24.1z"/>
		<path class="st1" d="M82.4,28.1c-0.9,0-1.6,0.3-2.2,0.6c-0.6,0.4-1.2,1-1.5,1.6h-0.1v-5.2l-1.1-0.3v14.6h1.1v-6.8
			c0-0.4,0.1-0.8,0.2-1.1c0.5-1.4,1.8-2.5,3.3-2.5c2.3,0,3.1,1.8,3.1,3.8v6.6h1.1v-6.7C86.3,28.6,83.5,28.1,82.4,28.1z"/>
		<path class="st1" d="M96.1,36.8c0,0.9,0.1,1.8,0.2,2.6h-1l-0.2-1.6H95c-0.5,0.9-1.8,1.8-3.6,1.8c-2.2,0-3.3-1.6-3.3-3.1
			c0-2.6,2.3-4.1,6.8-4v-0.3c0-1.1-0.2-3.3-2.9-3.3c-1,0-2,0.3-2.8,0.8L89,28.9c1-0.7,2.3-1,3.2-1c3.2,0,3.8,2.4,3.8,4.4L96.1,36.8
			L96.1,36.8z M95,33.5c-2.4-0.1-5.6,0.3-5.6,3c0,1.6,1.1,2.3,2.2,2.3c1.8,0,2.9-1.1,3.3-2.2c0.1-0.2,0.1-0.5,0.1-0.6L95,33.5
			L95,33.5z"/>
		<path class="st1" d="M100.5,25.9v2.4h3.2v0.9h-3.2v7.2c0,1.4,0.4,2.3,1.6,2.3c0.6,0,1-0.1,1.2-0.2l0.1,0.9
			c-0.4,0.2-0.9,0.3-1.5,0.3c-0.8,0-1.5-0.3-1.9-0.8c-0.5-0.6-0.7-1.5-0.7-2.6v-7h-1.9v-0.9h1.9v-2L100.5,25.9z"/>
		<g>
			<path class="st1" d="M105,38.8h0.2l0.2,0.4h0.2l-0.2-0.4c0.1,0,0.2-0.1,0.2-0.2c0-0.2-0.1-0.2-0.3-0.2h-0.3v0.8h0.1L105,38.8
				L105,38.8z M105,38.7v-0.3h0.2c0.1,0,0.2,0,0.2,0.1c0,0.1-0.1,0.2-0.2,0.2C105.2,38.7,105,38.7,105,38.7z"/>
			<path class="st1" d="M106,38.8c0,0.4-0.4,0.8-0.8,0.8s-0.8-0.4-0.8-0.8s0.4-0.8,0.8-0.8C105.6,37.9,106,38.3,106,38.8z
				 M105.2,38.1c-0.4,0-0.6,0.3-0.6,0.7c0,0.4,0.3,0.6,0.6,0.6c0.4,0,0.6-0.3,0.6-0.6C105.9,38.4,105.5,38.1,105.2,38.1z"/>
		</g>
		<path class="st1" d="M25,38.2c0.1,0.1,0.2,0.4,0.1,0.7c-0.1,0.2-0.2,0.3-0.4,0.5c-0.2,0.2-0.6,0.4-1.3,0c-0.3-0.2-0.3-0.3-0.8-0.2
			c-0.3,0.1-0.4-0.3-0.3-0.5c0.1-0.3,0.6-0.5,1.2-0.2c0.3,0.2,0.7,0.5,1,0.2c0.2-0.1,0.2-0.2,0.4-0.4C24.9,38.2,24.9,38.1,25,38.2
			C25,38.1,25,38.2,25,38.2z"/>
	</g>
	<path id="red" class="st2" d="M20.2,22.4c-1.9,0.2-2,0.3-2.4,0.7c-0.5,0.5-1.1-0.7-1.1-0.7c-0.4-0.1-0.9-0.7-0.6-1.3
		c0.3-0.6,0.7-0.4,0.9-0.2c0.2,0.2,0.5,0.6,1,0.6c0.5,0,1.1-0.1,1.8-0.1c0.8,0,1.3,0.3,1.3,0.5C21.1,22.1,21,22.4,20.2,22.4z
		 M22.1,19.3L22.1,19.3C22.1,19.3,22.1,19.3,22.1,19.3c-0.1-0.1-0.1-0.1,0-0.1c0.4-0.2,0.9-0.3,1.5-0.4c0.2,0,0.4-0.1,0.5-0.1
		c0.1,0,0.1,0,0.1,0c1,0,1.9,0.4,1.8,0.9c0,0.5-0.9,0.9-1.9,0.9c-0.3,0-0.6-0.1-0.9-0.2c-0.1,0-0.1-0.1-0.1-0.1c0-0.1,0-0.1,0.1-0.1
		c0.6-0.2,1.1-0.4,1.1-0.6c-0.1-0.3-0.9-0.5-1.9-0.4C22.3,19.3,22.2,19.3,22.1,19.3z M30.5,26.6c-0.2,0.5-0.4,1.2-1.4,1.7
		c-0.2,0.1-0.2-0.1-0.2-0.2c0.4-0.6,0.4-0.8,0.5-1.1c0.2-0.4,0.2-0.9-0.1-2c-0.6-2.2-1.9-5.1-2.8-6.1c-0.9-0.9-2.5-1.2-4-0.8
		c-0.5,0.2-1.6,0.7-3.6,0.3c-3.4-0.8-3.9,0.9-4,1.7c-0.2,0.8-0.6,2.8-0.6,2.8c-0.2,0.9-0.4,2.3,4.9,3.3c2.4,0.5,2.6,1.1,2.7,1.6
		c0.2,0.8,0.5,1.3,0.9,1.5c0.3,0.2,0,0.4-0.4,0.5c-1,0.1-4.9-1-7.2-2.3c-1.8-1.1-1.9-2.2-1.5-3c-2.8-0.3-4.9,0.3-5.3,1.6
		c-0.6,2.3,5,6.2,11.5,8.1c6.8,2,13.7,0.6,14.5-3.7C34.9,28.6,33.3,27.2,30.5,26.6z"/>
</g>
</svg>
