<?xml version="1.0" encoding="utf-8"?>
<!-- Generator: Adobe Illustrator 19.2.0, SVG Export Plug-In . SVG Version: 6.00 Build 0)  -->
<svg version="1.1" id="Layer_1" xmlns="http://www.w3.org/2000/svg" xmlns:xlink="http://www.w3.org/1999/xlink" x="0px" y="0px"
	 viewBox="0 0 110 60" style="enable-background:new 0 0 110 60;" xml:space="preserve">
<style type="text/css">
	.st0{fill:#999999;}
</style>
<g>
	<path id="path2946" class="st0" d="M50.2,35.6l-3.3-9.1c0-0.1-0.1-0.3-0.1-0.4c0-0.4,0.3-0.8,0.8-0.8c0.4,0,0.7,0.3,0.8,0.7
		l2.7,7.8l2.7-7.8c0.1-0.4,0.4-0.6,0.8-0.6h0.1c0.4,0,0.7,0.3,0.8,0.6l2.7,7.8L61,26c0.1-0.3,0.3-0.6,0.8-0.6c0.5,0,0.8,0.4,0.8,0.7
		c0,0.1-0.1,0.3-0.1,0.4l-3.3,9.1c-0.2,0.5-0.5,0.7-0.9,0.7h-0.1c-0.4,0-0.7-0.2-0.9-0.7l-2.7-7.7L52,35.6c-0.1,0.5-0.5,0.7-0.9,0.7
		h0C50.7,36.3,50.4,36.1,50.2,35.6"/>
	<path id="path2948" class="st0" d="M73.9,26.1c0-0.4,0.4-0.8,0.8-0.8c0.5,0,0.8,0.4,0.8,0.8V28c0.8-1.8,2.5-2.6,3.7-2.6
		c0.5,0,0.8,0.4,0.8,0.8c0,0.4-0.3,0.7-0.7,0.8c-2.1,0.2-3.8,1.8-3.8,4.9v3.6c0,0.4-0.3,0.8-0.8,0.8c-0.5,0-0.8-0.4-0.8-0.8
		L73.9,26.1"/>
	<path id="path2950" class="st0" d="M88.2,30.3c-0.2-1.9-1.3-3.6-3.4-3.6c-1.8,0-3.2,1.5-3.4,3.6H88.2z M85.1,36.4
		c-2.9,0-5.2-2.2-5.2-5.5v0c0-3.1,2.1-5.5,5-5.5c3.1,0,4.9,2.6,4.9,5.4c0,0.4-0.3,0.7-0.7,0.7h-7.6c0.2,2.3,1.8,3.6,3.7,3.6
		c1.3,0,2.3-0.5,3-1.2c0.1-0.1,0.3-0.2,0.4-0.2c0.4,0,0.7,0.3,0.7,0.7c0,0.2-0.1,0.4-0.2,0.5C88.1,35.8,86.9,36.4,85.1,36.4"/>
	<path id="path2952" class="st0" d="M70.5,32.3v-1c-0.8-0.2-1.8-0.5-3.1-0.5c-2,0-3.1,0.9-3.1,2.2v0c0,1.3,1.2,2.1,2.7,2.1
		C68.8,35.2,70.5,34,70.5,32.3 M62.6,33.1L62.6,33.1c0-2.3,1.9-3.5,4.6-3.5c1.4,0,2.3,0.2,3.3,0.5v-0.4c0-1.9-1.2-2.9-3.2-2.9
		c-1.1,0-1.7,0.1-2.5,0.5c-0.1,0-0.2,0.1-0.3,0.1c-0.4,0-0.7-0.3-0.7-0.7c0-0.3,0.1-0.5,0.4-0.7c1.1-0.5,1.8-0.6,3.2-0.6
		c1.5,0,2.7,0.4,3.5,1.2c0.7,0.7,1.1,1.8,1.1,3.1v5.9c0,0.5-0.3,0.8-0.8,0.8c-0.5,0-0.8-0.3-0.8-0.7v-1c-0.7,1-2,1.8-3.9,1.8
		C64.6,36.4,62.6,35.3,62.6,33.1"/>
	<path id="path2954" class="st0" d="M21.2,26c-0.4-0.8-1.2-1.1-2-0.8c-0.8,0.4-1.1,1.3-0.7,2l3.4,7.4c0.5,1.2,1.1,1.8,2.2,1.8
		c1.1,0,1.6-0.7,2.2-1.8c0,0,3-6.5,3-6.5c0-0.1,0.1-0.3,0.4-0.3c0.3,0,0.5,0.2,0.5,0.5v6.3c0,1,0.5,1.8,1.6,1.8c1,0,1.6-0.8,1.6-1.8
		v-5.2c0-1,0.7-1.6,1.7-1.6s1.6,0.7,1.6,1.6v5.2c0,1,0.5,1.8,1.6,1.8c1,0,1.6-0.8,1.6-1.8v-5.2c0-1,0.7-1.6,1.7-1.6
		c1,0,1.6,0.7,1.6,1.6v5.2c0,1,0.5,1.8,1.6,1.8c1,0,1.6-0.8,1.6-1.8v-5.9c0-2.2-1.7-3.7-3.8-3.7c-2.1,0-3.4,1.4-3.4,1.4
		c-0.7-0.9-1.7-1.4-3.3-1.4c-1.7,0-3.2,1.4-3.2,1.4c-0.7-0.9-1.9-1.4-2.9-1.4c-1.5,0-2.7,0.7-3.5,2.3L24,32.6L21.2,26"/>
	<path id="path2956" class="st0" d="M92.3,26.6L92.3,26.6c0-0.6-0.5-1.1-1.1-1.1c-0.6,0-1.1,0.5-1.1,1.1v0c0,0.6,0.5,1.1,1.1,1.1
		C91.9,27.7,92.3,27.2,92.3,26.6 M89.9,26.7L89.9,26.7c0-0.7,0.6-1.3,1.3-1.3c0.7,0,1.3,0.6,1.3,1.3v0c0,0.7-0.6,1.3-1.3,1.3
		C90.5,28,89.9,27.4,89.9,26.7"/>
	<path id="path2958" class="st0" d="M91.3,26.6c0.1,0,0.2-0.1,0.2-0.2v0c0-0.1-0.1-0.2-0.2-0.2H91v0.4H91.3L91.3,26.6z M90.7,26.1
		c0-0.1,0.1-0.1,0.1-0.1h0.4c0.2,0,0.3,0,0.4,0.1c0.1,0.1,0.1,0.2,0.1,0.3v0c0,0.2-0.1,0.3-0.3,0.4l0.2,0.2c0,0,0,0.1,0,0.1
		c0,0.1-0.1,0.1-0.1,0.1c-0.1,0-0.1,0-0.1-0.1l-0.3-0.3H91v0.3c0,0.1-0.1,0.1-0.1,0.1c-0.1,0-0.1-0.1-0.1-0.1L90.7,26.1"/>
</g>
</svg>
