<svg width="343px" height="339px" viewBox="0 -1 343 339" version="1.1" xmlns="http://www.w3.org/2000/svg" xmlns:xlink="http://www.w3.org/1999/xlink">
    <!-- Generator: Sketch 39.1 (31720) - http://www.bohemiancoding.com/sketch -->
    <desc>Created with Sketch.</desc>
    <defs></defs>
    <g id="manageiq-logo-glyph" stroke="none" stroke-width="1" fill="none" fill-rule="evenodd" transform="translate(0.000000, -1.000000)">
        <g id="Group" transform="translate(0.700000, 0.860000)">
            <g transform="translate(0.207000, 0.000000)" id="Shape">
                <g transform="translate(0.071900, 0.439600)">
                    <path d="M171.114087,0.653729417 C80.8244384,0.653729417 7.83195252,73.650219 7.83195252,163.946623 C7.83195252,254.243027 80.8167279,327.248084 171.114087,327.248084 C203.844192,327.248084 234.232883,317.559823 259.767402,301.029213 L293.584684,334.82804 L339.315504,289.032184 L306.134765,255.85274 C323.964808,229.681843 334.396222,198.052144 334.396222,163.938913 C334.396222,75.0577539 263.645771,2.89053622 175.337714,0.646019245 C174.189024,0.604041637 172.780406,0.646019245 171.121027,0.646019245 L171.114087,0.653729417 Z M171.114087,54.7148912 C231.327748,54.7148912 280.362935,103.726747 280.362935,163.94234 C280.362935,224.157933 231.327748,273.186922 171.114087,273.186922 C110.900427,273.186922 61.8823743,224.158789 61.8823743,163.94234 C61.8823743,103.726747 110.900427,54.7148912 171.114087,54.7148912 L171.114087,54.7148912 Z" fill="#EF2929"></path>
                    <path d="M171.114087,132.617621 C153.798076,132.617621 139.824128,146.609014 139.824128,163.923493 C139.824128,181.237971 153.800647,195.229364 171.114087,195.229364 C188.428385,195.229364 202.438316,181.240541 202.437459,163.923493 C202.437039,146.606444 188.430098,132.617621 171.114087,132.617621 L171.114087,132.617621 Z M111.195138,180.189387 L0.22428498,291.155908 L45.9902309,336.920067 L156.978219,225.936413 L111.195138,180.189387 Z" fill="#FFFFFF"></path>
                </g>
            </g>
        </g>
    </g>
</svg>
