<?xml version="1.0" encoding="utf-8"?>
<!-- Generator: Adobe Illustrator 19.2.0, SVG Export Plug-In . SVG Version: 6.00 Build 0)  -->
<svg version="1.1" id="Layer_1" xmlns="http://www.w3.org/2000/svg" xmlns:xlink="http://www.w3.org/1999/xlink" x="0px" y="0px"
	 viewBox="0 0 164.6 164.1" style="enable-background:new 0 0 164.6 164.1;" xml:space="preserve">
<style type="text/css">
	.st0{fill:#3185B8;}
	.st1{fill:#61A5CE;}
	.st2{fill:#EAE9E6;}
</style>
<g>
	<path class="st0" d="M156.5,20.1c-1.1-0.9-9.5-5.4-9.5-5.4l-8.9,5.2l0,0l8.9-5.2l-8.9-5.3l0,10.5l-9.3-5.2c0,0-7.6,4.5-11.3,6.6
		c-4.7,2.7-16.1,9.5-16.1,9.5v10.1l-9.4,24.6v13.3l-6.6,3.9l-2.6,6.9L64,41.4l0-10.6l-37-21.5L8.6,20.1l0,0v10.9l11.5,27.7l7,4.1
		l0,12.7l27.7,67.4l27.7,15.9v0.1l27.7-16l46.3-112.1L156.5,20.1"/>
	<path class="st0" d="M82.6,158.7l-27.8-15.9L27.1,75.5l0-12.7l-7-4.1L8.6,30.9V20.1l9.1,5.3v10.7l9.4,5.5l0-10.8l18.4,10.6L46.4,52
		l26.8,69.5l18.6,10.8v21.2l-9.2-5.4L82.6,158.7"/>
	<path class="st1" d="M64,41.4l18.6,48.1l0,26.5l-9.4,5.3L46.4,51.9l-0.9-10.5L64,30.8L64,41.4"/>
	<path class="st1" d="M17.7,25.4v10.7l9.4-5.3L17.7,25.4"/>
	<path class="st2" d="M27.1,41.6l0-10.8l-9.4,5.3L27.1,41.6"/>
	<path class="st0" d="M82.5,116l9.3,5.3l10.3-25.9l8,4.7V75.3l2.5-6l6.8,4V62.7l-9.2-5.4l9.3-5.4l-9.1-5.3l0-10.7l-9.1-5.3v10.1
		l-9.4,24.6v13.3l-6.6,3.9l-2.6,6.9L82.5,116"/>
	<path class="st1" d="M82.4,126.9l9.3,5.4l0,21.2l18.6-10.7l46.3-112.1l-0.1-10.6l-27.7,16v21.3l-9.3,5.3v10.5l-6.8-4l-2.5,6v24.8
		l-12.9,7.6l-5.4,13.7L82.4,126.9"/>
	<path class="st2" d="M45.5,52.1l9.3-5.4v10.7L45.5,52.1"/>
	<path class="st0" d="M54.8,57.4l9.2,5.2V52.1l-9.2-5.4V57.4"/>
	<path class="st1" d="M36.3,78.6v10.8l9.3-5.4L36.3,78.6"/>
	<path class="st2" d="M54.9,89.4l-9.4,5.4l-9.3-5.5l9.3-5.4L54.9,89.4"/>
	<path class="st1" d="M54.8,121.5v10.9l9.4-5.4L54.8,121.5"/>
	<path class="st2" d="M73.2,142.7l9.4,5.5l0-11L73.2,142.7"/>
	<path class="st1" d="M82.6,158.8l0-10.6l9.1,5.3L82.6,158.8"/>
	<path class="st2" d="M82.5,116l-9.4,5.3l9.3,5.5l9.4-5.5L82.5,116"/>
	<path class="st0" d="M128.7,57.4V36.1l-9.2-5.2v10.6l-9.2,5.3L128.7,57.4"/>
	<path class="st2" d="M110.2,57.4l9.3-5.4l9.3,5.4l-9.3,5.3L110.2,57.4"/>
	<path class="st1" d="M110.3,46.8l9.2-5.3V30.9l-9.2,5.2L110.3,46.8"/>
	<path class="st0" d="M138,19.9l0-10.5l8.9,5.3L138,19.9"/>
	<path class="st2" d="M156.5,20.1l-27.7,16l-9.2-5.2l-9.2,5.2l-9.1-5.3c0,0,11.4-6.8,16.1-9.5c3.7-2.1,11.3-6.6,11.3-6.6l9.3,5.2
		l8.9-5.2C147,14.7,155.4,19.2,156.5,20.1C153.9,21.6,156.5,20.1,156.5,20.1"/>
	<path class="st2" d="M64,30.8L45.5,41.4L8.6,20.1L27.1,9.4L64,30.8"/>
	<path class="st0" d="M147.1,35.8V25.5l-9,5.2L147.1,35.8"/>
	<path class="st0" d="M119.8,84.1l9-5.2v10.3L119.8,84.1"/>
	<path class="st2" d="M101,126.8v10.7l9.4-5.4L101,126.8"/>
	<path class="st0" d="M110.4,132.1l-0.1-10.6l-9.3,5.3L110.4,132.1"/>
</g>
</svg>
