<?xml version="1.0" encoding="utf-8"?>
<!-- Generator: Adobe Illustrator 19.2.0, SVG Export Plug-In . SVG Version: 6.00 Build 0)  -->
<svg version="1.1" id="Layer_1" xmlns="http://www.w3.org/2000/svg" xmlns:xlink="http://www.w3.org/1999/xlink" x="0px" y="0px"
	 viewBox="0 0 185.4 143.1" style="enable-background:new 0 0 185.4 143.1;" xml:space="preserve">
<style type="text/css">
	.st0{fill:#039AC9;}
</style>
<g>
	<g>
		<path class="st0" d="M141.2,132.9H48.9c-10.8,0-20.2-3.9-27.9-11.6c-7.7-7.7-11.6-17.1-11.6-27.9c0-7.7,2.1-14.9,6.3-21.3
			c4-6.1,9.2-10.8,15.6-14c-0.1-1.1-0.1-2-0.1-2.7c0-12.4,4.4-23,13.2-31.8c8.7-8.7,19.4-13.2,31.8-13.2c9.2,0,17.7,2.6,25.2,7.7
			c6.9,4.7,12.2,10.9,15.6,18.4c3.9-2.9,8.4-4.4,13.5-4.4c6.4,0,11.9,2.3,16.4,6.8c4.5,4.5,6.8,10,6.8,16.4c0,3.8-0.9,7.4-2.7,10.8
			c6.7,2,12.4,5.8,16.9,11.4c5,6.2,7.5,13.3,7.5,21.3c0,9.4-3.4,17.5-10,24.1C158.7,129.5,150.6,132.9,141.2,132.9z M76.1,13.4
			c-11.5,0-21.5,4.1-29.7,12.3c-8.2,8.2-12.3,18.1-12.3,29.7c0,0.8,0.1,2,0.2,3.5l0.1,1l-0.9,0.4c-6.3,2.9-11.4,7.4-15.2,13.3
			c-3.8,5.9-5.8,12.5-5.8,19.7c0,10,3.6,18.7,10.7,25.8c7.1,7.1,15.8,10.7,25.8,10.7h92.3c8.5,0,15.9-3.1,22-9.1
			c6-6,9.1-13.4,9.1-22c0-7.3-2.3-13.8-6.8-19.4c-4.5-5.6-10.3-9.3-17.2-10.9l-2.1-0.5l1.2-1.8c2.1-3.3,3.2-7,3.2-10.9
			c0-5.6-1.9-10.3-5.9-14.3c-4-4-8.7-5.9-14.3-5.9c-5.1,0-9.4,1.6-13.1,4.9l-1.6,1.4l-0.8-1.9c-3.2-7.7-8.4-14.1-15.4-18.9
			C92.6,15.8,84.7,13.4,76.1,13.4z"/>
	</g>
</g>
</svg>
