<?xml version="1.0" encoding="utf-8"?>
<!-- Generator: Adobe Illustrator 19.2.0, SVG Export Plug-In . SVG Version: 6.00 Build 0)  -->
<svg version="1.1" id="Layer_1" xmlns="http://www.w3.org/2000/svg" xmlns:xlink="http://www.w3.org/1999/xlink" x="0px" y="0px"
	 viewBox="0 0 215 131.5" style="enable-background:new 0 0 215 131.5;" xml:space="preserve">
<style type="text/css">
	.st0{fill-rule:evenodd;clip-rule:evenodd;fill:#394D54;}
	.st1{fill:#00AADA;}
	.st2{fill:#24B8EB;}
	.st3{fill:#008BB8;}
	.st4{fill:#039BC6;}
	.st5{fill-rule:evenodd;clip-rule:evenodd;fill:#00ACD3;}
	.st6{fill-rule:evenodd;clip-rule:evenodd;fill:#20C2EF;}
	.st7{fill-rule:evenodd;clip-rule:evenodd;fill:#D4EDF1;}
	.st8{fill:#BFDBE0;}
	.st9{fill:#D4EDF1;}
</style>
<g>
	<path id="outline_7_" class="st0" d="M124.6,43.8h19.2v19.7h9.7c4.5,0,9.1-0.8,13.4-2.2c2.1-0.7,4.4-1.7,6.5-2.9
		c-2.7-3.5-4.1-8-4.5-12.4c-0.6-6,0.7-13.8,4.7-18.5l2-2.3l2.4,1.9c6.1,4.9,11.2,11.7,12.1,19.5c7.3-2.1,15.9-1.6,22.3,2.1l2.6,1.5
		l-1.4,2.7c-5.4,10.6-16.8,13.9-28,13.3c-16.7,41.5-52.9,61.1-96.9,61.1c-22.7,0-43.6-8.5-55.4-28.6l-0.2-0.3l-1.7-3.5
		c-4-8.9-5.3-18.6-4.4-28.3l0.3-2.9h16.5V43.8H63V24.6h38.5V5.3h23.1V43.8z"/>
	<g id="body_colors_8_">
		<path class="st1" d="M186.9,51.1c1.3-10-6.2-17.9-10.9-21.6c-5.4,6.2-6.2,22.4,2.2,29.3c-4.7,4.2-14.6,8-24.7,8H30.2
			c-1,10.6,0.9,20.3,5.1,28.6l1.4,2.6c0.9,1.5,1.9,3,2.9,4.4c0,0,0,0,0,0c5.1,0.3,9.7,0.4,14,0.3c0,0,0,0,0,0
			c8.4-0.2,15.3-1.2,20.5-3c0.8-0.3,1.6,0.1,1.9,0.9c0.3,0.8-0.1,1.6-0.9,1.9c-0.7,0.2-1.4,0.5-2.2,0.7c0,0,0,0,0,0
			c-4.1,1.2-8.5,2-14.1,2.3c0.3,0-0.4,0.1-0.4,0.1c-0.2,0-0.4,0-0.6,0.1c-2.2,0.1-4.6,0.2-7.1,0.2c-2.7,0-5.3-0.1-8.3-0.2l-0.1,0.1
			C52.6,117,68.7,124,88.8,124c42.6,0,78.8-18.9,94.8-61.3c11.4,1.2,22.3-1.7,27.2-11.4C202.9,46.7,192.8,48.1,186.9,51.1z"/>
		<path class="st2" d="M186.9,51.1c1.3-10-6.2-17.9-10.9-21.6c-5.4,6.2-6.2,22.4,2.2,29.3c-4.7,4.2-14.6,8-24.7,8h-116
			C37,82.9,43,95.1,53.7,102.6c0,0,0,0,0,0c8.4-0.2,15.3-1.2,20.5-3c0.8-0.3,1.6,0.1,1.9,0.9c0.3,0.8-0.1,1.6-0.9,1.9
			c-0.7,0.2-1.4,0.5-2.2,0.7c0,0,0,0,0,0c-4.1,1.2-8.9,2.1-14.5,2.4c0,0-0.1-0.1-0.1-0.1c14.5,7.4,35.5,7.4,59.6-1.8
			c27-10.4,52.2-30.2,69.7-52.8C187.4,50.8,187.2,50.9,186.9,51.1z"/>
		<path class="st3" d="M30.5,79.5c0.8,5.7,2.4,11,4.9,15.8l1.4,2.6c0.9,1.5,1.9,3,2.9,4.4c5.1,0.3,9.7,0.4,14,0.3
			c8.4-0.2,15.3-1.2,20.5-3c0.8-0.3,1.6,0.1,1.9,0.9c0.3,0.8-0.1,1.6-0.9,1.9c-0.7,0.2-1.4,0.5-2.2,0.7c0,0,0,0,0,0
			c-4.1,1.2-8.8,2-14.5,2.4c-0.2,0-0.5,0-0.7,0c-2.2,0.1-4.6,0.2-7.1,0.2c-2.7,0-5.4-0.1-8.4-0.2C52.5,117,68.7,124,88.8,124
			c36.5,0,68.2-13.8,86.6-44.4H30.5z"/>
		<path class="st4" d="M38.7,79.5c2.2,9.9,7.4,17.8,15,23.1c8.4-0.2,15.3-1.2,20.5-3c0.8-0.3,1.6,0.1,1.9,0.9
			c0.3,0.8-0.1,1.6-0.9,1.9c-0.7,0.2-1.4,0.5-2.2,0.7c0,0,0,0,0,0c-4.1,1.2-8.9,2-14.6,2.4c14.5,7.4,35.5,7.3,59.6-1.9
			c14.6-5.6,28.6-13.9,41.2-24H38.7z"/>
	</g>
	<g id="Containers_8_">
		<path class="st5" d="M60.9,48.4h1.3v13.9h-1.3V48.4z M58.4,48.4h1.4v13.9h-1.4V48.4z M55.9,48.4h1.4v13.9h-1.4V48.4z M53.4,48.4
			h1.4v13.9h-1.4V48.4z M50.8,48.4h1.4v13.9h-1.4V48.4z M48.4,48.4h1.3v13.9h-1.3V48.4z M47,47h16.7v16.7H47V47z"/>
		<path class="st5" d="M80.2,29.1h1.3V43h-1.3V29.1z M77.7,29.1H79V43h-1.4V29.1z M75.1,29.1h1.4V43h-1.4V29.1z M72.6,29.1H74V43
			h-1.4V29.1z M70.1,29.1h1.4V43h-1.4V29.1z M67.6,29.1h1.3V43h-1.3V29.1z M66.2,27.8h16.7v16.7H66.2V27.8z"/>
		<path class="st6" d="M80.2,48.4h1.3v13.9h-1.3V48.4z M77.7,48.4H79v13.9h-1.4V48.4z M75.1,48.4h1.4v13.9h-1.4V48.4z M72.6,48.4H74
			v13.9h-1.4V48.4z M70.1,48.4h1.4v13.9h-1.4V48.4z M67.6,48.4h1.3v13.9h-1.3V48.4z M66.2,47h16.7v16.7H66.2V47z"/>
		<path class="st5" d="M99.4,48.4h1.3v13.9h-1.3V48.4z M96.9,48.4h1.4v13.9h-1.4V48.4z M94.4,48.4h1.4v13.9h-1.4V48.4z M91.8,48.4
			h1.4v13.9h-1.4V48.4z M89.3,48.4h1.4v13.9h-1.4V48.4z M86.8,48.4h1.3v13.9h-1.3V48.4z M85.5,47h16.7v16.7H85.5V47z"/>
		<path class="st6" d="M99.4,29.1h1.3V43h-1.3V29.1z M96.9,29.1h1.4V43h-1.4V29.1z M94.4,29.1h1.4V43h-1.4V29.1z M91.8,29.1h1.4V43
			h-1.4V29.1z M89.3,29.1h1.4V43h-1.4V29.1z M86.8,29.1h1.3V43h-1.3V29.1z M85.5,27.8h16.7v16.7H85.5V27.8z"/>
		<path class="st6" d="M118.7,48.4h1.3v13.9h-1.3V48.4z M116.1,48.4h1.4v13.9h-1.4V48.4z M113.6,48.4h1.4v13.9h-1.4V48.4z
			 M111.1,48.4h1.4v13.9h-1.4V48.4z M108.6,48.4h1.4v13.9h-1.4V48.4z M106.1,48.4h1.3v13.9h-1.3V48.4z M104.7,47h16.7v16.7h-16.7V47
			z"/>
		<path class="st5" d="M118.7,29.1h1.3V43h-1.3V29.1z M116.1,29.1h1.4V43h-1.4V29.1z M113.6,29.1h1.4V43h-1.4V29.1z M111.1,29.1h1.4
			V43h-1.4V29.1z M108.6,29.1h1.4V43h-1.4V29.1z M106.1,29.1h1.3V43h-1.3V29.1z M104.7,27.8h16.7v16.7h-16.7V27.8z"/>
		<path class="st6" d="M118.7,9.9h1.3v13.9h-1.3V9.9z M116.1,9.9h1.4v13.9h-1.4V9.9z M113.6,9.9h1.4v13.9h-1.4V9.9z M111.1,9.9h1.4
			v13.9h-1.4V9.9z M108.6,9.9h1.4v13.9h-1.4V9.9z M106.1,9.9h1.3v13.9h-1.3V9.9z M104.7,8.5h16.7v16.7h-16.7V8.5z"/>
		<path class="st5" d="M137.9,48.4h1.3v13.9h-1.3V48.4z M135.4,48.4h1.4v13.9h-1.4V48.4z M132.8,48.4h1.4v13.9h-1.4V48.4z
			 M130.3,48.4h1.4v13.9h-1.4V48.4z M127.8,48.4h1.4v13.9h-1.4V48.4z M125.3,48.4h1.3v13.9h-1.3V48.4z M123.9,47h16.7v16.7h-16.7V47
			z"/>
	</g>
	<path class="st7" d="M81.8,90.7c2.5,0,4.6,2.1,4.6,4.6c0,2.5-2.1,4.6-4.6,4.6c-2.5,0-4.6-2.1-4.6-4.6
		C77.2,92.8,79.3,90.7,81.8,90.7"/>
	<path class="st0" d="M81.8,92c0.4,0,0.8,0.1,1.2,0.2c-0.4,0.2-0.7,0.7-0.7,1.2c0,0.7,0.6,1.3,1.3,1.3c0.5,0,1-0.3,1.2-0.7
		c0.2,0.4,0.3,0.8,0.3,1.3c0,1.8-1.5,3.3-3.3,3.3c-1.8,0-3.3-1.5-3.3-3.3C78.6,93.5,80,92,81.8,92"/>
	<path class="st0" d="M0.5,81.2h100.8h12.5h100.8c-4.7-1.2-14.7-2.8-13.1-8.9c-8.5,9.8-28.9,6.9-34.1,2c-5.7,8.3-39.2,5.2-41.5-1.3
		c-7.2,8.4-29.5,8.4-36.7,0c-2.3,6.5-35.8,9.7-41.5,1.3c-5.2,4.8-25.6,7.8-34.1-2C15.2,78.4,5.1,80,0.5,81.2"/>
	<path class="st8" d="M94.1,123.9c-11.4-5.4-17.6-12.8-21.1-20.8c-4.2,1.2-9.3,2-15.2,2.3c-2.2,0.1-4.6,0.2-7,0.2
		c-2.8,0-5.8-0.1-9-0.2C52.2,115.8,65,123.8,88.8,124C90.6,124,92.3,123.9,94.1,123.9z"/>
	<path class="st9" d="M77.2,110.5c-1.6-2.1-3.1-4.8-4.2-7.4c-4.2,1.2-9.3,2-15.2,2.3C61.8,107.6,67.6,109.6,77.2,110.5z"/>
</g>
</svg>
