<svg xmlns:rdf="http://www.w3.org/1999/02/22-rdf-syntax-ns#" xmlns="http://www.w3.org/2000/svg" xml:space="preserve" height="720.79" width="1380.8" version="1.1" xmlns:cc="http://creativecommons.org/ns#" xmlns:dc="http://purl.org/dc/elements/1.1/" viewBox="0 0 1380.8375 720.78748"><g fill="#cce31c"><path d="m420.61 403.34 85.374 36.68 23.78 18.315 37.068 16.669v166.5l-146.22-62.832v-175.33"/><path d="m128.16 0.00625 146.22 62.842v175.34l-146.22-62.822v-175.36"/><path d="m128.16 482.59 146.22 62.842v175.36l-146.22-62.839v-175.36"/></g><g><path d="m0 120.34 146.22 62.816v175.35l-146.22-62.84v-175.33" fill="#80d4ce"/><path d="m274.38 165.16 146.23 62.829v175.33l-146.23-62.819v-175.34" fill="#6aa9bd"/><path d="m55.238 275.96 146.25 62.84v175.37l-146.25-62.861v-175.34" fill="#6aa9bd"/><path d="m201.52 249.91 146.23 62.821v175.36l-146.23-62.836v-175.34" fill="#1d3960"/><path d="m274.38 429.1 146.23 62.83v175.36l-146.23-62.825v-175.37" fill="#6aa9bd"/><path d="m566.83 278.63v-91.082l-146.22-62.838v175.34l84.016 36.494c11.05-31.751 32.098-39.869 62.205-57.918" fill="#80d4ce"/><path d="m651.88 433.27 22.8 23.458c-21.075 19.93-50.618 31.64-80.469 31.64-65.12 0-118.12-52.725-118.12-117.62 0-64.859 53-117.62 118.12-117.62 37.885 0 63.888 15.744 80.25 30.989-8.5812 8.0638-18.68 17.529-24.644 23.069-12.708-11.699-28.405-21.884-55.606-21.884-45.515 0-85.495 39.948-85.495 85.445 0 45.522 39.98 85.466 85.495 85.466 27.234 0 45.021-11.296 57.669-22.941m44.255 50.332h32.128v-207.04l-32.128-13.722v220.76zm439.62-112.86c0 65.958-51.894 117.62-118.12 117.62-36.571 0-75.555-19.791-93.739-47.33v-314.55l32.159 13.796v130.42l11.755-6.0225c14.246-7.385 23.6-11.555 49.825-11.555 65.15 0 118.12 52.76 118.12 117.62zm-32.628 0c0-46.288-39.174-85.445-85.489-85.445-22.191 0-43.211 9.1712-59.31 25.901l-2.27 2.3212v114.43l2.2462 2.3425c11.566 12.064 28.801 25.916 59.334 25.916 46.315 0 85.489-39.151 85.489-85.466zm277.71 70.074v40.79l-41.175-18.199-3.7 2.6738c-9.8125 6.9588-36.25 23.175-70.838 23.175-65.118 0-118.12-52.761-118.12-117.62 0-63.781 54.075-117.63 118.12-117.63 37.075 0 76.45 19.794 94.688 47.35v130.38l21.025 9.0762zm-52.712-126.66-2.5625-2.3875c-18.712-17.468-37.912-25.56-60.438-25.56-47.114 0-85.456 38.334-85.456 85.434 0 45.515 39.942 85.44 85.456 85.44 23.6 0 46.412-9.7512 60.962-26.142l2.0375-2.2312v-114.55zm-534.81-40.858-3.8425 2.915-23.424-10.038v217.42h32.16v-169.99l2.1225-2.34c16.464-17.695 35.205-25.971 58.969-25.971 12.832 0 24.802 2.54 35.636 7.585l20.066-25.982c-17.02-8.83-36.74-13.78-55.52-13.78-39.82 0.1-66.04 19.96-66.25 20.18zm-97.182-48.156 32.156 13.874v-37.964l-32.156-13.801v37.891z" fill="#1c395f"/></g></svg>
