<svg xmlns:rdf="http://www.w3.org/1999/02/22-rdf-syntax-ns#" xmlns="http://www.w3.org/2000/svg" height="89.41pt" width="480.22pt" version="1.1" xmlns:cc="http://creativecommons.org/ns#" xmlns:dc="http://purl.org/dc/elements/1.1/" viewBox="0 0 480.22 89.41">
<g>
<path d="m57.467 27.936c-4.336 0-8.306 0.628-11.914 1.878-3.604 1.25-6.705 3.082-9.283 5.489-2.588 2.397-4.599 5.342-6.03 8.808-1.45 3.482-2.164 7.443-2.164 11.881 0 4.439 0.714 8.394 2.164 11.875 1.431 3.472 3.413 6.415 5.948 8.813 2.534 2.412 5.55 4.2 9.046 5.367 3.501 1.186 7.32 1.767 11.446 1.767 1.933 0 3.785-0.157 5.572-0.464 1.768-0.323 3.384-0.674 4.814-1.055 1.436-0.396 2.662-0.839 3.682-1.342 1.021-0.498 1.772-0.958 2.24-1.373l0.703-4.619-0.316-0.313c-0.732 0.581-1.632 1.237-2.701 1.998-1.07 0.757-2.27 1.459-3.608 2.114-1.328 0.654-2.794 1.216-4.39 1.689-1.592 0.464-3.329 0.699-5.209 0.699-3.091 0-5.947-0.489-8.584-1.49-2.632-0.986-4.933-2.509-6.901-4.574-1.953-2.07-3.486-4.684-4.58-7.838-1.098-3.174-1.65-6.918-1.65-11.254 0-4.331 0.552-8.086 1.65-11.25 1.094-3.154 2.627-5.766 4.58-7.842 1.968-2.055 4.269-3.584 6.901-4.58 2.637-0.996 5.493-1.48 8.584-1.48 1.88 0 3.597 0.249 5.17 0.732 1.567 0.493 2.979 1.114 4.234 1.856 1.255 0.722 2.354 1.48 3.301 2.261 0.932 0.787 1.665 1.494 2.187 2.123l0.469-0.166c0.161-0.83 0.366-1.874 0.625-3.128 0.264-1.25 0.596-2.247 1.016-2.975-2.188-0.996-4.708-1.846-7.565-2.559-2.842-0.698-5.995-1.048-9.437-1.048zm40.068 11.914c-3.364 0-6.47 0.497-9.306 1.478-2.837 0.986-5.279 2.422-7.305 4.326-2.041 1.885-3.628 4.196-4.746 6.93-1.138 2.739-1.705 5.85-1.705 9.346 0 3.486 0.567 6.611 1.705 9.336 1.118 2.739 2.705 5.048 4.746 6.933 2.026 1.9 4.468 3.3 7.305 4.233 2.836 0.922 5.942 1.382 9.306 1.382 3.415 0 6.535-0.46 9.375-1.382 2.84-0.933 5.27-2.333 7.3-4.233 2.04-1.885 3.63-4.194 4.75-6.933 1.13-2.725 1.7-5.85 1.7-9.336 0-3.496-0.57-6.607-1.7-9.346-1.12-2.734-2.71-5.045-4.75-6.93-2.03-1.904-4.46-3.34-7.3-4.326-2.84-0.981-5.96-1.478-9.375-1.478zm23.935 1.605c2.27 3.618 4.48 7.169 6.64 10.67 2.15 3.496 4.3 7.051 6.44 10.664-2.35 3.618-4.69 7.182-7.03 10.668-2.34 3.496-4.75 6.954-7.22 10.357 0.41-0.083 0.81-0.126 1.21-0.126h1.07 1.08c0.39 0 0.79 0.043 1.21 0.126 1.72-2.998 3.49-6.049 5.3-9.16 1.81-3.095 3.76-6.212 5.86-9.332 2.09 3.12 3.96 6.237 5.58 9.332 1.62 3.111 3.26 6.162 4.9 9.16 0.57-0.083 1.14-0.126 1.73-0.126h1.72 1.73c0.58 0 1.15 0.043 1.73 0.126-2.47-3.789-4.89-7.583-7.25-11.406-2.37-3.823-4.72-7.725-7.06-11.715 2.1-3.325 4.27-6.557 6.53-9.677 2.27-3.13 4.57-6.309 6.91-9.561-0.9 0.205-1.66 0.309-2.28 0.309s-1.38-0.104-2.28-0.309c-1.73 3.164-3.4 6.069-5.02 8.721-1.63 2.646-3.39 5.381-5.27 8.174-1.9-3.125-3.62-6.036-5.18-8.721-1.57-2.691-3.04-5.42-4.39-8.174-0.57 0.083-1.12 0.156-1.66 0.215-0.54 0.063-1.09 0.094-1.67 0.094s-1.13-0.031-1.66-0.094c-0.53-0.059-1.09-0.132-1.67-0.215zm-23.935 0.68c2.427 0 4.675 0.389 6.755 1.166 2.08 0.786 3.88 1.987 5.42 3.613 1.55 1.621 2.75 3.683 3.61 6.168 0.87 2.485 1.3 5.43 1.3 8.848 0 3.403-0.43 6.351-1.3 8.841-0.86 2.491-2.06 4.546-3.61 6.163-1.54 1.635-3.34 2.827-5.42 3.613-2.08 0.781-4.328 1.168-6.755 1.168-2.383 0-4.61-0.387-6.685-1.168-2.08-0.786-3.891-1.978-5.434-3.613-1.533-1.617-2.739-3.672-3.604-6.163-0.864-2.49-1.298-5.438-1.298-8.841 0-3.418 0.434-6.363 1.298-8.848 0.865-2.485 2.071-4.547 3.604-6.168 1.543-1.626 3.354-2.827 5.434-3.613 2.075-0.777 4.302-1.166 6.685-1.166z" transform="scale(0.8)" fill="#214c8c"/>
<path d="m195.95 28.941c-4.07 9.351-8.13 18.554-12.15 27.592s-8.15 18.135-12.38 27.276c0.88-0.108 1.85-0.157 2.9-0.157 1.04 0 2.01 0.049 2.89 0.157 0.68-2.403 1.71-5.444 3.07-9.125 1.35-3.687 2.87-7.575 4.54-11.647 1.62-0.049 3.21-0.092 4.79-0.111 1.56-0.03 3.15-0.039 4.77-0.039 1.73 0 3.45 0.009 5.18 0.039 1.72 0.019 3.42 0.062 5.09 0.111 0.68 1.729 1.42 3.541 2.2 5.445 0.78 1.914 1.55 3.794 2.31 5.645 0.76 1.86 1.45 3.638 2.08 5.332 0.63 1.699 1.12 3.148 1.49 4.35 0.73-0.108 1.42-0.157 2.07-0.157h2.08 2.08c0.65 0 1.34 0.049 2.08 0.157-0.68-1.25-1.56-3.08-2.63-5.493-1.07-2.392-2.27-5.132-3.61-8.179-1.33-3.057-2.75-6.366-4.27-9.916-1.52-3.56-3.03-7.14-4.54-10.739-1.52-3.608-3.01-7.186-4.47-10.707-1.47-3.525-2.83-6.806-4.08-9.834h-1.49zm-1.1 10.586l8.71 19.907c-1.47 0.048-2.94 0.093-4.39 0.123-1.47 0.019-2.93 0.029-4.39 0.029-1.36 0-2.77-0.021-4.24-0.084-1.46-0.044-2.87-0.068-4.23-0.068l8.54-19.907zm118.81 0.303c-3.36 0-6.46 0.502-9.3 1.488-2.84 0.982-5.27 2.423-7.31 4.323-2.04 1.889-3.62 4.198-4.75 6.927-1.13 2.74-1.69 5.856-1.69 9.352s0.56 6.611 1.69 9.346c1.13 2.729 2.71 5.038 4.75 6.927 2.04 1.9 4.47 3.302 7.31 4.235 2.84 0.923 5.94 1.381 9.3 1.381 3.42 0 6.55-0.458 9.39-1.381 2.83-0.933 5.27-2.335 7.3-4.235 2.04-1.889 3.62-4.198 4.75-6.927 1.13-2.735 1.69-5.85 1.69-9.346s-0.56-6.612-1.69-9.352c-1.13-2.729-2.71-5.038-4.75-6.927-2.03-1.9-4.47-3.341-7.3-4.323-2.84-0.986-5.97-1.488-9.39-1.488zm99 0c-3.38 0-6.48 0.502-9.31 1.488-2.85 0.982-5.28 2.423-7.32 4.323-2.03 1.889-3.61 4.198-4.74 6.927-1.14 2.74-1.7 5.856-1.7 9.352s0.56 6.611 1.7 9.346c1.13 2.729 2.71 5.038 4.74 6.927 2.04 1.9 4.47 3.302 7.32 4.235 2.83 0.923 5.93 1.381 9.31 1.381 3.41 0 6.53-0.458 9.37-1.381 2.83-0.933 5.27-2.335 7.31-4.235 2.03-1.889 3.62-4.198 4.75-6.927 1.13-2.735 1.69-5.85 1.69-9.346s-0.56-6.612-1.69-9.352c-1.13-2.729-2.72-5.038-4.75-6.927-2.04-1.9-4.48-3.341-7.31-4.323-2.84-0.986-5.96-1.488-9.37-1.488zm-191.62 0.815c0.07 1.85 0.16 4.112 0.24 6.783 0.08 2.666 0.13 5.736 0.13 9.183 0 1.568-0.06 3.097-0.15 4.596-0.11 1.504-0.16 3.217-0.16 5.15 0 6.04 1.4 10.464 4.19 13.272 2.8 2.783 7.27 4.18 13.45 4.18 2.79 0 5.27-0.386 7.42-1.172 2.16-0.777 3.98-1.939 5.46-3.457 1.49-1.519 2.63-3.368 3.42-5.541 0.81-2.183 1.23-4.65 1.27-7.409 0.04-2.26 0.1-4.593 0.18-6.996 0.09-2.402 0.17-4.751 0.25-7.031s0.18-4.419 0.31-6.416c0.12-1.992 0.25-3.702 0.37-5.142-0.7 0.205-1.32 0.302-1.85 0.302-0.42 0-0.82-0.023-1.23-0.092-0.42-0.063-0.84-0.137-1.29-0.21 0.15 1.191 0.26 3.369 0.3 6.533s0.06 7.661 0.06 13.506c0 1.279-0.02 2.676-0.06 4.195-0.04 1.523-0.19 3.041-0.43 4.564-0.25 1.519-0.65 2.974-1.21 4.375-0.55 1.402-1.32 2.627-2.31 3.702-0.98 1.074-2.25 1.934-3.79 2.593s-3.44 0.987-5.7 0.987c-2.31 0-4.24-0.284-5.8-0.83-1.56-0.552-2.86-1.32-3.89-2.291-1.03-0.962-1.82-2.094-2.37-3.383-0.56-1.299-0.96-2.658-1.2-4.078-0.25-1.416-0.4-2.875-0.43-4.379-0.05-1.494-0.07-2.95-0.07-4.346 0-2.305 0.02-4.522 0.07-6.66 0.03-2.134 0.1-4.137 0.18-5.983 0.08-1.845 0.17-3.504 0.25-4.964 0.07-1.456 0.16-2.643 0.24-3.541-0.45 0.073-0.89 0.147-1.32 0.21-0.43 0.069-0.88 0.092-1.33 0.092-0.49 0-1.03-0.023-1.6-0.092-0.58-0.063-1.12-0.137-1.6-0.21zm123.56 0c-0.34 3.281-0.73 6.749-1.18 10.396-0.45 3.633-0.95 7.314-1.48 11.064-0.53 3.746-1.09 7.461-1.67 11.163-0.57 3.701-1.12 7.215-1.66 10.541 0.66-0.083 1.38-0.127 2.16-0.127s1.5 0.044 2.16 0.127c0-1.646 0.1-3.755 0.3-6.319 0.21-2.568 0.46-5.302 0.75-8.197 0.28-2.9 0.6-5.846 0.95-8.824 0.35-2.984 0.67-5.742 0.96-8.291h0.12c2.72 5.425 5.42 10.737 8.11 15.937 2.69 5.21 5.27 10.391 7.75 15.567h0.55c2.46-5.586 5.06-10.943 7.8-16.055 2.73-5.122 5.52-10.269 8.35-15.449h0.13c0.66 5.337 1.21 10.587 1.65 15.728 0.47 5.127 0.92 10.434 1.37 15.903 0.49-0.083 0.98-0.127 1.45-0.127h1.45 1.44c0.48 0 0.97 0.044 1.46 0.127-0.49-3.404-0.96-6.855-1.36-10.317-0.41-3.481-0.82-6.992-1.23-10.556-0.41-3.555-0.82-7.174-1.21-10.856-0.39-3.677-0.81-7.495-1.26-11.435h-0.8c-1.03 1.884-2.14 3.925-3.33 6.093-1.2 2.188-2.4 4.405-3.61 6.67-1.22 2.266-2.41 4.488-3.58 6.686-1.17 2.212-2.27 4.252-3.3 6.136-1.03 1.895-1.93 3.576-2.71 5.036s-1.38 2.573-1.78 3.359c-3.17-5.806-6.2-11.455-9.11-16.963-2.9-5.503-5.76-11.183-8.6-17.017h-1.04zm-84.43 0.796c0.2 0.826 0.31 1.464 0.31 1.909 0 0.576-0.11 1.235-0.31 1.972 0.86-0.112 1.84-0.219 2.93-0.312 1.09-0.078 2.22-0.152 3.39-0.205 1.17-0.069 2.34-0.098 3.52-0.127 1.17-0.015 2.29-0.03 3.36-0.03 0.12 4.239 0.18 8.498 0.18 12.77v10.609c0 2.71-0.05 5.386-0.16 8.008-0.09 2.637-0.21 5.23-0.34 7.774 0.95-0.083 1.96-0.127 3.03-0.127 1.06 0 2.08 0.044 3.02 0.127-0.13-2.544-0.24-5.137-0.34-7.774-0.1-2.622-0.15-5.298-0.15-8.008v-10.609c0-4.272 0.06-8.531 0.18-12.77 1.07 0 2.19 0.015 3.37 0.03 1.17 0.029 2.34 0.058 3.51 0.127 1.18 0.053 2.3 0.127 3.39 0.205 1.09 0.093 2.07 0.2 2.93 0.312-0.21-0.737-0.3-1.371-0.3-1.908 0-0.488 0.09-1.147 0.3-1.973-2.71 0.083-5.36 0.157-7.96 0.215-2.59 0.069-5.24 0.092-7.95 0.092s-5.37-0.023-7.96-0.092c-2.59-0.058-5.24-0.132-7.95-0.215zm174.78 0c0.19 0.826 0.3 1.464 0.3 1.909 0 0.576-0.11 1.235-0.3 1.972 0.86-0.112 1.84-0.219 2.92-0.312 1.09-0.078 2.22-0.152 3.4-0.205 1.16-0.069 2.34-0.098 3.51-0.127 1.17-0.015 2.29-0.03 3.35-0.03 0.14 4.239 0.2 8.498 0.2 12.77v10.609c0 2.71-0.06 5.386-0.16 8.008-0.11 2.637-0.21 5.23-0.34 7.774 0.95-0.083 1.96-0.127 3.02-0.127 1.07 0 2.08 0.044 3.03 0.127-0.13-2.544-0.24-5.137-0.35-7.774-0.1-2.622-0.15-5.298-0.15-8.008v-10.609c0-4.272 0.06-8.531 0.19-12.77 1.07 0 2.19 0.015 3.36 0.03 1.17 0.029 2.33 0.058 3.52 0.127 1.17 0.053 2.3 0.127 3.38 0.205 1.09 0.093 2.07 0.2 2.94 0.312-0.2-0.737-0.32-1.371-0.32-1.908 0-0.488 0.12-1.147 0.32-1.973-2.72 0.083-5.37 0.157-7.96 0.215-2.59 0.069-5.24 0.092-7.96 0.092s-5.37-0.023-7.95-0.092c-2.59-0.058-5.24-0.132-7.95-0.215zm37.05 0c0.13 2.715 0.24 5.381 0.34 7.989 0.11 2.612 0.17 5.273 0.17 7.988v10.609c0 2.71-0.06 5.386-0.17 8.008-0.1 2.637-0.21 5.23-0.34 7.774 0.95-0.083 1.96-0.127 3.03-0.127 1.06 0 2.08 0.044 3.02 0.127-0.12-2.544-0.23-5.137-0.34-7.774-0.11-2.622-0.15-5.298-0.15-8.008v-10.609c0-2.715 0.04-5.376 0.15-7.988 0.11-2.608 0.22-5.274 0.34-7.989-0.53 0.083-1.05 0.157-1.55 0.215-0.48 0.069-0.98 0.092-1.47 0.092s-0.99-0.023-1.48-0.092c-0.49-0.058-1.01-0.132-1.55-0.215zm11.11 0c1.48 3.54 3.03 7.281 4.65 11.221 1.62 3.95 3.21 7.817 4.75 11.596 1.54 3.784 2.99 7.384 4.35 10.797 1.35 3.408 2.51 6.332 3.45 8.754 0.53-0.083 1.21-0.127 2.03-0.127 0.7 0 1.39 0.044 2.04 0.127 2.73-7.032 5.56-14.058 8.52-21.084 2.96-7.037 6.04-14.13 9.24-21.284-0.9 0.21-1.66 0.307-2.28 0.307s-1.37-0.097-2.28-0.307c-0.46 1.358-1.01 2.964-1.67 4.815-0.65 1.841-1.38 3.837-2.18 5.98-0.81 2.139-1.63 4.371-2.5 6.686-0.86 2.329-1.74 4.613-2.62 6.849-0.88 2.247-1.76 4.406-2.62 6.471-0.87 2.085-1.67 3.965-2.42 5.645-1.3-3.116-2.6-6.265-3.87-9.434-1.28-3.164-2.52-6.284-3.74-9.375-1.21-3.076-2.36-6.109-3.45-9.098-1.08-2.978-2.09-5.824-2.99-8.539-0.57 0.083-1.13 0.157-1.66 0.215-0.53 0.069-1.06 0.092-1.55 0.092s-1.01-0.023-1.54-0.092c-0.54-0.058-1.09-0.132-1.66-0.215zm44.09 0c0.13 2.637 0.24 5.263 0.34 7.895 0.1 2.637 0.16 5.304 0.16 8.023v10.606c0 2.715-0.06 5.371-0.16 7.988-0.1 2.603-0.21 5.224-0.34 7.856 1.9-0.083 3.76-0.127 5.62-0.127h5.61 5.58c1.83 0 3.67 0.044 5.52 0.127-0.13-0.411-0.19-0.943-0.19-1.612 0-0.278 0.01-0.599 0.03-0.941 0.02-0.357 0.07-0.67 0.16-0.963-0.99 0.205-2.15 0.366-3.49 0.459-1.33 0.112-2.75 0.19-4.26 0.254-1.49 0.058-3.02 0.094-4.59 0.094h-4.31c-0.05-0.782-0.08-1.939-0.1-3.457-0.02-1.519-0.03-3.453-0.03-5.791v-6.11c0-0.659 0.01-1.2 0.03-1.635 0.02-0.429 0.04-0.831 0.04-1.197 0.74 0 1.73 0.006 2.98 0.026 1.26 0.029 2.59 0.038 4.01 0.062 1.42 0.02 2.84 0.069 4.27 0.152 1.41 0.079 2.65 0.185 3.72 0.307-0.12-0.615-0.19-1.225-0.19-1.85 0-0.659 0.07-1.294 0.19-1.91-0.9 0.078-1.86 0.157-2.87 0.215-1 0.064-2.11 0.128-3.3 0.182-1.2 0.068-2.5 0.121-3.94 0.16s-3.07 0.058-4.87 0.058c0-0.776-0.02-1.927-0.04-3.451-0.02-1.518-0.03-3.087-0.03-4.683 0-1.524 0.03-2.886 0.09-4.082 0.07-1.187 0.12-2.442 0.15-3.75 2.04 0 3.75 0.024 5.19 0.088 1.43 0.058 2.76 0.136 3.98 0.214 1.21 0.079 2.36 0.167 3.46 0.25 1.08 0.083 2.29 0.165 3.59 0.239-0.12-0.616-0.18-1.225-0.18-1.85 0-0.61 0.06-1.23 0.18-1.846-1.84 0.083-3.67 0.157-5.48 0.215-1.81 0.069-3.64 0.092-5.49 0.092s-3.69-0.023-5.52-0.092c-1.83-0.058-3.67-0.132-5.52-0.215zm-213.54 0.684c2.44 0 4.69 0.386 6.77 1.162 2.07 0.791 3.88 1.991 5.42 3.617 1.54 1.621 2.75 3.672 3.6 6.162 0.87 2.491 1.3 5.441 1.3 8.854 0 3.408-0.43 6.356-1.3 8.851-0.85 2.481-2.06 4.542-3.6 6.159-1.54 1.626-3.35 2.827-5.42 3.613-2.08 0.781-4.33 1.166-6.77 1.166-2.38 0-4.61-0.385-6.68-1.166-2.08-0.786-3.89-1.987-5.43-3.613-1.54-1.617-2.75-3.678-3.6-6.159-0.87-2.495-1.3-5.443-1.3-8.851 0-3.413 0.43-6.363 1.3-8.854 0.85-2.49 2.06-4.541 3.6-6.162 1.54-1.626 3.35-2.826 5.43-3.617 2.07-0.776 4.3-1.162 6.68-1.162zm99 0c2.42 0 4.67 0.386 6.74 1.162 2.08 0.791 3.89 1.991 5.43 3.617 1.54 1.621 2.75 3.672 3.62 6.162 0.86 2.491 1.29 5.441 1.29 8.854 0 3.408-0.43 6.356-1.29 8.851-0.87 2.481-2.08 4.542-3.62 6.159-1.54 1.626-3.35 2.827-5.43 3.613-2.07 0.781-4.32 1.166-6.74 1.166-2.39 0-4.62-0.385-6.69-1.166-2.08-0.786-3.89-1.987-5.44-3.613-1.53-1.617-2.74-3.678-3.61-6.159-0.85-2.495-1.29-5.443-1.29-8.851 0-3.413 0.44-6.363 1.29-8.854 0.87-2.49 2.08-4.541 3.61-6.162 1.55-1.626 3.36-2.826 5.44-3.617 2.07-0.776 4.3-1.162 6.69-1.162z" transform="scale(0.8)" fill="#787d7f"/>
<path d="m564.74 41.084l-0.65 10.762h1.1l0.21-4.535c0.06-1.534 0.15-3.048 0.13-4.303h0.03c0.25 1.25 0.53 2.584 0.91 3.951l1.25 4.834h0.8l1.3-5.045c0.35-1.26 0.63-2.539 0.85-3.74h0.08c-0.04 1.211 0.03 2.789 0.11 4.215l0.23 4.623h1.14l-0.62-10.762h-1.37l-1.22 4.928c-0.35 1.44-0.6 2.47-0.79 3.72h-0.05c-0.23-1.25-0.48-2.309-0.88-3.72l-1.23-4.928h-1.33zm-6.69 0.006v1.113h1.96v9.643h1.24v-9.643h1.96v-1.113h-5.16z" transform="scale(0.8)" fill="#787d7f"/>
</g>
</svg>
