<svg xmlns:rdf="http://www.w3.org/1999/02/22-rdf-syntax-ns#" xmlns="http://www.w3.org/2000/svg" xml:space="preserve" viewBox="0 0 384 89" version="1.1" xmlns:cc="http://creativecommons.org/ns#" xmlns:dc="http://purl.org/dc/elements/1.1/"><g transform="matrix(1.25,0,0,-1.25,0,89)"><g transform="scale(1.0043)"><path d="m37.038 66.667h4.2195v4.2277h-4.2195v-4.2277z" fill="#f9ab1c"/><path d="m29.629 66.667h4.2207v4.2277h-4.2207v-4.2277z" fill="#ef2a49"/><path d="m37.038 59.26h4.2195v4.2234h-4.2195v-4.2234z" fill="#ef2a49"/><path d="m29.629 59.26h4.2207v4.2234h-4.2207v-4.2234z" fill="#9c1831"/><path d="m51.852 51.852h4.2238v4.2277h-4.2238v-4.2277z" fill="#f9ab1c"/><path d="m44.445 44.446h4.2207v4.2234h-4.2207v-4.2234z" fill="#b16e1d"/><path d="m44.445 51.852h4.2207v4.2277h-4.2207v-4.2277z" fill="#ef2a49"/><path d="m51.852 59.26h4.2238v4.2234h-4.2238v-4.2234z" fill="#ef2a49"/><path d="m44.445 59.26h4.2207v4.2234h-4.2207v-4.2234z" fill="#9c1831"/><path d="m66.669 51.852h4.2207v4.2277h-4.2207v-4.2277z" fill="#f9ab1c"/><path d="m81.481 51.852h4.223v4.2277h-4.223v-4.2277z" fill="#b16e1d"/><path d="m59.26 51.852h4.2207v4.2277h-4.2207v-4.2277z" fill="#ef2a49"/><path d="m66.669 59.26h4.2207v4.2234h-4.2207v-4.2234z" fill="#ef2a49"/><path d="m44.445 66.667h4.2207v4.2277h-4.2207v-4.2277z" fill="#9c1831"/><path d="m37.038 51.852h4.2195v4.2277h-4.2195v-4.2277z" fill="#f9ab1c"/><path d="m22.221 59.26h4.2266v4.2234h-4.2266v-4.2234z" fill="#f9ab1c"/><path d="m29.629 51.852h4.2207v4.2277h-4.2207v-4.2277z" fill="#ef2a49"/><path d="m37.038 44.446h4.2195v4.2234h-4.2195v-4.2234z" fill="#b16e1d"/><path d="m22.221 51.852h4.2266v4.2277h-4.2266v-4.2277z" fill="#b16e1d"/><path d="m29.629 44.446h4.2207v4.2234h-4.2207v-4.2234z" fill="#9c1831"/><path d="m51.852 37.041h4.2238v4.2207h-4.2238v-4.2207z" fill="#b16e1d"/><path d="m44.445 37.041h4.2207v4.2207h-4.2207v-4.2207z" fill="#ef2a49"/><path d="m51.852 44.446h4.2238v4.2234h-4.2238v-4.2234z" fill="#ef2a49"/><path d="m44.445 0h4.2207v4.2246h-4.2207v-4.2246z" fill="#b16e1d"/><path d="m37.038 0h4.2195v4.2246h-4.2195v-4.2246z" fill="#b16e1d"/><path d="m51.852 0h4.2238v4.2246h-4.2238v-4.2246z" fill="#ef2a49"/><path d="m59.26 7.4082h4.2207v4.2266h-4.2207v-4.2266z" fill="#ef2a49"/><path d="m37.038 37.041h4.2195v4.2207h-4.2195v-4.2207z" fill="#f9ab1c"/><path d="m37.038 7.2996h4.2195v4.2199h-4.2195v-4.2199z" fill="#f9ab1c"/><path d="m29.629 37.041h4.2207v4.2207h-4.2207v-4.2207z" fill="#ef2a49"/><path d="m37.038 29.629h4.2195v4.2285h-4.2195v-4.2285z" fill="#b16e1d"/><path d="m29.629 29.629h4.2207v4.2285h-4.2207v-4.2285z" fill="#9c1831"/><path d="m51.852 22.222h4.2238v4.2277h-4.2238v-4.2277z" fill="#f9ab1c"/><path d="m44.445 14.814h4.2207v4.2266h-4.2207v-4.2266z" fill="#b16e1d"/><path d="m44.445 22.222h4.2207v4.2277h-4.2207v-4.2277z" fill="#ef2a49"/><path d="m51.852 29.629h4.2238v4.2285h-4.2238v-4.2285z" fill="#ef2a49"/><path d="m44.445 29.629h4.2207v4.2285h-4.2207v-4.2285z" fill="#9c1831"/><path d="m37.038 22.222h4.2195v4.2277h-4.2195v-4.2277z" fill="#f9ab1c"/><path d="m29.629 22.222h4.2207v4.2277h-4.2207v-4.2277z" fill="#b16e1d"/><path d="m14.812 44.446h4.2246v4.2234h-4.2246v-4.2234z" fill="#b16e1d"/><path d="m22.221 37.041h4.2266v4.2207h-4.2266v-4.2207z" fill="#f9ab1c"/><g fill="#ef2a49"><path d="m29.629 7.4082h4.2207v4.2266h-4.2207v-4.2266z"/><path d="m14.812 37.041h4.2246v4.2207h-4.2246v-4.2207z"/><path d="m22.221 44.446h4.2266v4.2234h-4.2266v-4.2234z"/></g><path d="m7.4062 37.041h4.2207v4.2207h-4.2207v-4.2207z" fill="#f9ab1c"/><path d="m0 37.041h4.2207v4.2207h-4.2207v-4.2207z" fill="#ef2a49"/><path d="m7.4062 29.629h4.2207v4.2285h-4.2207v-4.2285z" fill="#ef2a49"/><path d="m0 29.629h4.2207v4.2285h-4.2207v-4.2285z" fill="#9c1831"/><path d="m22.221 22.222h4.2266v4.2277h-4.2266v-4.2277z" fill="#f9ab1c"/><g fill="#ef2a49"><path d="m14.812 22.222h4.2246v4.2277h-4.2246v-4.2277z"/><path d="m22.221 29.629h4.2266v4.2285h-4.2266v-4.2285z"/><path d="m22.221 14.814h4.2266v4.2266h-4.2266v-4.2266z"/></g><path d="m14.812 29.629h4.2246v4.2285h-4.2246v-4.2285z" fill="#b16e1d"/><path d="m7.4062 14.814h4.2207v4.2266h-4.2207v-4.2266z" fill="#ef2a49"/><path d="m14.812 14.814h4.2246v4.2266h-4.2246v-4.2266z" fill="#9c1831"/><path d="m7.4062 22.222h4.2207v4.2277h-4.2207v-4.2277z" fill="#f9ab1c"/><path d="m0 22.222h4.2207v4.2277h-4.2207v-4.2277z" fill="#ef2a49"/><path d="m74.072 59.26h4.2246v4.2234h-4.2246v-4.2234z" fill="#9c1831"/><path d="m74.072 51.852h4.2246v4.2277h-4.2246v-4.2277z" fill="#ef2a49"/><path d="m74.072 14.814h4.2246v4.2266h-4.2246v-4.2266z" fill="#f9ab1c"/><path d="m59.26 14.814h4.2207v4.2266h-4.2207v-4.2266z" fill="#b16e1d"/><path d="m74.072 7.4082h4.2246v4.2266h-4.2246v-4.2266z" fill="#ef2a49"/><path d="m66.669 7.4082h4.2207v4.2266h-4.2207v-4.2266z" fill="#9c1831"/><g fill="#ef2a49"><path d="m66.669 14.814h4.2207v4.2266h-4.2207v-4.2266z"/><path d="m81.481 14.814h4.223v4.2266h-4.223v-4.2266z"/><path d="m103.71 37.041h4.2199v4.2207h-4.2199v-4.2207z"/></g><path d="m96.298 37.041h4.2211v4.2207h-4.2211v-4.2207z" fill="#f9ab1c"/><path d="m88.892 37.041h4.2203v4.2207h-4.2203v-4.2207z" fill="#ef2a49"/><path d="m96.298 29.629h4.2211v4.2285h-4.2211v-4.2285z" fill="#ef2a49"/><path d="m88.892 29.629h4.2203v4.2285h-4.2203v-4.2285z" fill="#9c1831"/><path d="m59.26 22.222h4.2207v4.2277h-4.2207v-4.2277z" fill="#ef2a49"/><path d="m103.71 29.629h4.2199v4.2285h-4.2199v-4.2285z" fill="#9c1831"/><path d="m66.669 22.222h4.2207v4.2277h-4.2207v-4.2277z" fill="#f9ab1c"/><path d="m74.072 22.222h4.2246v4.2277h-4.2246v-4.2277z" fill="#ef2a49"/><path d="m81.481 37.041h4.223v4.2207h-4.223v-4.2207z" fill="#f9ab1c"/><path d="m74.072 37.041h4.2246v4.2207h-4.2246v-4.2207z" fill="#9c1831"/><path d="m66.669 37.041h4.2207v4.2207h-4.2207v-4.2207z" fill="#f9ab1c"/><path d="m59.26 37.041h4.2207v4.2207h-4.2207v-4.2207z" fill="#ef2a49"/><path d="m66.669 29.629h4.2207v4.2285h-4.2207v-4.2285z" fill="#9c1831"/><path d="m59.26 29.629h4.2207v4.2285h-4.2207v-4.2285z" fill="#b16e1d"/><path d="m81.481 22.222h4.223v4.2277h-4.223v-4.2277z" fill="#f9ab1c"/><path d="m88.892 22.222h4.2203v4.2277h-4.2203v-4.2277z" fill="#ef2a49"/><path d="m81.481 29.629h4.223v4.2285h-4.223v-4.2285z" fill="#ef2a49"/><path d="m74.072 29.629h4.2246v4.2285h-4.2246v-4.2285z" fill="#b16e1d"/><path d="m96.298 22.222h4.2211v4.2277h-4.2211v-4.2277z" fill="#f9ab1c"/><path d="m103.71 22.222h4.2199v4.2277h-4.2199v-4.2277z" fill="#ef2a49"/><path d="m59.26 44.446h4.2207v4.2234h-4.2207v-4.2234z" fill="#f9ab1c"/><path d="m66.669 44.446h4.2207v4.2234h-4.2207v-4.2234z" fill="#ef2a49"/><path d="m74.072 44.446h4.2246v4.2234h-4.2246v-4.2234z" fill="#f9ab1c"/><path d="m81.481 44.446h4.223v4.2234h-4.223v-4.2234z" fill="#ef2a49"/><path d="m88.892 44.446h4.2203v4.2234h-4.2203v-4.2234z" fill="#f9ab1c"/><path d="m96.298 44.446h4.2211v4.2234h-4.2211v-4.2234z" fill="#ef2a49"/><path d="m88.892 14.814h4.2203v4.2266h-4.2203v-4.2266z" fill="#ef2a49"/><path d="m96.298 14.814h4.2211v4.2266h-4.2211v-4.2266z" fill="#f9ab1c"/><path d="m37.038 14.814h4.2195v4.2266h-4.2195v-4.2266z" fill="#b16e1d"/><path d="m29.629 14.814h4.2207v4.2266h-4.2207v-4.2266z" fill="#9c1831"/><path d="m51.852 7.4082h4.2238v4.2266h-4.2238v-4.2266z" fill="#b16e1d"/><path d="m44.445 7.4082h4.2207v4.2266h-4.2207v-4.2266z" fill="#ef2a49"/><path d="m51.852 14.814h4.2238v4.2266h-4.2238v-4.2266z" fill="#f9ab1c"/><path d="m350.57 33.66v24.92h2.5234v-4.9688l3.3574-3.8516 5.459 8.8203h3.1152l-6.8594-10.641 5.8438-6.5781h-3.1484l-7.7676 8.959v-16.66h-2.5234zm-68.232 2.416v5.3906h-2.1699v1.9238h2.1699v10.57c0 2.5552 1.4695 4.6191 4.4082 4.6191h1.7852v-2.1699h-1.3262c-1.6112 0-2.3476-0.94478-2.3476-2.5195v-10.5h3.6738v-1.9238h-3.6738v-5.3906h-2.5195zm-125.17 4.0605c-1.6788 0-3.3601 0.62892-4.5488 1.8887v-1.6797h-4.4453v18.234h4.5508v-11.023c0-2.4854 1.6099-3.3262 3.0449-3.3262s3.0078 0.8408 3.0078 3.3262v11.023h4.5527v-11.654c0-1.9956-0.38546-3.7099-1.8555-5.1797-1.015-1.0151-2.4866-1.6094-4.3066-1.6094zm36.43 0c-3.045 0-4.7951 0.55953-6.5801 2.5195l2.9063 2.834c0.94374-1.085 1.7487-1.5039 3.5-1.5039 2.4137 0 3.3926 0.87547 3.3926 2.8711v0.9082h-4.3027c-4.235 0-6.2324 2.3799-6.2324 5.2852 0 1.6114 0.52781 3.0796 1.5078 4.0938 1.085 1.0855 2.5893 1.6113 4.6543 1.6113 2.0988 0 3.2548-0.52438 4.4785-1.75v1.5742h4.4473v-12.004c0-4.27-2.6615-6.4395-7.7715-6.4395zm17.777 0c-1.7862 0-3.3612 0.59425-4.375 1.6094-1.7162 1.7148-1.8555 4.0235-1.8555 7.209 0 3.1851 0.13922 5.5308 1.8555 7.2461 1.0138 1.0142 2.5541 1.6094 4.3379 1.6094 1.7862 0 3.1518-0.48936 4.3418-1.8184v1.8535c0 1.8554-0.94507 3.7812-3.6738 3.7812-1.5412 0-2.5573-0.42002-3.5723-1.4004l-2.834 2.8691c1.89 1.8198 3.814 2.3809 6.6152 2.3809 4.8988 0 8.0156-3.1855 8.0156-7.5605v-17.57h-4.4121v1.7148c-1.2588-1.4004-2.5196-1.9238-4.4434-1.9238zm20.646 0c-4.725 0-7.9453 3.359-7.9453 9.3086 0 7.3852 4.1293 9.3438 8.4356 9.3438 3.29 0.000001 5.0734-1.0132 6.9297-2.8672l-2.7637-2.6953c-1.155 1.1548-2.1359 1.7129-4.1309 1.7129-2.5562 0-3.9902-1.7143-3.9902-4.0605h11.41v-2.0273c0-5.0054-2.8703-8.7148-7.9453-8.7148zm-64.355 0.20898v11.654c0 1.9946 0.38547 3.7119 1.8555 5.1816 1.015 1.0146 2.4847 1.6074 4.3047 1.6074 1.6788 0.000001 3.3601-0.62892 4.5488-1.8887v1.6797h4.4453v-18.234h-4.5488v11.025c0 2.4854-1.6099 3.3242-3.0449 3.3242s-3.0117-0.83884-3.0117-3.3242v-11.025h-4.5488zm84.092 0.80469c-1.9262 0-3.6051 0.70023-4.8301 2.0996v-1.8887h-2.5215v17.219h2.5215v-10.604c0-3.0102 1.6795-4.5859 4.2695-4.5859 2.5888 0 4.2363 1.5404 4.2363 4.5859v10.604h2.5176v-11.023c0-1.9956-0.5582-3.6055-1.7832-4.7949-1.05-1.0508-2.5552-1.6113-4.4102-1.6113zm18.092 0c-4.375 0-7.0684 3.2553-7.0684 8.8203 0 6.0898 2.9754 8.8184 7.5254 8.8184 2.94 0 4.5469-0.9087 6.2969-2.6582l-1.72-1.506c-1.3662 1.3662-2.5194 1.9609-4.5156 1.9609-3.2888 0-5.0762-2.17-5.0762-5.9492h11.621v-1.1562c0-5.1104-2.6241-8.3301-7.0703-8.3301zm54.271 0c-2.1 0-3.7443 0.77044-4.9356 1.9609-1.7488 1.7851-2.0996 4.1991-2.0996 6.8594 0 2.6596 0.35086 5.0732 2.0996 6.8594 1.1912 1.19 2.8356 1.959 4.9356 1.959 2.1 0.000001 3.7468-0.76898 4.9356-1.959 1.7512-1.7861 2.0996-4.1998 2.0996-6.8594 0-2.6602-0.34836-5.0742-2.0996-6.8594-1.1888-1.1905-2.8356-1.9609-4.9356-1.9609zm19.422 0c-1.995 0-3.8831 0.87505-4.8281 2.3105v-2.0996h-2.5234v17.219h2.5234v-10.568c0-2.626 1.6082-4.6211 4.127-4.6211 1.3312 0 2.0316 0.31539 2.9766 1.2598l1.8555-1.8887c-1.2262-1.2251-2.4859-1.6113-4.1309-1.6113zm30.898 0c-3.675 0-6.334 1.8896-6.334 5.0391 0 2.8354 1.7865 4.3403 5.1465 4.6211l2.834 0.24414c1.995 0.17588 2.8711 1.0175 2.8711 2.5215 0 2.0312-1.7509 3.0449-4.5859 3.0449-2.1362 0-3.9905-0.56059-5.3555-1.9961l-1.6797 1.6816c1.89 1.8199 4.1634 2.4824 7.0684 2.4824 4.165 0 7-1.9228 7-5.248 0-3.2202-2.0635-4.3755-5.0723-4.6562l-2.7656-0.24414c-2.1712-0.17575-3.0117-1.0499-3.0117-2.5195 0-1.751 1.3309-2.8359 3.8496-2.8359 1.785 0 3.3609 0.42086 4.5859 1.3652l1.6465-1.6445c-1.5412-1.2598-3.746-1.8555-6.1973-1.8555zm-84.016 0.21094 5.459 17.219h2.3457l4.4805-13.369 4.5137 13.369h2.3457l5.4258-17.219h-2.7285l-3.9219 13.824-4.5508-13.824h-2.1699l-4.5137 13.824-3.957-13.824h-2.7285zm-20.576 1.9238c1.8212 0 3.3591 1.0151 4.0254 2.5898 0.38375 0.94438 0.45414 1.4712 0.52539 2.8711h-9.1016c0.07-1.3999 0.14234-1.9267 0.52734-2.8711 0.66375-1.5748 2.2047-2.5898 4.0234-2.5898zm54.271 0.10547c1.225 0 2.3454 0.45514 3.1504 1.2598 1.26 1.2608 1.3633 3.3949 1.3633 5.3203 0 1.9248-0.10328 4.0591-1.3633 5.3203-0.805 0.80475-1.9254 1.2598-3.1504 1.2598-1.2262 0-2.3083-0.45502-3.1133-1.2598-1.26-1.2612-1.4023-3.3956-1.4023-5.3203 0-1.9254 0.14234-4.0596 1.4023-5.3203 0.805-0.80462 1.887-1.2598 3.1133-1.2598zm-92.1 0.52539c1.54 0 2.5537 0.80525 3.0449 1.8906 0.28 0.66462 0.38493 1.1542 0.41993 1.959h-6.9297c0.035-0.80475 0.13992-1.2944 0.41992-1.959 0.48875-1.0854 1.5049-1.8906 3.0449-1.8906zm-19.352 0.31445c2.695 0 3.0098 2.3101 3.0098 4.7246 0 2.4146-0.31476 4.7617-3.0098 4.7617s-2.9746-2.3471-2.9746-4.7617c0-2.4145 0.27961-4.7246 2.9746-4.7246zm-19.457 6.6484h3.6035v0.98242c0 1.1196-0.17281 1.8536-0.66406 2.3086-0.805 0.76912-1.6104 0.875-2.8691 0.875-1.785 0-2.627-0.83973-2.627-2.0996 0-1.2939 0.91164-2.0664 2.5566-2.0664z" transform="matrix(.8 0 0 -.8 0 71.2)" fill="#231f20"/></g></g></svg>
