<svg xmlns:rdf="http://www.w3.org/1999/02/22-rdf-syntax-ns#" xmlns="http://www.w3.org/2000/svg" xml:space="preserve" height="473.95" viewBox="0 0 1365.4275 473.94864" width="1365.4" version="1.1" xmlns:cc="http://creativecommons.org/ns#" xmlns:dc="http://purl.org/dc/elements/1.1/"><g transform="matrix(1.25 0 0 -1.25 -132.44 544.48)"><path d="m295.53 435.58c104.7 0 189.58-84.878 189.58-189.58s-84.878-189.58-189.58-189.58-189.58 84.878-189.58 189.58 84.878 189.58 189.58 189.58z" clip-rule="evenodd" fill="#339d3d"/><path d="m1174.4 277.48c0 0.838-0.36 1.259-1.08 1.259h-79.56c-0.84 0-1.26-0.421-1.26-1.259v-79.56c0-0.841 0.42-1.261 1.26-1.261h79.56c0.72 0 1.08 0.42 1.08 1.261v79.56zm16.56-97.291c-4.92-4.86-10.8-7.29-17.64-7.29h-79.56c-6.96 0-12.87 2.43-17.73 7.29s-7.29 10.769-7.29 17.731v79.56c0 6.957 2.43 12.869 7.29 17.728 4.86 4.86 10.77 7.29 17.73 7.29h79.56c6.84 0 12.72-2.43 17.64-7.29 4.92-4.859 7.38-10.771 7.38-17.728v-79.56c0-6.962-2.46-12.871-7.38-17.731zm-161 45.63c0 0.719-0.43 1.08-1.27 1.08h-79.374c-0.841 0-1.261-0.361-1.261-1.08v-27.9c0-0.841 0.42-1.261 1.261-1.261h79.374c0.84 0 1.27 0.42 1.27 1.261v27.9zm-5.22 51.66c0 0.838-0.37 1.259-1.08 1.259h-74.344c-0.841 0-1.261-0.421-1.261-1.259v-25.381c0-0.84 0.42-1.261 1.261-1.261h74.344c0.71 0 1.08 0.421 1.08 1.261v25.381zm29.15-79.56c0-6.962-2.46-12.871-7.38-17.731s-10.86-7.29-17.82-7.29h-104.4v129.6h99.365c6.84 0 12.71-2.43 17.63-7.29 4.92-4.859 7.38-10.771 7.38-17.728v-25.381c0-3.599-0.6-6.66-1.79-9.18 4.67-4.922 7.01-10.62 7.01-17.099v-27.9zm-169.98 43.2c0.838 0 1.258 0.42 1.258 1.26v34.92c0 0.838-0.42 1.261-1.258 1.261h-79.382c-0.84 0-1.258-0.423-1.258-1.261v-34.92c0-0.84 0.418-1.26 1.258-1.26h79.382zm25.199-68.22h-25.921l-37.438 44.46h-41.94-0.54v-44.46h-23.762v129.42h104.4c6.956 0 12.898-2.46 17.817-7.379 4.92-4.922 7.382-10.802 7.382-17.641v-34.92c0-6.839-2.462-12.721-7.382-17.641-4.919-4.922-10.861-7.379-17.817-7.379h-7.021l32.22-38.339v-6.121zm-152.1 7.29c-4.922-4.86-10.802-7.29-17.641-7.29h-79.561c-6.959 0-12.868 2.43-17.728 7.29s-7.292 10.769-7.292 17.731v104.58h23.762v-104.58c0-0.841 0.417-1.261 1.258-1.261h79.561c0.721 0 1.079 0.42 1.079 1.261v104.58h23.941v-104.58c0-6.962-2.462-12.871-7.379-17.731zm-183.6 98.55v-105.84h-23.938v105.84h-52.921v23.759h129.6v-23.759h-52.74z" fill="#339d3d"/><path d="m409.89 172.32v95.041l-49.141-58.5-49.319 58.5v-95.041h-23.76v129.6h25.921l47.158-56.159 46.982 56.159h26.1v-129.6h-23.941zm-187.45 0h-17.136l-59.905 129.6h22.034l46.511-100.8 46.368 100.8h22.031l-59.903-129.6z" fill="#fff"/></g></svg>
