<?xml version="1.0" encoding="utf-8"?>
<!-- Generator: Adobe Illustrator 19.1.0, SVG Export Plug-In . SVG Version: 6.00 Build 0)  -->
<svg version="1.1"
	 id="Layer_1_copy" xmlns:dc="http://purl.org/dc/elements/1.1/" xmlns:rdf="http://www.w3.org/1999/02/22-rdf-syntax-ns#" xmlns:cc="http://creativecommons.org/ns#" xmlns:sodipodi="http://sodipodi.sourceforge.net/DTD/sodipodi-0.dtd" xmlns:inkscape="http://www.inkscape.org/namespaces/inkscape" sodipodi:docname="manageiq-logo-standard.svg" inkscape:version="0.91 r13322 custom"
	 xmlns="http://www.w3.org/2000/svg" xmlns:xlink="http://www.w3.org/1999/xlink" x="0px" y="0px" viewBox="-417 931 244 84.1"
	 style="enable-background:new -417 931 244 84.1;" xml:space="preserve">
<style type="text/css">
	.st0{fill:#EF2929;}
</style>
<g transform="translate(0 -992.36)" inkscape:groupmode="layer" inkscape:label="Layer 1">
	<g transform="matrix(.98370 0 0 .98375 -1271.2 233.64)">
		<path inkscape:connector-curvature="0" d="M1089,1735c-4.1,0-7.4,1.3-10,4c-2.6,2.7-3.8,6.2-3.8,10.5c0,4.3,1.3,7.9,3.8,10.6
			c2.6,2.7,5.9,4,10,4c3.1,0,5.8-0.8,8.1-2.4l2.8,2.3l3-3.6l-2.5-2c1.7-2.5,2.5-5.4,2.5-8.8c0-4.3-1.3-7.9-3.9-10.5
			C1096.4,1736.3,1093.1,1735,1089,1735L1089,1735z M938.2,1735.5l-3.8,28h4l2.6-21.2l7.8,14.5l7.6-14.5l2.6,21.2h4l-3.7-28h-3.3
			l-7.3,13.9l-7.4-13.9H938.2L938.2,1735.5z M1067.2,1735.5v28h5.1v-28C1072.3,1735.5,1067.2,1735.5,1067.2,1735.5z M1089,1739.9
			c2.6,0,4.7,0.9,6.1,2.6c1.4,1.8,2.1,4.1,2.1,7c0,2-0.4,3.8-1.1,5.3l-3.5-3l-3,3.6l3.4,2.8c-1.1,0.6-2.5,0.9-4,0.9
			c-2.6,0-4.7-0.9-6.1-2.6c-1.4-1.8-2.1-4.1-2.1-7s0.7-5.2,2.1-7C1084.3,1740.8,1086.4,1739.9,1089,1739.9L1089,1739.9z
			 M973.2,1743.5c-2.7,0-4.9,0.7-6.6,2l0.5,2.9c1.7-1.2,3.4-1.8,5.2-1.8c1.5,0,2.6,0.3,3.2,1c0.7,0.6,1,1.8,1,3.6
			c-1.4,0-2.7,0.2-4,0.4c-1.3,0.2-2.5,0.6-3.7,1c-1.2,0.5-2.2,1.2-2.9,2.2c-0.7,1-1.1,2.1-1.1,3.4c0,1.7,0.5,3,1.6,4.1
			c1.1,1.1,2.6,1.6,4.4,1.6c2.3,0,4.3-1,6-2.9c0.5,1,1,1.8,1.6,2.2c0.7,0.4,1.8,0.6,3.4,0.6h0.3l0.6-2.9h-0.4c-1,0-1.6-0.3-1.8-0.9
			c-0.3-0.6-0.4-1.7-0.4-3.2v-4c0-3.5-0.5-5.9-1.6-7.3C977.5,1744.2,975.7,1743.5,973.2,1743.5L973.2,1743.5z M994.5,1743.5
			c-2.5,0-4.6,0.8-6.5,2.5l-0.4-2.1h-2.8v19.6h3.6v-14.2c1-1.7,2.7-2.6,5.4-2.6c1.8,0,3.1,0.5,3.9,1.4c0.8,0.9,1.2,2.5,1.2,4.6v10.8
			h3.6v-10.8C1002.5,1746.6,999.9,1743.5,994.5,1743.5L994.5,1743.5z M1013.3,1743.5c-2.7,0-4.9,0.7-6.6,2l0.5,2.9
			c1.7-1.2,3.4-1.8,5.2-1.8c1.5,0,2.6,0.3,3.2,1c0.7,0.6,1,1.8,1,3.6c-1.4,0-2.7,0.2-4,0.4c-1.3,0.2-2.5,0.6-3.7,1
			c-1.2,0.5-2.2,1.2-2.9,2.2c-0.7,1-1.1,2.1-1.1,3.4c0,1.7,0.5,3,1.6,4.1c1.1,1.1,2.6,1.6,4.4,1.6c2.3,0,4.3-1,6-2.9
			c0.5,1,1,1.8,1.6,2.2c0.7,0.4,1.8,0.6,3.4,0.6h0.3l0.6-2.9h-0.4c-1,0-1.6-0.3-1.8-0.9c-0.3-0.6-0.4-1.7-0.4-3.2v-4
			c0-3.5-0.5-5.9-1.6-7.3C1017.6,1744.2,1015.8,1743.5,1013.3,1743.5L1013.3,1743.5z M1032.1,1743.5c-2.5,0-4.5,0.7-5.9,2.2
			c-1.4,1.5-2.1,3.4-2.1,5.6c0,2.6,1.1,4.7,3.4,6.4c-0.8,0.4-1.4,0.9-1.8,1.4c-0.3,0.5-0.5,1-0.5,1.5c0,1,0.7,1.8,2,2.5
			c-2.3,0.8-3.5,2.3-3.5,4.4c0,1.5,0.7,2.9,2.2,4.1c1.5,1.2,3.8,1.8,6.9,1.8c3.1,0,5.5-0.6,7.2-1.8c1.8-1.2,2.6-2.6,2.6-4.3
			c0-0.7-0.2-1.4-0.6-2c-0.4-0.6-0.8-1.1-1.4-1.4c-0.5-0.3-1.2-0.7-2-1c-0.8-0.3-1.5-0.5-2.1-0.6s-1.3-0.3-2-0.4
			c-2.5-0.4-4.2-0.8-5-1c-0.7-0.2-1.1-0.6-1.1-1.1c0-0.4,0.3-0.8,1-1.2c0.8,0.2,1.8,0.4,2.8,0.4c2.4,0,4.3-0.8,5.8-2.3
			c1.4-1.5,2.2-3.4,2.2-5.5c0-1.7-0.6-3.2-1.8-4.7c0.8-0.2,1.5-0.3,2.3-0.3h0.9l0.4-2.4h-0.3c-1.8,0-3.3,0.4-4.8,1.1
			C1035.6,1744,1033.9,1743.5,1032.1,1743.5L1032.1,1743.5z M1052.1,1743.5c-2.9,0-5.3,1-7,2.9s-2.6,4.3-2.6,7.2
			c0,3,0.9,5.4,2.8,7.4c1.9,2,4.5,3,7.8,3c2.1,0,4.3-0.5,6.6-1.5l-0.5-2.8c-1.7,0.8-3.6,1.2-5.6,1.2c-4.5,0-6.9-2.3-7.4-7h14.2
			c0.1-0.6,0.2-1.3,0.2-1.9c0-2.6-0.8-4.6-2.4-6.1C1056.6,1744.3,1054.6,1743.5,1052.1,1743.5L1052.1,1743.5z M1032.1,1746.4
			c1.4,0,2.5,0.4,3.4,1.3c0.9,0.8,1.3,2,1.3,3.5c0,1.5-0.4,2.7-1.2,3.6c-0.8,1-2,1.4-3.4,1.4c-1.4,0-2.5-0.4-3.4-1.3
			c-0.9-0.9-1.3-2.1-1.3-3.6c0-1.5,0.4-2.6,1.2-3.5C1029.6,1746.9,1030.7,1746.4,1032.1,1746.4L1032.1,1746.4z M1052,1746.7
			c1.6,0,2.8,0.4,3.6,1.2c0.8,0.8,1.2,1.9,1.2,3.3h-10.3C1047.2,1748.2,1049.1,1746.7,1052,1746.7L1052,1746.7z M976.5,1753.7v4.7
			c-0.6,0.8-1.3,1.4-2.2,1.9c-0.9,0.5-1.8,0.7-2.8,0.7c-2,0-3-1-3-3c0-1.5,0.6-2.5,1.8-3.2C971.6,1754.2,973.6,1753.8,976.5,1753.7
			L976.5,1753.7z M1016.6,1753.7v4.7c-0.6,0.8-1.3,1.4-2.2,1.9c-0.9,0.5-1.8,0.7-2.8,0.7c-2,0-3-1-3-3c0-1.5,0.6-2.5,1.8-3.2
			C1011.7,1754.2,1013.7,1753.8,1016.6,1753.7L1016.6,1753.7z M1030.3,1764.1c1.9,0.3,3.1,0.5,3.6,0.5c3.5,0.6,5.2,1.7,5.2,3
			c0,0.8-0.5,1.5-1.6,2.2c-1.1,0.6-2.5,1-4.4,1c-1.8,0-3.3-0.3-4.3-0.9c-1-0.6-1.6-1.3-1.6-2.3c0-0.7,0.3-1.4,0.9-2
			C1028.6,1764.8,1029.4,1764.4,1030.3,1764.1L1030.3,1764.1z"/>
		<g>
			<path inkscape:connector-curvature="0" class="st0" d="M899.8,1728.8c-10.7,0-19.4,8.7-19.4,19.4s8.7,19.4,19.4,19.4
				c3.9,0,7.5-1.1,10.5-3.1l4,4l5.4-5.4l-3.9-3.9c2.1-3.1,3.4-6.9,3.4-10.9c0-10.5-8.4-19.1-18.9-19.4
				C900.1,1728.8,899.9,1728.8,899.8,1728.8L899.8,1728.8z M899.8,1735.2c7.1,0,13,5.8,13,13s-5.8,13-13,13s-13-5.8-13-13
				C886.8,1741,892.6,1735.2,899.8,1735.2z"/>
			<path inkscape:connector-curvature="0" d="M899.8,1744.5c-2.1,0-3.7,1.7-3.7,3.7s1.7,3.7,3.7,3.7c2.1,0,3.7-1.7,3.7-3.7
				C903.5,1746.1,901.8,1744.5,899.8,1744.5z M892.6,1750.1l-0.4,0.4l-12.8,12.8l5.4,5.4l13.2-13.2
				C898.1,1755.5,892.6,1750.1,892.6,1750.1z"/>
		</g>
	</g>
</g>
<rect x="-405.2" y="991.1" class="st0" width="218.8" height="0.9"/>
<g>
	<path d="M-405.2,996.7c0.6-0.1,1.3-0.2,2.1-0.2c1.4,0,2.4,0.3,3,0.9c0.7,0.6,1.1,1.5,1.1,2.7c0,1.2-0.4,2.2-1.1,2.9
		c-0.7,0.7-1.9,1.1-3.3,1.1c-0.7,0-1.3,0-1.8-0.1V996.7z M-404.3,1003.3c0.2,0,0.6,0.1,1,0.1c2.1,0,3.2-1.2,3.2-3.2
		c0-1.8-1-2.9-3-2.9c-0.5,0-0.9,0-1.1,0.1V1003.3z"/>
	<path d="M-394,1000.6h-2.9v2.7h3.2v0.8h-4.2v-7.5h4v0.8h-3.1v2.4h2.9V1000.6z"/>
	<path d="M-392.5,1002.9c0.4,0.3,1.1,0.5,1.7,0.5c1,0,1.6-0.5,1.6-1.3c0-0.7-0.4-1.1-1.4-1.5c-1.2-0.4-2-1.1-2-2.1c0-1.2,1-2,2.4-2
		c0.8,0,1.3,0.2,1.7,0.4l-0.3,0.8c-0.2-0.1-0.7-0.4-1.4-0.4c-1,0-1.4,0.6-1.4,1.1c0,0.7,0.5,1,1.5,1.4c1.3,0.5,1.9,1.1,1.9,2.2
		c0,1.2-0.9,2.2-2.6,2.2c-0.7,0-1.5-0.2-1.9-0.5L-392.5,1002.9z"/>
	<path d="M-386,996.6v7.5h-1v-7.5H-386z"/>
	<path d="M-378.6,1003.7c-0.4,0.2-1.3,0.4-2.3,0.4c-1.1,0-2.1-0.3-2.8-1c-0.6-0.6-1-1.6-1-2.8c0-2.2,1.5-3.9,4-3.9
		c0.9,0,1.5,0.2,1.9,0.3l-0.2,0.8c-0.4-0.2-0.9-0.3-1.7-0.3c-1.8,0-3,1.1-3,3c0,1.9,1.1,3,2.9,3c0.6,0,1.1-0.1,1.3-0.2v-2.2h-1.5
		v-0.8h2.5V1003.7z"/>
	<path d="M-377.1,1004.1v-7.5h1.1l2.4,3.8c0.6,0.9,1,1.7,1.3,2.4l0,0c-0.1-1-0.1-1.9-0.1-3.1v-3.1h0.9v7.5h-1l-2.4-3.8
		c-0.5-0.8-1-1.7-1.4-2.5l0,0c0.1,0.9,0.1,1.8,0.1,3.1v3.2H-377.1z"/>
	<path d="M-367.6,1002.9c0.4,0.3,1.1,0.5,1.7,0.5c1,0,1.6-0.5,1.6-1.3c0-0.7-0.4-1.1-1.4-1.5c-1.2-0.4-2-1.1-2-2.1c0-1.2,1-2,2.4-2
		c0.8,0,1.3,0.2,1.7,0.4l-0.3,0.8c-0.2-0.1-0.7-0.4-1.4-0.4c-1,0-1.4,0.6-1.4,1.1c0,0.7,0.5,1,1.5,1.4c1.3,0.5,1.9,1.1,1.9,2.2
		c0,1.2-0.9,2.2-2.6,2.2c-0.7,0-1.5-0.2-1.9-0.5L-367.6,1002.9z"/>
	<path d="M-361,996.6v4.4c0,1.7,0.7,2.4,1.7,2.4c1.1,0,1.8-0.7,1.8-2.4v-4.4h1v4.4c0,2.3-1.2,3.2-2.8,3.2c-1.5,0-2.7-0.9-2.7-3.2
		v-4.4H-361z"/>
	<path d="M-348.5,1000.8c-0.1-1-0.1-2.3-0.1-3.2h0c-0.3,0.9-0.6,1.8-0.9,2.8l-1.3,3.6h-0.7l-1.2-3.6c-0.4-1.1-0.7-2-0.9-2.9h0
		c0,0.9-0.1,2.2-0.1,3.3l-0.2,3.2h-0.9l0.5-7.5h1.2l1.3,3.6c0.3,0.9,0.6,1.7,0.8,2.5h0c0.2-0.8,0.5-1.6,0.8-2.5l1.3-3.6h1.2l0.5,7.5
		h-0.9L-348.5,1000.8z"/>
	<path d="M-339.6,1000.8c-0.1-1-0.1-2.3-0.1-3.2h0c-0.3,0.9-0.6,1.8-0.9,2.8l-1.3,3.6h-0.7l-1.2-3.6c-0.4-1.1-0.7-2-0.9-2.9h0
		c0,0.9-0.1,2.2-0.1,3.3l-0.2,3.2h-0.9l0.5-7.5h1.2l1.3,3.6c0.3,0.9,0.6,1.7,0.8,2.5h0c0.2-0.8,0.5-1.6,0.8-2.5l1.3-3.6h1.2l0.5,7.5
		h-0.9L-339.6,1000.8z"/>
	<path d="M-336,996.6v7.5h-1v-7.5H-336z"/>
	<path d="M-332.9,997.4h-2.3v-0.8h5.5v0.8h-2.3v6.7h-1V997.4z"/>
	<path d="M-326.8,1004.1v-0.6l0.8-0.7c1.8-1.8,2.7-2.7,2.7-3.8c0-0.7-0.4-1.4-1.4-1.4c-0.7,0-1.2,0.3-1.5,0.6l-0.3-0.7
		c0.5-0.4,1.2-0.7,2-0.7c1.6,0,2.2,1.1,2.2,2.1c0,1.3-1,2.4-2.5,3.9l-0.6,0.5v0h3.2v0.8H-326.8z"/>
	<path d="M-316.4,1000.4c0,2.5-0.9,3.8-2.5,3.8c-1.4,0-2.4-1.3-2.4-3.7c0-2.4,1-3.8,2.5-3.8C-317.2,996.7-316.4,998.1-316.4,1000.4z
		 M-320.3,1000.5c0,1.9,0.6,2.9,1.5,2.9c1,0,1.5-1.2,1.5-3c0-1.8-0.5-2.9-1.5-2.9C-319.6,997.5-320.3,998.5-320.3,1000.5z"/>
	<path d="M-313.3,997.8L-313.3,997.8l-1.3,0.7l-0.2-0.7l1.6-0.8h0.8v7.2h-0.9V997.8z"/>
	<path d="M-305.7,997.5c-0.2,0-0.5,0-0.7,0c-1.5,0.3-2.3,1.4-2.5,2.6h0c0.3-0.5,0.9-0.8,1.7-0.8c1.3,0,2.2,0.9,2.2,2.3
		c0,1.3-0.9,2.5-2.4,2.5c-1.5,0-2.6-1.2-2.6-3.1c0-1.4,0.5-2.5,1.2-3.2c0.6-0.6,1.4-1,2.3-1.1c0.3,0,0.5-0.1,0.7-0.1V997.5z
		 M-305.9,1001.7c0-1-0.6-1.7-1.5-1.7c-0.6,0-1.1,0.4-1.4,0.9c-0.1,0.1-0.1,0.3-0.1,0.4c0,1.2,0.6,2.1,1.6,2.1
		C-306.5,1003.4-305.9,1002.7-305.9,1001.7z"/>
	<path d="M-301.8,1001.2c0-0.7,0.5-1.2,1.2-1.2c0.6,0,1.2,0.5,1.2,1.2c0,0.7-0.5,1.2-1.2,1.2
		C-301.3,1002.3-301.8,1001.8-301.8,1001.2z"/>
	<path d="M-294.4,996.6h1v5c0,2-1,2.6-2.3,2.6c-0.4,0-0.8-0.1-1-0.2l0.1-0.8c0.2,0.1,0.5,0.1,0.8,0.1c0.9,0,1.4-0.4,1.4-1.9V996.6z"
		/>
	<path d="M-290.8,996.6v4.4c0,1.7,0.7,2.4,1.7,2.4c1.1,0,1.8-0.7,1.8-2.4v-4.4h1v4.4c0,2.3-1.2,3.2-2.8,3.2c-1.5,0-2.7-0.9-2.7-3.2
		v-4.4H-290.8z"/>
	<path d="M-284.6,1004.1v-7.5h1.1l2.4,3.8c0.6,0.9,1,1.7,1.3,2.4l0,0c-0.1-1-0.1-1.9-0.1-3.1v-3.1h0.9v7.5h-1l-2.4-3.8
		c-0.5-0.8-1-1.7-1.4-2.5l0,0c0.1,0.9,0.1,1.8,0.1,3.1v3.2H-284.6z"/>
	<path d="M-273.5,1000.6h-2.9v2.7h3.2v0.8h-4.2v-7.5h4v0.8h-3.1v2.4h2.9V1000.6z"/>
	<path d="M-265.8,997.5c-0.2,0-0.5,0-0.7,0c-1.5,0.3-2.3,1.4-2.5,2.6h0c0.3-0.5,0.9-0.8,1.7-0.8c1.3,0,2.2,0.9,2.2,2.3
		c0,1.3-0.9,2.5-2.4,2.5c-1.5,0-2.6-1.2-2.6-3.1c0-1.4,0.5-2.5,1.2-3.2c0.6-0.6,1.4-1,2.3-1.1c0.3,0,0.5-0.1,0.7-0.1V997.5z
		 M-266,1001.7c0-1-0.6-1.7-1.5-1.7c-0.6,0-1.1,0.4-1.4,0.9c-0.1,0.1-0.1,0.3-0.1,0.4c0,1.2,0.6,2.1,1.6,2.1
		C-266.6,1003.4-266,1002.7-266,1001.7z"/>
	<path d="M-258.6,1000.9v0.7h-4.9v-0.7H-258.6z"/>
	<path d="M-252.4,996.9v0.6l-3.1,6.6h-1l3.1-6.4v0h-3.5v-0.8H-252.4z"/>
	<path d="M-251.7,1005.4c0.2-0.7,0.5-1.8,0.7-2.7l1.1-0.1c-0.3,0.9-0.7,2.2-1.1,2.7L-251.7,1005.4z"/>
	<path d="M-240.1,1000.8c-0.1-1-0.1-2.3-0.1-3.2h0c-0.3,0.9-0.6,1.8-0.9,2.8l-1.3,3.6h-0.7l-1.2-3.6c-0.4-1.1-0.7-2-0.9-2.9h0
		c0,0.9-0.1,2.2-0.1,3.3l-0.2,3.2h-0.9l0.5-7.5h1.2l1.3,3.6c0.3,0.9,0.6,1.7,0.8,2.5h0c0.2-0.8,0.5-1.6,0.8-2.5l1.3-3.6h1.2l0.5,7.5
		h-0.9L-240.1,1000.8z"/>
	<path d="M-236.4,1001.7l-0.8,2.4h-1l2.5-7.5h1.2l2.6,7.5h-1l-0.8-2.4H-236.4z M-234,1001l-0.7-2.2c-0.2-0.5-0.3-0.9-0.4-1.4h0
		c-0.1,0.4-0.2,0.9-0.4,1.4l-0.7,2.2H-234z"/>
	<path d="M-229.9,996.6v3.1h3.6v-3.1h1v7.5h-1v-3.5h-3.6v3.5h-1v-7.5H-229.9z"/>
	<path d="M-222.4,1004.1l-1.9-7.5h1l0.9,3.8c0.2,0.9,0.4,1.9,0.6,2.6h0c0.1-0.7,0.4-1.6,0.6-2.6l1-3.8h1l0.9,3.8
		c0.2,0.9,0.4,1.8,0.5,2.6h0c0.2-0.8,0.4-1.7,0.6-2.6l1-3.8h1l-2.1,7.5h-1l-0.9-3.9c-0.2-1-0.4-1.7-0.5-2.4h0
		c-0.1,0.7-0.3,1.5-0.6,2.4l-1.1,3.9H-222.4z"/>
	<path d="M-213.7,1001.7l-0.8,2.4h-1l2.5-7.5h1.2l2.6,7.5h-1l-0.8-2.4H-213.7z M-211.2,1001l-0.7-2.2c-0.2-0.5-0.3-0.9-0.4-1.4h0
		c-0.1,0.4-0.2,0.9-0.4,1.4l-0.7,2.2H-211.2z"/>
	<path d="M-207.1,996.6v3.1h3.6v-3.1h1v7.5h-1v-3.5h-3.6v3.5h-1v-7.5H-207.1z"/>
	<path d="M-201.5,1005.4c0.2-0.7,0.5-1.8,0.7-2.7l1.1-0.1c-0.3,0.9-0.7,2.2-1.1,2.7L-201.5,1005.4z"/>
	<path d="M-196.2,1004.1v-7.5h1.1l2.4,3.8c0.6,0.9,1,1.7,1.3,2.4l0,0c-0.1-1-0.1-1.9-0.1-3.1v-3.1h0.9v7.5h-1l-2.4-3.8
		c-0.5-0.8-1-1.7-1.4-2.5l0,0c0.1,0.9,0.1,1.8,0.1,3.1v3.2H-196.2z"/>
	<path d="M-187.4,996.6h1v5c0,2-1,2.6-2.3,2.6c-0.4,0-0.8-0.1-1-0.2l0.1-0.8c0.2,0.1,0.5,0.1,0.8,0.1c0.9,0,1.4-0.4,1.4-1.9V996.6z"
		/>
</g>
</svg>
