<?xml version="1.0" encoding="UTF-8" standalone="no"?>
<!-- Created with Inkscape (http://www.inkscape.org/) -->

<svg
   xmlns:dc="http://purl.org/dc/elements/1.1/"
   xmlns:cc="http://creativecommons.org/ns#"
   xmlns:rdf="http://www.w3.org/1999/02/22-rdf-syntax-ns#"
   xmlns:svg="http://www.w3.org/2000/svg"
   xmlns="http://www.w3.org/2000/svg"
   xmlns:sodipodi="http://sodipodi.sourceforge.net/DTD/sodipodi-0.dtd"
   xmlns:inkscape="http://www.inkscape.org/namespaces/inkscape"
   width="35"
   height="35"
   id="svg31401"
   version="1.1"
   inkscape:version="0.91 r13258 custom"
   viewBox="0 0 35 35"
   sodipodi:docname="q-glyph.svg">
  <defs
     id="defs31403" />
  <sodipodi:namedview
     id="base"
     pagecolor="#ffffff"
     bordercolor="#666666"
     borderopacity="1.0"
     inkscape:pageopacity="0.0"
     inkscape:pageshadow="2"
     inkscape:zoom="16"
     inkscape:cx="19.851357"
     inkscape:cy="16.772272"
     inkscape:document-units="px"
     inkscape:current-layer="layer1"
     showgrid="false"
     fit-margin-top="0"
     fit-margin-left="0"
     fit-margin-right="0"
     fit-margin-bottom="0"
     inkscape:showpageshadow="false" />
  <metadata
     id="metadata31406">
    <rdf:RDF>
      <cc:Work
         rdf:about="">
        <dc:format>image/svg+xml</dc:format>
        <dc:type
           rdf:resource="http://purl.org/dc/dcmitype/StillImage" />
        <dc:title></dc:title>
      </cc:Work>
    </rdf:RDF>
  </metadata>
  <g
     inkscape:label="Layer 1"
     inkscape:groupmode="layer"
     id="layer1"
     transform="translate(337.22445,176.70124)">
    <path
       style="opacity:0.75;color:#000000;color-interpolation:sRGB;color-interpolation-filters:linearRGB;fill:#bebebe;fill-opacity:1;fill-rule:nonzero;stroke:none;stroke-width:1;marker:none;visibility:visible;display:inline;overflow:visible;enable-background:accumulate;clip-rule:nonzero"
       d="m -319.97774,-176.70126 c -3.54744,0 -6.83932,1.07468 -9.56904,2.91788 -1.36482,0.9216 -2.58845,2.03539 -3.6335,3.30234 -2.43849,2.95638 -3.90238,6.748 -3.90238,10.88639 0,0.29569 0.0101,0.58944 0.0222,0.8813 0.0141,0.29195 0.0363,0.58127 0.0655,0.8691 0.11649,1.15187 0.34657,2.26969 0.67933,3.34195 0.16638,0.53593 0.35816,1.05915 0.57433,1.571 0.64848,1.53613 1.51537,2.95588 2.56072,4.22325 0.69677,0.8446 1.47154,1.6225 2.31605,2.31947 1.26696,1.04566 2.6875,1.91022 4.22324,2.55902 1.53523,0.6487 3.18605,1.08043 4.91286,1.25547 0.57563,0.0584 1.15914,0.0877 1.75039,0.0877 0.38114,0 0.75803,-0.0171 1.13303,-0.0413 0.0978,-0.0101 0.19439,-0.0141 0.29135,-0.0222 0.20761,-0.0171 0.41208,-0.0453 0.61746,-0.0685 0.3635,-0.0433 0.72327,-0.0998 1.07941,-0.16557 0.16346,-0.0302 0.32783,-0.0564 0.48978,-0.0917 0.45238,-0.0978 0.89822,-0.21032 1.33641,-0.34314 0.22271,-0.0675 0.43826,-0.14845 0.65706,-0.22423 0.22665,-0.0786 0.4537,-0.15672 0.6759,-0.24479 0.25829,-0.10198 0.51225,-0.21042 0.76399,-0.3242 0.15247,-0.0695 0.30172,-0.1437 0.45188,-0.21717 0.62068,-0.30303 1.22303,-0.6359 1.79856,-1.00887 l 3.53675,3.53684 4.78023,-4.78719 -3.47124,-3.47115 c 0.0978,-0.14401 0.18381,-0.29628 0.27753,-0.44331 0.16629,-0.26041 0.33065,-0.52181 0.48293,-0.79159 0.10521,-0.18655 0.20347,-0.3764 0.30183,-0.56728 0.13958,-0.27069 0.27109,-0.54541 0.39656,-0.82436 0.0786,-0.17666 0.16104,-0.3512 0.2344,-0.53099 0.1806,-0.4411 0.34778,-0.88824 0.49159,-1.34688 0.0252,-0.0816 0.0433,-0.16638 0.0675,-0.24831 0.12153,-0.40895 0.22786,-0.82405 0.31905,-1.24509 0.0333,-0.15258 0.0605,-0.30636 0.0897,-0.46045 0.0726,-0.38648 0.13313,-0.77729 0.17928,-1.17254 0.0192,-0.16497 0.0423,-0.32873 0.0564,-0.49501 0.0111,-0.11811 0.0192,-0.23632 0.0272,-0.35524 0.0252,-0.38154 0.0433,-0.7656 0.0433,-1.15369 0,-0.58188 -0.0302,-1.15752 -0.0857,-1.72439 -0.16981,-1.7008 -0.58773,-3.32754 -1.21758,-4.84402 -0.20972,-0.5054 -0.4427,-0.9983 -0.69838,-1.47779 -0.51123,-0.95909 -1.11065,-1.86326 -1.78818,-2.70232 -3.04869,-3.7759 -7.67232,-6.22608 -12.87652,-6.3581 l -0.44141,0 z"
       id="path18209-2-5"
       inkscape:connector-curvature="0" />
  </g>
</svg>
