<svg xmlns:rdf="http://www.w3.org/1999/02/22-rdf-syntax-ns#" xmlns="http://www.w3.org/2000/svg" height="35" viewBox="0 0 35 35" width="35" version="1.1" xmlns:cc="http://creativecommons.org/ns#" xmlns:dc="http://purl.org/dc/elements/1.1/">
<g transform="translate(337.2 176.7)">
<path opacity=".75" style="color:#000000" d="m-320-176.7c-3.547 0-6.839 1.075-9.569 2.918-1.365 0.9216-2.588 2.035-3.634 3.302-2.438 2.956-3.902 6.748-3.902 10.89 0 0.2957 0.0101 0.5894 0.0222 0.8813 0.0141 0.292 0.0363 0.5813 0.0655 0.8691 0.1165 1.152 0.3466 2.27 0.6793 3.342 0.1664 0.5359 0.3582 1.059 0.5743 1.571 0.6485 1.536 1.515 2.956 2.561 4.223 0.6968 0.8446 1.472 1.622 2.316 2.319 1.267 1.046 2.688 1.91 4.223 2.559 1.535 0.6487 3.186 1.08 4.913 1.255 0.5756 0.0584 1.159 0.0877 1.75 0.0877 0.3811 0 0.758-0.0171 1.133-0.0413 0.0978-0.0101 0.1944-0.0141 0.2914-0.0222 0.2076-0.0171 0.4121-0.0453 0.6175-0.0685 0.3635-0.0433 0.7233-0.0998 1.079-0.1656 0.1635-0.0302 0.3278-0.0564 0.4898-0.0917 0.4524-0.0978 0.8982-0.2103 1.336-0.3431 0.2227-0.0675 0.4383-0.1484 0.6571-0.2242 0.2266-0.0786 0.4537-0.1567 0.6759-0.2448 0.2583-0.102 0.5122-0.2104 0.764-0.3242 0.1525-0.0695 0.3017-0.1437 0.4519-0.2172 0.6207-0.303 1.223-0.6359 1.799-1.009l3.537 3.537 4.78-4.787-3.471-3.471c0.0978-0.144 0.1838-0.2963 0.2775-0.4433 0.1663-0.2604 0.3306-0.5218 0.4829-0.7916 0.1052-0.1866 0.2035-0.3764 0.3018-0.5673 0.1396-0.2707 0.2711-0.5454 0.3966-0.8244 0.0786-0.1767 0.161-0.3512 0.2344-0.531 0.1806-0.4411 0.3478-0.8882 0.4916-1.347 0.0252-0.0816 0.0433-0.1664 0.0675-0.2483 0.1215-0.409 0.2279-0.824 0.319-1.245 0.0333-0.1526 0.0605-0.3064 0.0897-0.4604 0.0726-0.3865 0.1331-0.7773 0.1793-1.173 0.0192-0.165 0.0423-0.3287 0.0564-0.495 0.0111-0.1181 0.0192-0.2363 0.0272-0.3552 0.0252-0.3815 0.0433-0.7656 0.0433-1.154 0-0.5819-0.0302-1.158-0.0857-1.724-0.1698-1.701-0.5877-3.328-1.218-4.844-0.2097-0.5054-0.4427-0.9983-0.6984-1.478-0.5112-0.9591-1.111-1.863-1.788-2.702-3.049-3.776-7.672-6.226-12.88-6.358h-0.4414z" fill="#bebebe"/>
</g>
</svg>
