<svg xmlns:rdf="http://www.w3.org/1999/02/22-rdf-syntax-ns#" xmlns="http://www.w3.org/2000/svg" viewBox="0 0 400 400" version="1.1" xmlns:cc="http://creativecommons.org/ns#" xmlns:dc="http://purl.org/dc/elements/1.1/">
<g transform="translate(-1300.3 -566.14)">
<g transform="translate(-43.793 31)">
<g transform="matrix(8.4273 0 0 8.4278 -9610.7 -6024.1)">
<path style="color:#000000" d="m30.947 11.002c-10.539 0-19.059 8.5208-19.059 19.061s8.5191 19.062 19.059 19.062c3.8204 0 7.3675-1.1309 10.348-3.0605l3.9473 3.9453 5.3379-5.3457-3.873-3.873c2.0812-3.0549 3.2988-6.747 3.2988-10.729 0-10.375-8.2583-18.799-18.566-19.061-0.13408-0.0049-0.2985 0-0.49219 0zm0 6.3105c7.0284 0 12.752 5.7211 12.752 12.75s-5.7236 12.752-12.752 12.752-12.75-5.723-12.75-12.752c0-7.0289 5.7216-12.75 12.75-12.75z" transform="matrix(1.0166 0 0 1.0165 1292.2 771.25)" fill="#ef2929"/>
<path style="color:#000000" d="m30.947 26.406c-2.0212 0-3.6523 1.6332-3.6523 3.6543s1.6314 3.6543 3.6523 3.6543c2.021 0 3.6563-1.6329 3.6562-3.6543-0.000049-2.0214-1.635-3.6543-3.6562-3.6543zm-6.994 5.553-12.953 12.953 5.342 5.342 12.955-12.955z" transform="matrix(1.0166 0 0 1.0165 1292.2 771.25)"/>
</g>
</g>
</g>
</svg>
