
<svg width="217px" height="90px" viewBox="10 543 217 90" version="1.1" xmlns="http://www.w3.org/2000/svg" xmlns:xlink="http://www.w3.org/1999/xlink">
    <!-- Generator: Sketch 40 (33762) - http://www.bohemiancoding.com/sketch -->
    <desc>Created with Sketch.</desc>
    <defs>
        <radialGradient cx="60.7500807%" cy="54.567427%" fx="60.7500807%" fy="54.567427%" r="50.2469934%" id="radialGradient-1">
            <stop stop-color="#F2DA06" offset="0%"></stop>
            <stop stop-color="#FCEE72" offset="44.511068%"></stop>
            <stop stop-color="#F2DA06" offset="100%"></stop>
        </radialGradient>
        <radialGradient cx="81.7892261%" cy="94.8505939%" fx="81.7892261%" fy="94.8505939%" r="50.2660187%" id="radialGradient-2">
            <stop stop-color="#EEEEEC" offset="0%"></stop>
            <stop stop-color="#EEEEEC" stop-opacity="0" offset="100%"></stop>
        </radialGradient>
        <linearGradient x1="55.5091371%" y1="49.5939046%" x2="105.007301%" y2="52.4942129%" id="linearGradient-3">
            <stop stop-color="#EDD60C" offset="0%"></stop>
            <stop stop-color="#AD9C08" offset="100%"></stop>
        </linearGradient>
        <radialGradient cx="53.1921955%" cy="45.2258247%" fx="53.1921955%" fy="45.2258247%" r="50.0000024%" id="radialGradient-4">
            <stop stop-color="#E9D012" offset="0%"></stop>
            <stop stop-color="#EFD840" offset="46.028548%"></stop>
            <stop stop-color="#D2B828" offset="76.600951%"></stop>
            <stop stop-color="#EACF4E" offset="100%"></stop>
        </radialGradient>
        <path d="M40.6787109,0.249023437 C34.8383203,0.227685937 29.6437922,1.89729422 25.1074219,4.74609375 C25.1041406,4.74829687 25.0962656,4.74389062 25.0927969,4.74609375 C18.6719339,6.91504687 14.0851983,10.4705559 10.6494375,15.3076172 C4.56327703,23.8760625 -0.393137812,43.4483578 0.146507813,55.2392578 C13.4137256,76.1257406 76.9358391,75.7450828 88.2129141,56.7041016 C83.3037187,39.46545 84.8688609,24.8566922 77.0654297,14.8828125 C72.8934422,9.55042641 66.8604422,6.00852797 60.2783203,4.05761719 C60.2443828,4.04755312 60.2097656,4.0383 60.1757812,4.02832031 C57.1384828,2.870145 49.5405891,0.278320312 41.8066406,0.278320312 C41.4291609,0.2632125 41.0509781,0.250382812 40.6787109,0.249023437 L40.6787109,0.249023437 Z M54.4189453,2.75390625 C54.629175,2.78607656 54.8389547,2.82130734 55.0488281,2.85644531 C54.8380594,2.82132187 54.6300797,2.78603203 54.4189453,2.75390625 L54.4189453,2.75390625 Z M33.1347656,2.90039062 C32.6816766,2.96419734 32.2411313,3.03231984 31.8017578,3.10546875 C32.2421109,3.03200391 32.6806313,2.96445984 33.1347656,2.90039062 L33.1347656,2.90039062 Z" id="path-5"></path>
        <radialGradient cx="53.1944695%" cy="46.7597375%" fx="53.1944695%" fy="46.7597375%" r="49.9993408%" id="radialGradient-7">
            <stop stop-color="#E9D012" offset="0%"></stop>
            <stop stop-color="#EFD840" offset="46.028548%"></stop>
            <stop stop-color="#D2B828" offset="76.600951%"></stop>
            <stop stop-color="#EACF4E" offset="100%"></stop>
        </radialGradient>
        <radialGradient cx="21.7614755%" cy="16.0330477%" fx="21.7614755%" fy="16.0330477%" r="35.9267321%" id="radialGradient-8">
            <stop stop-color="#F5E789" offset="0%"></stop>
            <stop stop-color="#EED73F" stop-opacity="0" offset="100%"></stop>
        </radialGradient>
        <radialGradient cx="20.8069955%" cy="35.7250118%" fx="20.8069955%" fy="35.7250118%" r="39.8184579%" id="radialGradient-9">
            <stop stop-color="#F5E789" offset="0%"></stop>
            <stop stop-color="#EED73F" stop-opacity="0" offset="100%"></stop>
        </radialGradient>
        <linearGradient x1="51.9712308%" y1="50.0540434%" x2="1.79162514%" y2="49.5807087%" id="linearGradient-10">
            <stop stop-color="#EDD60C" offset="0%"></stop>
            <stop stop-color="#AD9C08" offset="100%"></stop>
        </linearGradient>
        <linearGradient x1="60.1865633%" y1="49.970263%" x2="9.25852208%" y2="39.7060357%" id="linearGradient-11">
            <stop stop-color="#EDD60C" offset="0%"></stop>
            <stop stop-color="#AD9C08" offset="100%"></stop>
        </linearGradient>
        <radialGradient cx="62.7850939%" cy="2.87899268%" fx="62.7850939%" fy="2.87899268%" r="49.9999977%" id="radialGradient-12">
            <stop stop-color="#EFDD52" offset="0%"></stop>
            <stop stop-color="#F2E26D" stop-opacity="0" offset="100%"></stop>
        </radialGradient>
        <radialGradient cx="35.2646225%" cy="16.0526077%" fx="35.2646225%" fy="16.0526077%" r="49.9999977%" id="radialGradient-13">
            <stop stop-color="#EFDD52" offset="0%"></stop>
            <stop stop-color="#F2E26D" stop-opacity="0" offset="100%"></stop>
        </radialGradient>
        <linearGradient x1="98.7297833%" y1="3.51111927%" x2="-5.71950126%" y2="113.327347%" id="linearGradient-14">
            <stop stop-color="#DDBE0C" offset="0%"></stop>
            <stop stop-color="#DDBE0C" stop-opacity="0" offset="100%"></stop>
        </linearGradient>
        <linearGradient x1="12.9916468%" y1="1.59145886%" x2="137.975592%" y2="139.297315%" id="linearGradient-15">
            <stop stop-color="#DDBE0C" offset="0%"></stop>
            <stop stop-color="#DDBE0C" stop-opacity="0" offset="100%"></stop>
        </linearGradient>
        <linearGradient x1="9.27931647%" y1="10.0230907%" x2="100%" y2="98.9717251%" id="linearGradient-16">
            <stop stop-color="#DDBE0C" offset="0%"></stop>
            <stop stop-color="#DDBE0C" stop-opacity="0" offset="100%"></stop>
        </linearGradient>
        <linearGradient x1="0%" y1="49.9999655%" x2="200.000033%" y2="62.7016083%" id="linearGradient-17">
            <stop stop-color="#DDBE0C" offset="0%"></stop>
            <stop stop-color="#DDBE0C" stop-opacity="0" offset="100%"></stop>
        </linearGradient>
        <radialGradient cx="52.0270807%" cy="33.2167707%" fx="52.0270807%" fy="33.2167707%" r="16.5247503%" id="radialGradient-18">
            <stop stop-color="#FFFFFF" offset="0%"></stop>
            <stop stop-color="#FFFFFF" stop-opacity="0" offset="100%"></stop>
        </radialGradient>
        <radialGradient cx="55.3644651%" cy="33.724327%" fx="55.3644651%" fy="33.724327%" r="22.478791%" id="radialGradient-19">
            <stop stop-color="#FFFFFF" offset="0%"></stop>
            <stop stop-color="#FFFFFF" stop-opacity="0" offset="100%"></stop>
        </radialGradient>
        <radialGradient cx="40.3025229%" cy="60.1732709%" fx="40.3025229%" fy="60.1732709%" r="25.6392673%" id="radialGradient-20">
            <stop stop-color="#FFFFFF" offset="0%"></stop>
            <stop stop-color="#FFFFFF" stop-opacity="0" offset="100%"></stop>
        </radialGradient>
        <radialGradient cx="47.0263499%" cy="41.4409828%" fx="47.0263499%" fy="41.4409828%" r="33.8368456%" id="radialGradient-21">
            <stop stop-color="#F9F1B8" offset="0%"></stop>
            <stop stop-color="#F9F1B8" stop-opacity="0" offset="100%"></stop>
        </radialGradient>
        <radialGradient cx="49.9999958%" cy="50.0000247%" fx="49.9999958%" fy="50.0000247%" r="25.5819688%" id="radialGradient-22">
            <stop stop-color="#DDBE0C" offset="0%"></stop>
            <stop stop-color="#DDBE0C" stop-opacity="0" offset="100%"></stop>
        </radialGradient>
        <radialGradient cx="49.9999782%" cy="50.000025%" fx="49.9999782%" fy="50.000025%" r="18.8306265%" id="radialGradient-23">
            <stop stop-color="#DDBE0C" offset="0%"></stop>
            <stop stop-color="#DDBE0C" stop-opacity="0" offset="100%"></stop>
        </radialGradient>
        <linearGradient x1="53.5822919%" y1="57.8100177%" x2="-9.5071669%" y2="48.1982748%" id="linearGradient-24">
            <stop stop-color="#EDD60C" offset="0%"></stop>
            <stop stop-color="#AD9C08" offset="100%"></stop>
        </linearGradient>
        <radialGradient cx="56.6648923%" cy="95.4425676%" fx="56.6648923%" fy="95.4425676%" r="50.2356402%" id="radialGradient-25">
            <stop stop-color="#FFFFFF" offset="0%"></stop>
            <stop stop-color="#FFFFFF" stop-opacity="0" offset="100%"></stop>
        </radialGradient>
        <linearGradient x1="62.6183903%" y1="50.2986738%" x2="11.4688448%" y2="42.8698223%" id="linearGradient-26">
            <stop stop-color="#EDD60C" offset="0%"></stop>
            <stop stop-color="#AD9C08" offset="100%"></stop>
        </linearGradient>
        <radialGradient cx="12.6765973%" cy="79.8486974%" fx="12.6765973%" fy="79.8486974%" r="50.2356406%" id="radialGradient-27">
            <stop stop-color="#000000" stop-opacity="0.33" offset="0%"></stop>
            <stop stop-color="#000000" stop-opacity="0" offset="100%"></stop>
        </radialGradient>
        <radialGradient cx="90.4892184%" cy="57.9190547%" fx="90.4892184%" fy="57.9190547%" r="50.2356406%" id="radialGradient-28">
            <stop stop-color="#000000" stop-opacity="0.33" offset="0%"></stop>
            <stop stop-color="#000000" stop-opacity="0" offset="100%"></stop>
        </radialGradient>
        <linearGradient x1="39.8762525%" y1="61.0995826%" x2="39.8762525%" y2="58.075252%" id="linearGradient-29">
            <stop stop-color="#000000" offset="0%"></stop>
            <stop stop-color="#61625F" offset="100%"></stop>
        </linearGradient>
        <linearGradient x1="606.062329%" y1="105.447512%" x2="606.062329%" y2="-1.18106104%" id="linearGradient-30">
            <stop stop-color="#000000" offset="0%"></stop>
            <stop stop-color="#61625F" offset="100%"></stop>
        </linearGradient>
        <linearGradient x1="422.113424%" y1="105.583198%" x2="422.113424%" y2="-1.04537533%" id="linearGradient-31">
            <stop stop-color="#000000" offset="0%"></stop>
            <stop stop-color="#61625F" offset="100%"></stop>
        </linearGradient>
        <linearGradient x1="313.772028%" y1="105.583198%" x2="313.772028%" y2="-1.04537533%" id="linearGradient-32">
            <stop stop-color="#000000" offset="0%"></stop>
            <stop stop-color="#61625F" offset="100%"></stop>
        </linearGradient>
        <linearGradient x1="215.437721%" y1="105.447512%" x2="215.437721%" y2="-1.18106104%" id="linearGradient-33">
            <stop stop-color="#000000" offset="0%"></stop>
            <stop stop-color="#61625F" offset="100%"></stop>
        </linearGradient>
        <linearGradient x1="61.7691384%" y1="105.583198%" x2="61.7691384%" y2="-1.04537533%" id="linearGradient-34">
            <stop stop-color="#000000" offset="0%"></stop>
            <stop stop-color="#61625F" offset="100%"></stop>
        </linearGradient>
        <linearGradient x1="-60.220241%" y1="105.447512%" x2="-60.220241%" y2="-1.18106104%" id="linearGradient-35">
            <stop stop-color="#000000" offset="0%"></stop>
            <stop stop-color="#61625F" offset="100%"></stop>
        </linearGradient>
        <linearGradient x1="-194.525005%" y1="105.583198%" x2="-194.525005%" y2="-1.04537533%" id="linearGradient-36">
            <stop stop-color="#000000" offset="0%"></stop>
            <stop stop-color="#61625F" offset="100%"></stop>
        </linearGradient>
    </defs>
    <g id="g34909" stroke="none" stroke-width="1" fill="none" fill-rule="evenodd" transform="translate(11.000000, 543.000000)">
        <g id="g18222" transform="translate(0.689450, 0.957660)">
            <path d="M3.05519156,60.7446797 C-8.50503562,64.1892234 17.1680766,80.4618047 27.9997406,83.6034562 C50.0817891,90.0082031 64.4347734,91.7913328 95.8960266,71.4447844 C108.599831,60.2223516 86.7366188,59.5619484 57.8651813,61.4248734 C9.05290031,58.8130828 5.46940031,51.5371125 3.05519156,60.7446797 L3.05519156,60.7446797 Z" id="path18224" fill="#2E3436" opacity="0.53571424"></path>
            <path d="M3.05519156,57.9321797 C-8.50503562,61.3767234 17.1680766,77.6493047 27.9997406,80.7909562 C50.0817891,87.1957031 64.4347734,88.9788328 95.8960266,68.6322844 C108.599831,57.4098516 86.7366188,56.7494484 57.8651813,58.6123734 C9.05290031,56.0005828 5.46940031,48.7246125 3.05519156,57.9321797 L3.05519156,57.9321797 Z" id="path18226" fill="url(#radialGradient-1)"></path>
            <path d="M48.6914063,4.75155188 C30.3774188,4.35681516 20.2352634,8.91509859 13.9335178,17.7870581 C7.84735734,26.3555063 2.89073438,45.9353953 3.43038,57.7262953 C16.6975978,78.6127781 80.2185469,78.23175 91.4956219,59.1907687 C86.58645,41.9521172 88.1537016,27.3401297 80.3502703,17.3662472 C73.1144016,8.11779422 60.2831719,4.22652891 48.6914063,4.75155188 L48.6914063,4.75155188 Z" id="path18228" stroke="url(#radialGradient-2)" stroke-width="0.9375"></path>
            <path d="M90.2990156,50.3489578 C91.8935906,50.3245359 92.0351109,58.5545906 92.0351109,58.5545906 C92.0351109,58.5545906 90.7441125,59.8027266 89.1495375,59.8271437 C87.5549625,59.8515656 85.6568203,58.6522547 85.6568203,58.6522547 C85.6568203,58.6522547 88.7044547,50.3733609 90.299025,50.3489437 L90.2990156,50.3489578 Z" id="path18230" fill="url(#linearGradient-3)"></path>
            <path d="M48.6914063,4.14550781 C30.3774188,3.75077109 20.2352634,8.30905453 13.9335178,17.1810141 C7.84735734,25.7494594 2.89073438,45.3293484 3.43038,57.1202484 C16.6975978,78.0067312 80.2185469,77.6257031 91.4956219,58.5847219 C86.58645,41.3460703 88.1537016,26.7340828 80.3502703,16.7602031 C73.1144016,7.51175016 60.2831719,3.62048484 48.6914063,4.14550781 L48.6914063,4.14550781 Z" id="path18232" fill="url(#radialGradient-4)"></path>
            <g id="path18234-Clipped" transform="translate(3.281250, 1.875000)">
                <mask id="mask-6" fill="white">
                    <use xlink:href="#path-5"></use>
                </mask>
                <g id="path5584"></g>
                <path d="M40.6787109,0.249023437 C34.8383203,0.227685937 29.6437922,1.89729422 25.1074219,4.74609375 C25.1041406,4.74829687 25.0962656,4.74389062 25.0927969,4.74609375 C18.6719339,6.91504687 14.0851983,10.4705559 10.6494375,15.3076172 C4.56327703,23.8760625 -0.393137812,43.4483578 0.146507813,55.2392578 C13.4137256,76.1257406 76.9358391,75.7450828 88.2129141,56.7041016 C83.3037187,39.46545 84.8688609,24.8566922 77.0654297,14.8828125 C72.8934422,9.55042641 66.8604422,6.00852797 60.2783203,4.05761719 C60.2443828,4.04755312 60.2097656,4.0383 60.1757812,4.02832031 C57.1384828,2.870145 49.5405891,0.278320312 41.8066406,0.278320312 C41.4291609,0.2632125 41.0509781,0.250382812 40.6787109,0.249023437 L40.6787109,0.249023437 Z M54.4189453,2.75390625 C54.629175,2.78607656 54.8389547,2.82130734 55.0488281,2.85644531 C54.8380594,2.82132187 54.6300797,2.78603203 54.4189453,2.75390625 L54.4189453,2.75390625 Z M33.1347656,2.90039062 C32.6816766,2.96419734 32.2411313,3.03231984 31.8017578,3.10546875 C32.2421109,3.03200391 32.6806313,2.96445984 33.1347656,2.90039062 L33.1347656,2.90039062 Z" id="path18234" stroke="#000000" stroke-width="0.9375" fill="url(#radialGradient-7)" opacity="0.3" mask="url(#mask-6)"></path>
            </g>
            <polygon id="path18236" fill="url(#radialGradient-8)" points="44.6439609 41.9585391 44.4132797 47.5312219 55.5057703 46.7148937 55.0016766 41.3092172"></polygon>
            <polygon id="path18238" fill="url(#radialGradient-9)" points="72.0930891 39.2289 71.7795422 44.3823891 80.8832953 43.5660609 81.7878891 38.5747031"></polygon>
            <path d="M32.9759906,1.74389719 C31.1630766,1.61911078 29.7436688,7.12309078 29.7436688,7.12309078 C29.7436688,7.12309078 31.0236516,8.04704437 32.8365609,8.17183219 C34.6494844,8.29661859 36.9953297,7.62224391 36.9953297,7.62224391 C36.9953297,7.62224391 34.7889094,1.868685 32.9759906,1.74390187 L32.9759906,1.74389719 Z" id="path18240" fill="url(#linearGradient-10)"></path>
            <path d="M55.4074641,0.0853757813 C53.9019047,-0.357301406 51.5753203,4.77892969 51.5753203,4.77892969 C51.5753203,4.77892969 52.4670281,5.90959078 53.9725875,6.35226891 C55.4781562,6.79494797 57.5975625,6.54964828 57.5975625,6.54964828 C57.5975625,6.54964828 56.9130281,0.528055781 55.4074641,0.0853804688 L55.4074641,0.0853757813 Z" id="path18242" fill="url(#linearGradient-11)"></path>
            <path d="M45.083775,42.0419812 L55.5246469,41.3790656 C54.2578078,29.5280297 48.8163094,20.7819516 42.1006641,10.6056234 C45.1778156,9.90982969 51.400875,8.00585203 56.1258094,10.6056234 C63.7647422,20.1122437 68.3159578,28.1691562 71.5385297,39.4423219 L82.1451328,38.7794062 C76.2280406,24.9071344 74.4497391,15.1767937 64.9094016,6.46241719 C64.9094016,6.46241719 55.0274625,2.15348531 45.083775,2.15348531 C20.9251308,1.18659984 7.424955,28.6312734 5.97192891,51.7062047 C5.50801594,64.6342406 4.89508313,63.5663625 9.78367641,66.6217359 C13.7611523,69.1076578 13.2639675,65.7930984 13.2639675,65.7930984 C11.2649677,40.7208562 25.9345186,21.1027266 32.4884297,14.5830984 C38.4059766,22.7808141 42.2559891,32.9614734 45.083775,42.0419812 L45.083775,42.0419812 Z" id="path18244" fill="url(#radialGradient-12)"></path>
            <path d="M45.083775,42.0419812 L55.5246469,41.3790656 C54.2578078,29.5280297 48.8163094,20.7819516 42.1006641,10.6056234 C45.1778156,9.90982969 51.400875,8.00585203 56.1258094,10.6056234 C63.7647422,20.1122437 68.3159578,28.1691562 71.5385297,39.4423219 L82.1451328,38.7794062 C76.2280406,24.9071344 74.4497391,15.1767937 64.9094016,6.46241719 C64.9094016,6.46241719 55.0274625,2.15348531 45.083775,2.15348531 C20.9251308,1.18659984 7.424955,28.6312734 5.97192891,51.7062047 C5.50801594,64.6342406 4.89508313,63.5663625 9.78367641,66.6217359 C13.7611523,69.1076578 13.2639675,65.7930984 13.2639675,65.7930984 C11.2649677,40.7208562 25.9345186,21.1027266 32.4884297,14.5830984 C38.4059766,22.7808141 42.2559891,32.9614734 45.083775,42.0419812 L45.083775,42.0419812 Z" id="path18246" fill="url(#radialGradient-13)"></path>
            <path d="M32.5367484,14.6601736 L32.5101703,18.2577187 C16.0984458,30.2509875 13.5193031,54.8769844 13.5692302,59.9343984 C13.8619148,47.70165 15.1926478,29.3561812 32.5367484,14.6601736 L32.5367484,14.6601736 Z" id="path18248" fill="url(#linearGradient-14)"></path>
            <path d="M55.4524969,11.4096652 C64.5165188,20.9529797 70.1300484,38.4949453 71.6199516,44.6668266 L72.0359531,42.0091406 C70.2975281,29.9761828 61.8065766,14.5572136 55.7918578,9.40445766 L55.4524969,11.4096652 Z" id="path18250" fill="url(#linearGradient-15)"></path>
            <path d="M32.4162844,18.1996406 C33.2156578,18.8226234 39.9341297,31.8999047 44.3365547,47.8156594 L44.9182828,44.0027578 C38.3125078,23.6935641 36.5045016,20.5155047 32.4241875,14.6508891 L32.4162844,18.1996406 Z" id="path18252" fill="url(#linearGradient-16)"></path>
            <path d="M41.6034937,10.4482467 C46.2134625,8.30298656 51.0958125,8.09829516 55.8561141,9.28814906 L55.8561141,11.3337558 C46.1990766,10.5659255 43.3188281,12.9866184 43.0932984,12.3803728 C42.7624266,11.9020589 41.9343656,10.9265606 41.6034937,10.4482467 L41.6034937,10.4482467 Z" id="path18254" fill="url(#linearGradient-17)"></path>
            <path d="M85.8319406,58.8823359 C82.6935375,33.6933469 74.7386625,11.9193895 59.5928906,3.012675 C76.4390766,14.4983503 81.7720172,36.4024453 85.8319406,58.8823359 L85.8319406,58.8823359 Z" id="path18256" fill="url(#radialGradient-18)" opacity="0.86746988"></path>
            <path d="M57.3108563,62.3785359 C56.1373641,38.3339859 50.5857562,17.2560094 38.0218406,7.96861266 C51.8995875,19.7949609 55.1737922,40.8495516 57.3108563,62.3785359 L57.3108563,62.3785359 Z" id="path18258" fill="url(#radialGradient-19)" opacity="0.86746988"></path>
            <path d="M39.7213828,13.643873 C47.1236766,15.5692289 52.4683031,20.5462359 51.6513609,24.7532672 C50.9448516,28.3916062 45.8482266,30.27315 39.6985781,29.4687234 C37.4480062,21.1020422 33.899175,15.7436105 30.394725,13.2559594 C33.0047297,12.6618159 36.2811469,12.7490559 39.7213828,13.643873 L39.7213828,13.643873 Z" id="path18260" fill="url(#radialGradient-20)" opacity="0.70982139"></path>
            <path d="M64.9120637,8.50629987 C72.3143575,10.4316558 77.658984,15.4086628 76.8420418,19.6156917 C76.1355324,23.2540307 71.0389075,25.1355745 64.8892591,24.3311479 C62.6386872,15.9644691 59.089856,10.6060374 55.585406,8.11838627 C58.1954106,7.52424284 61.4718278,7.61148284 64.9120637,8.50629987 L64.9120637,8.50629987 Z" id="path18262" fill="url(#radialGradient-20)" opacity="0.70982139" transform="translate(66.254961, 16.127394) rotate(-9.297966) translate(-66.254961, -16.127394) "></path>
            <path d="M96.0827343,11.3013005 C82.0100599,18.6428097 73.8086639,35.6647604 64.9952572,51.677623 C75.0916479,36.849574 85.0173219,21.1430831 96.0827343,11.3013005 L96.0827343,11.3013005 Z" id="path18264" fill="url(#radialGradient-21)" transform="translate(80.538996, 31.489462) rotate(187.427036) translate(-80.538996, -31.489462) "></path>
            <path d="M47.8721812,55.8850828 C42.6746203,32.5425141 36.8814375,15.6444216 28.6068938,10.4626992 C32.0329781,12.3826219 38.5882172,13.9805109 46.7906531,50.3171859 L47.8721813,55.8850828 L47.8721812,55.8850828 Z" id="path18266" fill="url(#radialGradient-22)"></path>
            <path d="M78.1509422,55.3298672 C70.3653047,29.6334281 62.2834078,11.1540867 51.9784734,5.88034078 C56.2305047,7.81258219 64.2304078,9.19680047 76.4844328,49.1909391 L78.1509422,55.3298672 L78.1509422,55.3298672 Z" id="path18268" fill="url(#radialGradient-23)"></path>
            <path d="M10.7735147,51.6445688 C7.88118844,50.8724766 2.30457562,60.4388766 2.30457562,60.4388766 C2.83815094,62.0495063 6.62301187,63.0789891 8.74527375,62.601075 C8.74527375,62.601075 13.6658531,52.4166656 10.7735147,51.6445687 L10.7735147,51.6445688 Z" id="path18270" fill="url(#linearGradient-24)"></path>
            <path d="M3.05519156,56.9946797 C-8.50503562,60.4392234 17.1680766,76.7118047 27.9997406,79.8534562 C50.0817891,86.2582031 64.4347734,88.0413328 95.8960266,67.6947844 C108.599831,56.4723516 86.7366188,55.8119484 57.8651813,57.6748734 C9.05290031,55.0630828 5.46940031,47.7871125 3.05519156,56.9946797 L3.05519156,56.9946797 Z" id="path18272" stroke="url(#radialGradient-25)" stroke-width="0.5"></path>
            <path d="M15.6735136,55.1219719 C13.2025439,54.3932109 8.82647906,65.3860922 8.82647906,65.3860922 C8.82647906,65.3860922 10.2067748,67.6260563 12.6777338,68.3548172 C15.1487034,69.0835875 18.7103362,68.3011734 18.7103362,68.3011734 C18.7103362,68.3011734 18.1444725,55.8507563 15.6735136,55.122 L15.6735136,55.1219719 Z" id="path18274" fill="url(#linearGradient-26)"></path>
            <g id="g18276" transform="translate(0.000000, 57.656250)" stroke-width="0.5">
                <path d="M3.05519156,0.275929687 C-8.50503562,3.72047344 17.1680766,19.9930547 27.9997406,23.1347062 C50.0817891,29.5394531 64.4347734,31.3225828 95.8960266,10.9760344 C102.247927,5.36481562 99.9580781,2.39410781 92.4713203,1.05907031" id="path18278" stroke="url(#radialGradient-27)"></path>
                <path d="M3.05519156,0.275929687 C-8.50503562,3.72047344 17.1680766,19.9930547 27.9997406,23.1347062 C50.0817891,29.5394531 64.4347734,31.3225828 95.8960266,10.9760344 C102.247927,5.36481562 99.9580781,2.39410781 92.4713203,1.05907031" id="path18280" stroke="url(#radialGradient-28)"></path>
            </g>
        </g>
        <g id="text18282" transform="translate(98.000000, 23.000000)">
            <polyline id="path34963" fill="url(#linearGradient-30)" points="13.20585 4.32152 4.66038 4.32152 4.66038 13.51498 13.20585 13.51498 13.20585 17.32197 4.66038 17.32197 4.66038 30.36292 0.85339 30.36292 0.85339 0.51453 13.20585 0.51453 13.20585 4.32152 13.20585 4.32152"></polyline>
            <path d="M22.9701,30.32242 C21.5391,30.32242 20.39161,30.06592 19.52762,29.55292 C18.66362,29.03992 18.01562,28.51342 17.58363,27.97342 C16.44963,26.51543 15.88263,24.46344 15.88263,21.81745 L15.88263,8.979 C15.88263,6.33303 16.44963,4.28104 17.58363,2.82302 C17.79962,2.55305 18.05612,2.28305 18.35312,2.01302 C18.67712,1.74305 19.05512,1.50006 19.48712,1.28403 C19.94611,1.04106 20.45911,0.85206 21.02611,0.71703 C21.5931,0.55506 22.2411,0.47406 22.9701,0.47403 C24.42809,0.47406 25.57559,0.73056 26.41259,1.24353 C27.27658,1.75655 27.92457,2.28305 28.35658,2.82302 C29.49057,4.28104 30.05756,6.33303 30.05758,8.979 L30.05758,21.81745 C30.05756,24.46344 29.49057,26.51543 28.35658,27.97342 C27.92457,28.51342 27.27658,29.03992 26.41259,29.55292 C25.57559,30.06592 24.42809,30.32242 22.9701,30.32242 M22.9701,4.32152 C22.6731,4.32154 22.3356,4.34852 21.95761,4.40252 C21.6066,4.45652 21.25561,4.63204 20.90461,4.92901 C20.55361,5.19904 20.25661,5.65804 20.01362,6.30601 C19.79761,6.92703 19.68961,7.81802 19.68962,8.979 L19.68962,21.81745 C19.68961,23.00545 19.79761,23.92345 20.01362,24.57144 C20.25661,25.19244 20.55361,25.65144 20.90461,25.94843 C21.25561,26.21844 21.6066,26.38043 21.95761,26.43443 C22.3356,26.48843 22.6731,26.51543 22.9701,26.51543 C23.2401,26.51543 23.56409,26.48843 23.9421,26.43443 C24.32009,26.38043 24.68459,26.21844 25.0356,25.94843 C25.38659,25.65144 25.67008,25.19244 25.88609,24.57144 C26.12908,23.92345 26.25058,23.00545 26.25059,21.81745 L26.25059,8.979 C26.25058,7.81802 26.12908,6.92703 25.88609,6.30601 C25.67008,5.65804 25.38659,5.19904 25.0356,4.92901 C24.68459,4.63204 24.32009,4.45654 23.9421,4.40252 C23.56409,4.34852 23.2401,4.32152 22.9701,4.32152" id="path34965" fill="url(#linearGradient-31)"></path>
            <path d="M43.83955,15.66147 C44.56853,16.36348 45.12203,17.20048 45.50004,18.17246 C45.90503,19.14447 46.10752,20.25146 46.10754,21.49345 L46.10754,30.32242 L42.26005,30.32242 L42.26005,21.49345 C42.26004,18.87447 40.99105,17.56498 38.45307,17.56496 L36.54958,17.56496 L36.06358,17.56496 L36.06358,30.32242 L32.25659,30.32242 L32.25659,0.47403 L38.45307,0.47403 C41.01805,0.47406 42.94854,1.23006 44.24455,2.74202 C45.43253,4.11904 46.02652,6.19803 46.02654,8.979 C46.02652,11.73301 45.43253,13.8255 44.24455,15.25647 C44.19055,15.31047 44.12303,15.37799 44.04205,15.45897 C43.98805,15.53997 43.92054,15.60749 43.83955,15.66147 M38.45307,13.71748 C39.47906,13.7175 40.18105,13.596 40.55906,13.35298 C40.96405,13.11 41.22055,12.921 41.32856,12.78598 C41.92254,12.03 42.21954,10.76101 42.21955,8.979 C42.21954,7.98002 42.13855,7.18353 41.97655,6.58951 C41.81455,5.96853 41.57155,5.49604 41.24756,5.17201 C40.95055,4.82104 40.55905,4.59154 40.07306,4.48351 C39.61406,4.37554 39.07406,4.32154 38.45307,4.32152 L36.06358,4.32152 L36.06358,13.71748 L36.54958,13.71748 L38.45307,13.71748" id="path34967" fill="url(#linearGradient-32)"></path>
            <polyline id="path34969" fill="url(#linearGradient-33)" points="61.45761 4.32152 52.91215 4.32152 52.91215 13.51498 61.45761 13.51498 61.45761 17.32197 52.91215 17.32197 52.91215 26.55593 61.45761 26.55593 61.45761 30.36292 49.10516 30.36292 49.10516 0.51453 61.45761 0.51453 61.45761 4.32152 61.45761 4.32152"></polyline>
            <polyline id="path34971" fill="url(#linearGradient-34)" points="67.94138 16.02597 67.94138 30.32242 64.1344 30.32242 64.1344 0.47403 67.49589 0.47403 73.53036 21.49345 79.52434 0.47403 82.88583 0.47403 82.88583 30.32242 79.07884 30.32242 79.07884 16.02597 74.94786 30.32242 72.07237 30.32242 67.94138 16.02597 67.94138 16.02597"></polyline>
            <path d="M89.81573,30.36292 L85.88725,30.36292 L92.77222,0.51453 L95.80971,0.51453 L102.77568,30.36292 L98.8067,30.36292 L96.9032,22.01995 L91.71922,22.01995 L89.81573,30.36292 M94.31121,10.88249 L92.61022,18.21296 L96.01221,18.21296 L94.31121,10.88249" id="path34973" fill="url(#linearGradient-35)"></path>
            <polyline id="path34975" fill="url(#linearGradient-36)" points="107.41291 12.25948 107.41291 30.32242 103.60593 30.32242 103.60593 0.47403 106.80541 0.47403 114.09539 18.53696 114.09539 0.47403 117.94287 0.47403 117.94287 30.32242 114.70288 30.32242 107.41291 12.25948 107.41291 12.25948"></polyline>
        </g>
    </g>
</svg>
