<?xml version="1.0" encoding="UTF-8" standalone="no"?>
<svg
   xmlns:dc="http://purl.org/dc/elements/1.1/"
   xmlns:cc="http://creativecommons.org/ns#"
   xmlns:rdf="http://www.w3.org/1999/02/22-rdf-syntax-ns#"
   xmlns:svg="http://www.w3.org/2000/svg"
   xmlns="http://www.w3.org/2000/svg"
   viewBox="0 0 2400 1350"
   height="1350"
   width="2400"
   xml:space="preserve"
   version="1.1"
   id="svg2"><metadata
     id="metadata8"><rdf:RDF><cc:Work
         rdf:about=""><dc:format>image/svg+xml</dc:format><dc:type
           rdf:resource="http://purl.org/dc/dcmitype/StillImage" /><dc:title></dc:title></cc:Work></rdf:RDF></metadata><defs
     id="defs6"><clipPath
       id="clipPath22"
       clipPathUnits="userSpaceOnUse"><path
         id="path24"
         d="m 0,1080 1920,0 L 1920,0 0,0 0,1080 Z" /></clipPath><clipPath
       id="clipPath90"
       clipPathUnits="userSpaceOnUse"><path
         id="path92"
         d="m 159.252,638.869 69.919,0 0,-28.114 -69.919,0 0,28.114 z" /></clipPath><clipPath
       id="clipPath118"
       clipPathUnits="userSpaceOnUse"><path
         id="path120"
         d="m 459.407,638.869 69.917,0 0,-28.114 -69.917,0 0,28.114 z" /></clipPath><clipPath
       id="clipPath134"
       clipPathUnits="userSpaceOnUse"><path
         id="path136"
         d="m 170.059,605.189 28.516,0 0,-29.823 -28.516,0 0,29.823 z" /></clipPath><clipPath
       id="clipPath166"
       clipPathUnits="userSpaceOnUse"><path
         id="path168"
         d="m 388.029,709.985 193.649,0 0,-193.647 -193.649,0 0,193.647 z" /></clipPath><clipPath
       id="clipPath182"
       clipPathUnits="userSpaceOnUse"><path
         id="path184"
         d="m 401.168,702.69 172.798,0 0,-172.799 -172.798,0 0,172.799 z" /></clipPath><clipPath
       id="clipPath206"
       clipPathUnits="userSpaceOnUse"><path
         id="path208"
         d="m 495.193,697.205 72.367,0 0,-91.277 -72.367,0 0,91.277 z" /></clipPath></defs><g
     transform="matrix(1.25,0,0,-1.25,0,1350)"
     id="g10"><g
       id="g18"><g
         clip-path="url(#clipPath22)"
         id="g20"><g
           transform="translate(751.9307,518.7705)"
           id="g26"><path
             id="path28"
             style="fill:#414042;fill-opacity:1;fill-rule:nonzero;stroke:none"
             d="m 0,0 0,92.713 28.321,0 0,-216.728 -28.321,0 0,103.147 -97.185,0 c 2.185,5.763 5.217,10.681 9.092,14.757 C -84.217,-2.04 -78.804,0 -71.845,0 L 0,0 Z m -136.833,92.713 28.32,0 0,-216.728 -28.32,0 0,216.728 z" /></g><g
           transform="translate(1031.7051,394.7559)"
           id="g30"><path
             id="path32"
             style="fill:#cc0000;fill-opacity:1;fill-rule:nonzero;stroke:none"
             d="m 0,0 -28.321,0 -54.554,154.124 29.811,0 38.158,-120.14 2.087,-7.452 2.087,7.452 27.128,72.741 c 2.184,-2.385 4.123,-5.469 5.813,-9.243 1.687,-3.777 2.879,-7.899 3.577,-12.371 C 26.48,80.64 26.681,75.968 26.383,71.1 26.085,66.228 25.139,61.411 23.551,56.642 L 0,0 Z" /></g><g
           transform="translate(1102.0596,394.7559)"
           id="g34"><path
             id="path36"
             style="fill:#414042;fill-opacity:1;fill-rule:nonzero;stroke:none"
             d="m 0,0 -54.257,154.124 29.812,0 38.158,-120.14 2.087,-7.452 2.087,7.452 37.86,120.14 28.32,0 L 29.812,0 0,0 Z" /></g><path
           id="path38"
           style="fill:#cc0000;fill-opacity:1;fill-rule:nonzero;stroke:none"
           d="m 1236.266,394.756 -27.725,0 0,225.969 27.725,0 0,-225.969 z" /><g
           transform="translate(1291.7148,494.623)"
           id="g40"><path
             id="path42"
             style="fill:#414042;fill-opacity:1;fill-rule:nonzero;stroke:none"
             d="m 0,0 58.132,-99.867 -31.601,0 -44.12,80.49 -22.955,-25.936 c -1.192,2.982 -1.937,6.26 -2.235,9.838 -0.298,3.578 -0.103,7.304 0.595,11.179 0.695,3.876 1.836,7.751 3.429,11.627 1.588,3.875 3.774,7.401 6.559,10.583 l 48.592,56.343 32.792,0 L 0,0 Z" /></g><g
           transform="translate(1393.9951,436.79)"
           id="g44"><path
             id="path46"
             style="fill:#cc0000;fill-opacity:1;fill-rule:nonzero;stroke:none"
             d="m 0,0 c 0,-6.959 1.439,-12.623 4.322,-16.993 2.879,-4.373 7.5,-6.558 13.863,-6.558 2.385,0 4.42,0.246 6.111,0.745 1.686,0.494 3.923,1.043 6.708,1.64 5.762,1.388 11.128,1.49 16.098,0.298 4.965,-1.193 9.54,-3.978 13.713,-8.348 -10.537,-6.362 -19.428,-10.582 -26.681,-12.669 -7.257,-2.087 -13.564,-3.131 -18.93,-3.131 -5.963,0 -11.529,0.745 -16.694,2.237 -5.171,1.49 -9.74,4.122 -13.714,7.899 -3.978,3.774 -7.108,8.693 -9.39,14.757 -2.287,6.06 -3.428,13.76 -3.428,23.103 l 0,109.11 L 0,112.09 0,0 Z" /></g><g
           transform="translate(1474.4854,394.7559)"
           id="g48"><path
             id="path50"
             style="fill:#414042;fill-opacity:1;fill-rule:nonzero;stroke:none"
             d="m 0,0 c -4.77,5.366 -7.899,10.681 -9.391,15.949 -1.49,5.264 -2.235,10.881 -2.235,16.843 l 0,121.332 27.725,0 0,-116.561 c 0,-5.567 0.344,-11.478 1.043,-17.739 C 17.836,13.564 19.079,6.954 20.868,0 L 0,0 Z" /></g><path
           id="path52"
           style="fill:#cc0000;fill-opacity:1;fill-rule:nonzero;stroke:none"
           d="m 1559.296,394.756 -27.128,0 0,225.969 27.128,0 0,-225.969 z" /><g
           transform="translate(1760.4883,548.8799)"
           id="g54"><path
             id="path56"
             style="fill:#cc0000;fill-opacity:1;fill-rule:nonzero;stroke:none"
             d="m 0,0 c 3.177,-3.382 5.413,-7.006 6.708,-10.881 1.29,-3.876 2.432,-8.198 3.428,-12.968 l 0,-5.366 2.385,5.366 c 3.973,7.551 9.54,13.76 16.695,18.632 7.154,4.867 14.803,7.304 22.954,7.304 3.974,0 8.841,-0.797 14.607,-2.385 L 63.2,-23.551 c -3.181,0.792 -5.916,1.29 -8.198,1.49 -2.287,0.197 -4.322,0.299 -6.111,0.299 -4.575,0 -9.144,-0.946 -13.713,-2.832 -4.574,-1.891 -8.646,-4.821 -12.223,-8.795 -3.577,-3.977 -6.512,-9.143 -8.794,-15.502 -2.287,-6.362 -3.429,-14.01 -3.429,-22.954 l 0,-82.279 -26.532,0 0,101.954 c 0,9.14 -0.4,18.381 -1.192,27.725 -0.796,9.34 -1.989,17.486 -3.577,24.445 L 0,0 Z" /></g><g
           transform="translate(558.0801,463.8496)"
           id="g58"><path
             id="path60"
             style="fill:#cc0000;fill-opacity:1;fill-rule:nonzero;stroke:none"
             d="m 0,0 c -3.299,-39.463 -38.4,-71.75 -78.001,-71.75 l -270.026,0 c -39.6,0 -74.702,32.287 -78.003,71.75 l -14.312,171.072 c -3.302,39.463 26.397,71.75 65.997,71.75 l 322.659,0 c 39.601,0 69.299,-32.287 66,-71.75 L 0,0 Z" /></g><g
           transform="translate(344.8452,461.2168)"
           id="g62"><path
             id="path64"
             style="fill:#ffde17;fill-opacity:1;fill-rule:nonzero;stroke:none"
             d="m 0,0 c -77.299,5.547 -41.559,32.755 -76.018,36.323 -36.554,3.78 -44.348,0.671 -56.231,0 -11.889,-0.668 -7.319,3.878 -7.319,3.878 0,0 24.724,11.661 49.377,31.088 16.064,12.648 31.758,25.596 38.4,50.289 15.534,57.65 29.881,75.797 52.013,73.955 22.134,1.842 36.466,-16.312 52.005,-73.955 6.653,-24.693 22.341,-37.641 38.411,-50.289 24.643,-19.427 49.368,-31.088 49.368,-31.088 0,0 4.575,-4.546 -7.318,-3.878 -11.888,0.671 -20.094,6.683 -56.234,0 C 39.357,29.468 77.739,5.547 0.433,0 L 0.222,-0.021 0,0 Z" /></g><g
           transform="translate(167.1108,581.7051)"
           id="g66"><path
             id="path68"
             style="fill:#414042;fill-opacity:1;fill-rule:nonzero;stroke:none"
             d="m 0,0 c 0,0 -18.378,31.036 -3.604,51.603 4.807,6.69 24.686,8.05 38.833,5.319 9.26,-1.786 19.459,-4.627 32.318,-15.254 2.356,-1.941 2.405,-9.092 3.258,-5.66 2.288,9.14 -20.279,22.914 -29.658,25.888 C 11.944,71.153 -8.861,55.27 -9.346,53.149 -10.244,49.279 -11.768,29.662 -10.46,20.405 -9.654,14.728 0,0 0,0" /></g><g
           transform="translate(408.8208,511.6934)"
           id="g70"><path
             id="path72"
             style="fill:#414042;fill-opacity:1;fill-rule:nonzero;stroke:none"
             d="m 0,0 c -3.021,-7.249 -7.518,-15.672 -12.25,-24.025 -3.017,-9.295 -9.327,-25.471 -18.993,-35.673 -1.546,-1.611 -2.883,-3.386 -4.126,-5.333 -2.684,-5.84 -4.834,-11.412 -6.61,-16.714 -13.557,-40.032 -5.881,-59.27 -22.552,-71.845 -17.295,12.575 -9.027,31.676 -22.449,71.511 -1.849,5.467 -4.096,11.239 -6.881,17.279 -0.035,0.035 -0.066,0.103 -0.066,0.134 -1.174,1.779 -2.451,3.459 -3.893,4.968 -9.698,10.233 -16.038,26.543 -19.092,35.806 -4.667,8.29 -9.099,16.608 -12.08,23.79 -5.607,7.988 -10.103,15.972 -3.09,20.169 16.245,9.765 35.002,53.021 46.813,74.8 3.323,6.139 6.076,10.572 8.087,12.08 3.958,2.985 8.02,4.461 11.844,4.964 0.269,-0.031 0.536,-0.066 0.807,-0.134 0.267,0.068 0.505,0.103 0.772,0.134 3.862,-0.503 7.917,-1.979 11.881,-4.964 1.979,-1.508 4.763,-5.941 8.087,-12.08 C -32.015,73.088 -13.222,29.832 3.018,20.067 9.999,15.87 5.572,7.988 0,0" /></g><g
           transform="translate(255.8262,604.3887)"
           id="g74"><path
             id="path76"
             style="fill:#ffde17;fill-opacity:1;fill-rule:nonzero;stroke:none"
             d="m 0,0 c 0,0 -5.873,-7.725 -6.407,-10.136 -0.534,-2.415 -30.298,-63.655 -86.359,-17.497 0,0 -18.19,22.402 -10.645,51.115 0.623,2.372 -0.762,7.887 1.036,9.704 25.626,25.885 86.292,10.136 97.302,-16.111 C -3.338,12.944 0,0 0,0" /></g><g
           transform="translate(166.064,580.5576)"
           id="g78"><path
             id="path80"
             style="fill:#414042;fill-opacity:1;fill-rule:nonzero;stroke:none"
             d="m 0,0 c 0,0 -21.46,32.764 -4.205,54.483 5.608,7.056 28.825,8.495 45.348,5.612 10.813,-1.889 22.724,-4.887 37.741,-16.111 2.747,-2.055 2.803,-9.596 3.804,-5.973 2.669,9.654 -23.682,24.191 -34.637,27.332 -34.103,9.775 -58.396,-6.999 -58.968,-9.232 -1.047,-4.085 -2.824,-24.802 -1.295,-34.573 C -11.272,15.548 0,0 0,0" /></g><g
           transform="translate(234.4692,610.5439)"
           id="g82"><path
             id="path84"
             style="fill:#414042;fill-opacity:1;fill-rule:nonzero;stroke:none"
             d="m 0,0 c 0,-13.929 -10.996,-25.221 -24.557,-25.221 -13.566,0 -24.56,11.292 -24.56,25.221 0,13.929 10.994,25.222 24.56,25.222 C -10.996,25.222 0,13.929 0,0" /></g><g
           id="g86"><g
             id="g88" /><g
             id="g94"><g
               style="opacity:0.80000299"
               id="g96"
               clip-path="url(#clipPath90)"><g
                 id="g98"
                 transform="translate(159.2563,611.8711)"><path
                   id="path100"
                   style="fill:#f1f2f2;fill-opacity:1;fill-rule:nonzero;stroke:none"
                   d="M 0,0 C 2.605,55.872 71.823,7.891 69.874,6.697 58.529,-0.24 39.642,0.543 33.436,4.164 27.229,7.782 19.021,10.134 12.814,7.24 6.607,4.344 -0.192,-4.136 0,0" /></g></g></g></g><g
           transform="translate(432.75,604.3887)"
           id="g102"><path
             id="path104"
             style="fill:#ffde17;fill-opacity:1;fill-rule:nonzero;stroke:none"
             d="m 0,0 c 0,0 5.872,-7.725 6.407,-10.136 0.535,-2.415 30.298,-63.655 86.359,-17.497 0,0 18.189,22.402 10.644,51.115 -0.621,2.372 0.764,7.887 -1.035,9.704 C 76.75,59.071 16.084,43.322 5.073,17.075 3.34,12.944 0,0 0,0" /></g><g
           transform="translate(522.5117,580.5576)"
           id="g106"><path
             id="path108"
             style="fill:#414042;fill-opacity:1;fill-rule:nonzero;stroke:none"
             d="m 0,0 c 0,0 21.461,32.764 4.207,54.483 -5.609,7.056 -28.827,8.495 -45.35,5.612 -10.811,-1.889 -22.724,-4.887 -37.739,-16.111 -2.749,-2.055 -2.804,-9.596 -3.804,-5.973 -2.67,9.654 23.68,24.191 34.634,27.332 34.104,9.775 58.398,-6.999 58.97,-9.232 1.047,-4.085 2.824,-24.802 1.295,-34.573 C 11.274,15.548 0,0 0,0" /></g><g
           transform="translate(454.1045,610.5439)"
           id="g110"><path
             id="path112"
             style="fill:#414042;fill-opacity:1;fill-rule:nonzero;stroke:none"
             d="m 0,0 c 0,-13.929 10.999,-25.221 24.56,-25.221 13.566,0 24.562,11.292 24.562,25.221 0,13.929 -10.996,25.222 -24.562,25.222 C 10.999,25.222 0,13.929 0,0" /></g><g
           id="g114"><g
             id="g116" /><g
             id="g122"><g
               style="opacity:0.89999402"
               id="g124"
               clip-path="url(#clipPath118)"><g
                 id="g126"
                 transform="translate(529.3203,611.8711)"><path
                   id="path128"
                   style="fill:#f1f2f2;fill-opacity:1;fill-rule:nonzero;stroke:none"
                   d="m 0,0 c -2.604,55.872 -71.823,7.891 -69.873,6.697 11.344,-6.937 30.23,-6.154 36.435,-2.533 6.209,3.618 14.417,5.97 20.624,3.076 C -6.607,4.344 0.191,-4.136 0,0" /></g></g></g></g><g
           id="g130"><g
             id="g132" /><g
             id="g138"><g
               style="opacity:0.80000299"
               id="g140"
               clip-path="url(#clipPath134)"><g
                 id="g142"
                 transform="translate(197.771,577.7959)"><path
                   id="path144"
                   style="fill:#f1f2f2;fill-opacity:1;fill-rule:nonzero;stroke:none"
                   d="m 0,0 c -3.683,-5.962 -18.155,0 -23.772,7.604 -4.162,5.639 -5.457,8.03 -1.776,13.993 3.684,5.959 7.471,7.492 13.429,3.81 C -6.153,21.72 3.684,5.966 0,0" /></g></g></g></g><g
           transform="translate(885.1855,418.3066)"
           id="g146"><path
             id="path148"
             style="fill:#cc0000;fill-opacity:1;fill-rule:nonzero;stroke:none"
             d="m 0,0 c -6.857,-3.382 -13.666,-5.067 -20.42,-5.067 -7.557,0 -13.518,2.235 -17.887,6.707 -4.375,4.471 -6.558,9.786 -6.558,15.949 0,2.78 0.394,5.515 1.191,8.198 0.793,2.683 2.385,5.165 4.77,7.452 2.384,2.283 5.613,4.324 9.689,6.112 4.07,1.789 9.391,3.176 15.949,4.173 3.973,0.597 7.252,1.789 9.838,3.578 2.58,1.789 4.719,3.824 6.408,6.111 1.688,2.282 2.879,4.621 3.579,7.006 0.693,2.385 1.238,4.471 1.638,6.26 -15.304,-1.789 -28.222,-4.024 -38.754,-6.708 -10.537,-2.682 -19.033,-6.013 -25.488,-9.986 -6.461,-3.978 -11.133,-8.748 -14.012,-14.309 -2.882,-5.567 -4.322,-12.125 -4.322,-19.676 0,-5.962 1.141,-11.529 3.428,-16.695 2.283,-5.169 5.613,-9.641 9.986,-13.415 4.369,-3.777 9.639,-6.758 15.801,-8.943 6.158,-2.184 13.117,-3.279 20.867,-3.279 7.156,0 13.961,1.146 20.422,3.428 6.455,2.283 12.189,6.283 14.295,10.123 3.619,6.595 6.51,29.377 6.51,29.377 C 11.164,8.841 6.857,3.377 0,0" /></g><g
           transform="translate(933.4805,415.1768)"
           id="g150"><path
             id="path152"
             style="fill:#414042;fill-opacity:1;fill-rule:nonzero;stroke:none"
             d="m 0,0 c -0.895,8.444 -1.342,18.632 -1.342,30.557 l 0,42.63 c 0,20.271 -5.217,35.922 -15.652,46.952 -10.434,11.03 -25.293,16.546 -44.567,16.546 -6.558,0 -13.564,-0.648 -21.017,-1.938 -7.453,-1.295 -16.051,-4.025 -25.787,-8.198 l 6.857,-18.484 c 7.154,2.581 13.363,4.421 18.631,5.516 5.264,1.09 10.584,1.64 15.949,1.64 13.514,0 23.151,-3.727 28.918,-11.18 5.762,-7.453 8.645,-17.044 8.645,-28.768 l 0,-55.747 c 0,0 0.553,-18.957 1.93,-25.097 0.713,-3.178 2.499,-5.859 4.033,-8.441 1.588,-2.682 3.773,-4.82 6.558,-6.409 l 20.272,0 C 2.035,-15.255 0.895,-8.45 0,0" /></g><g
           transform="translate(1659.9668,418.3066)"
           id="g154"><path
             id="path156"
             style="fill:#cc0000;fill-opacity:1;fill-rule:nonzero;stroke:none"
             d="m 0,0 c -6.856,-3.382 -13.666,-5.067 -20.42,-5.067 -7.556,0 -13.518,2.235 -17.887,6.707 -4.374,4.471 -6.558,9.786 -6.558,15.949 0,2.78 0.395,5.515 1.192,8.198 0.792,2.683 2.385,5.165 4.77,7.452 2.384,2.283 5.613,4.324 9.688,6.112 4.071,1.789 9.391,3.176 15.949,4.173 3.974,0.597 7.253,1.789 9.838,3.578 2.58,1.789 4.719,3.824 6.409,6.111 1.687,2.282 2.879,4.621 3.578,7.006 0.694,2.385 1.239,4.471 1.639,6.26 -15.305,-1.789 -28.222,-4.024 -38.754,-6.708 -10.537,-2.682 -19.033,-6.013 -25.489,-9.986 -6.46,-3.978 -11.133,-8.748 -14.011,-14.309 -2.883,-5.567 -4.323,-12.125 -4.323,-19.676 0,-5.962 1.142,-11.529 3.429,-16.695 2.282,-5.169 5.612,-9.641 9.986,-13.415 4.369,-3.777 9.638,-6.758 15.8,-8.943 6.158,-2.184 13.117,-3.279 20.868,-3.279 7.155,0 13.96,1.146 20.421,3.428 6.456,2.283 12.189,6.283 14.296,10.123 3.618,6.595 6.51,29.377 6.51,29.377 C 11.164,8.841 6.857,3.377 0,0" /></g><g
           transform="translate(1708.2617,415.1768)"
           id="g158"><path
             id="path160"
             style="fill:#414042;fill-opacity:1;fill-rule:nonzero;stroke:none"
             d="m 0,0 c -0.895,8.444 -1.342,18.632 -1.342,30.557 l 0,42.63 c 0,20.271 -5.217,35.922 -15.651,46.952 -10.434,11.03 -25.293,16.546 -44.568,16.546 -6.558,0 -13.564,-0.648 -21.016,-1.938 -7.453,-1.295 -16.052,-4.025 -25.787,-8.198 l 6.856,-18.484 c 7.155,2.581 13.364,4.421 18.632,5.516 5.264,1.09 10.583,1.64 15.949,1.64 13.513,0 23.151,-3.727 28.917,-11.18 5.762,-7.453 8.646,-17.044 8.646,-28.768 l 0,-55.747 c 0,0 0.552,-18.957 1.93,-25.097 0.713,-3.178 2.499,-5.859 4.032,-8.441 1.589,-2.682 3.773,-4.82 6.558,-6.409 l 20.272,0 C 2.035,-15.255 0.895,-8.45 0,0" /></g><g
           id="g162"><g
             id="g164" /><g
             id="g170"><g
               style="opacity:0.5"
               id="g172"
               clip-path="url(#clipPath166)"><g
                 id="g174"
                 transform="translate(580.8164,625.9648)"><path
                   id="path176"
                   style="fill:#00fdff;fill-opacity:1;fill-rule:nonzero;stroke:none"
                   d="m 0,0 c 7.07,-53.001 -30.162,-101.696 -83.158,-108.766 -53.002,-7.07 -101.698,30.164 -108.768,83.162 -7.069,52.999 30.163,101.693 83.164,108.763 C -55.766,90.229 -7.069,52.998 0,0" /></g></g></g></g><g
           id="g178"><g
             id="g180" /><g
             id="g186"><g
               style="opacity:0.5"
               id="g188"
               clip-path="url(#clipPath182)"><g
                 id="g190"
                 transform="translate(573.1973,627.7109)"><path
                   id="path192"
                   style="fill:#ffffff;fill-opacity:1;fill-rule:nonzero;stroke:none"
                   d="m 0,0 c 6.311,-47.294 -26.918,-90.74 -74.205,-97.051 -47.299,-6.31 -90.749,26.908 -97.055,74.204 -6.311,47.289 26.91,90.745 74.208,97.058 C -49.764,80.519 -6.309,47.29 0,0" /></g></g></g></g><g
           transform="translate(472.8857,702.9062)"
           id="g194"><path
             id="path196"
             style="fill:#414042;fill-opacity:1;fill-rule:nonzero;stroke:none"
             d="m 0,0 c -49.481,-6.601 -84.372,-52.236 -77.77,-101.716 6.6,-49.483 52.232,-84.368 101.712,-77.765 49.479,6.598 84.365,52.224 77.762,101.709 C 95.105,-28.293 49.478,6.601 0,0 m 25.604,-191.932 c -56.343,-7.518 -108.305,32.217 -115.822,88.557 -7.517,56.349 32.214,108.303 88.558,115.818 56.346,7.516 108.3,-32.206 115.817,-88.554 7.517,-56.338 -32.207,-108.303 -88.553,-115.821" /></g><g
           transform="translate(573.5605,565.6035)"
           id="g198"><path
             id="path200"
             style="fill:#414042;fill-opacity:1;fill-rule:nonzero;stroke:none"
             d="m 0,0 c -4.504,-0.6 -7.672,-4.746 -7.073,-9.246 0.602,-4.509 4.746,-7.676 9.249,-7.075 4.508,0.601 7.681,4.745 7.08,9.253 C 8.652,-2.566 4.506,0.604 0,0 m 3.099,-23.24 c -8.312,-1.109 -15.984,4.754 -17.091,13.071 -1.11,8.314 4.756,15.979 13.068,17.086 8.318,1.109 15.99,-4.749 17.098,-13.062 1.111,-8.32 -4.758,-15.986 -13.075,-17.095" /></g><g
           id="g202"><g
             id="g204" /><g
             id="g210"><g
               style="opacity:0.80000299"
               id="g212"
               clip-path="url(#clipPath206)"><g
                 id="g214"
                 transform="translate(496.9756,696.6016)"><path
                   id="path216"
                   style="fill:#ffffff;fill-opacity:1;fill-rule:nonzero;stroke:none"
                   d="m 0,0 c -10.142,-5.703 25.478,-14.284 43.995,-40.269 18.518,-25.987 18.397,-52.892 22.051,-50.22 5.346,3.909 9.506,32.857 -9.012,58.844 C 38.517,-5.658 5.56,3.125 0,0" /></g></g></g></g></g></g></g></svg>