<?xml version="1.0" encoding="utf-8"?>
<!-- Generator: Adobe Illustrator 16.0.4, SVG Export Plug-In . SVG Version: 6.00 Build 0)  -->
<!DOCTYPE svg PUBLIC "-//W3C//DTD SVG 1.0//EN" "http://www.w3.org/TR/2001/REC-SVG-20010904/DTD/svg10.dtd">
<svg version="1.0" xmlns="http://www.w3.org/2000/svg" xmlns:xlink="http://www.w3.org/1999/xlink" x="0px" y="0px" width="200px"
	 height="200px" viewBox="0 0 200 200" enable-background="new 0 0 200 200" xml:space="preserve">
<g id="Layer_1">
	<g>
		<path fill="#CC0000" d="M184.397,133.158c-1.316,15.747-15.322,28.63-31.123,28.63H45.533c-15.801,0-29.806-12.883-31.124-28.63
			l-5.71-68.257C7.382,49.155,19.231,36.271,35.032,36.271h128.742c15.801,0,27.65,12.883,26.334,28.629L184.397,133.158z"/>
		<g>
			<path fill="#FFDE17" d="M99.315,134.209c-30.842-2.213-16.582-13.069-30.331-14.493c-14.585-1.508-17.695-0.268-22.437,0
				c-4.744,0.266-2.92-1.548-2.92-1.548s9.864-4.653,19.701-12.403c6.41-5.046,12.671-10.214,15.322-20.066
				c6.198-23.002,11.922-30.243,20.753-29.508c8.831-0.734,14.55,6.509,20.75,29.508c2.655,9.853,8.915,15.02,15.326,20.066
				c9.833,7.75,19.698,12.403,19.698,12.403s1.825,1.814-2.92,1.548c-4.743-0.268-8.018-2.667-22.438,0
				c-14.802,2.734,0.512,12.279-30.333,14.493l-0.084,0.009L99.315,134.209z"/>
		</g>
		<path fill="#414042" d="M28.399,86.134c0,0-7.333-12.383-1.438-20.589c1.918-2.67,9.85-3.213,15.495-2.123
			c3.694,0.713,7.764,1.846,12.895,6.086c0.94,0.774,0.96,3.628,1.3,2.258c0.913-3.647-8.091-9.143-11.833-10.33
			c-11.652-3.694-19.954,2.644-20.147,3.49c-0.358,1.544-0.966,9.372-0.444,13.065C24.547,80.257,28.399,86.134,28.399,86.134z"/>
		<path fill="#414042" d="M124.842,114.069c-1.206,2.892-3,6.253-4.888,9.586c-1.204,3.708-3.721,10.163-7.579,14.233
			c-0.616,0.644-1.15,1.352-1.646,2.129c-1.07,2.329-1.929,4.553-2.637,6.668c-5.41,15.973-2.347,23.649-8.999,28.667
			c-6.901-5.018-3.602-12.639-8.958-28.534c-0.737-2.181-1.634-4.484-2.745-6.894c-0.014-0.015-0.026-0.041-0.026-0.054
			c-0.469-0.709-0.979-1.38-1.554-1.983c-3.869-4.083-6.398-10.59-7.618-14.286c-1.862-3.307-3.63-6.626-4.82-9.492
			c-2.237-3.188-4.031-6.374-1.233-8.048c6.482-3.897,13.966-21.155,18.679-29.846c1.326-2.45,2.425-4.218,3.227-4.819
			c1.58-1.191,3.2-1.781,4.727-1.981c0.107,0.013,0.214,0.026,0.322,0.053c0.106-0.027,0.201-0.041,0.308-0.053
			c1.541,0.2,3.158,0.79,4.74,1.981c0.79,0.602,1.9,2.37,3.227,4.819c4.699,8.69,12.197,25.949,18.678,29.846
			C128.831,107.736,127.065,110.882,124.842,114.069z"/>
		<path fill="#FFDE17" d="M63.797,77.083c0,0-2.344,3.083-2.557,4.045c-0.213,0.964-12.089,25.398-34.457,6.981
			c0,0-7.258-8.939-4.248-20.396c0.249-0.946-0.304-3.146,0.413-3.871c10.225-10.329,34.431-4.045,38.824,6.428
			C62.465,71.918,63.797,77.083,63.797,77.083z"/>
		<path fill="#414042" d="M27.981,86.592c0,0-8.563-13.074-1.678-21.739c2.237-2.816,11.501-3.39,18.094-2.239
			c4.314,0.753,9.067,1.95,15.059,6.428c1.097,0.821,1.118,3.829,1.518,2.383c1.065-3.851-9.448-9.652-13.82-10.905
			c-13.607-3.901-23.3,2.792-23.529,3.683c-0.417,1.63-1.126,9.897-0.516,13.795C23.484,80.388,27.981,86.592,27.981,86.592z"/>
		<ellipse fill="#414042" cx="45.476" cy="74.627" rx="9.799" ry="10.062"/>
		<path opacity="0.8" fill="#F1F2F2" d="M25.265,74.097c1.039-22.293,28.658-3.148,27.88-2.672
			c-4.527,2.769-12.063,2.456-14.539,1.011c-2.477-1.444-5.752-2.382-8.229-1.227S25.188,75.748,25.265,74.097z"/>
		<path fill="#FFDE17" d="M134.39,77.083c0,0,2.342,3.083,2.556,4.045c0.214,0.964,12.089,25.398,34.458,6.981
			c0,0,7.257-8.939,4.247-20.396c-0.248-0.946,0.305-3.146-0.413-3.871c-10.225-10.329-34.431-4.045-38.824,6.428
			C135.723,71.918,134.39,77.083,134.39,77.083z"/>
		<path fill="#414042" d="M170.205,86.592c0,0,8.563-13.074,1.679-21.739c-2.238-2.816-11.502-3.39-18.095-2.239
			c-4.313,0.753-9.067,1.95-15.058,6.428c-1.098,0.821-1.119,3.829-1.519,2.383c-1.065-3.851,9.449-9.652,13.819-10.905
			c13.607-3.901,23.3,2.792,23.529,3.683c0.417,1.63,1.127,9.897,0.517,13.795C174.704,80.388,170.205,86.592,170.205,86.592z"/>
		<ellipse fill="#414042" cx="152.71" cy="74.627" rx="9.8" ry="10.062"/>
		<path opacity="0.9" fill="#F1F2F2" d="M172.922,74.097c-1.04-22.293-28.658-3.148-27.881-2.672
			c4.527,2.769,12.063,2.456,14.539,1.011c2.478-1.444,5.751-2.382,8.229-1.227C170.285,72.364,172.998,75.748,172.922,74.097z"/>
		<path opacity="0.8" fill="#F1F2F2" d="M40.633,87.694c-1.47,2.378-7.244,0-9.485-3.035c-1.661-2.25-2.177-3.204-0.709-5.583
			c1.47-2.377,2.981-2.988,5.359-1.52C38.177,79.027,42.103,85.313,40.633,87.694z"/>
		<circle opacity="0.5" fill="#00FDFF" cx="155.18" cy="73.582" r="36.123"/>
		<path opacity="0.5" fill="#FFFFFF" d="M190.429,67.778c2.519,18.87-10.74,36.206-29.608,38.723
			c-18.873,2.518-36.209-10.737-38.725-29.608c-2.518-18.869,10.737-36.208,29.609-38.727
			C170.573,35.65,187.912,48.908,190.429,67.778z"/>
		<path fill="#414042" d="M197.027,95.01c-0.319-2.392-2-4.275-4.159-4.972c2.921-6.661,4.115-14.175,3.085-21.895
			c-3-22.483-23.729-38.332-46.211-35.333c-22.481,2.999-38.335,23.728-35.335,46.212c2.999,22.48,23.732,38.334,46.213,35.334
			c10.564-1.409,19.664-6.735,26.032-14.317c1.295,1.331,3.18,2.056,5.158,1.793C195.129,101.389,197.471,98.33,197.027,95.01z
			 M159.957,109.388c-19.742,2.634-37.95-11.285-40.583-31.029c-2.634-19.744,11.288-37.953,31.031-40.585
			c19.741-2.634,37.947,11.289,40.58,31.032c1.136,8.51-0.805,16.734-4.96,23.548c-0.118,0.17-0.228,0.346-0.328,0.527
			C180.17,101.605,170.97,107.919,159.957,109.388z M191.442,99.071c-1.208,0.161-2.35-0.358-3.043-1.262
			c1.207-1.654,2.292-3.399,3.243-5.219c1.344,0.264,2.434,1.357,2.625,2.789C194.507,97.178,193.24,98.831,191.442,99.071z"/>
		<path opacity="0.8" fill="#FFFFFF" d="M160.016,40.29c-4.046,2.276,10.166,5.699,17.555,16.067
			c7.388,10.369,7.34,21.104,8.798,20.039c2.132-1.56,3.792-13.11-3.596-23.479C175.385,42.547,162.234,39.043,160.016,40.29z"/>
	</g>
</g>
<g id="Guides" display="none">
</g>
</svg>
