<?xml version="1.0" encoding="UTF-8" standalone="no"?>
<svg
   xmlns:dc="http://purl.org/dc/elements/1.1/"
   xmlns:cc="http://creativecommons.org/ns#"
   xmlns:rdf="http://www.w3.org/1999/02/22-rdf-syntax-ns#"
   xmlns:svg="http://www.w3.org/2000/svg"
   xmlns="http://www.w3.org/2000/svg"
   xmlns:sodipodi="http://sodipodi.sourceforge.net/DTD/sodipodi-0.dtd"
   xmlns:inkscape="http://www.inkscape.org/namespaces/inkscape"
   viewBox="0 0 180 40"
   id="svg2"
   version="1.1"
   inkscape:version="0.91 r13725"
   sodipodi:docname="kubernetes-logo-light_bg.svg">
  <metadata
     id="metadata18">
    <rdf:RDF>
      <cc:Work
         rdf:about="">
        <dc:format>image/svg+xml</dc:format>
        <dc:type
           rdf:resource="http://purl.org/dc/dcmitype/StillImage" />
        <dc:title></dc:title>
      </cc:Work>
    </rdf:RDF>
  </metadata>
  <defs
     id="defs16" />
  <sodipodi:namedview
     pagecolor="#ffffff"
     bordercolor="#666666"
     borderopacity="1"
     objecttolerance="10"
     gridtolerance="10"
     guidetolerance="10"
     inkscape:pageopacity="0"
     inkscape:pageshadow="2"
     inkscape:window-width="640"
     inkscape:window-height="480"
     id="namedview14"
     showgrid="false"
     inkscape:zoom="8.95"
     inkscape:cx="96.368715"
     inkscape:cy="34.52514"
     inkscape:current-layer="svg2" />
  <style
     id="style4">.st0{fill:#326de6}.st1{fill:#FFF}</style>
  <path
     id="path6"
     style="fill:#326de6;fill-opacity:1"
     d="m 57.07,21.11 c 0.32,-0.37 0.6,-0.74 0.92,-1.15 0.33,-0.42 0.65,-0.83 0.92,-1.24 0.28,-0.42 0.6,-0.83 0.88,-1.24 0.27,-0.42 0.51,-0.79 0.74,-1.15 l 3.77,0 c -0.32,0.41 -0.64,0.82 -1.06,1.28 -0.41,0.46 -0.78,0.92 -1.2,1.43 -0.41,0.46 -0.82,0.92 -1.24,1.38 -0.41,0.46 -0.78,0.87 -1.15,1.24 0.41,0.41 0.88,0.92 1.38,1.47 0.51,0.55 0.97,1.15 1.48,1.79 0.46,0.6 0.92,1.24 1.33,1.84 0.42,0.6 0.74,1.15 0.97,1.65 l -3.64,0 C 60.99,28 60.71,27.5 60.34,26.99 60.02,26.44 59.65,25.93 59.28,25.38 58.91,24.88 58.55,24.37 58.13,23.91 57.76,23.45 57.39,23.04 57.07,22.76 l 0,5.7 -3.18,0 0,-17.24 3.18,-0.55 0,10.44 z m 19.25,6.85 0,-11.63 -3.18,0 0,9.46 c -0.46,0.1 -0.97,0.14 -1.43,0.14 -0.78,0 -1.29,-0.27 -1.56,-0.82 -0.28,-0.56 -0.42,-1.38 -0.42,-2.49 l 0,-6.29 -3.17,0 0,6.71 c 0,0.82 0.04,1.56 0.18,2.25 0.14,0.69 0.37,1.29 0.74,1.79 0.37,0.51 0.87,0.88 1.52,1.15 0.64,0.28 1.42,0.41 2.44,0.41 0.97,0 1.89,-0.09 2.71,-0.23 0.88,-0.13 1.62,-0.32 2.17,-0.45 z m 10.45,-5.7 c 0,1.33 -0.23,2.25 -0.74,2.85 -0.5,0.59 -1.15,0.82 -1.93,0.82 -0.18,0 -0.41,0 -0.69,-0.04 -0.28,0 -0.51,-0.05 -0.74,-0.1 l 0,-6.52 c 0.23,-0.14 0.51,-0.23 0.88,-0.37 0.32,-0.09 0.69,-0.14 1.01,-0.14 0.74,0 1.34,0.32 1.66,0.92 0.37,0.6 0.55,1.47 0.55,2.58 z m 3.22,0.09 c 0,-0.92 -0.09,-1.79 -0.32,-2.58 -0.18,-0.78 -0.5,-1.42 -0.92,-1.97 -0.41,-0.55 -0.92,-0.97 -1.52,-1.29 -0.6,-0.28 -1.29,-0.46 -2.07,-0.46 -0.42,0 -0.83,0.05 -1.24,0.14 -0.42,0.09 -0.83,0.23 -1.29,0.41 l 0,-6.02 -3.18,0.55 0,16.87 c 0.6,0.18 1.29,0.32 2.16,0.46 0.88,0.14 1.71,0.18 2.54,0.18 0.92,0 1.75,-0.13 2.44,-0.46 0.73,-0.27 1.33,-0.73 1.84,-1.28 0.51,-0.55 0.87,-1.2 1.15,-1.98 0.28,-0.73 0.41,-1.61 0.41,-2.57 z m 1.57,0.09 c 0,1.01 0.14,1.93 0.46,2.67 0.32,0.78 0.74,1.42 1.34,1.93 0.55,0.5 1.24,0.92 2.07,1.19 0.83,0.28 1.75,0.41 2.76,0.41 0.78,0 1.47,-0.04 2.07,-0.18 0.6,-0.14 1.2,-0.27 1.75,-0.46 l -0.41,-2.66 c -0.42,0.13 -0.88,0.27 -1.43,0.41 -0.55,0.14 -1.2,0.18 -1.8,0.18 -1.01,0 -1.84,-0.23 -2.53,-0.69 -0.64,-0.46 -0.97,-1.05 -0.97,-1.84 l 7.83,0 c 0,-0.13 0.05,-0.32 0.05,-0.55 l 0,-0.64 c 0,-2.02 -0.46,-3.54 -1.38,-4.6 -0.92,-1.05 -2.26,-1.56 -4.05,-1.56 -0.74,0 -1.43,0.14 -2.12,0.41 -0.69,0.28 -1.29,0.69 -1.84,1.2 -0.56,0.55 -0.97,1.19 -1.29,2.02 -0.37,0.78 -0.51,1.7 -0.51,2.76 z m 8.06,-1.24 -4.84,0 c 0.05,-0.32 0.09,-0.64 0.23,-0.97 0.1,-0.32 0.28,-0.59 0.46,-0.82 0.19,-0.23 0.46,-0.42 0.74,-0.56 0.28,-0.13 0.64,-0.18 1.06,-0.18 0.41,0 0.78,0.09 1.06,0.23 0.27,0.14 0.55,0.32 0.73,0.6 0.19,0.23 0.33,0.5 0.42,0.82 0.09,0.24 0.14,0.56 0.14,0.88 z m 15.15,-1.66 0.55,-2.94 c -0.28,-0.09 -0.6,-0.18 -0.97,-0.23 -0.37,-0.04 -0.73,-0.09 -1.1,-0.14 -0.37,-0.04 -0.69,-0.09 -1.02,-0.09 -0.32,0 -0.55,-0.04 -0.73,-0.04 -1.2,0 -2.21,0.09 -3.09,0.27 -0.87,0.19 -1.75,0.42 -2.58,0.74 l 0,11.26 3.18,0 0,-8.92 c 0.46,-0.14 0.88,-0.18 1.29,-0.23 0.41,-0.04 0.87,-0.04 1.29,-0.04 0.18,0 0.41,0 0.69,0.04 0.28,0 0.55,0.05 0.83,0.09 0.27,0.05 0.6,0.1 0.87,0.14 0.37,0 0.6,0.05 0.79,0.09 z m 3.27,8.83 3.17,0 0,-9.47 c 0.28,-0.05 0.51,-0.05 0.74,-0.09 0.23,0 0.46,-0.05 0.69,-0.05 0.78,0 1.29,0.23 1.57,0.74 0.27,0.5 0.36,1.28 0.36,2.43 l 0,6.39 3.18,0 0,-6.8 c 0,-0.83 -0.09,-1.56 -0.23,-2.25 -0.14,-0.69 -0.41,-1.24 -0.78,-1.75 -0.37,-0.5 -0.88,-0.87 -1.52,-1.15 -0.65,-0.27 -1.43,-0.41 -2.4,-0.41 -0.96,0 -1.88,0.04 -2.71,0.18 -0.83,0.14 -1.52,0.28 -2.07,0.42 l 0,11.81 z m 11.97,-5.93 c 0,1.01 0.14,1.93 0.46,2.67 0.32,0.78 0.73,1.42 1.33,1.93 0.56,0.5 1.25,0.92 2.07,1.19 0.83,0.28 1.75,0.41 2.77,0.41 0.78,0 1.47,-0.04 2.07,-0.18 0.6,-0.14 1.2,-0.27 1.75,-0.46 l -0.41,-2.66 c -0.42,0.13 -0.88,0.27 -1.43,0.41 -0.55,0.14 -1.2,0.18 -1.8,0.18 -1.01,0 -1.84,-0.23 -2.53,-0.69 -0.65,-0.46 -0.97,-1.05 -0.97,-1.84 l 7.83,0 c 0,-0.13 0.05,-0.32 0.05,-0.55 l 0,-0.64 c 0,-2.02 -0.46,-3.54 -1.39,-4.6 -0.92,-1.05 -2.25,-1.56 -4.05,-1.56 -0.73,0 -1.42,0.14 -2.12,0.41 -0.69,0.28 -1.28,0.69 -1.84,1.2 -0.55,0.55 -0.96,1.19 -1.29,2.02 -0.32,0.78 -0.5,1.7 -0.5,2.76 z m 3.27,-1.24 c 0.04,-0.32 0.09,-0.64 0.23,-0.97 0.09,-0.32 0.27,-0.59 0.46,-0.82 0.18,-0.23 0.46,-0.42 0.73,-0.56 0.33,-0.13 0.65,-0.18 1.06,-0.18 0.42,0 0.79,0.09 1.06,0.23 0.28,0.14 0.55,0.32 0.74,0.6 0.18,0.23 0.32,0.5 0.41,0.82 0.1,0.28 0.14,0.6 0.14,0.92 l -4.83,0 0,-0.04 z m 12.43,-2.25 0,4.96 c 0,1.01 0.09,1.84 0.32,2.44 0.19,0.64 0.51,1.1 0.92,1.42 0.42,0.32 0.88,0.55 1.43,0.69 0.55,0.14 1.2,0.18 1.93,0.18 0.65,0 1.29,-0.04 1.98,-0.13 0.69,-0.1 1.29,-0.28 1.89,-0.51 l -0.41,-2.71 c -0.28,0.14 -0.56,0.23 -0.83,0.32 -0.23,0.09 -0.51,0.14 -0.74,0.18 -0.23,0.05 -0.46,0.1 -0.74,0.1 -0.23,0 -0.5,0.04 -0.82,0.04 -0.28,0 -0.51,-0.04 -0.74,-0.09 -0.23,-0.05 -0.42,-0.14 -0.55,-0.32 -0.14,-0.14 -0.28,-0.37 -0.37,-0.64 -0.09,-0.28 -0.14,-0.65 -0.14,-1.06 l 0,-4.87 5.06,0 0,-2.62 -5.06,0 0,-3.54 -3.18,0.5 0,3.04 -2.76,0 0,2.62 2.81,0 z m 9.94,3.49 c 0,1.01 0.14,1.93 0.46,2.67 0.33,0.78 0.74,1.42 1.34,1.93 0.55,0.5 1.24,0.92 2.07,1.19 0.83,0.28 1.75,0.41 2.76,0.41 0.79,0 1.48,-0.04 2.08,-0.18 0.6,-0.14 1.19,-0.27 1.75,-0.46 l -0.42,-2.66 c -0.41,0.13 -0.87,0.27 -1.43,0.41 -0.55,0.14 -1.19,0.18 -1.79,0.18 -1.01,0 -1.84,-0.23 -2.53,-0.69 -0.65,-0.46 -0.97,-1.05 -0.97,-1.84 l 7.83,0 c 0,-0.13 0.04,-0.32 0.04,-0.55 l 0,-0.64 c 0,-2.02 -0.46,-3.54 -1.38,-4.6 -0.92,-1.05 -2.25,-1.56 -4.05,-1.56 -0.74,0 -1.43,0.14 -2.12,0.41 -0.69,0.28 -1.29,0.69 -1.84,1.2 -0.55,0.55 -0.97,1.19 -1.29,2.02 -0.32,0.78 -0.51,1.7 -0.51,2.76 z m 8.11,-1.24 -4.84,0 c 0.05,-0.32 0.1,-0.64 0.23,-0.97 0.1,-0.32 0.28,-0.59 0.46,-0.82 0.19,-0.23 0.46,-0.42 0.74,-0.56 0.28,-0.13 0.65,-0.18 1.06,-0.18 0.41,0 0.78,0.09 1.06,0.23 0.28,0.14 0.55,0.32 0.74,0.6 0.18,0.23 0.32,0.5 0.41,0.82 0.09,0.24 0.14,0.56 0.14,0.88 z m 9.81,4.78 c -0.69,0 -1.39,-0.09 -2.08,-0.32 -0.69,-0.19 -1.33,-0.42 -1.93,-0.65 l -0.51,2.62 c 0.46,0.19 1.02,0.42 1.75,0.65 0.74,0.23 1.61,0.36 2.67,0.36 1.02,0 1.89,-0.09 2.58,-0.27 0.69,-0.18 1.29,-0.46 1.71,-0.78 0.41,-0.32 0.73,-0.69 0.92,-1.15 0.18,-0.46 0.27,-0.92 0.27,-1.43 0,-0.64 -0.13,-1.15 -0.37,-1.61 -0.27,-0.41 -0.59,-0.78 -0.96,-1.05 -0.42,-0.28 -0.83,-0.51 -1.34,-0.69 -0.5,-0.19 -0.96,-0.37 -1.42,-0.51 -0.33,-0.09 -0.65,-0.23 -0.93,-0.32 -0.27,-0.09 -0.55,-0.23 -0.73,-0.37 -0.23,-0.14 -0.37,-0.23 -0.51,-0.41 -0.14,-0.14 -0.18,-0.32 -0.18,-0.51 0,-0.23 0.13,-0.41 0.41,-0.64 0.28,-0.18 0.83,-0.28 1.61,-0.28 0.79,0 1.48,0.1 2.07,0.28 0.6,0.18 1.06,0.32 1.39,0.41 l 0.5,-2.66 c -0.5,-0.23 -1.06,-0.42 -1.75,-0.51 -0.69,-0.14 -1.42,-0.18 -2.21,-0.18 -0.92,0 -1.7,0.09 -2.35,0.27 -0.64,0.19 -1.19,0.46 -1.61,0.83 -0.41,0.37 -0.73,0.74 -0.92,1.2 -0.18,0.46 -0.27,0.92 -0.27,1.42 0,0.64 0.13,1.15 0.36,1.56 0.28,0.42 0.6,0.79 0.97,1.06 0.42,0.28 0.83,0.51 1.29,0.69 0.46,0.18 0.97,0.32 1.43,0.46 0.32,0.09 0.64,0.18 0.92,0.32 0.27,0.09 0.55,0.23 0.78,0.32 0.23,0.1 0.42,0.23 0.55,0.42 0.14,0.14 0.19,0.32 0.19,0.55 0,0.32 -0.19,0.55 -0.6,0.69 -0.37,0.18 -0.97,0.23 -1.7,0.23 z" />
  <path
     class="st0"
     d="M13.2 39.08c-.94 0-1.83-.41-2.44-1.18L1.57 26.5c-.6-.76-.84-1.73-.6-2.67L4.25 9.6c.21-.94.84-1.7 1.71-2.12l13.28-6.35c.42-.21.9-.31 1.37-.31.47 0 .94.1 1.36.31l13.29 6.32c.86.42 1.5 1.18 1.71 2.12l3.28 14.23c.21.95 0 1.92-.61 2.68l-9.19 11.4c-.6.73-1.49 1.18-2.44 1.18l-14.81.02z"
     id="path8" />
  <path
     class="st1"
     d="M38.82 25.92l-9.17 11.37c-.4.52-1.05.83-1.73.83h-14.7c-.68 0-1.33-.31-1.74-.83L2.32 25.92c-.42-.54-.59-1.23-.45-1.9l3.28-14.2c.16-.68.6-1.23 1.2-1.51L19.59 2c.31-.13.67-.19.99-.19.33 0 .66.07.95.2l13.25 6.3c.62.31 1.07.87 1.21 1.51l3.27 14.2c.17.67.01 1.36-.44 1.9m2.16-2.27l-3.27-14.2c-.29-1.2-1.09-2.2-2.2-2.73L22.3.39C21.76.14 21.16 0 20.58 0c-.58 0-1.16.13-1.75.39L5.58 6.72c-1.12.53-1.92 1.53-2.2 2.73L.11 23.65c-.29 1.21 0 2.46.78 3.44l9.17 11.37c.76.95 1.9 1.5 3.14 1.5h14.69c1.24 0 2.38-.55 3.13-1.5l9.17-11.37c.79-.96 1.08-2.21.79-3.44"
     id="path10" />
  <path
     class="st1"
     d="M27.54 25.01c-.66 1.05-1.52 1.89-2.52 2.54l-1.66-3.96c-.07-.31.06-.65.37-.81.11-.05.24-.08.37-.08l4.2.71c-.16.58-.42 1.1-.76 1.6zm-5.12 3.64c-.6.13-1.21.21-1.84.21-.92 0-1.81-.15-2.65-.42L20 24.7c.21-.24.56-.35.84-.19.14.08.24.19.32.29l2.02 3.64c-.24.08-.5.13-.76.21zm-9.58-5.21l4.17-.71c.34-.03.66.21.74.55.02.16.02.29-.03.42l-1.6 3.85c-1.47-.94-2.65-2.38-3.28-4.11zm.71-7.11l3.12 2.78c.29.24.32.68.08.97-.08.11-.19.19-.32.21l-4.07 1.18c-.15-1.78.24-3.59 1.19-5.14zm5.17-3.72c.29-.05.55-.1.84-.15l-.24 4.19c-.02.37-.31.68-.71.68-.1 0-.23-.03-.31-.08l-3.49-2.49c1.07-1.07 2.41-1.81 3.91-2.15zm7.61 2.15l-3.44 2.44c-.29.18-.68.13-.92-.16-.08-.08-.1-.18-.13-.29l-.23-4.27c1.81.21 3.46 1.02 4.72 2.28zm2.26 4.06c.21.9.26 1.79.18 2.65l-4.01-1.15c-.37-.11-.58-.47-.5-.84.02-.11.08-.21.16-.29l3.17-2.86c.45.74.79 1.58 1 2.49zm-6.85 2.73l-1.16.55-1.15-.55-.29-1.23.79-1h1.28l.79 1-.26 1.23zm12.15 1.28c-.02 0-.02 0 0 0h-.02c-.03 0-.06 0-.06-.02-.05 0-.1-.03-.15-.03-.19-.02-.34-.05-.5-.05-.08 0-.16 0-.26-.03h-.03c-.55-.05-1-.1-1.42-.23-.18-.08-.23-.19-.29-.29 0-.03-.02-.03-.02-.05l-.34-.11c.15-1.2.1-2.46-.19-3.69-.29-1.24-.79-2.39-1.47-3.44l.26-.23v-.06c0-.13.03-.26.13-.39.32-.29.71-.52 1.19-.81.08-.05.15-.08.23-.13.16-.08.29-.16.45-.26.03-.03.08-.06.13-.11.03-.02.05-.02.05-.05.37-.32.45-.84.19-1.18-.13-.18-.37-.29-.61-.29-.21 0-.39.08-.57.21l-.06.05c-.05.03-.08.08-.13.11-.13.13-.23.23-.34.37-.05.05-.1.13-.18.18-.37.39-.71.71-1.05.94-.08.05-.16.08-.24.08-.05 0-.11 0-.16-.03h-.05l-.32.21c-.34-.36-.7-.68-1.07-.99-1.58-1.23-3.49-1.99-5.49-2.18l-.03-.34-.05-.05c-.08-.08-.18-.16-.21-.34-.02-.42.03-.89.08-1.42v-.02c0-.08.03-.19.05-.26.03-.16.06-.32.08-.5v-.24c0-.47-.37-.86-.81-.86-.21 0-.42.1-.58.26-.16.16-.24.37-.24.6V7.37c0 .18.03.34.08.5.03.08.03.16.06.26v.03c.05.52.13.99.07 1.41-.02.19-.13.26-.21.34-.02.03-.02.03-.05.06l-.02.34c-.48.05-.95.1-1.42.21-2.02.44-3.81 1.46-5.2 2.93l-.26-.18h-.06c-.05 0-.1.02-.15.02-.08 0-.16-.02-.24-.07-.34-.24-.68-.58-1.05-.97-.05-.06-.1-.13-.18-.19-.11-.13-.21-.23-.35-.36-.02-.03-.07-.06-.13-.11-.02-.03-.05-.03-.05-.05-.16-.13-.37-.21-.58-.21-.23 0-.47.1-.6.29-.26.34-.18.86.18 1.18.03 0 .03.02.06.02.05.03.07.08.13.11.15.1.29.18.44.26.08.03.16.08.24.13.47.29.87.52 1.18.81.13.13.13.27.13.4v.05l.27.23c-.06.08-.11.14-.14.21-1.31 2.07-1.81 4.51-1.47 6.92l-.34.11c0 .02-.02.02-.02.05-.06.11-.14.21-.29.29-.4.13-.87.18-1.42.23h-.03c-.08 0-.18 0-.26.03-.16 0-.31.03-.5.05-.05 0-.1.03-.16.03-.02 0-.05 0-.07.03-.48.1-.77.55-.69.97.08.36.42.6.84.6.08 0 .13 0 .21-.03.03 0 .06 0 .06-.02.05 0 .1-.03.15-.03.19-.05.32-.1.48-.18.07-.03.15-.08.23-.11h.03c.5-.18.94-.34 1.36-.39h.06c.15 0 .26.08.34.13.02 0 .02.03.05.03l.37-.06c.63 1.94 1.84 3.67 3.44 4.93.36.29.73.52 1.13.76l-.16.34c0 .03.02.03.02.05.06.11.11.24.06.42-.16.4-.4.79-.69 1.23v.03c-.05.08-.1.13-.15.21-.11.13-.19.26-.29.42-.03.03-.05.08-.08.13 0 .03-.03.05-.03.05-.21.45-.05.95.34 1.13.11.05.21.08.32.08.31 0 .63-.21.79-.5 0-.02.02-.05.02-.05.03-.05.06-.11.08-.13.08-.19.11-.32.16-.47.03-.08.05-.16.08-.24.18-.52.31-.94.55-1.31.1-.16.24-.18.34-.24.03 0 .03 0 .05-.02l.19-.34c1.15.44 2.41.68 3.67.68.76 0 1.55-.08 2.29-.26.47-.11.92-.24 1.36-.4l.16.29c.03 0 .03 0 .05.03.13.02.24.08.34.23.21.37.37.82.56 1.31v.03c.02.08.05.16.07.24.06.15.08.31.16.47l.08.13c0 .03.03.05.03.05.15.32.47.5.78.5.11 0 .21-.03.32-.08.18-.1.34-.26.39-.47.06-.21.06-.45-.05-.66 0-.02-.03-.02-.03-.05-.02-.05-.05-.1-.07-.13-.08-.16-.19-.29-.29-.42-.06-.08-.11-.13-.16-.21v-.03c-.29-.44-.55-.83-.68-1.23-.06-.18 0-.29.02-.42 0-.02.03-.02.03-.05l-.13-.31c1.39-.82 2.57-1.97 3.46-3.38.48-.74.84-1.55 1.11-2.36l.31.05c.03 0 .03-.03.05-.03.11-.05.19-.13.35-.13h.05c.42.05.86.21 1.36.4h.03c.08.02.16.07.24.1.15.08.28.13.47.18.05 0 .1.03.16.03.02 0 .05 0 .07.03.08.02.14.02.21.02.4 0 .74-.26.84-.6 0-.32-.28-.73-.76-.87z"
     id="path12" />
</svg>
