
<svg width="403px" height="166px" viewBox="-1 -1 403 166" version="1.1" xmlns="http://www.w3.org/2000/svg" xmlns:xlink="http://www.w3.org/1999/xlink">
    <!-- Generator: Sketch 40.3 (33839) - http://www.bohemiancoding.com/sketch -->
    <desc>Created with Sketch.</desc>
    <defs></defs>
    <g id="origin_logo" stroke="none" stroke-width="1" fill="none" fill-rule="evenodd" transform="translate(-1.000000, -1.000000)">
        <g id="layer1_1_" transform="translate(0.890000, 0.020000)">
            <g id="g3187_1_">
                <g id="g6186_1_" transform="translate(87.514000, 72.024700) scale(1, -1) translate(-87.514000, -72.024700) translate(48.014000, 32.524700)" fill="#EF2E32">
                    <path d="M17.701931,39.941037 C17.701931,32.5229325 19.662266,26.6561169 23.586287,22.3456653 C27.607487,17.9810793 32.9137955,15.7903278 39.503537,15.7903278 C46.1435435,15.7903278 51.449852,17.948937 55.420787,22.2661554 C59.391722,26.5799904 61.382216,32.3486874 61.382216,39.5637879 C61.382216,46.775505 59.3967485,52.5374352 55.420787,56.858037 C51.3945605,61.2260064 46.088252,63.4032243 39.503537,63.4032243 C33.0143255,63.4032243 27.7532555,61.2260064 23.733731,56.858037 C19.712531,52.4866842 17.701931,46.8448647 17.701931,39.941037 M0.3487775,40.2489264 C0.3487775,50.9624625 4.1421095,60.0824172 11.743853,67.5952569 C19.3388945,75.11148 28.58933,78.8704374 39.506888,78.8704374 C50.468009,78.8704374 59.7754115,75.0861045 67.4223935,67.5191304 C74.96717,59.9487729 78.7387205,50.6596482 78.7387205,39.6399144 C78.7387205,28.5186786 74.9420375,19.1991033 67.3453205,11.6794968 C59.6983385,4.2140247 50.3155385,0.4821345 39.2069735,0.4821345 C28.1888855,0.4821345 18.9602315,4.2901512 11.5143095,11.9078763 C4.0650365,19.4240994 0.3487775,28.8739356 0.3487775,40.2489264" id="path6188_1_"></path>
                </g>
                <path d="M197.615,6.142 C195.254,6.142 193.252,7.03 191.557,8.769 C189.86,10.503 189.002,12.572 189.002,14.96 C189.002,17.473 189.863,19.588 191.557,21.332 C193.251,23.075 195.282,23.96 197.682,23.96 C200.082,23.96 202.118,23.075 203.774,21.332 C205.469,19.595 206.295,17.502 206.295,15.032 C206.295,12.57 205.469,10.469 203.774,8.776 C202.071,7.033 200.015,6.145 197.615,6.142 L197.615,6.142 L197.615,6.142 L197.615,6.142 Z M189.351,32.456 L189.351,108.738 L205.945,108.738 L205.945,32.456 L189.351,32.456 L189.351,32.456 L189.351,32.456 Z" id="path6194_1_" fill="#000000"></path>
                <path d="M324.681,108.735 L308.085,108.735 L308.085,32.453 L324.681,32.453 L324.681,108.735 L324.681,108.735 L324.681,108.735 Z M307.739,14.951 C307.739,12.563 308.585,10.494 310.275,8.751 C311.97,7.017 313.995,6.144 316.356,6.144 C318.753,6.144 320.801,7.017 322.491,8.751 C324.18,10.456 325.03,12.539 325.03,15.007 C325.03,17.475 324.18,19.582 322.491,21.322 C320.84,23.065 318.812,23.935 316.416,23.935 C314.013,23.935 311.971,23.065 310.278,21.322 C308.585,19.583 307.739,17.458 307.739,14.951 L307.739,14.951 Z" id="path6196_1_" fill="#000000"></path>
                <g id="g6447_1_" transform="translate(0.166900, 0.610000)" fill="#000000">
                    <g id="text6218_1_">
                        <path d="M20.1969073,12.421266 C20.1969073,10.610556 19.9570153,8.997285 19.4772313,7.597821 C19.020437,6.174828 18.3657317,4.963596 17.512116,3.984585 C16.6764922,2.984091 15.6669467,2.23014 14.4834795,1.720686 C13.3200033,1.184634 12.0305838,0.918654 10.6162205,0.918654 C9.17886765,0.918654 7.8684576,1.184634 6.68798905,1.720686 C5.4995241,2.256738 4.48298175,3.016827 3.6283665,4.023459 C2.77774945,5.00247 2.1110496,6.204495 1.63226515,7.630557 C1.1774699,9.057642 0.9435752,10.676028 0.9435752,12.486738 C0.9435752,14.292333 1.17447125,15.910719 1.63226515,17.342919 C2.1110496,18.745452 2.76575485,19.950546 3.60137865,20.953086 C4.4519957,21.93312 5.46453985,22.685025 6.62401785,23.216985 C7.80748505,23.728485 9.12289285,23.983212 10.555248,23.983212 C11.9696113,23.983212 13.2690263,23.716209 14.4554921,23.184249 C15.6409584,22.648197 16.6624985,21.897315 17.5131156,20.917281 C18.360734,19.916787 19.0184379,18.703509 19.4782309,17.277447 C19.9570153,15.842178 20.1969073,14.223792 20.1969073,12.421266 L20.1969073,12.421266 Z M15.7049296,12.485715 C15.7049296,14.758821 15.2381398,16.50099 14.2995623,17.720406 C13.3849741,18.930615 12.1585262,19.540323 10.6202188,19.540323 C9.08091175,19.540323 7.83747155,18.919362 6.8749049,17.681532 C5.9193351,16.450863 5.4395511,14.695395 5.4395511,12.420243 C5.4395511,10.140999 5.89634545,8.395761 6.8129328,7.176345 C7.74751205,5.969205 8.9859545,5.356428 10.5222629,5.356428 C12.0605703,5.356428 13.3080087,5.978412 14.2685763,7.215219 C15.2251456,8.448957 15.7049296,10.207494 15.7049296,12.485715 L15.7049296,12.485715 L15.7049296,12.485715 Z" id="path844_1_"></path>
                        <path d="M42.2859627,8.35791 C42.2859627,7.168161 42.0930496,6.135954 41.6952287,5.262312 C41.301406,4.369233 40.7556517,3.622443 40.0709599,3.021942 C39.3872677,2.42451 38.5886273,1.99485 37.6700408,1.713525 C36.7554526,1.417878 35.7918864,1.269543 34.7713458,1.269543 L25.2246438,1.269543 L25.2246438,23.618001 L29.5926773,23.618001 L29.5926773,15.698958 L34.3985137,15.698958 C35.5230074,15.698958 36.5615399,15.562899 37.5191088,15.284643 C38.4976682,15.006387 39.3392893,14.571612 40.0449716,13.977249 C40.7506539,13.373679 41.3054042,12.624843 41.6992269,11.707212 C42.090051,10.778328 42.2859627,9.65712 42.2859627,8.35791 L42.2859627,8.35791 Z M37.7879877,8.458164 C37.7879877,10.39368 36.7494553,11.361438 34.6673926,11.361438 L29.5836813,11.361438 L29.5836813,5.611155 L34.6054205,5.611155 C35.5809813,5.611155 36.3496353,5.845422 36.9173797,6.312933 C37.5041155,6.766122 37.7879877,7.47813 37.7879877,8.458164 L37.7879877,8.458164 L37.7879877,8.458164 Z" id="path846_1_"></path>
                        <polygon id="path848_1_" points="62.8477058 23.624139 62.8477058 19.246722 51.5857759 19.246722 51.5857759 13.857558 57.8549535 13.857558 57.8549535 9.512877 51.5857759 9.512877 51.5857759 5.647983 62.3769177 5.647983 62.3769177 1.273635 47.218742 1.273635 47.218742 23.622093 62.8477058 23.622093"></polygon>
                        <path d="M85.9672973,23.624139 L85.9672973,1.275681 L81.6572377,1.275681 L81.6572377,10.728201 L81.6572377,11.908743 C81.6782282,12.379323 81.6912224,12.852972 81.6912224,13.347081 L81.6912224,14.681073 C81.7122129,15.092319 81.7202093,15.394104 81.7202093,15.613026 C81.5752746,15.31431 81.3443785,14.926593 81.0295203,14.462151 C80.7396508,13.971111 80.4567781,13.515876 80.1908978,13.089285 L72.4523817,1.275681 L68.269265,1.275681 L68.269265,23.627208 L72.5793246,23.627208 L72.5793246,13.794132 C72.5793246,13.473933 72.5703286,13.081101 72.5453399,12.61359 L72.5453399,11.207988 C72.5453399,10.720017 72.5333453,10.269897 72.5133543,9.866835 L72.5133543,8.911353 C72.658289,9.203931 72.87819,9.600855 73.16706,10.091895 C73.4829178,10.559406 73.7687891,11.006457 74.0426658,11.428956 L82.0590568,23.630277 L85.9672973,23.624139 L85.9672973,23.624139 L85.9672973,23.624139 Z" id="path850_1_"></path>
                    </g>
                    <g id="text6222_1_" transform="translate(90.959050, 0.000000)">
                        <path d="M14.884299,17.751096 C14.884299,16.922466 14.7803458,16.182837 14.5714399,15.5496 C14.3655326,14.913294 14.0076937,14.327115 13.5119169,13.795155 C13.0321329,13.259103 12.3874232,12.774201 11.5797868,12.324081 C10.764154,11.873961 9.755608,11.429979 8.54915115,10.985997 C7.4466475,10.580889 6.5530498,10.210563 5.86635895,9.866835 C5.19865955,9.521061 4.677894,9.183471 4.30506185,8.845881 C3.9302306,8.481693 3.6823422,8.124666 3.558398,7.759455 C3.4304556,7.377876 3.3704826,6.952308 3.3704826,6.489912 C3.3704826,6.042861 3.43945155,5.619339 3.5843863,5.243898 C3.7543098,4.832652 4.00319775,4.488924 4.33304925,4.18407 C4.68688995,3.891492 5.13268925,3.651087 5.67844355,3.485361 C6.217201,3.296106 6.86191075,3.192783 7.61157325,3.192783 C8.71107825,3.192783 9.66264985,3.3759 10.4492957,3.743157 C11.2599308,4.083816 12.0575717,4.592247 12.8482157,5.272542 L14.4105124,3.325773 C13.4929255,2.580006 12.5183642,1.993827 11.4768331,1.568259 C10.4592912,1.14576 9.22084875,0.928884 7.7625053,0.928884 C6.74196475,0.928884 5.8093846,1.056759 4.9537698,1.313532 C4.12114465,1.568259 3.40546685,1.952907 2.8007391,2.462361 C2.22199965,2.953401 1.76220665,3.548787 1.43235515,4.249542 C1.0975059,4.954389 0.93258015,5.758467 0.93258015,6.646431 C0.93258015,7.460739 1.03853245,8.17377 1.24443975,8.786547 C1.47433625,9.402393 1.8291765,9.967089 2.30396275,10.479612 C2.80373775,10.967583 3.44944705,11.435094 4.23909155,11.882145 C5.05072615,12.307713 6.0472775,12.737373 7.2347429,13.157826 C8.23329335,13.522014 9.06291985,13.883133 9.73061925,14.244252 C10.3933209,14.584911 10.9260811,14.930685 11.3229024,15.297942 C11.7387152,15.655992 12.0315834,16.049847 12.1955096,16.478484 C12.3654331,16.908144 12.4443975,17.371563 12.4443975,17.881017 C12.4443975,19.076904 12.0165901,20.005788 11.1659731,20.69529 C10.3333479,21.375585 9.1878636,21.710106 7.73751655,21.710106 C6.6130228,21.710106 5.57449035,21.467655 4.6139228,20.976615 C3.65735345,20.488644 2.7627562,19.836993 1.9331297,19.026777 L0.3098605,20.882499 C1.1854663,21.775578 2.2449893,22.525437 3.49342725,23.122869 C4.7618562,23.696772 6.14423385,23.984235 7.6425593,23.984235 C8.7880436,23.984235 9.80658505,23.823624 10.7001828,23.504448 C11.5967791,23.184249 12.3534385,22.749474 12.974159,22.196031 C13.5968787,21.639519 14.0706654,20.982753 14.3795263,20.210388 C14.7143756,19.440069 14.884299,18.626784 14.884299,17.751096 L14.884299,17.751096 Z" id="path833_1_"></path>
                        <polygon id="path835_1_" points="36.443593 23.624139 36.443593 1.275681 34.0076897 1.275681 34.0076897 10.822317 23.1455798 10.822317 23.1455798 1.275681 20.7096765 1.275681 20.7096765 23.624139 23.1455798 23.624139 23.1455798 13.089285 34.0076897 13.089285 34.0076897 23.624139"></polygon>
                        <polygon id="path837_1_" points="45.5524921 23.624139 45.5524921 1.275681 43.1165888 1.275681 43.1165888 23.624139"></polygon>
                        <polygon id="path839_1_" points="65.0527131 3.537534 65.0527131 1.276704 52.2274871 1.276704 52.2274871 23.625162 54.6633904 23.625162 54.6633904 13.220229 60.6536936 13.220229 60.6536936 10.950192 54.6633904 10.950192 54.6633904 3.546741 65.0527131 3.546741"></polygon>
                        <polygon id="path841_1_" points="84.0561577 3.537534 84.0561577 1.276704 68.7660414 1.276704 68.7660414 3.537534 75.1931479 3.537534 75.1931479 23.625162 77.6290512 23.625162 77.6290512 3.537534"></polygon>
                    </g>
                </g>
                <path d="M256.979,32.657 C246.062,32.657 236.799,36.38 229.203,43.896 C221.606,51.407 217.822,60.563 217.822,71.275 C217.822,82.65 221.542,92.07 228.987,99.589 C236.432,107.206 245.677,111.044 256.692,111.044 C261.67,111.044 266.28,110.266 270.565,108.774 L276.004,117.196 C283.624,128.998 283.515,137.426 275.678,142.451 C273.086,144.12 261.761,148.784 261.627,148.503 L268.901,164.069 C283.963,161.352 313.095,144.223 295.162,115.432 L284.971,99.654 C292.457,92.167 296.21,82.925 296.21,71.878 C296.21,60.861 292.442,51.568 284.899,44.002 C277.259,36.442 267.943,32.66 256.979,32.657 L256.979,32.657 L256.979,32.657 Z M256.979,48.11 C263.566,48.11 268.878,50.297 272.9,54.665 C276.875,58.982 278.842,64.747 278.842,71.956 C278.842,79.168 276.88,84.933 272.9,89.247 C268.925,93.564 263.623,95.695 256.979,95.695 C250.391,95.695 245.08,93.547 241.058,89.175 C237.137,84.861 235.184,78.984 235.184,71.565 C235.184,64.661 237.178,59.038 241.2,54.67 C245.221,50.303 250.494,48.11 256.979,48.11 L256.979,48.11 L256.979,48.11 Z" id="path6212_1_" fill="#000000"></path>
                <path d="M369.728,31.517 C369.222,31.529 368.721,31.55 368.227,31.582 C367.239,31.659 366.28,31.789 365.333,31.978 C365.285,31.99 365.238,32.011 365.19,32.02 C364.764,32.103 364.35,32.197 363.938,32.31 C351.838,35.098 340.012,45.126 340.051,61.393 L340.012,108.739 L356.94,108.739 L356.94,70.306 C356.94,56.335 361.473,49.289 370.541,49.162 C379.614,49.289 384.145,56.329 384.145,70.306 L384.145,108.739 L401.111,108.739 L401.076,61.393 C401.117,45.141 389.274,35.106 377.185,32.31 C376.714,32.2 376.265,32.073 375.794,31.987 C374.85,31.798 373.856,31.671 372.867,31.588 C372.844,31.585 372.813,31.591 372.796,31.588 C372.317,31.546 371.849,31.532 371.367,31.523 C371.328,31.52 371.299,31.523 371.26,31.523 C370.745,31.506 370.231,31.506 369.728,31.517 L369.728,31.517 L369.728,31.517 Z" id="path3058_1_" fill="#000000"></path>
                <g id="g3052_1_" transform="translate(156.996400, 70.471500) scale(1, -1) translate(-156.996400, -70.471500) translate(137.496400, 31.471500)" fill="#000000">
                    <path d="M0.821472,48.0618268 C0.7632844,70.5061119 23.8209766,81.1056 38.8248204,77.1584608 L38.7786126,59.9235208 C38.7786126,60.2344256 35.4379598,60.3087724 32.3060978,60.3087724 C22.8523242,60.3087724 18.1271488,53.2576543 18.1271488,39.1554181 L18.1271488,0.7316401 L0.7838212,0.7316401" id="path3054_1_"></path>
                </g>
            </g>
        </g>
    </g>
</svg>
