<svg xmlns:rdf="http://www.w3.org/1999/02/22-rdf-syntax-ns#" xmlns="http://www.w3.org/2000/svg" xml:space="preserve" height="57.463" viewBox="0 0 697.5 57.462502" width="697.5" version="1.1" xmlns:cc="http://creativecommons.org/ns#" xmlns:dc="http://purl.org/dc/elements/1.1/"><g transform="matrix(1.25 0 0 -1.25 0 57.462)"><path d="m525.18 36.77h4.9703c1.438 0 2.7268-0.09931 3.8688-0.30312 1.1451-0.20438 2.1127-0.57404 2.9047-1.1266 0.78804-0.54978 1.4028-1.3277 1.8484-2.3266 0.44236-0.99148 0.65781-2.275 0.65781-3.8578 0-1.8793-0.32001-3.4238-0.96718-4.6234-0.64083-1.1879-1.4712-2.1274-2.4844-2.8141-2.138-1.3278-4.5411-1.7881-6.875-1.7984-1.369 0-2.6684 0.1524-3.9234 0.4375zm-108.8 0.0125c1.1235 0.000002 1.9295-0.11152 2.925-0.31562 0.99552-0.2041 1.9201-0.5744 2.7656-1.125s1.5353-1.3002 2.0703-2.2391c0.535-0.93885 0.79843-2.0197 0.79843-3.5656s-0.32856-3.0281-1.0141-4.1156c-0.68551-1.0875-1.5399-1.948-2.5719-2.5984s-2.1646-1.0943-3.4016-1.3531-2.6241-0.39219-3.5641-0.39219-1.4039 0.0211-2.0109 0.05625c-0.60703 0.03515-1.1779 0.11326-1.6859 0.22656-0.0579 5.233 0.15065 10.346 0.32499 15.139 0.592 0.0711 1.3108 0.13594 2.1578 0.19219s2.0828 0.09062 3.2062 0.09062zm38.344 0.70781c2.0466 0.0017 4.148-0.28989 6.05-1.0453 1.8109-0.71925 3.5354-1.8116 4.8734-3.2281 1.4665-1.5526 2.523-3.5185 3.2281-5.5344 0.88217-2.5219 1.1578-5.2595 1.1578-7.9313-0.00004-2.6713-0.27468-5.4086-1.1578-7.9297-0.70502-2.0126-1.7631-3.9738-3.2281-5.5234-1.3386-1.416-3.0631-2.5073-4.8734-3.2281-1.9019-0.75732-4.0028-1.058-6.05-1.0562-2.0277 0.0017-4.1078 0.30358-5.9906 1.0562-1.8065 0.72216-3.5266 1.8138-4.8625 3.2281-1.4646 1.5504-2.5228 3.5112-3.2297 5.5234-0.88554 2.5208-1.1703 5.2578-1.1703 7.9297-0.00004 2.6724 0.28573 5.4095 1.1703 7.9313 0.70702 2.0155 1.7636 3.981 3.2297 5.5344 1.3353 1.4149 3.0554 2.5076 4.8625 3.2281 1.8829 0.75077 3.9636 1.0436 5.9906 1.0453zm65.491 1.3281c0.65285-12.454 0.58503-25.722 0-37.966 1.8637 0.14711 3.6486 0.14708 5.4094 0-0.33488 5.9842-0.43907 11.317-0.43907 17.191 4.769-0.38728 9.8232-0.23594 13.905 1.9891 1.5243 0.84338 2.8081 2.0222 3.8578 3.5328 1.0513 1.5129 1.5734 3.4856 1.5734 5.9172 0 1.5508-0.21972 2.8427-0.6625 3.8906-0.44523 1.0537-1.0107 1.9289-1.7344 2.6312-0.7173 0.69609-1.5156 1.2307-2.4047 1.5984-0.89294 0.36935-1.7646 0.63417-2.6781 0.83281-0.84552 0.18386-1.7123 0.26176-2.575 0.32812-0.67793 0.05215-1.3591 0.05919-2.0391 0.05469-1.1186-0.0074-2.2354-0.09032-3.3531-0.13438-1.1692-0.04609-2.3377-0.13069-3.5078-0.13594-0.89257-0.004-1.7851 0.03468-2.6766 0.07969-0.89279 0.04508-1.801 0.11842-2.675 0.19062zm-40.014 0c0.075-1.6524 0.14412-3.6882 0.22812-6.075 0.069-2.4023 0.10156-5.1394 0.10156-8.2312 0-1.4004-0.0409-2.7805-0.13593-4.1203-0.087-1.3418-0.13125-2.8863-0.13125-4.6109 0-5.4219 1.248-9.3793 3.75-11.889 2.503-2.502 6.5254-3.7578 12.048-3.7578 2.503 0 4.7245 0.35273 6.6625 1.0578 1.93 0.69336 3.5636 1.7246 4.8906 3.0937 1.327 1.3555 2.3425 3.0207 3.0625 4.9719 0.72 1.9492 1.0925 4.1637 1.1375 6.6344 0.039 2.0195 0.0926 4.1054 0.16562 6.2656 0.069 2.1609 0.14 4.2539 0.225 6.3016 0.07 2.0468 0.1532 3.9641 0.2672 5.7484 0.112 1.7918 0.22549 3.3238 0.33749 4.6109-1.3479-0.43707-2.6561-0.21561-3.9234 0.000005 0.141-1.0618 0.23974-3.0218 0.26874-5.8484-0.003-6.0288 0.16152-10.51 0-15.862-0.029-1.3691-0.15668-2.7266-0.37968-4.0938-0.226-1.3594-0.58825-2.6727-1.0812-3.9266-0.496-1.2441-1.1813-2.3582-2.0703-3.3172-0.888-0.94726-2.0149-1.723-3.3969-2.3188-1.383-0.59179-3.0856-0.87656-5.1156-0.87656-2.063 0-3.7895 0.24805-5.1875 0.74219-1.412 0.49804-2.5685 1.1738-3.4875 2.0469-0.917 0.86328-1.6316 1.8789-2.1266 3.0391-0.494 1.1582-0.85525 2.3727-1.0812 3.6422-0.224 1.2715-0.34924 2.5843-0.38124 3.9281-0.16629 6.6696 0.0354 13.17 0.38124 19.672 0.072 1.3028 0.14256 2.3667 0.22656 3.1734-1.7824-0.41401-3.5217-0.25156-5.2547-0.000005zm-74.484 0c0.66567-12.532 0.5661-26.069 0-37.966 1.861 0.13513 3.6509 0.17016 5.4094 0-0.35978 6.3252-0.43436 11.91-0.43436 18.191h2.1c5.2502-5.8043 9.7221-11.729 14.308-18.191 2.0994 0.18997 4.4714 0.19714 6.5234 0-0.518 0.52148-1.1999 1.2719-2.0469 2.2719-4.5311 5.4451-8.6634 10.821-13.092 16.413 1.063 0.1426 2.2472 0.44942 3.5547 0.90938s2.5351 1.1084 3.6781 1.9359c1.143 0.82755 2.1131 1.8785 2.9031 3.15s1.1906 2.8479 1.1906 4.5578c0 1.71-0.30443 3.0281-0.91093 4.1359s-1.4344 2.0094-2.4859 2.6891-2.2812 1.1682-3.6797 1.4641-3.1097 0.43906-4.4172 0.43906-2.1216-0.03613-3.1531-0.13438-2.0789-0.13594-3.1469-0.13594-2.121 0.02229-3.15 0.07969c-1.034 0.0559-2.09 0.11912-3.15 0.19062zm49.008 0.71875c-2.8167-0.0016-5.6954-0.37178-8.3453-1.3266-2.3846-0.85918-4.6944-2.1387-6.5453-3.8703-1.832-1.714-3.2995-3.8889-4.2531-6.2094-1.0791-2.6257-1.5191-5.541-1.5187-8.3797 0.00033-2.8351 0.44182-5.7461 1.5187-8.3687 0.95409-2.3235 2.4108-4.513 4.2531-6.2203 1.8479-1.7125 4.1668-2.9488 6.5453-3.7797 2.6554-0.92763 5.5326-1.2469 8.3453-1.2484 2.8328-0.001502 5.7315 0.31546 8.4062 1.2484 2.3784 0.82961 4.6965 2.0671 6.5438 3.7797 1.8415 1.7073 3.2944 3.898 4.25 6.2203 1.0792 2.6227 1.534 5.5327 1.5344 8.3687 0.00033 2.8397-0.45304 5.754-1.5344 8.3797-0.9551 2.3192-2.4188 4.4954-4.25 6.2094-1.8502 1.7318-4.1591 3.0125-6.5438 3.8703-2.6693 0.96022-5.5695 1.3282-8.4062 1.3266zm-82.186 4.8859c-2.8793-1.0183-5.7097-2.4653-7.9703-4.5188-2.1865-1.9861-3.9458-4.531-5.0891-7.2547-1.2807-3.0511-1.7905-6.452-1.8078-9.7609-0.0177-3.3826 0.46509-6.8653 1.7438-9.9969 1.1036-2.7028 2.7974-5.2589 4.9641-7.2156 2.2112-1.997 5.0095-3.3635 7.8406-4.2922 3.3039-1.0838 6.8637-1.2743 10.339-1.3844 1.3891-0.044014 2.7773 0.14428 4.1594 0.29063 1.5344 0.16247 3.0628 0.3866 4.5828 0.65156 1.4466 0.25217 2.9641 0.52501 4.3141 0.89219 1.351 0.36329 2.4844 0.71992 3.3844 1.0656 0 0.85742-0.007 1.7375-0.0344 2.6125 0.0424 5.2344-0.19289 10.438 0.2265 15.695-1.9134-0.49477-4.0716-0.34562-5.8672-0.000001 0.39836-5.6184 0.3862-11.162 0.19219-16.625-0.55699-0.34961-1.3272-0.66444-2.0266-0.90625-0.83929-0.29019-1.7122-0.47991-2.5844-0.64687-0.94498-0.1809-1.9026-0.2975-2.8609-0.38281-0.94357-0.083994-1.8937-0.18731-2.8391-0.12656-2.7342 0.17571-5.5527 0.39735-8.0969 1.4141-2.2522 0.90003-4.3901 2.2703-6.0562 4.0328-1.704 1.8025-2.9415 4.0777-3.7703 6.4156-0.95814 2.7028-1.294 5.6386-1.2859 8.5062 0.009 3.1216 0.36517 6.3251 1.4516 9.2516 0.8795 2.3691 2.2163 4.6489 3.9969 6.4422 1.664 1.6759 3.7856 2.9404 5.9938 3.7781 4.0938 1.2933 8.1757 1.5828 12.056 0.67656 3.7604-0.99443 7.1094-2.8882 9.5719-5.7688h0.77657c0.22862 1.7995 0.69482 3.3933 1.475 4.9656-3.3847 1.7186-6.9404 2.9012-10.602 3.3734-5.4518 0.5868-11.367 0.46769-16.178-1.1844z" fill="#918f90"/><path d="m545.48 38.868v-0.98438h1.7344v-8.5125h1.0906v8.5125h1.725v0.98438zm5.9016 0-0.57031-9.4969h0.96562c0.0541 2.5775 0.34299 5.3667 0.30313 7.8016h0.0313c0.538-2.6865 1.1893-4.9965 1.8969-7.7484h0.70782c0.63025 2.5501 1.4497 5.3351 1.9047 7.7484h0.0625c-0.005-2.6829 0.17211-5.0515 0.31718-7.8016h0.99531l-0.54844 9.4969h-1.2094c-0.56603-2.4998-1.4182-5.3285-1.7719-7.625h-0.0438c-0.56306 2.6451-1.1717 4.8568-1.864 7.625z" fill="#918f90"/><path d="m20.183 45.965c-3.354-7.694-6.689-15.259-9.999-22.684-3.309-7.439-6.7004-14.924-10.184-22.444 0.73008 0.08222 1.5242 0.12987 2.3875 0.12987 0.85664 0 1.6496-0.047656 2.3859-0.12969 1.799 5.9659 4.0486 11.704 6.2496 17.083 2.6985 0.09637 5.1671 0.12865 7.8672 0.12812 2.7001-0.000524 5.7422-0.03402 8.4453-0.12812 2.2009-5.8054 4.8335-11.192 6.6375-17.083 0.6031 0.082031 1.1726 0.12969 1.7125 0.12969h3.4172c0.5324 0 1.1031-0.047656 1.7047-0.12969-0.557 1.0312-1.2774 2.5371-2.1562 4.5078-6.009 13.532-11.637 27.06-17.245 40.62zm124.09-0.839c0.208-0.8594 0.31563-1.5247 0.31563-2 0-0.593-0.10763-1.2872-0.31563-2.0625 4.6143 0.57552 9.2228 0.71121 13.786 0.7125 0.38238-13.516 0.31417-27.778-0.32031-40.939 0.984 0.083984 2.0444 0.12969 3.1594 0.12969 1.122 0 2.1716-0.045704 3.1656-0.12969-0.68061 13.342-0.70434 27.768-0.32812 40.939 4.6652-0.09861 9.2499-0.02022 13.797-0.7125-0.207 0.7753-0.31875 1.4418-0.31875 1.9984 0 0.5215 0.11175 1.2047 0.31875 2.0641-5.7006-0.16138-11.369-0.3177-16.634-0.32031-5.7029 0.0088-11.365 0.16542-16.625 0.32031zm-17.609-5.5891c-2.8162-0.0015-5.6942-0.3722-8.3438-1.3266-2.3855-0.85926-4.6966-2.1384-6.5484-3.8703-1.8325-1.7138-3.2997-3.8892-4.2547-6.2094-1.0806-2.6255-1.5269-5.5405-1.5266-8.3797 0.00033-2.8356 0.44806-5.7462 1.5266-8.3687 0.95545-2.3233 2.4118-4.5132 4.2547-6.2203 1.8489-1.7127 4.169-2.9487 6.5484-3.7797 2.655-0.92723 5.5315-1.247 8.3438-1.2484 2.8318-0.001464 5.7293 0.31586 8.4031 1.2484 2.3789 0.8297 4.6975 2.067 6.5453 3.7797 1.842 1.7073 3.2976 3.8971 4.2516 6.2203 1.077 2.6227 1.52 5.5335 1.5203 8.3687 0.00033 2.8388-0.44121 5.754-1.5203 8.3797-0.95353 2.3202-2.4199 4.4954-4.2516 6.2094-1.8508 1.7318-4.1602 3.0124-6.5453 3.8703-2.6684 0.95981-5.5674 1.3281-8.4031 1.3266zm98.17 0c-2.869-6.5945-5.7218-13.076-8.5578-19.45-2.7435-6.1484-5.5522-12.339-8.425-18.566-0.41167 0.44484-0.86843 0.95262-1.4188 1.6031-4.5265 5.4544-8.6707 10.82-13.094 16.413 1.071 0.1426 2.2503 0.44826 3.5656 0.90938 1.3087 0.45879 2.5396 1.1084 3.6766 1.9359 1.137 0.82755 2.1066 1.8785 2.9031 3.15 0.79651 1.2715 1.1797 2.8479 1.1797 4.5578 0 1.71-0.30187 3.0281-0.90938 4.1359s-1.4211 2.0394-2.4875 2.6891c-2.5101 1.5292-5.423 1.8975-8.0984 1.9031-2.1651 0.0045-4.197-0.2703-6.2984-0.27031-2.1019-0.000011-4.3065 0.13782-6.3 0.27032 0.62659-13.768 0.63525-25.062 0-37.966 0.849 0.083984 1.7519 0.1125 2.7109 0.1125s1.8639-0.02852 2.7109-0.1125c-0.37 6.3249-0.45 11.91-0.45 18.19h2.1c5.2568-5.7991 9.7301-11.729 14.308-18.191 0.522 0.083984 1.0594 0.1125 1.6094 0.1125h3.2625c0.25364 0 0.50735-0.008992 0.76095-0.02344-0.0138-0.02976-0.0269-0.059304-0.0406-0.089062 0.15921 0.021536 0.33326 0.030544 0.5 0.045312 0.14442-0.014752 0.28804-0.023328 0.43281-0.045312-0.0209 0.02132-0.0519 0.056032-0.0734 0.078128 0.37554 0.022768 0.76491 0.035936 1.1766 0.035936 0.744 0 1.4239-0.03008 2.0469-0.11406 0.478 1.6953 1.1984 3.8477 2.1594 6.4453 0.96 2.5879 2.0217 5.3325 3.2047 8.2016 4.7365 0.15819 9.3811 0.15078 13.983 0 1.9018-4.9759 4.1154-9.6053 5.6906-14.647 1.8891 0.19072 4.0244 0.19829 5.8484 0-0.48 0.89062-1.0962 2.1746-1.8422 3.8719-5.1521 11.598-9.99 23.184-14.783 34.813h-1.0547zm-182.11-0.719c0.0703-1.6524 0.14765-3.6882 0.21875-6.075 0.0757-2.4023 0.1125-5.1394 0.1125-8.2312 0-1.4004-0.04953-2.7805-0.14062-4.1203-0.0914-1.3418-0.13281-2.8863-0.13281-4.6109 0-5.4219 1.2484-9.3793 3.7578-11.889 2.5047-2.502 6.5167-3.7578 12.045-3.7578 2.5035 0 4.7227 0.35273 6.6594 1.0578 1.934 0.69336 3.5644 1.7246 4.8859 3.0937 1.3281 1.3555 2.3511 3.0207 3.0703 4.9719 0.7152 1.9492 1.0966 4.1637 1.1312 6.6344 0.0356 2.0195 0.09251 4.1054 0.17031 6.2656 0.0683 2.1609 0.14069 4.2539 0.21719 6.3016 0.0711 2.0468 0.16482 3.9641 0.27812 5.7484 0.1125 1.7918 0.21689 3.3238 0.32969 4.6109-1.3498-0.43772-2.6536-0.21526-3.925 0.000005 0.1461-1.0618 0.24105-3.0218 0.28125-5.8484 0.0348-2.8394 0.05-6.879 0.05-12.106 0-1.1426-0.0152-2.3968-0.05-3.7562-0.0402-1.3691-0.1695-2.7266-0.3875-4.0938-0.2258-1.3594-0.58045-2.6727-1.0813-3.9266-0.4938-1.2441-1.1855-2.3582-2.0703-3.3172-0.8812-0.94726-2.0176-1.723-3.4016-2.3188-1.3785-0.59179-3.086-0.87656-5.1063-0.87656-2.0695 0-3.7985 0.24805-5.1969 0.74219-1.3989 0.49804-2.5648 1.1738-3.4828 2.0469-0.9187 0.86328-1.6301 1.8789-2.125 3.0391-0.5004 1.1582-0.85975 2.3727-1.0813 3.6422-0.2184 1.2715-0.3449 2.5843-0.3875 3.9281-0.0363 1.3398-0.05469 2.6445-0.05469 3.8906 0 2.0605 0.01838 4.0527 0.05469 5.9734 0.0426 1.9082 0.09145 3.7012 0.16875 5.3562 0.0711 1.6621 0.14645 3.1399 0.21875 4.4516 0.0711 1.3028 0.14838 2.3667 0.22188 3.1734-1.779-0.41445-3.5201-0.25199-5.2484-0.000005zm36.141 0c0.39571-1.1905 0.23433-2.4284 0-3.4766 3.9614 0.4806 7.9091 0.60643 11.823 0.60781 0.30025-11.587 0.27232-23.82-0.27813-35.097 0.8465 0.083984 1.7515 0.11406 2.7125 0.11406 0.9582 0 1.8629-0.03008 2.7094-0.11406-0.589 11.436-0.609 23.808-0.28 35.098 4.0003-0.07858 7.9103-0.03758 11.82-0.60781-0.37443 1.192-0.2538 2.4428 0 3.4766-4.8848-0.14762-9.7376-0.2687-14.25-0.27032-4.8905-0.0028-9.7454 0.13676-14.258 0.27032zm166.8 0c0.67384-12.454 0.60299-25.723 0-37.966 1.257 0.072264 2.488 0.11406 3.7 0.11406 3.8136 0.072455 7.6259-0.11179 11.116-0.11406 2.174 0 4.633 0.27967 6.825 0.96875 2.3223 0.73001 4.6284 1.7596 6.5172 3.2953 2.018 1.6408 3.7652 3.7425 4.8672 6.0984 1.3423 2.8698 1.7926 6.1462 1.9016 9.3125 0.0886 2.5747-0.20609 5.2172-1.0219 7.6609-0.69574 2.0841-1.7183 4.1507-3.2281 5.7469-1.5398 1.6278-3.5713 2.8242-5.6688 3.6125-2.6238 0.98614-5.5145 1.103-8.3125 1.2703-2.8682 0.01579-5.6818-0.24737-8.3484-0.27031-1.3908-0.0094-2.7817 0.03469-4.1719 0.07969-1.3924 0.04508-2.777 0.11842-4.175 0.19062zm40.236 0c0.66596-12.432 0.5815-25.747 0-37.966 1.695 0.083984 2.5213 0.084451 5.0297 0.1125s7.5252 0.02835 10.02 0c2.4951-0.02835 3.297-0.02852 4.95-0.1125-0.25086 1.0995-0.19014 2.0765-0.00001 3.1516-5.0139-0.80583-9.7254-0.71875-14.914-0.71875-0.14692 5.3677-0.18348 10.701-0.0562 16.308 4.4947-0.09647 8.9506 0.01553 13.431-0.50626-0.25949 1.1551-0.15218 2.2995 0 3.375-4.5279-0.37516-9.1078-0.54859-13.431-0.55-0.15451 4.7326-0.002 9.6094 0.16726 14.308 4.9567 0.06509 9.8726-0.43208 14.536-0.70938-0.26027 1.1357-0.15238 2.2572 0 3.3078-6.6818-0.3936-13.28-0.2791-19.733 0zm24.861 0c0.67305-12.454 0.59713-25.726 0-37.966 0.846 0.083984 1.7503 0.1125 2.7063 0.1125 0.964 0 1.8675-0.02852 2.7125-0.1125-0.3657 6.325-0.43593 11.91-0.43593 18.191h2.0891c5.2593-5.7992 9.7392-11.724 14.32-18.191 0.51 0.083984 1.049 0.1125 1.6 0.1125h3.2609c0.551 0 1.1016-0.02852 1.6516-0.1125-0.511 0.52148-1.1869 1.2719-2.0359 2.2719-4.5829 5.4065-8.6039 10.883-13.102 16.413 1.071 0.1426 2.2596 0.44942 3.5656 0.90938 1.306 0.45995 2.5346 1.1084 3.6781 1.9359 1.1435 0.82755 2.1106 1.8785 2.9016 3.15s1.1812 2.8479 1.1812 4.5578c0 1.71-0.30137 3.0281-0.90937 4.1359s-1.4361 2.0094-2.4891 2.6891-2.2616 1.1682-3.6656 1.4641-3.1124 0.43906-4.4219 0.43906c-2.1917 0.0069-4.2605-0.26751-6.2969-0.27031-1.0675 0-2.1315 0.02229-3.1625 0.07969-1.032 0.0559-2.0794 0.11912-3.1484 0.19062zm-184.1-1.328c2.0481 0.0017 4.1518-0.28804 6.0547-1.0453 1.8064-0.71886 3.5229-1.8146 4.8578-3.2281 1.4674-1.5539 2.5304-3.5175 3.2375-5.5344 0.88404-2.5214 1.1594-5.2594 1.1594-7.9313-0.00004-2.6713-0.27438-5.4092-1.1594-7.9297-0.70701-2.0136-1.7716-3.9725-3.2375-5.5234-1.3355-1.4129-3.052-2.5077-4.8578-3.2281-1.9029-0.75918-4.006-1.058-6.0547-1.0562-2.0287 0.00175-4.1096 0.30412-5.9938 1.0562-1.8093 0.72225-3.5337 1.8124-4.8719 3.2281-1.4649 1.5498-2.5229 3.5109-3.2281 5.5234-0.88339 2.521-1.1593 5.2584-1.1594 7.9297-0.00004 2.6718 0.27693 5.4093 1.1594 7.9313 0.70536 2.0158 1.7617 3.9817 3.2281 5.5344 1.3376 1.4163 3.062 2.5075 4.8719 3.2281 1.8842 0.75023 3.9657 1.0436 5.9938 1.0453zm-107.38-0.222 7.153-16.379c-2.4783-0.09674-4.8641-0.13-7.2172-0.12969-2.3531 0.000312-4.7097 0.12818-6.9641 0.12968zm171.95-0.486c0.98404-0.03878 1.9338-0.11015 2.9375-0.31562 0.99028-0.20272 1.9081-0.57365 2.7562-1.125 0.84584-0.54985 1.5476-1.3002 2.0781-2.2391 0.53051-0.93887 0.8-2.0197 0.8-3.5656s-0.34394-3.0281-1.0234-4.1156c-0.6795-1.0875-1.5321-1.948-2.5641-2.5984s-2.1684-1.0992-3.4094-1.3531c-1.23-0.2637-2.4232-0.39219-3.5562-0.39219-0.744 0-1.4149 0.02695-2.0219 0.05625-0.609 0.041-1.1669 0.11326-1.6859 0.22656-0.0691 5.2335 0.16361 10.346 0.33437 15.139 0.593 0.0711 1.4307 0.14998 2.1484 0.19219 1.0673 0.06276 2.1379 0.13273 3.2062 0.09062zm133.12-0.31562c2.0812-0.47833 3.8454-1.6677 4.8328-3.3641 0.5365-0.93885 0.8-2.0197 0.8-3.5656s-0.34188-3.0281-1.0219-4.1156c-0.68-1.0875-1.5336-1.948-2.5656-2.5984s-2.1674-1.0992-3.3984-1.3531c-1.9502-0.42367-3.7294-0.41277-5.5891-0.33594-0.608 0.041-1.166 0.11326-1.675 0.22656-0.0707 5.2336 0.15721 10.346 0.325 15.139 0.592 0.0711 1.3134 0.13594 2.1609 0.19219 2.1051 0.12638 4.2528 0.15768 6.1312-0.225zm-58.57-0.652c1.7842-0.4699 3.5595-1.272 4.9406-2.4953 1.4654-1.298 2.5546-3.0586 3.2609-4.8844 0.9617-2.4857 1.2177-5.2412 1.1922-7.9062-0.0289-3.0157-0.35528-6.1371-1.5203-8.9188-0.86453-2.0642-2.2194-3.9981-3.925-5.4469-1.5454-1.3126-3.5023-2.1314-5.4453-2.7109-3.4824-0.87722-6.8557-0.80017-10.166-0.575-1.3257 0.091812-2.3766 0.22266-3.1516 0.40625-0.33333 10.783-0.6627 22.071 0.00004 32.667 1.144 0.1402 2.4308 0.27765 3.8703 0.38281 3.604 0.26329 7.4121 0.41138 10.944-0.51875zm-41.716-3.7328 6.1281-14.038c-4.1223-0.24547-8.1568-0.0058-12.159 0.00001l6.0312 14.038z" fill="#0e4d86"/></g></svg>
