<svg xmlns:rdf="http://www.w3.org/1999/02/22-rdf-syntax-ns#" xmlns="http://www.w3.org/2000/svg" xml:space="preserve" height="120.48" viewBox="0 0 388.03751 120.475" width="388.04" version="1.1" xmlns:cc="http://creativecommons.org/ns#" xmlns:dc="http://purl.org/dc/elements/1.1/"><g transform="matrix(1.25 0 0 -1.25 0 120.48)" fill="#1c4f9c"><path d="m117.16 53.971 8.035 11.994c2.032 3.0075 2.462 4.8981 2.462 7.0047 0 5.8899-5.177 10.833-11.138 10.833h-12.355v-70.862h6.843c11.457 0 20.148 6.1836 20.148 20.675 0 11.949-5.607 18.328-13.995 20.356zm4.81-53.971h-40.466v96.378h41.945c19.658 0 26.513-16.027 16.557-30.812l-4.71-6.983c32.99-17.131 22.26-58.583-13.33-58.583"/><path d="m35.659 53.971 8.0347 11.994c2.0329 3.0075 2.4637 4.8981 2.4637 7.0047 0 5.8899-5.1777 10.833-11.138 10.833h-12.355v-70.862h6.8418c11.457 0 20.148 6.1836 20.148 20.675 0 11.949-5.607 18.328-13.995 20.356zm4.81-53.971h-40.469v96.378h41.945c19.659 0 26.514-16.027 16.557-30.812l-4.706-6.983c32.986-17.131 22.261-58.583-13.327-58.583"/><path d="m217.71 96.378h15.207l-29.37-96.343-23.12 0.015-31.503 96.315 17.018 0.0133c6.578 0 8.304-1.6972 11.742-12.61l18.235-60.569 21.787 73.179"/><path d="m247.2 34.928 13.156 43.946 13.336-43.946h-26.492zm34.001 51.606c-2.717 8.039-4.545 9.8129-11.666 9.8129l-18.41 0.014-29.49-96.338h15.029l6.318 20.796h35.053l6.35-20.788h26.043l-29.227 86.504"/></g></svg>
