<svg xmlns:rdf="http://www.w3.org/1999/02/22-rdf-syntax-ns#" xmlns="http://www.w3.org/2000/svg" viewBox="0 0 810 225" version="1.1" xmlns:cc="http://creativecommons.org/ns#" xmlns:dc="http://purl.org/dc/elements/1.1/">
<g>
<path d="m508.18 193.09h-20.943v-16.141h20.943v16.141z" fill="#ea293d"/>
<path d="m734.29 120.18h-20.943v-16.137h20.943v16.137z" fill="#ea293d"/>
<path d="m428.88 49.428h-20.943v-16.145h20.943v16.145z" fill="#ea293d"/>
<path d="m284.57 86.028h-20.943v-16.153h20.943v16.153z" fill="#ea293d"/>
<path d="m350.25 26.982c-12.75 0-24.42 3.427-35 10.266-10.6 6.859-18.8 16.92-24.62 30.199-0.4 0.89-0.72 1.803-1.1 2.717h23.09c3.79-7.873 8.42-14.087 13.91-18.615 6.9-5.676 14.52-8.506 22.83-8.506 11.03 0 22.13 3.24 33.3 9.725v-19.094c-12.05-4.456-22.86-6.692-32.41-6.692zm115.88 4.707v145.31h21.03v-129.01-0.256h15.63c14.42 0 24.35 2.255 29.85 6.739 5.48 4.484 8.22 10.516 8.22 18.099 0 4.247-0.83 8.494-2.49 12.725-1.66 4.25-4.09 8.25-7.3 12.006-3.2 3.767-19.09 14.557-28.09 18.757l47.43 77h25.18l-45.63-74.6c7.96-4.42 13.34-10.12 17.58-15.07 4.21-4.944 7.52-10.562 9.92-16.853 2.4-6.283 3.61-12.543 3.61-18.766 0-6.709-1.82-12.961-5.46-18.761-3.63-5.808-8.77-10.152-15.41-13.026-6.64-2.853-16.98-4.295-31.02-4.295h-43.05zm249.17 0.002l-22.16 72.359h20.22l7.41-23.671 4.08-16.438 4.73 16.502 24.15 77.187 10.81 35.43h22.01l-49.98-161.37-21.27 0.001zm-139.12 0.002v161.36h39.07c15.2 0 26.25-1.8 33.17-5.39 6.9-3.61 12.28-8.76 16.12-15.48 3.83-6.72 5.74-13.64 5.74-20.78 0-7.47-2.26-14.95-6.82-22.42-1.9-3.13-4.57-6.03-7.92-8.74h-36.64c5.11 1.24 9.3 2.89 12.5 4.3 6.03 2.67 10.51 6.28 13.45 10.81 2.93 4.54 4.4 9.52 4.4 14.93 0 7.35-2.64 13.64-7.91 18.86-5.26 5.24-13.39 7.86-24.4 7.86h-19.73v-129.27l14.52 0.002c12.84 0 21.46 1.885 25.89 5.653 4.43 3.767 6.65 9.465 6.65 17.125 0 4.886-0.81 9.364-2.42 13.445-1.62 4.069-4.05 7.76-7.31 11.068-3.13 3.168-8 6.187-14.6 9.057h26.93c2.54-1.92 4.71-3.89 6.49-5.926 3.66-4.194 6.43-8.837 8.31-13.945 1.87-5.108 2.8-10.506 2.8-16.186 0-7.217-1.59-13.632-4.75-19.267-3.19-5.619-7.96-9.874-14.35-12.752-6.37-2.874-18.98-4.311-37.83-4.311h-31.36zm-183.06 38.469v16.057h16.41v106.84h36.17v-16.06h-16.79v-106.84l-35.79 0.002zm-108.45 15.817c-1.83 8.279-2.77 17.061-2.77 26.391 0 16.8 2.94 31.87 8.83 45.18 5.89 13.32 14.12 23.35 24.72 30.09 10.6 6.75 22.19 10.12 34.8 10.12 9.55 0 20.36-2.25 32.4-6.73v-19.1c-11.23 6.52-22.32 9.78-33.29 9.78-8.24 0-15.77-2.75-22.57-8.27-6.79-5.49-12.37-13.79-16.75-24.87-4.37-11.08-6.55-23.16-6.55-36.25 0-9.28 1.12-18.058 3.31-26.341h-22.13zm403.5 34.251l-22.29 72.83h20.12l11.1-35.43 11.46-37.4h-20.39z" fill="#3d4d43"/>
<path d="m191.35 29.91h-15.251v15.207h15.251v-15.207z" fill="#ea293d"/>
<path d="m172.26 29.91h-15.251v15.207h15.251v-15.207z" fill="#ea293d"/>
<path d="m153.18 29.91h-15.251v15.207h15.251v-15.207z" fill="#ea293d"/>
<path d="m134.09 29.91h-15.255v15.207h15.255v-15.207z" fill="#ea293d"/>
<path d="m115 29.91h-15.255v15.207h15.255v-15.207z" fill="#39a23d"/>
<path d="m95.916 29.91h-15.251v15.207h15.251v-15.207z" fill="#39a23d"/>
<path d="m76.829 29.91h-15.251v15.207h15.251v-15.207z" fill="#39a23d"/>
<path d="m57.742 29.91h-15.251v15.207h15.251v-15.207z" fill="#39a23d"/>
<path d="m38.651 29.91h-15.251v15.207h15.251v-15.207z" fill="#265a29"/>
<path d="m191.35 49.001h-15.251v15.207h15.251v-15.207z" fill="#ea293d"/>
<path d="m172.26 49.001h-15.251v15.207h15.251v-15.207z" fill="#ea293d"/>
<path d="m153.18 49.001h-15.251v15.207h15.251v-15.207z" fill="#ea293d"/>
<path d="m134.09 49.001h-15.255v15.207h15.255v-15.207z" fill="#ea293d"/>
<path d="m115 49.001h-15.255v15.207h15.255v-15.207z" fill="#39a23d"/>
<path d="m95.916 49.001h-15.251v15.207h15.251v-15.207z" fill="#f6f013"/>
<path d="m76.829 49.001h-15.251v15.207h15.251v-15.207z" fill="#39a23d"/>
<path d="m57.742 49.001h-15.251v15.207h15.251v-15.207z" fill="#265a29"/>
<path d="m38.651 49.001h-15.251v15.207h15.251v-15.207z" fill="#39a23d"/>
<path d="m191.35 68.088h-15.251v15.207h15.251v-15.207z" fill="#ea293d"/>
<path d="m172.26 68.088h-15.251v15.207h15.251v-15.207z" fill="#ea293d"/>
<path d="m153.18 68.088h-15.251v15.207h15.251v-15.207z" fill="#ea293d"/>
<path d="m134.09 68.088h-15.255v15.207h15.255v-15.207z" fill="#ea293d"/>
<path d="m115 68.088h-15.255v15.207h15.255v-15.207z" fill="#39a23d"/>
<path d="m95.916 68.088h-15.251v15.207h15.251v-15.207z" fill="#39a23d"/>
<path d="m76.829 68.088h-15.251v15.207h15.251v-15.207z" fill="#265a29"/>
<path d="m57.742 68.088h-15.251v15.207h15.251v-15.207z" fill="#f6f013"/>
<path d="m38.651 68.088h-15.251v15.207h15.251v-15.207z" fill="#39a23d"/>
<path d="m191.35 87.175h-15.251v15.207h15.251v-15.207z" fill="#ea293d"/>
<path d="m172.26 87.175h-15.251v15.207h15.251v-15.207z" fill="#ea293d"/>
<path d="m153.18 87.175h-15.251v15.207h15.251v-15.207z" fill="#ea293d"/>
<path d="m134.09 87.175h-15.255v15.207h15.255v-15.207z" fill="#ea293d"/>
<path d="m115 87.175h-15.255v15.207h15.255v-15.207z" fill="#39a23d"/>
<path d="m95.916 87.175h-15.251v15.207h15.251v-15.207z" fill="#265a29"/>
<path d="m76.829 87.175h-15.251v15.207h15.251v-15.207z" fill="#f6f013"/>
<path d="m57.742 87.175h-15.251v15.207h15.251v-15.207z" fill="#f6f013"/>
<path d="m38.651 87.175h-15.251v15.207h15.251v-15.207z" fill="#ea293d"/>
<path d="m191.35 106.26h-15.251v15.207h15.251v-15.207z" fill="#ea293d"/>
<path d="m172.26 106.26h-15.251v15.207h15.251v-15.207z" fill="#ea293d"/>
<path d="m153.18 106.26h-15.251v15.207h15.251v-15.207z" fill="#ea293d"/>
<path d="m134.09 106.26h-15.255v15.207h15.255v-15.207z" fill="#ea293d"/>
<path d="m115 106.26h-15.255v15.207h15.255v-15.207z" fill="#265a29"/>
<path d="m95.916 106.26h-15.251v15.207h15.251v-15.207z" fill="#f6f013"/>
<path d="m76.829 106.26h-15.251v15.207h15.251v-15.207z" fill="#f6f013"/>
<path d="m57.742 106.26h-15.251v15.207h15.251v-15.207z" fill="#f6f013"/>
<path d="m38.651 106.26h-15.251v15.207h15.251v-15.207z" fill="#ea293d"/>
<path d="m191.35 125.35h-15.251v15.211h15.251v-15.211z" fill="#ea293d"/>
<path d="m172.26 125.35h-15.251v15.211h15.251v-15.211z" fill="#39a23d"/>
<path d="m153.18 125.35h-15.251v15.211h15.251v-15.211z" fill="#39a23d"/>
<path d="m134.09 125.35h-15.255v15.211h15.255v-15.211z" fill="#265a29"/>
<path d="m115 125.35h-15.255v15.211h15.255v-15.211z" fill="#ea293d"/>
<path d="m95.916 125.35h-15.251v15.211h15.251v-15.211z" fill="#ea293d"/>
<path d="m76.829 125.35h-15.251v15.211h15.251v-15.211z" fill="#ea293d"/>
<path d="m57.742 125.35h-15.251v15.211h15.251v-15.211z" fill="#ea293d"/>
<path d="m38.651 125.35h-15.251v15.211h15.251v-15.211z" fill="#ea293d"/>
<path d="m191.35 144.44h-15.251v15.211h15.251v-15.211z" fill="#ea293d"/>
<path d="m172.26 144.44h-15.251v15.211h15.251v-15.211z" fill="#39a23d"/>
<path d="m153.18 144.44h-15.251v15.211h15.251v-15.211z" fill="#265a29"/>
<path d="m134.09 144.44h-15.255v15.211h15.255v-15.211z" fill="#39a23d"/>
<path d="m115 144.44h-15.255v15.211h15.255v-15.211z" fill="#39a23d"/>
<path d="m95.916 144.44h-15.251v15.211h15.251v-15.211z" fill="#ea293d"/>
<path d="m76.829 144.44h-15.251v15.211h15.251v-15.211z" fill="#ea293d"/>
<path d="m57.742 144.44h-15.251v15.211h15.251v-15.211z" fill="#ea293d"/>
<path d="m38.651 144.44h-15.251v15.211h15.251v-15.211z" fill="#ea293d"/>
<path d="m191.35 163.52h-15.251v15.211h15.251v-15.211z" fill="#f6f013"/>
<path d="m172.26 163.52h-15.251v15.211h15.251v-15.211z" fill="#265a29"/>
<path d="m153.18 163.52h-15.251v15.211h15.251v-15.211z" fill="#f6f013"/>
<path d="m134.09 163.52h-15.255v15.211h15.255v-15.211z" fill="#f6f013"/>
<path d="m115 163.52h-15.255v15.211h15.255v-15.211z" fill="#ea293d"/>
<path d="m95.916 163.52h-15.251v15.211h15.251v-15.211z" fill="#ea293d"/>
<path d="m76.829 163.52h-15.251v15.211h15.251v-15.211z" fill="#ea293d"/>
<path d="m57.742 163.52h-15.251v15.211h15.251v-15.211z" fill="#ea293d"/>
<path d="m38.651 163.52h-15.251v15.211h15.251v-15.211z" fill="#ea293d"/>
<path d="m191.35 182.61h-15.251v15.207h15.251v-15.207z" fill="#265a29"/>
<path d="m172.26 182.61h-15.251v15.207h15.251v-15.207z" fill="#ea293d"/>
<path d="m153.18 182.61h-15.251v15.207h15.251v-15.207z" fill="#ea293d"/>
<path d="m134.09 182.61h-15.255v15.207h15.255v-15.207z" fill="#ea293d"/>
<path d="m115 182.61h-15.255v15.207h15.255v-15.207z" fill="#ea293d"/>
<path d="m95.916 182.61h-15.251v15.207h15.251v-15.207z" fill="#ea293d"/>
<path d="m76.829 182.61h-15.251v15.207h15.251v-15.207z" fill="#ea293d"/>
<path d="m57.742 182.61h-15.251v15.207h15.251v-15.207z" fill="#ea293d"/>
<path d="m38.651 182.61h-15.251v15.207h15.251v-15.207z" fill="#ea293d"/>
</g>
</svg>
