<?xml version="1.0" encoding="UTF-8" standalone="no"?>
<svg
   xmlns:dc="http://purl.org/dc/elements/1.1/"
   xmlns:cc="http://creativecommons.org/ns#"
   xmlns:rdf="http://www.w3.org/1999/02/22-rdf-syntax-ns#"
   xmlns:svg="http://www.w3.org/2000/svg"
   xmlns="http://www.w3.org/2000/svg"
   viewBox="0 0 1380.8375 720.78748"
   height="720.78748"
   width="1380.8375"
   xml:space="preserve"
   version="1.1"
   id="svg2"><metadata
     id="metadata8"><rdf:RDF><cc:Work
         rdf:about=""><dc:format>image/svg+xml</dc:format><dc:type
           rdf:resource="http://purl.org/dc/dcmitype/StillImage" /></cc:Work></rdf:RDF></metadata><defs
     id="defs6"><clipPath
       id="clipPath18"
       clipPathUnits="userSpaceOnUse"><path
         id="path20"
         d="m 0,0 11046.7,0 0,5766 L 0,5766 0,0 Z" /></clipPath></defs><g
     transform="matrix(1.25,0,0,-1.25,0,720.7875)"
     id="g10"><g
       transform="scale(0.1,0.1)"
       id="g12"><g
         id="g14"><g
           clip-path="url(#clipPath18)"
           id="g16"><path
             id="path22"
             style="fill:#cce31c;fill-opacity:1;fill-rule:nonzero;stroke:none"
             d="m 3364.9,2539.6 682.99,-293.44 190.24,-146.52 296.54,-133.35 0,-1331.978 -1169.77,502.658 0,1402.63" /><path
             id="path24"
             style="fill:#cce31c;fill-opacity:1;fill-rule:nonzero;stroke:none"
             d="m 1025.31,5766.25 1169.73,-502.74 0,-1402.76 -1169.73,502.58 0,1402.92" /><path
             id="path26"
             style="fill:#cce31c;fill-opacity:1;fill-rule:nonzero;stroke:none"
             d="m 1025.31,1905.61 1169.73,-502.74 0,-1402.87 -1169.73,502.711 0,1402.899" /><path
             id="path28"
             style="fill:#80d4ce;fill-opacity:1;fill-rule:nonzero;stroke:none"
             d="m 0,4803.55 1169.79,-502.53 0,-1402.81 L 0,3400.92 0,4803.55" /><path
             id="path30"
             style="fill:#6aa9bd;fill-opacity:1;fill-rule:nonzero;stroke:none"
             d="m 2195.04,4444.99 1169.86,-502.63 0,-1402.67 -1169.86,502.55 0,1402.75" /><path
             id="path32"
             style="fill:#6aa9bd;fill-opacity:1;fill-rule:nonzero;stroke:none"
             d="m 441.902,3558.6 1169.978,-502.72 0,-1402.93 -1169.978,502.89 0,1402.76" /><path
             id="path34"
             style="fill:#1d3960;fill-opacity:1;fill-rule:nonzero;stroke:none"
             d="m 1612.17,3767 1169.86,-502.57 0,-1402.87 -1169.86,502.69 0,1402.75" /><path
             id="path36"
             style="fill:#6aa9bd;fill-opacity:1;fill-rule:nonzero;stroke:none"
             d="m 2195.04,2333.49 1169.86,-502.64 0,-1402.92 -1169.86,502.601 0,1402.959" /><path
             id="path38"
             style="fill:#80d4ce;fill-opacity:1;fill-rule:nonzero;stroke:none"
             d="m 4534.67,3537.29 0,728.66 -1169.77,502.7 0,-1402.75 672.13,-291.95 c 88.4,254.01 256.78,318.95 497.64,463.34" /><path
             id="path40"
             style="fill:#1c395f;fill-opacity:1;fill-rule:nonzero;stroke:none"
             d="m 5569.06,3965.16 257.25,-110.99 0,303.71 -257.25,110.41 0,-303.13 z m 777.46,-385.25 -30.74,-23.32 -187.39,80.3 0,-1739.4 257.28,0 0,1359.93 16.98,18.72 c 131.71,141.56 281.64,207.77 471.75,207.77 102.66,0 198.42,-20.32 285.09,-60.68 l 160.53,207.86 c -135.43,70.66 -293.22,110.21 -443.43,110.21 -318.59,-0.74 -528.34,-159.66 -530.07,-161.39 z m 4278.48,-326.86 -20.5,19.1 c -149.7,139.74 -303.3,204.48 -483.5,204.48 -376.91,0 -683.65,-306.67 -683.65,-683.47 0,-364.12 319.54,-683.52 683.65,-683.52 188.8,0 371.3,78.01 487.7,209.14 l 16.3,17.85 0,916.42 z m 421.7,-1013.29 0,-326.32 -329.4,145.59 -29.6,-21.39 c -78.5,-55.67 -290,-185.4 -566.7,-185.4 -520.94,0 -944.95,422.09 -944.95,940.92 0,510.25 432.6,941.02 944.95,941.02 296.6,0 611.6,-158.35 757.5,-378.8 l 0,-1043.01 168.2,-72.61 z M 8825,2800.35 c 0,370.3 -313.39,683.56 -683.91,683.56 -177.53,0 -345.69,-73.37 -474.48,-207.21 l -18.16,-18.57 0,-915.44 17.97,-18.74 c 92.53,-96.51 230.41,-207.33 474.67,-207.33 370.52,0 683.91,313.21 683.91,683.73 z m 261.02,0 c 0,-527.66 -415.15,-940.98 -944.93,-940.98 -292.57,0 -604.44,158.33 -749.91,378.64 l 0,2516.38 257.27,-110.37 0,-1043.34 94.04,48.18 c 113.97,59.08 188.8,92.44 398.6,92.44 521.2,0 944.93,-422.08 944.93,-940.95 z m -3516.96,-902.86 257.02,0 0,1656.32 -257.02,109.78 0,-1766.1 z m -354.04,402.66 182.4,-187.66 c -168.6,-159.44 -404.94,-253.12 -643.75,-253.12 -520.96,0 -944.96,421.8 -944.96,940.98 0,518.87 424,940.95 944.96,940.95 303.08,0 511.1,-125.95 642,-247.91 -68.65,-64.51 -149.44,-140.23 -197.15,-184.55 -101.66,93.59 -227.24,175.07 -444.85,175.07 -364.12,0 -683.96,-319.58 -683.96,-683.56 0,-364.18 319.84,-683.73 683.96,-683.73 217.87,0 360.17,90.37 461.35,183.53" /></g></g></g></g></svg>