<svg xmlns:rdf="http://www.w3.org/1999/02/22-rdf-syntax-ns#" xmlns="http://www.w3.org/2000/svg" xml:space="preserve" height="106.54" viewBox="0 0 352.19138 106.54125" width="352.19" version="1.1" xmlns:cc="http://creativecommons.org/ns#" xmlns:dc="http://purl.org/dc/elements/1.1/"><g transform="matrix(1.25 0 0 -1.25 -181.81 673.22)"><g><path d="m45.604 3.2793v65.338h8.099v-65.338l-8.099 0.0003zm150.75 0v26.59h-0.18c-2.03-3.589-6.63-6.81-13.44-6.81-10.86 0-20.05 9.107-19.96 23.923 0 13.528 8.28 22.641 19.04 22.641 7.27 0 12.71-3.774 15.18-8.746h0.19l0.37 7.738h7.26c-0.28-3.047-0.37-7.55-0.37-11.51v-53.826l-8.09 0.0003zm-171.27 19.867c-14.536 0-23.92 9.94-23.92 23.653 0.0001 13.616 8.7451 22.824 22.174 22.824 5.979 0 10.67-1.563 12.789-2.672l-1.383-6.072c-2.3 1.01-5.333 2.207-9.935 2.207-8.833 0-15.459-6.344-15.459-16.656-0.0004-9.295 5.521-16.842 15.734-16.842 4.417 0 7.45 1.018 9.381 2.121l1.844-6.26c-2.212-1.102-6.444-2.303-11.225-2.303zm91.386 0.922v26.041c0 15.644 8.37 19.514 15.36 19.514 7.91 0 12.6-4.698 14.72-8.285h0.18l0.46 7.277h7.18c-0.28-3.505-0.37-7.551-0.37-12.152v-32.395h-8.09v27.33c0 1.473-0.28 2.948-0.74 4.149-1.47 3.584-5.25 7.353-10.67 7.353-7.36 0-9.94-5.698-9.94-14.166v-24.666h-8.09zm-28.714 0.348c-14.269 0-25.826 11.565-25.832 25.84 0 5.995 2.058 11.537 5.488 15.92l4.717-4.949-0.477-0.594c-2.377-3.924-3.067-5.908-3.072-10.377 0.024-10.591 8.585-19.17 19.176-19.188 6.126 0 10.627 2.346 13.714 5.916l6.61-2.687h-0.01c-4.71-6.014-12.078-9.887-20.314-9.881zm96.534 4.99c6.07 0 10.5 4.233 11.7 9.387 0.28 1.012 0.36 2.394 0.36 3.406v7.731c0 1.286-0.08 2.393-0.36 3.498-1.47 6.072-6.45 9.658-11.87 9.658-8.75 0-13.16-7.449-13.16-16.467 0-9.85 4.96-17.213 13.33-17.213z" transform="matrix(0.8 0 0 -0.8 145.45 538.57)" fill="#bf2519"/><path d="m316.22 2.2695c-3.78 0-7.82 1.193-10.86 4.1367-3.78 3.5863-5.15 9.2918-5.15 15.545v2.117h-6.26v6.162h6.26v38.385h8v-38.385h22v24.297c0 5.249 0.83 9.202 3.13 11.598 1.94 2.21 4.97 3.498 8.74 3.498 3.13 0 5.61-0.55 7.18-1.195l-0.37-6.08c-1.2 0.373-2.48 0.554-4.69 0.554-4.51 0-6.08-3.124-6.08-8.648v-24.024h11.6v-6.162h-11.6v-10.67l-7.91 2.481v8.189h-22v-2.39c0-6.808 1.75-12.881 8.65-12.881 2.3-0.0001 3.95 0.4627 5.15 1.0116l1.11-6.2539c-1.57-0.6425-4.06-1.2852-6.9-1.2852zm-47.04 20.79c-12.32 0-22.09 8.739-22.09 23.65 0 14.079 9.3 22.914 21.36 22.914 10.76 0 22.17-7.179 22.17-23.65 0-13.622-8.66-22.914-21.44-22.914zm-39.95 0.002c-9.57 0-15.37 5.886-15.37 13.062 0 5.34 3.78 9.758 11.77 12.611 5.98 2.209 8.29 4.326 8.29 8.186 0 3.685-2.76 6.625-8.65 6.625-4.04 0-8.28-1.656-10.67-3.219l-2.03 6.164c3.13 1.844 7.64 3.133 12.52 3.133 10.58 0 16.64-5.615 16.64-13.437 0-6.625-3.94-10.492-11.68-13.436-5.79-2.208-8.46-3.862-8.46-7.547 0-3.314 2.67-6.074 7.46-6.074 4.13 0 7.35 1.477 9.1 2.578l2.02-5.889c-2.48-1.471-6.44-2.757-10.94-2.757zm39.76 6.068c9.58 0 13.35 9.575 13.35 17.117 0 10.034-5.8 17.299-13.53 17.299-7.91 0-13.52-7.358-13.52-17.115 0-8.465 4.13-17.301 13.7-17.301zm-158.97 10.693c-10.99 0.889-17.914 6.378-21.471 12.723-1.944 3.415-3.015 6.985-3.611 10.293-1.582 0.286-3.502 0.767-5.536 1.592-4.902 1.925-10.718 6.412-12.168 14.675-0.248 1.377-0.373 2.717-0.373 4.016 0 6.893 3.373 12.001 6.547 15.17 3.191 3.199 6.259 4.709 6.477 4.809l2.918-5.973s-0.06-0.035-0.309-0.176c-1.846-1.006-9.1-5.834-8.965-13.83 0-0.885 0.086-1.827 0.264-2.83 1.061-5.624 4.459-8.12 8.129-9.687 0.795-0.332 1.581-0.58 2.336-0.784-0.003 0.194-0.013 0.413-0.014 0.606-0.015 3.281 0.312 5.472 0.336 5.605l6.578-1.011s-0.059-0.378-0.133-1.176c-0.063-0.808-0.133-1.981-0.127-3.383 0.005-4.008 0.69-9.888 3.418-14.606 2.737-4.622 7.024-8.395 15.764-9.347v-6.686h-0.06z" transform="matrix(0.8 0 0 -0.8 145.45 538.57)" fill="#142c61"/></g></g></svg>
