<svg xmlns:rdf="http://www.w3.org/1999/02/22-rdf-syntax-ns#" xmlns="http://www.w3.org/2000/svg" xml:space="preserve" version="1.1" xmlns:cc="http://creativecommons.org/ns#" xmlns:dc="http://purl.org/dc/elements/1.1/" viewBox="0 0 936 411"><g transform="matrix(1.25 0 0 -1.25 78.811 346.66)"><g><circle style="color-rendering:auto;color:#000000;isolation:auto;mix-blend-mode:normal;paint-order:normal;shape-rendering:auto;image-rendering:auto" cx="72.385" transform="scale(1,-1)" cy="-83.483" r="120.25" fill="#6e798b"/><circle style="color-rendering:auto;color:#000000;isolation:auto;mix-blend-mode:normal;paint-order:normal;shape-rendering:auto;image-rendering:auto" cx="72.385" transform="scale(1,-1)" cy="-83.483" r="94.667" fill="#fff"/><circle style="color-rendering:auto;color:#000000;isolation:auto;mix-blend-mode:normal;paint-order:normal;shape-rendering:auto;image-rendering:auto" cx="72.385" transform="scale(1,-1)" cy="-83.483" r="80.879" fill="#6e798b"/></g><path fill="#495677" d="m342.85 102.27c-0.79312 0.0328-2.255-0.8814-4.5859-2.7344-10.33-8.218-18.35-19.985-33.12-48.645-17.56-34.06-24.18-44.372-34.77-54.13-13.694-12.618-29.396-15.672-36.594-7.1172-4.3368 5.1539-2.0404 8.6544 7.4641 11.377 8.1499 2.3342 10.871 4.6298 10.745 9.0609-0.15144 5.3425-6.5709 9.1887-13.233 7.9297-8.78-1.661-14.58-11.337-12.58-20.99 1.0911-5.2557 5.985-11.024 10.778-12.705 4.2941-1.5053 11.938-1.4742 17.255 0.0703 11.148 3.2387 24.168 14.333 33.739 28.748 2.9254 4.4058 10.706 18.684 17.289 31.73 6.5832 13.046 14.253 27.339 17.044 31.764 4.9753 7.8886 11.738 16.779 12.822 16.856 0.30137 0.0214-0.67027-2.5945-2.1578-5.8141-5.9538-12.886-8.3814-26.165-8.9484-48.947-0.41157-16.534 0.6046-33.087 3.0297-49.392l0.91094-6.1297c5.8513 2.9345 11.703 5.8686 17.555 8.8031 0 0-0.32622 4.3755-0.53126 6.5594-0.21909 2.3335-0.43056 4.3231-0.64531 6.2469l0.28438 0.70468 10.733 24.808c11.056 25.556 15.255 34.173 18.212 37.373 0.90149 0.97562 3.4782 2.3698 5.725 3.0969 6.9006 2.2331 9.2722 3.6045 9.7875 5.6578 0.65671 2.6165-1.6497 5.0719-4.7641 5.0719-6.3162 0-16.326-16.319-32.141-52.4-3.2709-7.4624-6.2364-13.993-7.2672-16.034-0.0754-0.14936-0.69581-1.1466-1.2766-2.0766-0.39305 3.4221-0.83026 7.335-1.3922 13.208-1.0077 10.531-1.8032 26.285-1.7844 39.703 0.0252 17.967 0.19083 19.92 2.9891 35.4 0.34973 1.9348 0.22594 2.9141-0.56719 2.9469zm141.76-56.773v-12.044h-6.4594v-7.1609h6.4594v-18.444l0.0766-10.728c0.0266-1.2122 0.0955-2.4229 0.19531-3.6312 0.13752-1.6644 0.28549-3.3432 0.77813-4.9391 0.30595-0.99104 0.75563-1.9591 1.475-2.7062 0.65807-0.68347 1.5104-1.1502 2.3859-1.5156 2.2695-0.94728 4.7704-1.1567 7.2297-1.1734l4.6-0.0312v4 4h-3.6203c-0.4096 0-0.81859-0.007-1.2281 0.002-0.40952 0.009-0.8234 0.0378-1.214 0.16094-0.45767 0.14421-0.87089 0.41796-1.2016 0.76563-0.33066 0.34768-0.58105 0.76737-0.75625 1.214-0.3278 0.83584-0.39749 1.7481-0.42969 2.6453-0.0322 0.89723-0.0432 1.7951-0.0781 2.6922l-0.2625 9.2453v18.444h8.8312v7.1609h-8.8312v12.044h-7.95zm52.06-11.104c-7.7002 0-14.672-2.4097-19.633-7.2312-4.9306-4.8216-6.7547-10.922-6.7547-18.302 0-2.2133 0.26445-4.3208 0.7625-6.3344h-0.0188c0.0962-0.39006 0.21329-0.77213 0.32812-1.1547 0.0235-0.0783 0.0398-0.15953 0.0641-0.23749h0.003c1.1981-3.8472 3.3398-7.3145 6.4391-10.398 5.0523-5.0274 11.23-7.5422 18.534-7.5422 5.5088 0 11.224 1.4407 15.252 4.3219 2.1766 1.5457 4.4872 3.4631 6.5156 5.7281l-5.2453 5.2453c-1.7162-2.5882-4.3711-4.3801-6.8547-5.7438-2.9054-1.5953-6.1892-2.4354-9.8344-2.3797-8.5983 0.13125-15.106 4.486-17.256 12.127-0.33318 1.1823-0.56577 2.44-0.68125 3.7766h43.114c-0.15024 7.5704-3.2465 15.794-7.5594 20.584-4.5864 5.0274-9.627 7.5406-17.175 7.5406zm58.012 0c-7.0265 0-12.995-2.4989-17.905-7.4969-4.8804-4.9686-7.3203-11.039-7.3203-18.212 0-7.0266 2.4112-13.04 7.2328-18.038 4.851-4.9686 10.789-7.4531 17.816-7.4531 5.4684 0 10.218 1.4407 14.245 4.3219 1.052 0.75256 2.0272 1.5912 2.9328 2.5062l-4.7094 4.7094c-0.6651-0.59439-1.3774-1.1381-2.1469-1.6219-2.7392-1.7223-5.8988-2.5828-9.4766-2.5828-4.8914 0-9.0004 1.736-12.327 5.2078-3.3262 3.4992-4.9891 7.8449-4.9891 13.039s1.6502 9.5547 4.9484 13.081c3.3262 3.5265 7.364 5.2906 12.116 5.2906 3.6057 0 6.7084-0.79411 9.3078-2.3797 0.60819-0.3607 1.193-0.77203 1.7578-1.225l4.7125 4.7125c-0.73028 0.66426-1.4902 1.2945-2.3031 1.8641-3.9984 2.8518-8.6296 4.2766-13.892 4.2766zm-205.45-0.264c-7.2617 0-13.318-2.44-18.169-7.3203-4.8216-4.8804-7.2328-10.952-7.2328-18.214 0-7.1442 2.3666-13.156 7.1-18.036 4.7334-4.851 10.659-7.2766 17.773-7.2766 3.822 0 7.3791 0.79366 10.672 2.3812 3.3222 1.5876 5.9534 3.7773 7.8938 6.5703v-8.4734h7.6859v50.111h-7.6859v-8.5625c-2.058 2.8518-4.6461 5.0272-7.7625 6.5266-3.1164 1.5288-6.5412 2.2938-10.275 2.2938zm256.26 0c-7.2618 0-13.318-2.44-18.169-7.3203-4.8216-4.8804-7.2328-10.952-7.2328-18.214 0-7.1442 2.3666-13.156 7.1-18.036 4.7333-4.851 10.659-7.2766 17.773-7.2766 3.822 0 7.3791 0.79366 10.672 2.3812 3.3222 1.5876 5.9534 3.7773 7.8937 6.5703v-8.4734h7.6859v50.111h-7.6859v-8.5625c-2.058 2.8518-4.6461 5.0272-7.7625 6.5266-3.1164 1.5288-6.5412 2.2938-10.275 2.2938zm-220.78-1.0578 21.266-48.511h7.3312l20.709 48.511h-8.1984l-16.183-39.053-15.981 39.053h-8.9438zm109.87-5.761c4.7301 0 8.5668-1.2039 11.509-3.6109 2.9426-2.3815 4.964-5.9408 6.0641-10.678h-34.362c0.68752 4.3788 2.5568 7.8487 5.6094 10.409 3.0526 2.5863 6.7796 3.8797 11.18 3.8797zm-144.52-0.369c4.5264 0 8.5242-1.7877 11.995-5.3625 3.4711-3.5475 5.2078-7.7089 5.2078-12.484 0-5.1302-1.7367-9.5246-5.2078-13.181-3.4434-3.6294-7.4973-5.4438-12.162-5.4438-4.8318 0-8.9692 1.7195-12.413 5.1578-3.4434 3.4656-5.1656 7.7086-5.1656 12.73 0 5.2667 1.7223 9.6744 5.1656 13.222 3.4711 3.5748 7.6646 5.3625 12.58 5.3625zm256.26 0c4.5264 0 8.5242-1.7877 11.995-5.3625 3.4711-3.5475 5.2078-7.7089 5.2078-12.484 0-5.1302-1.7367-9.5246-5.2078-13.181-3.4434-3.6294-7.4973-5.4438-12.163-5.4438-4.8318 0-8.9691 1.7195-12.412 5.1578-3.4434 3.4656-5.1656 7.7086-5.1656 12.73 0 5.2667 1.7223 9.6744 5.1656 13.222 3.4711 3.5748 7.6646 5.3625 12.58 5.3625z"/><g stroke-linecap="square"><circle cy="77.849" stroke="#fff" cx="78.413" stroke-width="4" fill="none" style="color-rendering:auto;color:#000000;isolation:auto;mix-blend-mode:normal;paint-order:normal;shape-rendering:auto;image-rendering:auto" transform="matrix(-.067414 .99773 .99773 .067414 0 0)" r="107.68" stroke-dasharray="1, 7"/><path stroke="#495677" stroke-width=".27491" fill="#969594" style="color-rendering:auto;color:#000000;isolation:auto;mix-blend-mode:normal;paint-order:normal;shape-rendering:auto;image-rendering:auto" transform="matrix(-1.3443 -.55673 -.55673 1.3443 123.22 236.01)" d="m127.85-28.017-55.465-40.71-55.465 40.71 40.71-55.466-40.71-55.467 55.465 40.712 55.465-40.712-40.709 55.467z" stroke-dasharray="0.27490621, 0.54981242"/><path stroke="#495677" stroke-width=".4" fill="#fff" style="color-rendering:auto;color:#000000;isolation:auto;mix-blend-mode:normal;paint-order:normal;shape-rendering:auto;image-rendering:auto" d="m72.39 161.92-8.7851-57.24 8.7806-6.4462 8.7825 6.445-8.7781 57.241zm8.7781-57.241 1.6517-10.767l10.767-1.651 34.263 46.678-46.682-34.26zm12.419-12.418-6.446-8.78 6.445-8.783 57.244 8.778-57.243 8.785zm-0.001-17.563-10.768-1.652-1.653-10.767 46.685-34.267-34.264 46.686zm-12.421-12.419-8.78 6.447-8.783-6.445 8.778-57.24 8.785 57.238zm-17.563 0.0011-1.6517 10.767-10.767 1.6528-34.268-46.682 46.686 34.262zm-12.419 12.42 6.4461 8.7822-6.445 8.781-57.239-8.778 57.238-8.7852zm0.0011 17.563 10.767 1.6517 1.6528 10.767-46.682 34.268 34.262-46.686z"/></g><g stroke="#495677" stroke-width="3.2" fill="none"><circle cy="-83.483" stroke-linecap="square" style="color-rendering:auto;color:#000000;isolation:auto;mix-blend-mode:normal;paint-order:normal;shape-rendering:auto;image-rendering:auto" transform="scale(1,-1)" r="80.879" cx="72.385"/><path d="m103.34 158.45-62.397-150m-43.591 106.48 150-62.4"/></g><path fill="#495677" d="m138.31 263.38c-0.58598 0.0242-1.666-0.65119-3.3882-2.0202-7.6391-6.0727-13.56-14.766-24.474-35.941-12.978-25.16-17.872-32.78-25.696-39.99-10.117-9.32-21.718-11.58-27.036-5.26-3.2041 3.8078-1.5075 6.394 5.5146 8.4052 6.0213 1.7246 8.0316 3.4205 7.9388 6.6944-0.11189 3.9471-4.8547 6.7888-9.7766 5.8586-6.4893-1.2264-10.773-8.3755-9.2929-15.507 0.80612-3.883 4.4218-8.145 7.9631-9.3864 3.1725-1.1122 8.8204-1.0892 12.748 0.0519 8.236 2.3928 17.856 10.59 24.927 21.24 2.1613 3.2551 7.9097 13.804 12.773 23.442 4.8638 9.6383 10.53 20.199 12.592 23.468 3.6759 5.8282 8.6724 12.397 9.473 12.454 0.22265 0.0158-0.49521-1.9168-1.5942-4.2955-4.3988-9.5206-6.1923-19.331-6.6113-36.163-0.30408-12.215 0.44669-24.445 2.2384-36.492l0.67302-4.5287c4.3231 2.1681 8.6467 4.3358 12.97 6.5039 0 0-0.24102 3.2327-0.39251 4.8462-0.16187 1.724-0.3181 3.194-0.47677 4.6153l0.21011 0.52063 7.9296 18.328c8.1684 18.881 11.271 25.247 13.456 27.612 0.66604 0.72081 2.5698 1.7508 4.2297 2.288 5.0982 1.6499 6.8504 2.6631 7.2312 4.1801 0.48518 1.9331-1.2188 3.7472-3.5198 3.7472-4.6666 0-12.062-12.057-23.746-38.714-2.4166-5.5133-4.6076-10.339-5.3691-11.846-0.0557-0.11035-0.51408-0.84711-0.94314-1.5342-0.29039 2.5283-0.61341 5.4193-1.0286 9.7582-0.74447 7.7808-1.3322 19.42-1.3183 29.333 0.0186 13.275 0.14099 14.717 2.2084 26.154 0.25838 1.4294 0.16692 2.153-0.41905 2.1772z"/><circle cy="-83.483" stroke="#495677" cx="72.385" stroke-width=".8" fill="none" style="color-rendering:auto;color:#000000;isolation:auto;mix-blend-mode:normal;paint-order:normal;shape-rendering:auto;image-rendering:auto" transform="scale(1,-1)" r="23.279" stroke-linecap="square"/><path d="m81.296 105.06-17.961-43.174m-12.547 30.647 43.175-17.961" stroke="#495677" stroke-width=".8" fill="none"/></g></svg>
