<?xml version="1.0" encoding="UTF-8" standalone="no"?>
<!-- Created with Inkscape (http://www.inkscape.org/) -->

<svg
   xmlns:dc="http://purl.org/dc/elements/1.1/"
   xmlns:cc="http://creativecommons.org/ns#"
   xmlns:rdf="http://www.w3.org/1999/02/22-rdf-syntax-ns#"
   xmlns:svg="http://www.w3.org/2000/svg"
   xmlns="http://www.w3.org/2000/svg"
   xmlns:sodipodi="http://sodipodi.sourceforge.net/DTD/sodipodi-0.dtd"
   xmlns:inkscape="http://www.inkscape.org/namespaces/inkscape"
   id="svg2"
   version="1.1"
   inkscape:version="0.48.5 r10040"
   width="606.1375"
   height="237.95"
   xml:space="preserve"
   sodipodi:docname="Synnefo_A Forsythe Company Logo.eps"><metadata
     id="metadata8"><rdf:RDF><cc:Work
         rdf:about=""><dc:format>image/svg+xml</dc:format><dc:type
           rdf:resource="http://purl.org/dc/dcmitype/StillImage" /><dc:title></dc:title></cc:Work></rdf:RDF></metadata><defs
     id="defs6" /><sodipodi:namedview
     pagecolor="#ffffff"
     bordercolor="#666666"
     borderopacity="1"
     objecttolerance="10"
     gridtolerance="10"
     guidetolerance="10"
     inkscape:pageopacity="0"
     inkscape:pageshadow="2"
     inkscape:window-width="1640"
     inkscape:window-height="1092"
     id="namedview4"
     showgrid="false"
     inkscape:zoom="0.99180501"
     inkscape:cx="309.11833"
     inkscape:cy="116.95847"
     inkscape:window-x="0"
     inkscape:window-y="56"
     inkscape:window-maximized="0"
     inkscape:current-layer="g10" /><g
     id="g10"
     inkscape:groupmode="layer"
     inkscape:label="ink_ext_XXXXXX"
     transform="matrix(1.25,0,0,-1.25,0,237.95)"><g
       id="g12"
       transform="scale(0.1,0.1)"><path
         d="m 214.094,961.414 c 0,-57.617 48.867,-82.105 87.664,-82.105 34.441,0 73.293,18.722 73.293,69.156 0,30.215 -5.766,46.062 -77.602,70.525 -37.39,12.96 -195.418,33.11 -255.7576,145.43 -17.2383,31.68 -23,64.79 -23,99.34 0,113.76 74.707,264.98 288.7696,264.98 135.066,0 264.414,-70.58 277.352,-237.6 l -208.36,0 c -2.867,17.29 -11.473,72.01 -64.656,72.01 -34.473,0 -70.41,-15.88 -70.41,-64.81 0,-15.86 -1.407,-46.08 57.468,-72 17.239,-7.19 156.606,-31.68 218.43,-76.33 58.926,-44.61 89.063,-102.21 89.063,-172.787 0,-112.305 -87.657,-267.801 -314.66,-267.801 C 148.02,709.422 17.2852,788.629 0,961.414 l 214.094,0"
         style="fill:#666a6f;fill-opacity:1;fill-rule:nonzero;stroke:none"
         id="path14" /><path
         d="m 824.285,840.801 -256.734,663.429 250,0 121.668,-386.96 -114.934,-276.469"
         style="fill:#666a6f;fill-opacity:1;fill-rule:nonzero;stroke:none"
         id="path16" /><path
         d="m 1599.2,731.012 -221.32,0 0,773.218 212.66,0 -2.87,-103.69 c 54.58,79.23 129.27,118.11 224.13,118.11 10.07,0 17.23,0 20.08,0 122.15,-5.76 241.42,-87.84 241.42,-277.89 l 0,-509.748 -227,0 0,418.998 c 0,112.32 -30.2,167.05 -135.07,154.09 -50.32,-7.2 -112.03,-33.12 -112.03,-154.09 l 0,-418.998"
         style="fill:#666a6f;fill-opacity:1;fill-rule:nonzero;stroke:none"
         id="path18" /><path
         d="m 2362.07,731.012 -221.24,0 0,773.218 212.61,0 -2.84,-103.69 c 54.6,79.23 129.29,118.11 224.13,118.11 10.06,0 17.25,0 20.07,0 122.15,-5.76 241.45,-87.84 241.45,-277.89 l 0,-509.748 -227.03,0 0,418.998 c 0,112.32 -30.2,167.05 -135.06,154.09 -50.32,-7.2 -112.09,-33.12 -112.09,-154.09 l 0,-418.998"
         style="fill:#666a6f;fill-opacity:1;fill-rule:nonzero;stroke:none"
         id="path20" /><path
         d="m 3445.41,1197.54 c -31.62,87.84 -113.53,125.3 -186.8,125.3 -61.75,0 -148.01,-28.81 -172.39,-125.3 l 359.19,0 z M 3637.94,955.633 C 3558.92,794.34 3433.92,713.75 3262.95,713.75 c -175.32,0 -405.22,131.02 -405.22,407.45 0,309.61 264.39,406.1 412.37,406.1 171.01,0 405.21,-92.19 405.21,-489.59 l -583.33,0 c 20.08,-66.23 57.47,-125.261 178.12,-125.261 35.94,0 76.18,14.395 119.26,43.184 l 248.58,0"
         style="fill:#666a6f;fill-opacity:1;fill-rule:nonzero;stroke:none"
         id="path22" /><path
         d="m 3727.01,731.012 0,601.898 -83.33,0 0,171.32 83.33,0 0,15.86 c 0,195.8 81.9,251.99 311.77,251.99 l 0,-155.53 c -84.77,-5.76 -84.77,-23.05 -89.07,-112.32 l 89.07,0 0,-171.32 -89.07,0 0,-601.898 -222.7,0"
         style="fill:#666a6f;fill-opacity:1;fill-rule:nonzero;stroke:none"
         id="path24" /><path
         d="m 4441.07,928.309 c 89.1,0 182.47,76.291 182.47,188.581 0,84.94 -66.07,191.54 -183.87,191.54 -91.96,0 -181.06,-80.62 -181.06,-191.54 0,-97.9 84.79,-188.581 182.46,-188.581 z m 1.47,596.101 c 231.33,0 406.59,-192.97 406.59,-417.61 0,-240.448 -202.57,-395.941 -410.93,-395.941 -239.93,0 -405.15,195.829 -405.15,408.921 0,224.62 185.35,404.63 409.49,404.63"
         style="fill:#666a6f;fill-opacity:1;fill-rule:nonzero;stroke:none"
         id="path26" /><path
         d="m 1199.1,587.551 0,-116.422 -20.41,0 0,116.422 -31.11,0 0,19.23 82.56,0 0,-19.23 -31.04,0"
         style="fill:#1476c6;fill-opacity:1;fill-rule:nonzero;stroke:none"
         id="path28" /><path
         d="m 1394.9,587.551 -54.26,0 0,-32.602 52.68,0 0,-19.23 -52.68,0 0,-45.328 54.26,0 0,-19.262 -74.69,0 0,135.652 74.69,0 0,-19.23"
         style="fill:#1476c6;fill-opacity:1;fill-rule:nonzero;stroke:none"
         id="path30" /><path
         d="m 1593.58,599.539 0,-24.211 c -11.8,9.91 -24.02,14.883 -36.65,14.883 -13.87,0 -25.6,-4.992 -35.15,-15.031 -9.55,-9.989 -14.37,-22.129 -14.37,-36.571 0,-14.211 4.82,-26.25 14.37,-36.007 9.58,-9.801 21.33,-14.672 35.23,-14.672 7.2,0 13.32,1.148 18.34,3.5 2.81,1.179 5.71,2.75 8.76,4.75 2.97,1.988 6.17,4.371 9.47,7.199 l 0,-24.77 c -11.7,-6.609 -23.94,-9.941 -36.79,-9.941 -19.39,0 -35.86,6.793 -49.56,20.312 -13.6,13.622 -20.38,30.122 -20.38,49.379 0,17.25 5.65,32.7 17.03,46.219 14.08,16.57 32.18,24.84 54.47,24.84 12.16,0 23.89,-3.277 35.23,-9.879"
         style="fill:#1476c6;fill-opacity:1;fill-rule:nonzero;stroke:none"
         id="path32" /><path
         d="m 1715.38,553.719 58.42,0 0,53.062 20.44,0 0,-135.652 -20.44,0 0,63.359 -58.42,0 0,-63.359 -20.41,0 0,135.652 20.41,0 0,-53.062"
         style="fill:#1476c6;fill-opacity:1;fill-rule:nonzero;stroke:none"
         id="path34" /><path
         d="m 1898.49,471.129 0,144.891 98.7,-103.5 0,94.261 20.46,0 0,-143.89 -98.72,103.218 0,-94.98 -20.44,0"
         style="fill:#1476c6;fill-opacity:1;fill-rule:nonzero;stroke:none"
         id="path36" /><path
         d="m 2136.99,539.352 c 0,-14.954 5.02,-27.274 15.08,-36.981 9.99,-9.601 21.54,-14.441 34.6,-14.441 14.21,0 26.22,4.922 35.98,14.75 9.75,9.929 14.63,22.05 14.63,36.308 0,14.473 -4.88,26.614 -14.48,36.371 -9.58,9.86 -21.43,14.75 -35.54,14.75 -14.12,0 -26.02,-4.89 -35.7,-14.75 -9.73,-9.711 -14.57,-21.718 -14.57,-36.007 z m -20.56,0.238 c 0,19.07 6.93,35.512 20.94,49.219 13.88,13.671 30.6,20.562 50.12,20.562 19.31,0 35.88,-6.941 49.6,-20.769 13.89,-13.782 20.8,-30.434 20.8,-49.813 0,-19.488 -6.94,-36.027 -20.88,-49.66 -13.95,-13.629 -30.8,-20.461 -50.55,-20.461 -17.49,0 -33.21,6.094 -47.09,18.184 -15.37,13.418 -22.94,31.019 -22.94,52.738"
         style="fill:#1476c6;fill-opacity:1;fill-rule:nonzero;stroke:none"
         id="path38" /><path
         d="m 2375.84,606.781 0,-116.39 39.8,0 0,-19.262 -60.26,0 0,135.652 20.46,0"
         style="fill:#1476c6;fill-opacity:1;fill-rule:nonzero;stroke:none"
         id="path40" /><path
         d="m 2515.16,539.352 c 0,-14.954 5.07,-27.274 15.08,-36.981 9.99,-9.601 21.54,-14.441 34.65,-14.441 14.16,0 26.13,4.922 35.96,14.75 9.73,9.929 14.65,22.05 14.65,36.308 0,14.473 -4.85,26.614 -14.5,36.371 -9.6,9.86 -21.46,14.75 -35.6,14.75 -14.05,0 -25.94,-4.89 -35.67,-14.75 -9.71,-9.711 -14.57,-21.718 -14.57,-36.007 z m -20.59,0.238 c 0,19.07 6.96,35.512 20.98,49.219 13.87,13.671 30.59,20.562 50.11,20.562 19.31,0 35.82,-6.941 49.68,-20.769 13.8,-13.782 20.74,-30.434 20.74,-49.813 0,-19.488 -6.96,-36.027 -20.87,-49.66 -13.98,-13.629 -30.83,-20.461 -50.6,-20.461 -17.46,0 -33.18,6.094 -47.09,18.184 -15.29,13.418 -22.95,31.019 -22.95,52.738"
         style="fill:#1476c6;fill-opacity:1;fill-rule:nonzero;stroke:none"
         id="path42" /><path
         d="m 2803.23,541.762 55.89,0 0,-4.461 c 0,-10.192 -1.21,-19.211 -3.56,-27.09 -2.36,-7.242 -6.33,-14.031 -11.86,-20.391 -12.58,-14.129 -28.55,-21.23 -47.97,-21.23 -18.92,0 -35.1,6.871 -48.63,20.539 -13.53,13.781 -20.22,30.301 -20.22,49.562 0,19.707 6.83,36.411 20.55,50.118 13.73,13.75 30.45,20.609 50.17,20.609 10.6,0 20.41,-2.148 29.61,-6.449 8.79,-4.328 17.36,-11.348 25.89,-21.028 l -14.55,-13.961 c -11.11,14.809 -24.6,22.231 -40.59,22.231 -14.37,0 -26.33,-4.973 -36.06,-14.883 -9.7,-9.726 -14.55,-21.898 -14.55,-36.539 0,-15.109 5.43,-27.578 16.19,-37.34 10.14,-9.09 21.11,-13.621 32.91,-13.621 10.06,0 19.08,3.383 27.07,10.16 8.04,6.84 12.48,15.032 13.41,24.543 l -33.7,0 0,19.231"
         style="fill:#1476c6;fill-opacity:1;fill-rule:nonzero;stroke:none"
         id="path44" /><path
         d="m 2979.5,529.75 -44.17,77.031 23.51,0 30.96,-54.211 31.04,54.211 23.51,0 -44.39,-77.031 0,-58.621 -20.46,0 0,58.621"
         style="fill:#1476c6;fill-opacity:1;fill-rule:nonzero;stroke:none"
         id="path46" /><path
         d="m 3335.55,586.711 -16.59,-9.871 c -3.13,5.398 -6.05,8.922 -8.84,10.558 -2.92,1.864 -6.71,2.813 -11.32,2.813 -5.64,0 -10.4,-1.609 -14.11,-4.859 -3.74,-3.161 -5.61,-7.122 -5.61,-11.942 0,-6.66 4.92,-11.961 14.75,-16 l 13.49,-5.539 c 10.97,-4.5 18.99,-9.883 24.11,-16.34 5.09,-6.422 7.63,-14.25 7.63,-23.582 0,-12.5 -4.2,-22.82 -12.42,-30.961 -8.38,-8.199 -18.77,-12.32 -31.14,-12.32 -11.79,0 -21.47,3.531 -29.15,10.504 -7.52,7.019 -12.21,16.816 -14.1,29.476 l 20.68,4.582 c 0.93,-7.96 2.57,-13.5 4.92,-16.539 4.18,-5.863 10.32,-8.761 18.42,-8.761 6.35,0 11.62,2.129 15.9,6.398 4.2,4.25 6.27,9.684 6.27,16.211 0,2.691 -0.38,5.102 -1.08,7.281 -0.79,2.2 -1.89,4.2 -3.45,6.059 -1.57,1.82 -3.54,3.57 -6.02,5.152 -2.4,1.637 -5.38,3.149 -8.71,4.61 l -13.16,5.461 c -18.44,7.828 -27.74,19.328 -27.74,34.41 0,10.226 3.87,18.718 11.68,25.59 7.79,6.878 17.44,10.316 29.02,10.316 15.59,0 27.82,-7.578 36.57,-22.707"
         style="fill:#1476c6;fill-opacity:1;fill-rule:nonzero;stroke:none"
         id="path48" /><path
         d="m 3449.38,539.352 c 0,-14.954 4.98,-27.274 15.03,-36.981 10.04,-9.601 21.55,-14.441 34.68,-14.441 14.19,0 26.22,4.922 35.9,14.75 9.79,9.929 14.68,22.05 14.68,36.308 0,14.473 -4.79,26.614 -14.47,36.371 -9.6,9.86 -21.43,14.75 -35.57,14.75 -14.11,0 -26,-4.89 -35.7,-14.75 -9.71,-9.711 -14.55,-21.718 -14.55,-36.007 z m -20.64,0.238 c 0,19.07 6.99,35.512 20.98,49.219 13.87,13.671 30.62,20.562 50.16,20.562 19.31,0 35.83,-6.941 49.63,-20.769 13.86,-13.782 20.77,-30.434 20.77,-49.813 0,-19.488 -6.96,-36.027 -20.87,-49.66 -13.96,-13.629 -30.84,-20.461 -50.6,-20.461 -17.46,0 -33.17,6.094 -47.09,18.184 -15.32,13.418 -22.98,31.019 -22.98,52.738"
         style="fill:#1476c6;fill-opacity:1;fill-rule:nonzero;stroke:none"
         id="path50" /><path
         d="m 3688.21,606.781 0,-116.39 39.86,0 0,-19.262 -60.27,0 0,135.652 20.41,0"
         style="fill:#1476c6;fill-opacity:1;fill-rule:nonzero;stroke:none"
         id="path52" /><path
         d="m 3835.55,606.781 0,-81.64 c 0,-11.629 1.89,-20.153 5.68,-25.532 5.68,-7.82 13.65,-11.679 23.95,-11.679 10.31,0 18.34,3.859 24.04,11.679 3.79,5.219 5.66,13.731 5.66,25.532 l 0,81.64 20.43,0 0,-87.332 c 0,-14.289 -4.45,-26.058 -13.31,-35.308 -9.99,-10.321 -22.28,-15.473 -36.82,-15.473 -14.57,0 -26.82,5.152 -36.73,15.473 -8.91,9.25 -13.37,21.019 -13.37,35.308 l 0,87.332 20.47,0"
         style="fill:#1476c6;fill-opacity:1;fill-rule:nonzero;stroke:none"
         id="path54" /><path
         d="m 4056.96,587.551 0,-116.422 -20.46,0 0,116.422 -31.12,0 0,19.23 82.59,0 0,-19.23 -31.01,0"
         style="fill:#1476c6;fill-opacity:1;fill-rule:nonzero;stroke:none"
         id="path56" /><path
         d="m 4178.05,471.129 20.4102,0 0,135.652 -20.4102,0 0,-135.652 z"
         style="fill:#1476c6;fill-opacity:1;fill-rule:nonzero;stroke:none"
         id="path58" /><path
         d="m 4316.66,539.352 c 0,-14.954 5.05,-27.274 15.09,-36.981 9.99,-9.601 21.48,-14.441 34.62,-14.441 14.22,0 26.17,4.922 35.98,14.75 9.74,9.929 14.6,22.05 14.6,36.308 0,14.473 -4.79,26.614 -14.45,36.371 -9.63,9.86 -21.43,14.75 -35.62,14.75 -14.06,0 -25.96,-4.89 -35.67,-14.75 -9.68,-9.711 -14.55,-21.718 -14.55,-36.007 z m -20.62,0.238 c 0,19.07 7,35.512 20.95,49.219 13.94,13.671 30.69,20.562 50.18,20.562 19.28,0 35.85,-6.941 49.63,-20.769 13.84,-13.782 20.74,-30.434 20.74,-49.813 0,-19.488 -6.93,-36.027 -20.82,-49.66 -14.01,-13.629 -30.86,-20.461 -50.61,-20.461 -17.49,0 -33.18,6.094 -47.07,18.184 -15.33,13.418 -23,31.019 -23,52.738"
         style="fill:#1476c6;fill-opacity:1;fill-rule:nonzero;stroke:none"
         id="path60" /><path
         d="m 4535.09,471.129 0,144.891 98.8,-103.5 0,94.261 20.36,0 0,-143.89 -98.7,103.218 0,-94.98 -20.46,0"
         style="fill:#1476c6;fill-opacity:1;fill-rule:nonzero;stroke:none"
         id="path62" /><path
         d="m 4835.07,586.711 -16.59,-9.871 c -3.1,5.398 -6.02,8.922 -8.84,10.558 -2.94,1.864 -6.73,2.813 -11.34,2.813 -5.66,0 -10.35,-1.609 -14.09,-4.859 -3.76,-3.161 -5.61,-7.122 -5.61,-11.942 0,-6.66 4.9,-11.961 14.73,-16 l 13.47,-5.539 c 11.01,-4.5 19.05,-9.883 24.1,-16.34 5.1,-6.422 7.61,-14.25 7.61,-23.582 0,-12.5 -4.08,-22.82 -12.4,-30.961 -8.3,-8.199 -18.75,-12.32 -31.12,-12.32 -11.75,0 -21.48,3.531 -29.14,10.504 -7.53,7.019 -12.24,16.816 -14.11,29.476 l 20.69,4.582 c 0.97,-7.96 2.59,-13.5 4.94,-16.539 4.2,-5.863 10.33,-8.761 18.41,-8.761 6.36,0 11.66,2.129 15.88,6.398 4.2,4.25 6.28,9.684 6.28,16.211 0,2.691 -0.36,5.102 -1.03,7.281 -0.79,2.2 -1.94,4.2 -3.5,6.059 -1.53,1.82 -3.51,3.57 -5.97,5.152 -2.48,1.637 -5.38,3.149 -8.76,4.61 l -13.05,5.461 c -18.58,7.828 -27.82,19.328 -27.82,34.41 0,10.226 3.89,18.718 11.65,25.59 7.76,6.878 17.49,10.316 28.99,10.316 15.65,0 27.81,-7.578 36.62,-22.707"
         style="fill:#1476c6;fill-opacity:1;fill-rule:nonzero;stroke:none"
         id="path64" /><path
         d="m 577.539,1554.66 c 0,0 977.321,572.75 2228.031,8.32 0,0 -1068.5,771.94 -2228.031,-8.32 z M 1370.7,1504.23 961.238,480.48 l -227.019,0 114.929,298.032 114.934,276.508 162.368,449.21 244.25,0"
         style="fill:#1476c6;fill-opacity:1;fill-rule:nonzero;stroke:none"
         id="path66" /><path
         d="m 2031.93,253.18 -34.63,-107.481 68.94,0 -34.31,107.481 z m 63.06,-194.0511 -22.54,65.3401 -82.99,0 -19.92,-65.3401 -23.52,0 72.52,224.1091 32.35,0 72.85,-224.1091 -28.75,0"
         style="fill:#666a6f;fill-opacity:1;fill-rule:nonzero;stroke:none"
         id="path68" /><path
         d="m 2250.15,59.1289 0,224.1091 137.21,0 0,-24.179 -109.11,0 0,-71.207 90.49,0 0,-22.551 -90.49,0 0,-106.1721 -28.1,0"
         style="fill:#666a6f;fill-opacity:1;fill-rule:nonzero;stroke:none"
         id="path70" /><path
         d="m 2499.41,100.941 c 6.87,13.071 8.17,28.098 8.17,42.469 0,15.692 -1.95,32.02 -10.45,45.41 -7.84,12.09 -21.56,19.602 -35.94,19.602 -16,0 -30.38,-9.152 -37.57,-23.524 -6.21,-12.078 -8.16,-28.097 -8.16,-41.488 0,-15.019 2.28,-32.34 9.47,-45.41 7.19,-12.7383 21.23,-20.8984 36.26,-20.8984 16.99,0 30.38,8.8086 38.22,23.8394 z m -112.38,42.469 c 0,46.07 26.13,85.918 76.12,85.918 48.68,0 72.86,-42.469 72.86,-86.25 0,-46.3788 -26.79,-87.2186 -77.1,-87.2186 -49.66,0 -71.88,43.7812 -71.88,87.5506"
         style="fill:#666a6f;fill-opacity:1;fill-rule:nonzero;stroke:none"
         id="path72" /><path
         d="m 2596.76,225.078 0,-38.867 0.65,0 c 7.84,22.551 21.9,43.449 48.68,43.449 l 9.48,-0.648 0,-24.5 -5.23,0 c -19.61,0 -33.33,-9.473 -42.8,-26.141 -6.86,-12.082 -8.16,-22.543 -8.16,-35.609 l 0,-83.6331 -25.48,0 0,165.9491 22.86,0"
         style="fill:#666a6f;fill-opacity:1;fill-rule:nonzero;stroke:none"
         id="path74" /><path
         d="m 2694.43,108.129 c 3.6,-22.5392 30.05,-31.0274 49.98,-31.0274 17.64,0 40.19,6.207 40.19,27.4374 0,17.633 -17.97,22.539 -32.34,25.152 l -27.12,4.911 c -25.48,4.886 -48.68,16.66 -48.68,46.058 0,34.301 31.69,48.668 62.08,48.668 29.72,0 57.49,-11.098 65.66,-41.808 l -23.53,-4.911 c -6.53,18.301 -23.51,26.153 -42.47,26.153 -15.03,0 -35.28,-5.891 -35.28,-24.184 0,-17.969 15.03,-21.887 29.74,-24.18 l 24.17,-4.238 c 12.09,-2.301 24.5,-4.582 34.63,-11.441 13.06,-8.821 19.93,-22.547 19.93,-37.571 0,-37.5582 -36.6,-51.2886 -68.94,-51.2886 -32.34,0 -64.35,13.3906 -72.85,47.3706 l 24.83,4.899"
         style="fill:#666a6f;fill-opacity:1;fill-rule:nonzero;stroke:none"
         id="path76" /><path
         d="M 2900.23,43.4414 C 2895.66,31.3516 2892.07,22.2109 2883.25,12.7383 2873.13,1.96094 2864.31,0 2849.6,0 c -6.53,0 -12.73,1.30859 -18.95,2.94141 l 0,20.57809 c 5.56,-1.3086 11.44,-2.289 16.99,-2.289 25.81,0 30.39,21.2383 37.24,40.8398 l -57.5,163.0077 26.47,0 44.43,-124.789 45.41,124.789 21.56,0 -65.02,-181.6366"
         style="fill:#666a6f;fill-opacity:1;fill-rule:nonzero;stroke:none"
         id="path78" /><path
         d="m 3065.54,57.8203 -24.5,-1.9609 c -36.26,0 -47.05,21.2422 -47.05,54.2306 l 0,96.051 -29.4,0 0,20.25 29.4,0 0,41.168 25.48,2.613 0,-43.781 36.93,0 0,-20.25 -36.93,0 0,-100.289 c 0,-19.2817 5.56,-29.4106 26.47,-29.4106 l 19.6,1.6289 0,-20.25"
         style="fill:#666a6f;fill-opacity:1;fill-rule:nonzero;stroke:none"
         id="path80" /><path
         d="m 3196.21,59.1289 0,96.6991 c 0,10.121 0,23.192 -3.59,32.992 -4.58,12.418 -16.34,19.602 -29.74,19.602 -13.07,0 -25.48,-7.844 -33.64,-17.633 -11.44,-13.719 -12.75,-29.078 -12.75,-46.398 l 0,-85.2621 -25.47,0 0,224.1091 25.47,0 0,-88.859 0.98,0 c 10.46,22.211 25.81,34.949 51.62,34.949 17.64,0 34.31,-8.16 43.78,-23.187 10.13,-16.34 8.82,-32.02 8.82,-50.313 l 0,-96.6991 -25.48,0"
         style="fill:#666a6f;fill-opacity:1;fill-rule:nonzero;stroke:none"
         id="path82" /><path
         d="m 3377.84,159.102 c 0.32,27.437 -15.03,50.628 -44.43,50.628 -27.77,0 -45.73,-24.5 -46.72,-50.628 l 91.15,0 z m 25.48,-54.563 c -9.79,-30.3788 -38.88,-48.6796 -70.57,-48.6796 -50.3,0 -76.11,39.8594 -76.11,86.2496 0,45.743 27.11,87.219 76.77,87.219 51.62,0 73.84,-43.117 72.53,-89.187 l -120.55,0 c 0,-13.063 0.65,-25.153 6.86,-37.571 7.84,-15.6716 25.15,-25.152 42.47,-25.152 21.56,0 37.24,12.4218 44.43,32.023 l 24.17,-4.902"
         style="fill:#666a6f;fill-opacity:1;fill-rule:nonzero;stroke:none"
         id="path84" /><path
         d="m 3706.82,129.039 c -10.46,-42.4687 -35.62,-73.1796 -82.99,-73.1796 -64.68,0 -91.14,62.4026 -91.14,117.6096 0,57.832 28.41,113.031 93.43,113.031 45.08,0 71.55,-30.379 80.7,-71.539 l -26.47,-4.902 c -7.84,28.421 -21.89,52.921 -55.21,52.921 -48.68,0 -61.74,-52.921 -61.74,-91.8 0,-17.641 2.94,-39.52 10.45,-55.86 9.15,-19.9294 26.46,-35.9411 49.98,-35.9411 34.3,0 50.31,25.8121 57.5,55.2231 l 25.49,-5.563"
         style="fill:#666a6f;fill-opacity:1;fill-rule:nonzero;stroke:none"
         id="path86" /><path
         d="m 3846.95,100.941 c 6.87,13.071 8.17,28.098 8.17,42.469 0,15.692 -1.96,32.02 -10.45,45.41 -7.84,12.09 -21.56,19.602 -35.94,19.602 -16.01,0 -30.38,-9.152 -37.57,-23.524 -6.21,-12.078 -8.16,-28.097 -8.16,-41.488 0,-15.019 2.28,-32.34 9.47,-45.41 7.19,-12.7383 21.23,-20.8984 36.26,-20.8984 16.99,0 30.38,8.8086 38.22,23.8394 z m -112.38,42.469 c 0,46.07 26.13,85.918 76.12,85.918 48.68,0 72.85,-42.469 72.85,-86.25 0,-46.3788 -26.78,-87.2186 -77.09,-87.2186 -49.66,0 -71.88,43.7812 -71.88,87.5506"
         style="fill:#666a6f;fill-opacity:1;fill-rule:nonzero;stroke:none"
         id="path88" /><path
         d="m 3943.32,225.078 0,-32.008 0.65,0 c 8.5,19.918 26.47,36.258 49.66,36.258 24.17,0 41.49,-16.34 46.72,-39.527 9.14,22.871 28.1,39.527 53.58,39.527 16.98,0 33.32,-9.469 41.81,-23.848 8.17,-13.718 7.84,-32.011 7.84,-47.371 l 0,-98.9801 -25.48,0 0,98.9801 c 0,11.121 0.65,22.871 -4.57,33 -5.56,10.782 -16.34,17.313 -27.77,17.313 -12.74,0 -24.5,-7.844 -32.02,-18.621 -9.47,-13.391 -9.15,-25.481 -9.15,-41.16 l 0,-89.5121 -25.48,0 0,105.1911 c 0,9.149 -0.65,19.93 -5.56,28.098 -5.87,9.793 -16.66,16.004 -27.76,16.004 -11.43,0 -23.19,-7.512 -30.06,-16.332 -8.49,-10.781 -10.12,-24.168 -10.12,-37.891 l 0,-95.0701 -25.48,0 0,165.9491 23.19,0"
         style="fill:#666a6f;fill-opacity:1;fill-rule:nonzero;stroke:none"
         id="path90" /><path
         d="m 4213.81,124.141 c 0,-22.871 20.25,-46.723 43.77,-46.723 14.05,0 27.12,8.4922 33.98,20.2539 7.51,12.7501 8.82,30.0581 8.82,44.7691 0,27.11 -8.5,64.348 -42.8,64.348 -22.54,0 -39.2,-19.93 -43.77,-40.5 l 0,-42.148 z m 0,-119.24256 -25.49,0 0,220.17956 23.2,0 0,-32.008 0.65,0 c 8.49,21.891 26.46,36.258 51.3,36.258 46.38,0 65.66,-46.058 65.66,-85.918 0,-18.941 -3.59,-39.851 -13.4,-56.5116 -11.43,-18.2968 -29.72,-31.039 -52.26,-31.039 -22.87,0 -38.23,10.4609 -49.66,29.4023 l 0,-80.36326"
         style="fill:#666a6f;fill-opacity:1;fill-rule:nonzero;stroke:none"
         id="path92" /><path
         d="m 4473.19,142.762 -21.24,0 c -26.13,0 -67.29,-3.59 -67.29,-37.903 0,-20.5777 17.63,-29.0699 35.94,-29.0699 31.35,0 52.59,26.7809 52.59,56.1909 l 0,10.782 z m 0,19.277 0,7.191 c 0,29.071 -12.74,40.168 -42.15,40.168 -20.9,0 -40.83,-6.527 -45.41,-29.386 l -23.84,3.91 c 4.58,34.629 41.16,45.406 71.54,45.406 17.97,0 38.55,-1.957 50.97,-16.34 13.72,-14.687 13.72,-35.597 13.72,-54.547 l 0,-64.3629 c 0,-12.0781 0.33,-24.1679 3.59,-34.9492 l -25.48,0 -2.94,31.0313 c -11.76,-23.8399 -31.69,-34.3008 -58.15,-34.3008 -31.04,0 -57.82,17.3086 -57.82,50.3086 0,19.934 12.41,37.902 30.71,46.062 18.61,8.821 43.11,9.809 63.7,9.809 l 21.56,0"
         style="fill:#666a6f;fill-opacity:1;fill-rule:nonzero;stroke:none"
         id="path94" /><path
         d="m 4562.37,194.379 0.66,0 c 9.47,20.582 28.09,34.949 51.61,34.949 19.93,0 36.59,-8.488 47.05,-25.808 8.49,-14.04 7.83,-36.258 7.83,-52.598 l 0,-91.7931 -25.48,0 0,102.5821 c 0,9.801 0.34,22.211 -4.57,30.707 -5.55,9.473 -17.64,15.031 -28.43,15.031 -13.38,0 -25.47,-6.211 -34.29,-16.66 -10.78,-13.078 -13.07,-28.098 -13.07,-44.758 l 0,-86.9021 -25.49,0 0,165.9491 24.18,0 0,-30.699"
         style="fill:#666a6f;fill-opacity:1;fill-rule:nonzero;stroke:none"
         id="path96" /><path
         d="M 4759.69,43.4414 C 4755.12,31.3516 4751.52,22.2109 4742.71,12.7383 4732.58,1.96094 4723.76,0 4709.05,0 c -6.53,0 -12.73,1.30859 -18.94,2.94141 l 0,20.57809 c 5.55,-1.3086 11.43,-2.289 16.98,-2.289 25.81,0 30.39,21.2383 37.25,40.8398 l -57.5,163.0077 26.46,0 44.43,-124.789 45.41,124.789 21.57,0 -65.02,-181.6366"
         style="fill:#666a6f;fill-opacity:1;fill-rule:nonzero;stroke:none"
         id="path98" /></g></g></svg>